<?xml version="1.0" standalone="no"?>
<!DOCTYPE svg PUBLIC "-//W3C//DTD SVG 1.1//EN" "http://www.w3.org/Graphics/SVG/1.1/DTD/svg11.dtd" >
<svg xmlns="http://www.w3.org/2000/svg">
<metadata>
Created by FontPrep 20130207 at Mon Jan 18 17:20:08 2016
 By Rafael Gomes
(c) 1988, 1990, 1994, 2002 Adobe Systems Incorporated. All rights reserved.
</metadata>
<defs>
<font id="51efdb7670e30fa7b02572ed1d807c20" horiz-adv-x='1024' >
  <font-face
    font-family="FrutigerLTStd-Roman"
    font-weight="400"
    font-stretch="normal"
    units-per-em="2048"
    panose-1="2 11 6 2 2 2 4 2 2 4"
    ascent="1536"
    descent="-512"
    x-height="1044"
    cap-height="1430"
    bbox="-346 -512 2048 1915.02"
    underline-thickness="102"
    underline-position="-102"
    unicode-range="U+0020-FB02"
  />
<missing-glyph horiz-adv-x="1024"
d="M102 1239v-1044l349 522zM164 102h696l-348 523zM573 717l349 -522v1044zM512 809l348 522h-696zM0 0v1434h1024v-1434h-1024z" />
    <glyph glyph-name="f_i" unicode="fi" horiz-adv-x="1366"
d="M985 0v1044h193v-1044h-193zM1190 1495v-217h-217v217h217zM289 0v889h-246v155h246v97q0 209 75 314t275 106q51 0 129 -13l-8 -155q-35 12 -92 12q-115 -1 -151 -63t-36 -185v-113h277v-155h-277v-889h-192z" />
    <glyph glyph-name="f_l" unicode="fl" horiz-adv-x="1366"
d="M985 0v1536h193v-1536h-193zM289 0v889h-246v155h246v97q0 209 75 314t275 106q51 0 129 -13l-8 -155q-35 12 -92 12q-115 -1 -151 -63t-36 -185v-113h277v-155h-277v-889h-192z" />
    <glyph glyph-name=".notdef" horiz-adv-x="1024"
d="M102 1239v-1044l349 522zM164 102h696l-348 523zM573 717l349 -522v1044zM512 809l348 522h-696zM0 0v1434h1024v-1434h-1024z" />
    <glyph glyph-name=".null" horiz-adv-x="0"
 />
    <glyph glyph-name="nonmarkingreturn" horiz-adv-x="681"
 />
    <glyph glyph-name="space" unicode=" " horiz-adv-x="569"
 />
    <glyph glyph-name="exclam" unicode="!" horiz-adv-x="796"
d="M285 0v229h229v-229h-229zM514 1430l-27 -1029h-176l-26 1029h229z" />
    <glyph glyph-name="quotedbl" unicode="&#x22;"
d="M326 928v502h180v-502h-180zM633 928v502h180v-502h-180z" />
    <glyph glyph-name="numbersign" unicode="#"
d="M672 582l37 266h-242l-37 -266h242zM57 426v156h217l37 266h-196v156h219l59 426h156l-60 -426h242l60 426h155l-59 -426h194v-156h-217l-37 -266h195v-156h-217l-60 -426h-155l59 426h-241l-60 -426h-155l59 426h-195z" />
    <glyph glyph-name="dollar" unicode="$"
d="M506 -217v192h-25q-168 0 -311 60l25 196q109 -76 282 -75h29v497l-70 35q-135 68 -209 154q-73 86 -73 230t100 247q100 102 252 127v205h119v-197q156 -4 293 -51l-29 -189q-100 59 -244 60h-20v-445l118 -65q123 -68 183 -150t59 -230q0 -148 -98 -260
q-98 -110 -262 -136v-205h-119zM768 391q0 74 -36 120t-107 83v-416q63 20 103 80t40 133zM506 891v366q-70 -25 -103 -69t-32 -117q0 -96 135 -180z" />
    <glyph glyph-name="percent" unicode="%" horiz-adv-x="2048"
d="M506 -45l887 1520h147l-887 -1520h-147zM1516 -25q-164 0 -236 117t-72 299t68 293t240 111q307 0 307 -410q1 -176 -71 -293t-236 -117zM1516 119q127 0 126 266v14q0 185 -53 229q-29 24 -73 24q-89 -1 -112 -104q-15 -68 -15 -163q0 -266 127 -266zM532 778
q127 0 127 266v15q0 186 -53 228q-29 24 -74 24q-88 0 -111 -104q-15 -68 -15 -163q-1 -266 126 -266zM532 635q-164 0 -236 117q-72 116 -71 298q0 182 68 293t239 111q307 0 308 -410q0 -176 -72 -292t-236 -117z" />
    <glyph glyph-name="ampersand" unicode="&#x26;" horiz-adv-x="1478"
d="M535 1107q0 -95 127 -235q84 39 150 104t65 146q0 176 -170 176q-74 0 -123 -48t-49 -143zM387 389q0 -115 83 -187t198 -71q143 0 264 137l-344 404q-68 -45 -104 -76t-66 -86t-31 -121zM631 -25q-211 0 -336 110t-125 290q0 289 319 418q-71 85 -109 159t-38 166
q0 164 104 250t262 86t260 -82q101 -82 101 -242q0 -125 -90 -219t-223 -153l291 -332q74 117 88 346h192q-12 -160 -53 -272t-111 -217l250 -283h-256l-117 139q-143 -164 -409 -164z" />
    <glyph glyph-name="quotesingle" unicode="'" horiz-adv-x="569"
d="M195 928v502h180v-502h-180z" />
    <glyph glyph-name="parenleft" unicode="(" horiz-adv-x="681"
d="M133 632q0 240 86 452t250 464h184q-151 -266 -233 -481t-82 -438t84 -445t231 -471h-184q-160 238 -248 459t-88 460z" />
    <glyph glyph-name="parenright" unicode=")" horiz-adv-x="681"
d="M549 630q0 -239 -86 -452t-250 -465h-184q151 265 233 481t82 439t-84 444t-231 471h184q160 -238 248 -458t88 -460z" />
    <glyph glyph-name="asterisk" unicode="*"
d="M735 635l-166 283l-168 -283l-151 102l225 252l-328 68l58 174l309 -127l-33 326h187l-31 -326l299 127l55 -174l-321 -68l219 -252z" />
    <glyph glyph-name="plus" unicode="+" horiz-adv-x="1228"
d="M96 428v180h428v428h181v-428h428v-180h-428v-428h-181v428h-428z" />
    <glyph glyph-name="comma" unicode="," horiz-adv-x="569"
d="M41 -272l129 501h229l-174 -501h-184z" />
    <glyph glyph-name="hyphen" unicode="-" horiz-adv-x="681"
d="M78 473v156h526v-156h-526z" />
    <glyph glyph-name="period" unicode="." horiz-adv-x="569"
d="M170 0v229h229v-229h-229z" />
    <glyph glyph-name="slash" unicode="/" horiz-adv-x="569"
d="M-51 -25l491 1479h181l-492 -1479h-180z" />
    <glyph glyph-name="zero" unicode="0"
d="M301 758q0 -611 268 -615q262 0 269 572q0 166 -45 350q-25 97 -83 159t-140 62t-141 -61q-58 -61 -83 -159q-45 -176 -45 -308zM84 715q0 270 93 484q51 115 151 185t241 70t241 -70q169 -118 223 -419q22 -119 22 -250q0 -265 -93 -485q-50 -116 -150 -186t-242 -69
q-374 0 -465 490q-21 119 -21 250z" />
    <glyph glyph-name="one" unicode="1"
d="M551 0v1194l-219 -188l-109 137l350 287h183v-1430h-205z" />
    <glyph glyph-name="two" unicode="2"
d="M102 0v219q283 253 397 364q114 112 162 187q109 170 109 278q0 109 -79 174t-195 64q-162 0 -328 -92l-21 176q195 84 387 84t322 -106q131 -106 131 -288t-156 -377t-338 -362q-45 -41 -97 -87t-74 -66h686v-168h-906z" />
    <glyph glyph-name="three" unicode="3"
d="M297 659v168h115q84 1 158 19t136 74q60 56 60 156t-79 155t-221 55t-298 -78l-12 183q172 63 366 63t328 -98q133 -98 133 -291q0 -129 -88 -215t-219 -111v-4q150 -31 234 -119t85 -235q0 -406 -563 -406q-141 0 -328 56l13 190q156 -78 303 -78q146 -1 252 59t106 185
q0 272 -356 272h-125z" />
    <glyph glyph-name="four" unicode="4"
d="M705 0v326h-666v168l577 936h293v-936h181v-168h-181v-326h-204zM705 494v768h-5l-446 -768h451z" />
    <glyph glyph-name="five" unicode="5"
d="M979 1430v-168h-594l-12 -383q78 20 184 20q191 0 327 -127t136 -315q0 -225 -157 -353t-390 -129q-176 0 -307 48l6 192q128 -72 280 -72t251 76t99 215t-96 218q-97 79 -250 79t-276 -53l13 752h786z" />
    <glyph glyph-name="six" unicode="6"
d="M829 437q0 118 -63 206t-181 88t-190 -81q-71 -81 -71 -200q0 -118 68 -212t186 -94q120 0 186 87q65 88 65 206zM698 1286q-190 0 -292 -150t-107 -370l4 2q133 131 325 131t305 -126q114 -125 114 -333t-129 -336t-330 -129q-481 0 -482 687q0 316 119 539
q63 117 181 185t280 68q74 0 165 -14t130 -31l-29 -182q-113 59 -254 59z" />
    <glyph glyph-name="seven" unicode="7"
d="M1006 1430v-168l-529 -1262h-225l545 1262h-697v168h906z" />
    <glyph glyph-name="eight" unicode="8"
d="M563 1286q-88 0 -167 -56t-79 -136q0 -81 69 -137t226 -134q119 91 154 147t35 142t-75 130t-163 44zM580 143q110 0 186 61t79 158t-43 158q-37 54 -194 122q-51 22 -76 34q-20 -14 -84 -55t-98 -76q-55 -58 -55 -165q0 -106 87 -172q88 -66 198 -65zM1061 385
q1 -205 -139 -307t-347 -103q-207 1 -352 107t-145 293q0 137 83 233t220 144v4q-268 94 -268 356q0 142 126 242q125 100 331 100t327 -97t121 -222t-58 -210t-200 -161q135 -47 218 -144t83 -235z" />
    <glyph glyph-name="nine" unicode="9"
d="M560 1286q-120 0 -186 -88t-65 -206q-1 -118 63 -206t182 -88t190 81t71 200q0 119 -67 213q-68 94 -188 94zM92 990q0 208 129 336t330 128q481 0 481 -686q0 -321 -119 -540q-63 -118 -181 -186t-279 -67q-74 1 -165 15t-130 30l28 183q113 -59 254 -60q190 0 293 150
q102 150 107 371l-4 -2q-133 -132 -325 -132q-191 0 -305 126t-114 334z" />
    <glyph glyph-name="colon" unicode=":" horiz-adv-x="569"
d="M170 0v229h229v-229h-229zM399 1044v-229h-229v229h229z" />
    <glyph glyph-name="semicolon" unicode=";" horiz-adv-x="569"
d="M399 1044v-229h-229v229h229zM41 -272l129 501h229l-174 -501h-184z" />
    <glyph glyph-name="less" unicode="&#x3c;" horiz-adv-x="1228"
d="M1135 1053v-181l-807 -354l807 -354v-180l-1041 456v156z" />
    <glyph glyph-name="equal" unicode="=" horiz-adv-x="1228"
d="M96 213v180h1037v-180h-1037zM96 643v180h1037v-180h-1037z" />
    <glyph glyph-name="greater" unicode="&#x3e;" horiz-adv-x="1228"
d="M94 -16v180l807 354l-807 354v181l1041 -457v-156z" />
    <glyph glyph-name="question" unicode="?" horiz-adv-x="1024"
d="M399 0v229h230v-229h-230zM418 401v43q0 96 26 158t101 148q32 32 84 99q88 113 88 216q0 105 -72 157t-176 52q-190 0 -303 -82l-14 194q156 68 338 68t313 -99t131 -274q0 -96 -41 -175t-125 -176q-84 -96 -121 -152t-37 -140v-37h-192z" />
    <glyph glyph-name="at" unicode="@" horiz-adv-x="1638"
d="M1143 432q92 0 171 116t79 267q0 231 -155 363q-156 132 -400 133q-244 0 -406 -172q-162 -171 -162 -441t166 -425t434 -154q129 0 247 49t198 133h155q-100 -154 -261 -240t-347 -86q-328 0 -544 199t-216 534q0 334 217 540t515 206t500 -172t202 -436
q0 -137 -53 -252q-53 -114 -132 -180q-166 -138 -300 -138q-49 0 -83 30t-36 85h-4q-110 -115 -230 -115t-208 96t-89 232q0 203 124 359t317 155q150 0 233 -135l31 107h154l-138 -521q-38 -137 21 -137zM750 444q106 0 184 109t78 225q0 74 -46 123t-112 49
q-115 0 -194 -102q-78 -102 -78 -200t45 -152q45 -52 123 -52z" />
    <glyph glyph-name="A" unicode="A" horiz-adv-x="1478"
d="M1020 528l-285 709l-284 -709h569zM25 0l610 1430h215l604 -1430h-223l-146 360h-700l-145 -360h-215z" />
    <glyph glyph-name="B" unicode="B" horiz-adv-x="1251"
d="M375 1262v-443h112q163 0 237 29t102 77t28 124q0 115 -78 163t-186 50h-215zM375 651v-483h153q104 0 175 16t123 70t52 139q0 86 -31 138q-74 120 -339 120h-133zM170 0v1430h387q502 0 502 -361q0 -266 -295 -340v-4q150 -12 241 -104q91 -91 91 -221t-43 -208
q-107 -193 -502 -192h-381z" />
    <glyph glyph-name="C" unicode="C" horiz-adv-x="1251"
d="M874 1274q-246 0 -398 -158t-150 -404q0 -246 156 -401q156 -156 382 -155q195 0 312 69l12 -198q-123 -51 -326 -52q-340 0 -547 203t-207 537q0 335 214 537q213 202 542 202q183 0 322 -61l-17 -199q-135 80 -295 80z" />
    <glyph glyph-name="D" unicode="D" horiz-adv-x="1478"
d="M375 1249v-1069h215q547 0 547 539q1 244 -147 387t-376 143h-239zM170 0v1430h422q328 0 545 -190t217 -529t-202 -525t-560 -186h-422z" />
    <glyph glyph-name="E" unicode="E"
d="M193 0v1430h800v-181h-596v-418h543v-180h-543v-471h596v-180h-800z" />
    <glyph glyph-name="F" unicode="F" horiz-adv-x="1024"
d="M170 0v1430h760v-181h-555v-418h530v-180h-530v-651h-205z" />
    <glyph glyph-name="G" unicode="G" horiz-adv-x="1478"
d="M874 1274q-244 0 -396 -159t-152 -403t156 -401q156 -156 382 -155q106 0 230 24v434h-301v168h505v-743q-186 -63 -436 -64q-340 0 -547 203t-207 537q0 335 214 537q213 202 542 202q190 0 302 -33q44 -12 118 -39l-16 -206q-150 98 -394 98z" />
    <glyph glyph-name="H" unicode="H" horiz-adv-x="1478"
d="M193 0v1430h204v-599h684v599h205v-1430h-205v651h-684v-651h-204z" />
    <glyph glyph-name="I" unicode="I" horiz-adv-x="569"
d="M182 0v1430h205v-1430h-205z" />
    <glyph glyph-name="J" unicode="J" horiz-adv-x="796"
d="M172 156q131 0 182 70t52 208v996h204v-1061q0 -109 -34 -193t-126 -142t-218 -58t-189 24v176q57 -20 129 -20z" />
    <glyph glyph-name="K" unicode="K" horiz-adv-x="1366"
d="M193 0v1430h204v-629l611 629h272l-672 -676l725 -754h-299l-637 700v-700h-204z" />
    <glyph glyph-name="L" unicode="L" horiz-adv-x="1024"
d="M180 0v1430h205v-1250h598v-180h-803z" />
    <glyph glyph-name="M" unicode="M" horiz-adv-x="1933"
d="M184 0v1430h338l449 -1188l440 1188h338v-1430h-205v1237h-4l-473 -1237h-201l-473 1237h-4v-1237h-205z" />
    <glyph glyph-name="N" unicode="N" horiz-adv-x="1478"
d="M180 0v1430h279l631 -1151h4v1151h204v-1430h-262l-647 1176h-4v-1176h-205z" />
    <glyph glyph-name="O" unicode="O" horiz-adv-x="1593"
d="M109 712q0 330 184 536q183 206 503 206t504 -207t184 -535t-182 -533q-183 -204 -505 -204t-505 204t-183 533zM326 715q0 -233 119 -397q119 -162 351 -162t352 162t120 397q0 326 -210 479q-110 80 -262 80t-260 -80q-210 -153 -210 -479z" />
    <glyph glyph-name="P" unicode="P"
d="M170 0v1430h375q231 0 384 -96q152 -96 152 -325t-144 -333t-362 -105h-200v-571h-205zM375 1249v-497h203q114 0 200 61t86 191q0 84 -54 142q-98 105 -261 103h-174z" />
    <glyph glyph-name="Q" unicode="Q" horiz-adv-x="1593"
d="M797 -25q-322 0 -505 204t-183 533q0 330 184 536q183 206 503 206t504 -207t185 -532q-1 -242 -101 -419t-284 -259l332 -301h-254l-267 248l-55 -7q-18 -2 -59 -2zM326 715q0 -233 119 -397q119 -162 351 -162t352 162t120 397q0 326 -210 479q-110 80 -262 80
t-260 -80q-210 -153 -210 -479z" />
    <glyph glyph-name="R" unicode="R" horiz-adv-x="1251"
d="M375 1249v-434h174q145 0 227 59q82 58 82 160t-74 158t-213 57h-196zM170 0v1430h350q320 0 443 -103q112 -93 112 -299q0 -112 -83 -201q-83 -88 -212 -110v-4q47 -18 77 -48t63 -96l270 -569h-234l-219 496q-46 102 -105 122q-48 17 -134 17h-123v-635h-205z" />
    <glyph glyph-name="S" unicode="S" horiz-adv-x="1024"
d="M313 1083q0 -63 45 -113t114 -81q167 -75 297 -163q69 -46 114 -130t45 -195q0 -217 -146 -321t-376 -105q-111 0 -293 60l20 190q169 -69 285 -69t205 59q88 59 88 161q1 102 -63 162t-154 101t-180 87t-154 131q-63 85 -64 208q0 185 129 287t309 102t326 -51l-29 -189
q-285 111 -444 16q-74 -44 -74 -147z" />
    <glyph glyph-name="T" unicode="T"
d="M467 0v1249h-444v181h1093v-181h-444v-1249h-205z" />
    <glyph glyph-name="U" unicode="U" horiz-adv-x="1478"
d="M1294 1430v-838q0 -299 -144 -458t-410 -159t-411 159q-144 159 -145 458v838h205v-812q0 -463 350 -462q350 0 351 462v812h204z" />
    <glyph glyph-name="V" unicode="V" horiz-adv-x="1366"
d="M1354 1430l-547 -1430h-256l-539 1430h230l440 -1250h4l453 1250h215z" />
    <glyph glyph-name="W" unicode="W" horiz-adv-x="2048"
d="M436 0l-432 1430h225l342 -1225h4l306 1225h290l310 -1225h4l342 1225h217l-440 -1430h-265l-311 1249h-4l-313 -1249h-275z" />
    <glyph glyph-name="X" unicode="X" horiz-adv-x="1366"
d="M16 0l527 743l-480 687h246l381 -549l379 549h234l-482 -682l529 -748h-258l-422 606l-408 -606h-246z" />
    <glyph glyph-name="Y" unicode="Y" horiz-adv-x="1366"
d="M582 0v598l-559 832h239l426 -642l416 642h239l-557 -832v-598h-204z" />
    <glyph glyph-name="Z" unicode="Z"
d="M66 0v184l741 1065h-717v181h952v-185l-739 -1065h752v-180h-989z" />
    <glyph glyph-name="bracketleft" unicode="[" horiz-adv-x="681"
d="M195 -287v1835h387v-143h-207v-1548h207v-144h-387z" />
    <glyph glyph-name="backslash" unicode="\" horiz-adv-x="569"
d="M440 -25l-491 1479h180l492 -1479h-181z" />
    <glyph glyph-name="bracketright" unicode="]" horiz-adv-x="681"
d="M487 1548v-1835h-387v144h207v1548h-207v143h387z" />
    <glyph glyph-name="asciicircum" unicode="^" horiz-adv-x="1228"
d="M123 602l407 828h168l408 -828h-184l-308 639l-307 -639h-184z" />
    <glyph glyph-name="underscore" unicode="_" horiz-adv-x="1024"
d="M0 -154h1024v-102h-1024v102z" />
    <glyph glyph-name="grave" unicode="`" horiz-adv-x="569"
d="M238 1485l182 -295h-137l-269 295h224z" />
    <glyph glyph-name="a" unicode="a"
d="M299 301q0 -78 60 -124t135 -46q139 0 215 77q75 77 75 198v92l-122 4q-113 0 -198 -24q-165 -48 -165 -177zM578 1069q400 0 399 -432v-432q0 -143 8 -205h-180v135h-4q-113 -160 -324 -160q-176 0 -279 81t-104 245q0 94 47 164q79 118 278 163q79 17 185 17t180 -4
q0 139 -58 206t-217 67t-286 -107l-10 164q167 98 365 98z" />
    <glyph glyph-name="b" unicode="b" horiz-adv-x="1251"
d="M356 525q0 -155 79 -275t225 -119q146 0 221 126t71 269q4 158 -68 273q-73 115 -219 115t-228 -117q-81 -117 -81 -272zM164 0v1536h192v-635h4q104 168 334 168q230 1 346 -151t117 -382q0 -230 -114 -396q-114 -165 -334 -165q-127 -1 -219 51t-138 121h-4v-147h-184z
" />
    <glyph glyph-name="c" unicode="c" horiz-adv-x="909"
d="M618 913q-154 -1 -244 -117t-91 -274q0 -158 88 -274t260 -117q117 0 207 59l14 -172q-94 -43 -242 -43q-231 0 -382 159q-150 160 -150 394t147 388t385 153q134 0 234 -41l-17 -160q-109 45 -209 45z" />
    <glyph glyph-name="d" unicode="d" horiz-adv-x="1251"
d="M592 131q146 0 224 120q78 121 79 275q0 154 -81 271t-227 117t-219 -114t-69 -274q-4 -143 72 -269q75 -126 221 -126zM903 0v147h-4q-45 -71 -137 -121t-219 -51q-221 0 -335 165q-114 166 -114 396t117 382t347 152t333 -169h4v635h192v-1536h-184z" />
    <glyph glyph-name="e" unicode="e"
d="M840 623q0 125 -70 207t-194 83t-195 -85q-70 -86 -82 -205h541zM94 526q0 248 135 396t355 147q461 0 460 -590h-745q0 -152 101 -250t243 -98q85 0 183 35t139 70v-193q-58 -19 -76 -27q-85 -37 -254 -41q-270 0 -406 151q-135 152 -135 400z" />
    <glyph glyph-name="f" unicode="f" horiz-adv-x="796"
d="M289 0v889h-246v155h246v97q0 209 75 314t275 106q51 0 129 -13l-8 -155q-35 12 -92 12q-115 -1 -151 -63t-36 -185v-113h277v-155h-277v-889h-192z" />
    <glyph glyph-name="g" unicode="g" horiz-adv-x="1251"
d="M591 156q132 0 218 102t86 263t-79 277t-220 116t-219 -120t-78 -272t80 -259t212 -107zM1087 1044v-999q0 -500 -538 -500q-164 0 -375 72l21 178q115 -53 195 -73t181 -21q152 0 238 96t86 262v103h-4q-123 -162 -343 -162t-337 148t-117 368t123 386q123 167 344 167
q252 0 344 -180h4v155h178z" />
    <glyph glyph-name="h" unicode="h" horiz-adv-x="1251"
d="M164 0v1536h192v-641h4q111 174 336 174q391 0 391 -448v-621h-192v541q0 188 -49 276t-172 96q-160 1 -239 -115t-79 -315v-483h-192z" />
    <glyph glyph-name="i" unicode="i" horiz-adv-x="569"
d="M393 1495v-217h-217v217h217zM188 0v1044h193v-1044h-193z" />
    <glyph glyph-name="j" unicode="j" horiz-adv-x="569"
d="M393 1495v-217h-217v217h217zM51 -287q66 -1 102 59t35 162v1110h193v-1081q0 -191 -40 -267q-50 -101 -133 -131q-52 -19 -129 -19t-112 8l6 165q37 -6 78 -6z" />
    <glyph glyph-name="k" unicode="k"
d="M164 0v1536h192v-915l420 423h262l-485 -462l547 -582h-277l-467 537v-537h-192z" />
    <glyph glyph-name="l" unicode="l" horiz-adv-x="569"
d="M188 0v1536h193v-1536h-193z" />
    <glyph glyph-name="m" unicode="m" horiz-adv-x="1820"
d="M162 0v1044h180v-151h4q106 176 332 176q96 0 177 -51t120 -152q49 102 143 152t180 51q188 0 276 -107q87 -108 87 -292v-670h-193v623q0 291 -186 290q-137 -1 -206 -113t-68 -274v-526h-193v623q0 291 -186 290q-137 -1 -206 -113t-69 -274v-526h-192z" />
    <glyph glyph-name="n" unicode="n" horiz-adv-x="1251"
d="M164 0v1044h186v-165h4q44 88 138 139t204 51q391 0 391 -448v-621h-192v541q0 188 -49 276t-172 96q-160 1 -239 -115t-79 -315v-483h-192z" />
    <glyph glyph-name="o" unicode="o" horiz-adv-x="1251"
d="M299 523q0 -157 84 -275t243 -117q158 0 242 118q84 119 84 275t-89 273t-236 117t-238 -117q-90 -117 -90 -274zM94 528q0 234 148 388t384 153q237 0 384 -154t147 -388q1 -234 -149 -393t-381 -159t-382 159q-151 160 -151 394z" />
    <glyph glyph-name="p" unicode="p" horiz-adv-x="1251"
d="M356 525q0 -155 79 -275t225 -119q146 0 221 126t71 269q4 158 -68 273q-73 115 -219 115t-228 -117q-81 -117 -81 -272zM164 -430v1474h184v-147h4q45 70 136 121t219 51q217 1 333 -151t117 -382q0 -230 -114 -396q-114 -165 -346 -165t-337 168h-4v-573h-192z" />
    <glyph glyph-name="q" unicode="q" horiz-adv-x="1251"
d="M592 131q146 0 224 120q78 121 79 275q0 154 -81 271t-227 117t-219 -114t-69 -274q-4 -143 72 -269q75 -126 221 -126zM1087 1044v-1474h-192v567h-4q-45 -74 -139 -118t-209 -44q-221 0 -335 165q-114 166 -114 396t117 382t334 151q127 0 218 -52t136 -122h4v149h184z
" />
    <glyph glyph-name="r" unicode="r" horiz-adv-x="796"
d="M164 0v1044h180v-161h4q39 82 115 134q77 52 145 52t140 -14v-172q-45 18 -107 18q-129 0 -207 -115t-78 -311v-475h-192z" />
    <glyph glyph-name="s" unicode="s" horiz-adv-x="796"
d="M522 268q0 64 -47 105t-114 71t-133 66q-66 35 -112 95t-46 143q0 156 102 238t266 83q102 0 240 -41l-16 -168q-31 18 -99 36t-125 17t-110 -33q-54 -32 -54 -92q-1 -100 161 -170q67 -28 133 -62t112 -98q47 -64 47 -157q0 -158 -106 -242q-107 -83 -273 -83t-272 57
l10 172q110 -71 256 -73q62 0 121 35q59 37 59 101z" />
    <glyph glyph-name="t" unicode="t" horiz-adv-x="796"
d="M719 1044v-155h-277v-572q0 -88 46 -137t118 -49t129 37v-164q-100 -29 -164 -29q-153 0 -237 75t-84 229v610h-236v155h236v242l192 62v-304h277z" />
    <glyph glyph-name="u" unicode="u" horiz-adv-x="1251"
d="M1087 1044v-1044h-186v166h-4q-43 -88 -137 -139t-205 -52q-391 0 -391 449v620h192v-540q0 -188 50 -276t172 -97q160 0 238 116t79 314v483h192z" />
    <glyph glyph-name="v" unicode="v" horiz-adv-x="1024"
d="M1001 1044l-374 -1044h-230l-374 1044h210l283 -851h4l289 851h192z" />
    <glyph glyph-name="w" unicode="w" horiz-adv-x="1705"
d="M1681 1044l-335 -1044h-224l-270 877h-4l-264 -877h-224l-335 1044h211l239 -864h4l266 864h228l262 -864h4l254 864h188z" />
    <glyph glyph-name="x" unicode="x" horiz-adv-x="1024"
d="M20 0l377 547l-340 497h240l227 -372l232 372h215l-336 -497l369 -547h-238l-258 410l-258 -410h-230z" />
    <glyph glyph-name="y" unicode="y" horiz-adv-x="1024"
d="M185 -299q50 0 110 46t98 163q13 37 13 46t-37 114l-355 974h211l281 -864h4l287 864h194l-385 -1067q-59 -174 -83 -211q-23 -36 -49 -78t-50 -61q-25 -18 -70 -49q-77 -53 -280 -18l12 157q49 -16 99 -16z" />
    <glyph glyph-name="z" unicode="z" horiz-adv-x="1024"
d="M88 0v168l602 721h-573v155h796v-167l-602 -721h625v-156h-848z" />
    <glyph glyph-name="braceleft" unicode="{" horiz-adv-x="681"
d="M643 1548v-143h-108q-102 0 -103 -156v-370q0 -128 -70 -183t-118 -63v-4q51 -4 98 -41q92 -72 90 -211v-365q0 -156 103 -155h108v-144h-160q-83 0 -157 70t-74 188v373q0 98 -54 156t-122 59v143q68 0 122 56t54 149v383q0 119 74 189t157 69h160z" />
    <glyph glyph-name="bar" unicode="|" horiz-adv-x="454"
d="M137 1536h180v-2048h-180v2048z" />
    <glyph glyph-name="braceright" unicode="}" horiz-adv-x="681"
d="M39 -287v144h108q102 0 103 155v371q0 156 136 227q28 14 52 19v4q-53 4 -99 41q-91 73 -89 211v364q0 156 -103 156h-108v143h160q83 0 157 -70t74 -188v-372q0 -98 54 -156t122 -60v-143q-68 0 -122 -56t-54 -149v-383q0 -119 -74 -189t-157 -69h-160z" />
    <glyph glyph-name="asciitilde" unicode="~" horiz-adv-x="1228"
d="M831 365q-101 0 -282 88q-110 51 -152 51q-41 0 -77 -26t-54 -50q-18 -25 -51 -74l-74 144q92 174 256 174q98 0 341 -115q106 -45 170 1q36 26 55 50q18 25 51 74l73 -143q-92 -174 -256 -174z" />
    <glyph glyph-name="uni00A0" unicode="&#xa0;" horiz-adv-x="569"
 />
    <glyph glyph-name="exclamdown" unicode="&#xa1;" horiz-adv-x="796"
d="M285 815v229h229v-229h-229zM487 643l27 -1028h-229l26 1028h176z" />
    <glyph glyph-name="cent" unicode="&#xa2;"
d="M182 522q0 240 148 394t385 153q18 0 28 -2l68 231h117l-72 -243q66 -14 92 -27l-16 -160q-61 27 -119 35l-215 -747q68 -25 137 -25q117 0 207 59l14 -172q-92 -43 -210 -43t-193 25l-80 -272h-117l93 319q-125 70 -196 197t-71 278zM387 504q0 -170 113 -281l198 688
q-143 -10 -227 -124q-84 -113 -84 -283z" />
    <glyph glyph-name="sterling" unicode="&#xa3;"
d="M121 0v180h186v533h-162v118h162v115q0 228 130 368t366 140q125 0 241 -39l-16 -190q-111 49 -205 49q-155 0 -233 -90t-78 -252v-101h330v-118h-330v-533h506v-180h-897z" />
    <glyph glyph-name="currency" unicode="&#xa4;"
d="M242 714q0 -140 96 -240t233 -99q137 0 232 101q94 100 94 238t-95 239q-94 101 -232 101t-233 -100t-95 -240zM1077 720q0 -187 -98 -304l111 -117l-103 -104l-110 116q-121 -104 -307 -104t-304 104l-112 -116l-105 104l115 117q-102 120 -102 306t102 296l-115 110
l105 107l112 -113q123 100 302 100t309 -100l110 113l103 -107l-111 -110q98 -111 98 -298z" />
    <glyph glyph-name="yen" unicode="&#xa5;"
d="M469 0v332h-289v119h289v147l-16 33h-273v119h207l-375 680h228l335 -642l324 642h227l-370 -680h207v-119h-273l-16 -33v-147h289v-119h-289v-332h-205z" />
    <glyph glyph-name="brokenbar" unicode="&#xa6;" horiz-adv-x="454"
d="M137 358h180v-716h-180v716zM137 1382h180v-716h-180v716z" />
    <glyph glyph-name="section" unicode="&#xa7;"
d="M352 664q0 -58 47 -104t101 -68t133 -50q80 -27 102 -36q74 86 74 158t-65 121q-64 48 -178 86t-138 52q-76 -57 -76 -159zM539 -86q98 0 171 48t72 138q0 60 -62 100t-152 70t-181 65q-90 36 -153 109q-62 74 -62 181q0 164 150 254q-142 77 -142 239t131 249t285 87
t309 -39l-18 -186q-129 57 -250 57q-61 0 -115 -10t-101 -47q-48 -37 -48 -102q0 -114 217 -183q90 -28 181 -64t155 -107t63 -166q0 -95 -35 -150t-110 -117q131 -84 131 -234q0 -124 -76 -208q-137 -152 -387 -152q-187 0 -330 51l19 189q137 -72 338 -72z" />
    <glyph glyph-name="dieresis" unicode="&#xa8;" horiz-adv-x="569"
d="M356 1204v205h193v-205h-193zM20 1204v205h193v-205h-193z" />
    <glyph glyph-name="copyright" unicode="&#xa9;" horiz-adv-x="1638"
d="M260 715q0 -256 162 -426t398 -170t397 170q162 170 161 426q0 256 -161 426q-162 170 -398 170q-235 0 -397 -170t-162 -426zM80 715q0 305 217 522t522 217t522 -217t217 -522t-216 -522q-218 -217 -523 -217t-522 216q-217 218 -217 523zM838 264q-188 0 -304 128
t-116 324t112 320t301 125q139 0 241 -81t120 -226h-150q-14 76 -71 120t-137 44q-125 0 -193 -83t-68 -218t72 -222t193 -87q84 0 139 47t65 129h150q-25 -150 -123 -235t-231 -85z" />
    <glyph glyph-name="ordfeminine" unicode="&#xaa;" horiz-adv-x="739"
d="M215 985q0 -35 37 -53t84 -19q180 0 180 123v56l-82 4q-219 0 -219 -111zM384 1454q142 0 222 -55q78 -55 78 -205v-262q0 -31 2 -59l3 -42q1 -14 1 -20h-172v78h-4q-59 -94 -201 -94q-98 0 -182 46t-84 150q0 61 36 105q85 106 323 106q68 0 110 -4q0 137 -160 137
q-129 1 -221 -67l-6 129q113 57 255 57z" />
    <glyph glyph-name="guillemotleft" unicode="&#xab;"
d="M811 137l-293 414l293 414h180l-266 -414l266 -414h-180zM397 137l-293 414l293 414h181l-267 -414l267 -414h-181z" />
    <glyph glyph-name="logicalnot" unicode="&#xac;" horiz-adv-x="1228"
d="M96 643v180h1037v-610h-181v430h-856z" />
    <glyph glyph-name="uni00AD" unicode="&#xad;" horiz-adv-x="681"
d="M78 473v156h526v-156h-526z" />
    <glyph glyph-name="registered" unicode="&#xae;" horiz-adv-x="1638"
d="M690 1018v-240h137q84 0 128 25t44 100q0 115 -170 115h-139zM535 299v838h311q154 -1 232 -59t77 -187q0 -205 -219 -225l225 -367h-160l-217 360h-94v-360h-155zM819 119q236 0 398 170t161 426q0 256 -161 426q-162 170 -398 170q-235 0 -397 -170t-162 -426t162 -426
t397 -170zM819 -25q-305 -1 -522 217t-217 523t217 522t522 217t522 -217t217 -522t-216 -523q-218 -218 -523 -217z" />
    <glyph glyph-name="macron" unicode="&#xaf;" horiz-adv-x="569"
d="M-18 1260v118h606v-118h-606z" />
    <glyph glyph-name="degree" unicode="&#xb0;" horiz-adv-x="819"
d="M248 1161q0 -69 47 -115t115 -46t114 46q46 48 47 116q0 68 -47 114q-46 47 -114 47t-115 -47t-47 -115zM117 1161q0 121 86 207t207 86q120 0 206 -86t86 -207t-86 -207t-206 -86t-207 86q-86 86 -86 207z" />
    <glyph glyph-name="plusminus" unicode="&#xb1;" horiz-adv-x="1228"
d="M96 0v180h1037v-180h-1037zM96 555v180h428v301h181v-301h428v-180h-428v-301h-181v301h-428z" />
    <glyph glyph-name="twosuperior" unicode="&#xb2;" horiz-adv-x="739"
d="M63 578v155q7 6 59 47t89 72q273 228 271 340q-1 61 -52 90t-113 29q-115 0 -213 -60l-12 152q121 51 254 51t224 -61q92 -61 92 -181t-148 -278q-148 -160 -246 -209v-4h408v-143h-613z" />
    <glyph glyph-name="threesuperior" unicode="&#xb3;" horiz-adv-x="739"
d="M190 954v144h95q71 0 137 30t66 84q0 53 -58 76q-57 23 -138 23t-186 -45l-8 147q113 41 249 41t228 -58t93 -173q0 -80 -60 -129t-145 -66v-4q96 -12 154 -68t59 -147q0 -244 -379 -244q-113 0 -231 33l20 156q16 -16 74 -30t112 -15q54 0 98 8t85 34t41 66
q0 66 -65 102t-140 35h-101z" />
    <glyph glyph-name="acute" unicode="&#xb4;" horiz-adv-x="569"
d="M150 1190l182 295h223l-268 -295h-137z" />
    <glyph glyph-name="mu" unicode="&#xb5;" horiz-adv-x="1251"
d="M1087 1044v-1044h-186v166h-4q-43 -88 -137 -139t-212 -51t-192 40v-446h-192v1474h192v-540q0 -188 50 -276t172 -97q160 0 238 116t79 314v483h192z" />
    <glyph glyph-name="paragraph" unicode="&#xb6;" horiz-adv-x="1228"
d="M483 -229v911q-203 0 -323 101t-119 266q0 381 483 381h555v-1659h-180v1515h-235v-1515h-181z" />
    <glyph glyph-name="periodcentered" unicode="&#xb7;" horiz-adv-x="569"
d="M287 500q-49 0 -85 37t-38 86q2 49 38 84t85 35t85 -36q36 -34 36 -83t-36 -86t-85 -37z" />
    <glyph glyph-name="cedilla" unicode="&#xb8;" horiz-adv-x="569"
d="M496 -117q53 0 102 -41t49 -108q0 -94 -82 -142t-182 -47q-100 0 -176 43l37 70q76 -31 128 -31q120 0 120 94q0 39 -28 59t-67 21q-39 0 -84 -16l-34 39l131 176h96l-94 -123l4 -4q27 10 80 10z" />
    <glyph glyph-name="onesuperior" unicode="&#xb9;" horiz-adv-x="739"
d="M315 578v708l-143 -112l-70 94l228 174h166v-864h-181z" />
    <glyph glyph-name="ordmasculine" unicode="&#xba;" horiz-adv-x="813"
d="M221 1124q1 -211 185 -211t184 211q0 92 -46 152t-137 59q-91 0 -139 -59q-47 -60 -47 -152zM406 795q-156 0 -254 95t-98 237q0 143 96 235q98 92 257 92t255 -92t96 -234t-98 -238q-98 -95 -254 -95z" />
    <glyph glyph-name="guillemotright" unicode="&#xbb;"
d="M328 965l293 -414l-293 -414h-181l267 414l-267 414h181zM741 965l293 -414l-293 -414h-180l266 414l-266 414h180z" />
    <glyph glyph-name="onequarter" unicode="&#xbc;" horiz-adv-x="1708"
d="M281 578v708l-144 -112l-69 94l227 174h166v-864h-180zM293 -45l887 1520h147l-887 -1520h-147zM1354 0v170h-434v125l376 569h238v-551h106v-143h-106v-170h-180zM1354 313v408h-4l-263 -408h267z" />
    <glyph glyph-name="onehalf" unicode="&#xbd;" horiz-adv-x="1708"
d="M1028 0v156q6 6 58 47t90 71q270 220 270 356q0 46 -51 75t-113 28q-115 0 -213 -59l-12 151q121 51 254 51t224 -60q91 -62 91 -181t-148 -279t-245 -209v-4h407v-143h-612zM281 578v708l-144 -112l-69 94l227 174h166v-864h-180zM229 -45l887 1520h148l-887 -1520h-148
z" />
    <glyph glyph-name="threequarters" unicode="&#xbe;" horiz-adv-x="1708"
d="M190 954v144h95q71 0 137 30t66 84q0 53 -58 76q-57 23 -138 23t-186 -45l-8 147q113 41 249 41t228 -58t93 -173q0 -80 -60 -129t-145 -66v-4q96 -12 154 -68t59 -147q0 -244 -379 -244q-113 0 -231 33l20 156q16 -16 74 -30t112 -15q54 0 98 8t85 34t41 66
q0 66 -65 102t-140 35h-101zM381 -45l887 1520h147l-887 -1520h-147zM1354 0v170h-434v125l376 569h238v-551h106v-143h-106v-170h-180zM1354 313v408h-4l-263 -408h267z" />
    <glyph glyph-name="questiondown" unicode="&#xbf;" horiz-adv-x="1024"
d="M625 1044v-229h-230v229h230zM606 643v-43q0 -96 -26 -158t-101 -147q-24 -24 -80 -95q-92 -115 -92 -220t72 -157t176 -52q190 0 303 82l14 -195q-156 -68 -338 -68t-313 100t-131 273q0 96 41 175t125 176q84 98 121 152t37 140v37h192z" />
    <glyph glyph-name="Agrave" unicode="&#xc0;" horiz-adv-x="1478"
d="M692 1829l182 -295h-137l-268 295h223zM1020 528l-285 709l-284 -709h569zM25 0l610 1430h215l604 -1430h-223l-146 360h-700l-145 -360h-215z" />
    <glyph glyph-name="Aacute" unicode="&#xc1;" horiz-adv-x="1478"
d="M604 1534l182 295h224l-269 -295h-137zM1020 528l-285 709l-284 -709h569zM25 0l610 1430h215l604 -1430h-223l-146 360h-700l-145 -360h-215z" />
    <glyph glyph-name="Acircumflex" unicode="&#xc2;" horiz-adv-x="1478"
d="M442 1534l203 295h186l205 -295h-164l-135 201l-133 -201h-162zM1020 528l-285 709l-284 -709h569zM25 0l610 1430h215l604 -1430h-223l-146 360h-700l-145 -360h-215z" />
    <glyph glyph-name="Atilde" unicode="&#xc3;" horiz-adv-x="1478"
d="M485 1544h-94q33 229 193 230q55 0 165 -48q109 -48 151 -48q42 -1 65 27t28 69h94q-33 -229 -192 -230q-55 0 -165 47t-152 48q-80 2 -93 -95zM1020 528l-285 709l-284 -709h569zM25 0l610 1430h215l604 -1430h-223l-146 360h-700l-145 -360h-215z" />
    <glyph glyph-name="Adieresis" unicode="&#xc4;" horiz-adv-x="1478"
d="M811 1548v205h193v-205h-193zM475 1548v205h193v-205h-193zM1020 528l-285 709l-284 -709h569zM25 0l610 1430h215l604 -1430h-223l-146 360h-700l-145 -360h-215z" />
    <glyph glyph-name="Aring" unicode="&#xc5;" horiz-adv-x="1478"
d="M739 1833q-51 0 -89 -38t-38 -89t38 -89t88 -38t89 39t39 89t-38 88t-89 38zM738 1915q86 -1 148 -63t62 -146t-62 -146t-146 -62t-147 60q-62 62 -63 148q0 86 62 148t146 61zM1020 528l-285 709l-284 -709h569zM25 0l610 1430h215l604 -1430h-223l-146 360h-700
l-145 -360h-215z" />
    <glyph glyph-name="AE" unicode="&#xc6;" horiz-adv-x="1933"
d="M1044 528l-45 758h-4l-450 -758h499zM1767 1430v-181h-567l27 -418h504v-180h-494l29 -471h522v-180h-711l-22 360h-609l-215 -360h-227l864 1430h899z" />
    <glyph glyph-name="Ccedilla" unicode="&#xc7;" horiz-adv-x="1251"
d="M874 1274q-246 0 -398 -158t-150 -404q0 -246 156 -401q156 -156 382 -155q195 0 312 69l12 -198q-123 -51 -326 -52q-31 0 -47 5l-78 -103l4 -4q27 10 81 10t102 -41q49 -41 49 -108q0 -94 -82 -142t-181 -47q-99 0 -178 43l37 70q76 -31 128 -31q120 0 120 94
q0 39 -27 60q-28 20 -67 20t-84 -16l-35 39l119 162q-283 42 -449 238t-166 510t214 518q213 202 542 202q183 0 322 -61l-17 -199q-135 80 -295 80z" />
    <glyph glyph-name="Egrave" unicode="&#xc8;"
d="M522 1829l183 -295h-138l-268 295h223zM193 0v1430h800v-181h-596v-418h543v-180h-543v-471h596v-180h-800z" />
    <glyph glyph-name="Eacute" unicode="&#xc9;"
d="M434 1534l182 295h224l-269 -295h-137zM193 0v1430h800v-181h-596v-418h543v-180h-543v-471h596v-180h-800z" />
    <glyph glyph-name="Ecircumflex" unicode="&#xca;"
d="M272 1534l203 295h187l204 -295h-164l-135 201l-133 -201h-162zM193 0v1430h800v-181h-596v-418h543v-180h-543v-471h596v-180h-800z" />
    <glyph glyph-name="Edieresis" unicode="&#xcb;"
d="M641 1548v205h193v-205h-193zM305 1548v205h193v-205h-193zM193 0v1430h800v-181h-596v-418h543v-180h-543v-471h596v-180h-800z" />
    <glyph glyph-name="Igrave" unicode="&#xcc;" horiz-adv-x="569"
d="M238 1829l182 -295h-137l-269 295h224zM182 0v1430h205v-1430h-205z" />
    <glyph glyph-name="Iacute" unicode="&#xcd;" horiz-adv-x="569"
d="M150 1534l182 295h223l-268 -295h-137zM182 0v1430h205v-1430h-205z" />
    <glyph glyph-name="Icircumflex" unicode="&#xce;" horiz-adv-x="569"
d="M-12 1534l202 295h187l205 -295h-164l-135 201l-133 -201h-162zM182 0v1430h205v-1430h-205z" />
    <glyph glyph-name="Idieresis" unicode="&#xcf;" horiz-adv-x="569"
d="M356 1548v205h193v-205h-193zM20 1548v205h193v-205h-193zM182 0v1430h205v-1430h-205z" />
    <glyph glyph-name="Eth" unicode="&#xd0;" horiz-adv-x="1478"
d="M170 0v700h-139v131h139v599h422q328 0 545 -190t217 -529t-202 -525t-560 -186h-422zM375 1249v-418h375v-131h-375v-520h215q547 0 547 539q1 231 -145 381t-382 149h-235z" />
    <glyph glyph-name="Ntilde" unicode="&#xd1;" horiz-adv-x="1478"
d="M485 1544h-94q33 229 193 230q55 0 165 -48q109 -48 151 -48q42 -1 65 27t28 69h94q-33 -229 -192 -230q-55 0 -165 47t-152 48q-80 2 -93 -95zM180 0v1430h279l631 -1151h4v1151h204v-1430h-262l-647 1176h-4v-1176h-205z" />
    <glyph glyph-name="Ograve" unicode="&#xd2;" horiz-adv-x="1593"
d="M750 1829l182 -295h-137l-269 295h224zM109 712q0 330 184 536q183 206 503 206t504 -207t184 -535t-182 -533q-183 -204 -505 -204t-505 204t-183 533zM326 715q0 -233 119 -397q119 -162 351 -162t352 162t120 397q0 326 -210 479q-110 80 -262 80t-260 -80
q-210 -153 -210 -479z" />
    <glyph glyph-name="Oacute" unicode="&#xd3;" horiz-adv-x="1593"
d="M662 1534l182 295h223l-268 -295h-137zM109 712q0 330 184 536q183 206 503 206t504 -207t184 -535t-182 -533q-183 -204 -505 -204t-505 204t-183 533zM326 715q0 -233 119 -397q119 -162 351 -162t352 162t120 397q0 326 -210 479q-110 80 -262 80t-260 -80
q-210 -153 -210 -479z" />
    <glyph glyph-name="Ocircumflex" unicode="&#xd4;" horiz-adv-x="1593"
d="M500 1534l202 295h187l205 -295h-164l-135 201l-133 -201h-162zM109 712q0 330 184 536q183 206 503 206t504 -207t184 -535t-182 -533q-183 -204 -505 -204t-505 204t-183 533zM326 715q0 -233 119 -397q119 -162 351 -162t352 162t120 397q0 326 -210 479
q-110 80 -262 80t-260 -80q-210 -153 -210 -479z" />
    <glyph glyph-name="Otilde" unicode="&#xd5;" horiz-adv-x="1593"
d="M637 1638q-80 4 -94 -94h-94q33 229 192 230q55 0 165 -48t150 -47q81 -4 95 95h94q-33 -229 -193 -230q-55 0 -165 47t-150 47zM109 712q0 330 184 536q183 206 503 206t504 -207t184 -535t-182 -533q-183 -204 -505 -204t-505 204t-183 533zM326 715q0 -233 119 -397
q119 -162 351 -162t352 162t120 397q0 326 -210 479q-110 80 -262 80t-260 -80q-210 -153 -210 -479z" />
    <glyph glyph-name="Odieresis" unicode="&#xd6;" horiz-adv-x="1593"
d="M868 1548v205h193v-205h-193zM532 1548v205h193v-205h-193zM109 712q0 330 184 536q183 206 503 206t504 -207t184 -535t-182 -533q-183 -204 -505 -204t-505 204t-183 533zM326 715q0 -233 119 -397q119 -162 351 -162t352 162t120 397q0 326 -210 479q-110 80 -262 80
t-260 -80q-210 -153 -210 -479z" />
    <glyph glyph-name="multiply" unicode="&#xd7;" horiz-adv-x="1228"
d="M487 518l-348 348l127 127l348 -350l349 350l127 -127l-351 -348l351 -348l-127 -127l-349 350l-348 -350l-127 127z" />
    <glyph glyph-name="Oslash" unicode="&#xd8;" horiz-adv-x="1593"
d="M797 156q231 0 351 162t120 394t-115 388l-649 -842q115 -102 293 -102zM797 1454q238 0 413 -127l109 141l74 -57l-111 -145q203 -207 203 -545t-183 -542t-505 -204q-248 0 -416 125l-111 -143l-77 53l116 152q-201 201 -201 540q0 340 185 546q184 206 504 206z
M438 328l652 843q-123 103 -284 103q-160 0 -270 -80q-210 -153 -210 -479q-1 -235 112 -387z" />
    <glyph glyph-name="Ugrave" unicode="&#xd9;" horiz-adv-x="1478"
d="M692 1829l182 -295h-137l-268 295h223zM1294 1430v-838q0 -299 -144 -458t-410 -159t-411 159q-144 159 -145 458v838h205v-812q0 -463 350 -462q350 0 351 462v812h204z" />
    <glyph glyph-name="Uacute" unicode="&#xda;" horiz-adv-x="1478"
d="M604 1534l182 295h224l-269 -295h-137zM1294 1430v-838q0 -299 -144 -458t-410 -159t-411 159q-144 159 -145 458v838h205v-812q0 -463 350 -462q350 0 351 462v812h204z" />
    <glyph glyph-name="Ucircumflex" unicode="&#xdb;" horiz-adv-x="1478"
d="M442 1534l203 295h186l205 -295h-164l-135 201l-133 -201h-162zM1294 1430v-838q0 -299 -144 -458t-410 -159t-411 159q-144 159 -145 458v838h205v-812q0 -463 350 -462q350 0 351 462v812h204z" />
    <glyph glyph-name="Udieresis" unicode="&#xdc;" horiz-adv-x="1478"
d="M811 1548v205h193v-205h-193zM475 1548v205h193v-205h-193zM1294 1430v-838q0 -299 -144 -458t-410 -159t-411 159q-144 159 -145 458v838h205v-812q0 -463 350 -462q350 0 351 462v812h204z" />
    <glyph glyph-name="Yacute" unicode="&#xdd;" horiz-adv-x="1366"
d="M549 1534l182 295h223l-268 -295h-137zM582 0v598l-559 832h239l426 -642l416 642h239l-557 -832v-598h-204z" />
    <glyph glyph-name="Thorn" unicode="&#xde;"
d="M375 1040v-497h203q114 0 200 61t86 191q0 84 -54 142q-98 105 -261 103h-174zM170 0v1430h205v-209h170q231 0 384 -96q152 -96 152 -325q0 -228 -144 -332t-362 -106h-200v-362h-205z" />
    <glyph glyph-name="germandbls" unicode="&#xdf;" horiz-adv-x="1251"
d="M356 0h-192v971q0 291 118 441t384 149q162 -1 288 -107t127 -295q0 -260 -239 -334v-4q139 -16 222 -126t83 -251q0 -196 -122 -326t-331 -130q-100 0 -198 28v162q80 -35 161 -35q123 0 204 78q81 77 81 229t-99 217t-286 64v156q156 0 238 59t82 207q1 104 -61 178
t-156 74q-178 0 -246 -133q-56 -110 -58 -271v-1001z" />
    <glyph glyph-name="agrave" unicode="&#xe0;"
d="M522 1485l183 -295h-138l-268 295h223zM299 301q0 -78 60 -124t135 -46q139 0 215 77q75 77 75 198v92l-122 4q-113 0 -198 -24q-165 -48 -165 -177zM578 1069q400 0 399 -432v-432q0 -143 8 -205h-180v135h-4q-113 -160 -324 -160q-176 0 -279 81t-104 245q0 94 47 164
q79 118 278 163q79 17 185 17t180 -4q0 139 -58 206t-217 67t-286 -107l-10 164q167 98 365 98z" />
    <glyph glyph-name="aacute" unicode="&#xe1;"
d="M434 1190l182 295h224l-269 -295h-137zM299 301q0 -78 60 -124t135 -46q139 0 215 77q75 77 75 198v92l-122 4q-113 0 -198 -24q-165 -48 -165 -177zM578 1069q400 0 399 -432v-432q0 -143 8 -205h-180v135h-4q-113 -160 -324 -160q-176 0 -279 81t-104 245q0 94 47 164
q79 118 278 163q79 17 185 17t180 -4q0 139 -58 206t-217 67t-286 -107l-10 164q167 98 365 98z" />
    <glyph glyph-name="acircumflex" unicode="&#xe2;"
d="M272 1190l203 295h187l204 -295h-164l-135 201l-133 -201h-162zM299 301q0 -78 60 -124t135 -46q139 0 215 77q75 77 75 198v92l-122 4q-113 0 -198 -24q-165 -48 -165 -177zM578 1069q400 0 399 -432v-432q0 -143 8 -205h-180v135h-4q-113 -160 -324 -160
q-176 0 -279 81t-104 245q0 94 47 164q79 118 278 163q79 17 185 17t180 -4q0 139 -58 206t-217 67t-286 -107l-10 164q167 98 365 98z" />
    <glyph glyph-name="atilde" unicode="&#xe3;"
d="M315 1200h-94q33 229 193 230q55 0 165 -48q109 -48 151 -48q42 -1 65 27t28 69h95q-33 -229 -193 -230q-55 0 -165 47t-152 48q-80 2 -93 -95zM299 301q0 -78 60 -124t135 -46q139 0 215 77q75 77 75 198v92l-122 4q-113 0 -198 -24q-165 -48 -165 -177zM578 1069
q400 0 399 -432v-432q0 -143 8 -205h-180v135h-4q-113 -160 -324 -160q-176 0 -279 81t-104 245q0 94 47 164q79 118 278 163q79 17 185 17t180 -4q0 139 -58 206t-217 67t-286 -107l-10 164q167 98 365 98z" />
    <glyph glyph-name="adieresis" unicode="&#xe4;"
d="M641 1204v205h193v-205h-193zM305 1204v205h193v-205h-193zM299 301q0 -78 60 -124t135 -46q139 0 215 77q75 77 75 198v92l-122 4q-113 0 -198 -24q-165 -48 -165 -177zM578 1069q400 0 399 -432v-432q0 -143 8 -205h-180v135h-4q-113 -160 -324 -160q-176 0 -279 81
t-104 245q0 94 47 164q79 118 278 163q79 17 185 17t180 -4q0 139 -58 206t-217 67t-286 -107l-10 164q167 98 365 98z" />
    <glyph glyph-name="aring" unicode="&#xe5;"
d="M569 1489q-51 0 -89 -38t-38 -89t38 -89t88 -38t89 39t39 89t-38 88t-89 38zM568 1571q86 -1 148 -63t62 -146t-62 -146t-146 -63q-84 0 -147 61q-63 62 -63 148t62 148t146 61zM299 301q0 -78 60 -124t135 -46q139 0 215 77q75 77 75 198v92l-122 4q-113 0 -198 -24
q-165 -48 -165 -177zM578 1069q400 0 399 -432v-432q0 -143 8 -205h-180v135h-4q-113 -160 -324 -160q-176 0 -279 81t-104 245q0 94 47 164q79 118 278 163q79 17 185 17t180 -4q0 139 -58 206t-217 67t-286 -107l-10 164q167 98 365 98z" />
    <glyph glyph-name="ae" unicode="&#xe6;" horiz-adv-x="1820"
d="M997 623h535q0 111 -72 201t-190 89q-118 1 -195 -83q-78 -84 -78 -207zM289 303q0 -82 60 -127t145 -45q135 0 223 108t88 257l-184 6q-106 0 -184 -26q-148 -48 -148 -173zM555 1069q115 0 212 -45t148 -137q102 182 363 182q352 0 436 -369q23 -100 23 -221h-740
q-1 -145 97 -247t248 -101q150 0 286 109v-195q-154 -70 -304 -70q-150 -1 -274 57t-171 187h-5q-32 -117 -142 -180t-256 -63t-270 90q-122 92 -122 243q0 102 51 173t135 104q150 59 318 59l217 -10q0 143 -81 211q-82 68 -220 68t-285 -107l-10 162q158 100 346 100z" />
    <glyph glyph-name="ccedilla" unicode="&#xe7;" horiz-adv-x="909"
d="M618 913q-154 -1 -244 -117t-91 -274q0 -158 88 -274t260 -117q117 0 207 59l14 -172q-94 -43 -242 -43h-8l-76 -98l4 -4q26 10 80 10t103 -41t49 -108q0 -94 -82 -142t-182 -47q-100 0 -176 43l36 70q76 -31 128 -31q120 0 120 94q0 39 -27 60q-28 20 -67 20t-84 -16
l-35 39l121 162q-196 34 -316 184t-120 371t147 375t385 153q134 0 234 -41l-17 -160q-109 45 -209 45z" />
    <glyph glyph-name="egrave" unicode="&#xe8;"
d="M522 1485l183 -295h-138l-268 295h223zM840 623q0 125 -70 207t-194 83t-195 -85q-70 -86 -82 -205h541zM94 526q0 248 135 396t355 147q461 0 460 -590h-745q0 -152 101 -250t243 -98q85 0 183 35t139 70v-193q-58 -19 -76 -27q-85 -37 -254 -41q-270 0 -406 151
q-135 152 -135 400z" />
    <glyph glyph-name="eacute" unicode="&#xe9;"
d="M434 1190l182 295h224l-269 -295h-137zM840 623q0 125 -70 207t-194 83t-195 -85q-70 -86 -82 -205h541zM94 526q0 248 135 396t355 147q461 0 460 -590h-745q0 -152 101 -250t243 -98q85 0 183 35t139 70v-193q-58 -19 -76 -27q-85 -37 -254 -41q-270 0 -406 151
q-135 152 -135 400z" />
    <glyph glyph-name="ecircumflex" unicode="&#xea;"
d="M272 1190l203 295h187l204 -295h-164l-135 201l-133 -201h-162zM840 623q0 125 -70 207t-194 83t-195 -85q-70 -86 -82 -205h541zM94 526q0 248 135 396t355 147q461 0 460 -590h-745q0 -152 101 -250t243 -98q85 0 183 35t139 70v-193q-58 -19 -76 -27q-85 -37 -254 -41
q-270 0 -406 151q-135 152 -135 400z" />
    <glyph glyph-name="edieresis" unicode="&#xeb;"
d="M641 1204v205h193v-205h-193zM305 1204v205h193v-205h-193zM840 623q0 125 -70 207t-194 83t-195 -85q-70 -86 -82 -205h541zM94 526q0 248 135 396t355 147q461 0 460 -590h-745q0 -152 101 -250t243 -98q85 0 183 35t139 70v-193q-58 -19 -76 -27q-85 -37 -254 -41
q-270 0 -406 151q-135 152 -135 400z" />
    <glyph glyph-name="igrave" unicode="&#xec;" horiz-adv-x="569"
d="M238 1485l182 -295h-137l-269 295h224zM188 0v1044h193v-1044h-193z" />
    <glyph glyph-name="iacute" unicode="&#xed;" horiz-adv-x="569"
d="M150 1190l182 295h223l-268 -295h-137zM188 0v1044h193v-1044h-193z" />
    <glyph glyph-name="icircumflex" unicode="&#xee;" horiz-adv-x="569"
d="M-12 1190l202 295h187l205 -295h-164l-135 201l-133 -201h-162zM188 0v1044h193v-1044h-193z" />
    <glyph glyph-name="idieresis" unicode="&#xef;" horiz-adv-x="569"
d="M356 1204v205h193v-205h-193zM20 1204v205h193v-205h-193zM188 0v1044h193v-1044h-193z" />
    <glyph glyph-name="eth" unicode="&#xf0;" horiz-adv-x="1251"
d="M627 -25q-231 0 -382 159q-151 160 -151 394t148 388t385 153q96 0 172 -45h4q-96 129 -223 221l-265 -141l-94 108l225 121q-113 68 -256 119l148 109q154 -55 280 -136l250 136l95 -109l-213 -115q184 -141 296 -349t112 -452t-150 -402q-150 -159 -381 -159zM299 523
q0 -157 84 -275t243 -117q158 0 242 118q84 119 84 275t-89 273t-236 117t-238 -117q-90 -117 -90 -274z" />
    <glyph glyph-name="ntilde" unicode="&#xf1;" horiz-adv-x="1251"
d="M467 1294q-80 4 -94 -94h-94q33 229 192 230q55 0 165 -48t150 -47q81 -4 95 95h94q-33 -229 -193 -230q-55 0 -165 47t-150 47zM164 0v1044h186v-165h4q44 88 138 139t204 51q391 0 391 -448v-621h-192v541q0 188 -49 276t-172 96q-160 1 -239 -115t-79 -315v-483h-192z
" />
    <glyph glyph-name="ograve" unicode="&#xf2;" horiz-adv-x="1251"
d="M580 1485l182 -295h-137l-269 295h224zM299 523q0 -157 84 -275t243 -117q158 0 242 118q84 119 84 275t-89 273t-236 117t-238 -117q-90 -117 -90 -274zM94 528q0 234 148 388t384 153q237 0 384 -154t147 -388q1 -234 -149 -393t-381 -159t-382 159q-151 160 -151 394z
" />
    <glyph glyph-name="oacute" unicode="&#xf3;" horiz-adv-x="1251"
d="M492 1190l182 295h223l-268 -295h-137zM299 523q0 -157 84 -275t243 -117q158 0 242 118q84 119 84 275t-89 273t-236 117t-238 -117q-90 -117 -90 -274zM94 528q0 234 148 388t384 153q237 0 384 -154t147 -388q1 -234 -149 -393t-381 -159t-382 159q-151 160 -151 394z
" />
    <glyph glyph-name="ocircumflex" unicode="&#xf4;" horiz-adv-x="1251"
d="M330 1190l202 295h187l205 -295h-164l-135 201l-133 -201h-162zM299 523q0 -157 84 -275t243 -117q158 0 242 118q84 119 84 275t-89 273t-236 117t-238 -117q-90 -117 -90 -274zM94 528q0 234 148 388t384 153q237 0 384 -154t147 -388q1 -234 -149 -393t-381 -159
t-382 159q-151 160 -151 394z" />
    <glyph glyph-name="otilde" unicode="&#xf5;" horiz-adv-x="1251"
d="M467 1294q-80 4 -94 -94h-94q33 229 192 230q55 0 165 -48t150 -47q81 -4 95 95h94q-33 -229 -193 -230q-55 0 -165 47t-150 47zM299 523q0 -157 84 -275t243 -117q158 0 242 118q84 119 84 275t-89 273t-236 117t-238 -117q-90 -117 -90 -274zM94 528q0 234 148 388
t384 153q237 0 384 -154t147 -388q1 -234 -149 -393t-381 -159t-382 159q-151 160 -151 394z" />
    <glyph glyph-name="odieresis" unicode="&#xf6;" horiz-adv-x="1251"
d="M698 1204v205h193v-205h-193zM362 1204v205h193v-205h-193zM299 523q0 -157 84 -275t243 -117q158 0 242 118q84 119 84 275t-89 273t-236 117t-238 -117q-90 -117 -90 -274zM94 528q0 234 148 388t384 153q237 0 384 -154t147 -388q1 -234 -149 -393t-381 -159t-382 159
q-151 160 -151 394z" />
    <glyph glyph-name="divide" unicode="&#xf7;" horiz-adv-x="1228"
d="M459 94q0 64 46 110t109 46q62 0 110 -46t48 -108t-47 -110q-47 -49 -110 -49t-109 47t-47 110zM459 944q0 64 47 110t109 46q61 0 109 -47t48 -109t-47 -109q-47 -49 -110 -49t-109 46q-46 48 -47 112zM96 428v180h1037v-180h-1037z" />
    <glyph glyph-name="oslash" unicode="&#xf8;" horiz-adv-x="1251"
d="M94 526q0 236 148 390t385 153q184 0 313 -94l109 133l61 -51l-109 -133q156 -152 156 -392q1 -240 -149 -398q-150 -159 -381 -159q-182 0 -318 103l-116 -141l-62 51l117 145q-154 157 -154 393zM627 131q157 0 241 118t84 267t-73 258l-461 -563q84 -80 209 -80z
M299 529q0 -151 68 -253l458 560q-82 78 -198 77q-147 0 -238 -116q-90 -117 -90 -268z" />
    <glyph glyph-name="ugrave" unicode="&#xf9;" horiz-adv-x="1251"
d="M580 1485l182 -295h-137l-269 295h224zM1087 1044v-1044h-186v166h-4q-43 -88 -137 -139t-205 -52q-391 0 -391 449v620h192v-540q0 -188 50 -276t172 -97q160 0 238 116t79 314v483h192z" />
    <glyph glyph-name="uacute" unicode="&#xfa;" horiz-adv-x="1251"
d="M492 1190l182 295h223l-268 -295h-137zM1087 1044v-1044h-186v166h-4q-43 -88 -137 -139t-205 -52q-391 0 -391 449v620h192v-540q0 -188 50 -276t172 -97q160 0 238 116t79 314v483h192z" />
    <glyph glyph-name="ucircumflex" unicode="&#xfb;" horiz-adv-x="1251"
d="M330 1190l202 295h187l205 -295h-164l-135 201l-133 -201h-162zM1087 1044v-1044h-186v166h-4q-43 -88 -137 -139t-205 -52q-391 0 -391 449v620h192v-540q0 -188 50 -276t172 -97q160 0 238 116t79 314v483h192z" />
    <glyph glyph-name="udieresis" unicode="&#xfc;" horiz-adv-x="1251"
d="M698 1204v205h193v-205h-193zM362 1204v205h193v-205h-193zM1087 1044v-1044h-186v166h-4q-43 -88 -137 -139t-205 -52q-391 0 -391 449v620h192v-540q0 -188 50 -276t172 -97q160 0 238 116t79 314v483h192z" />
    <glyph glyph-name="yacute" unicode="&#xfd;" horiz-adv-x="1024"
d="M377 1190l182 295h223l-268 -295h-137zM185 -299q50 0 110 46t98 163q13 37 13 46t-37 114l-355 974h211l281 -864h4l287 864h194l-385 -1067q-59 -174 -83 -211q-23 -36 -49 -78t-50 -61q-25 -18 -70 -49q-77 -53 -280 -18l12 157q49 -16 99 -16z" />
    <glyph glyph-name="thorn" unicode="&#xfe;" horiz-adv-x="1251"
d="M356 525q0 -155 79 -275t225 -119q146 0 221 126t71 269q4 158 -68 273q-73 115 -219 115t-228 -117q-81 -117 -81 -272zM164 -430v1966h192v-635h4q104 168 334 168q230 1 346 -151t117 -382q0 -230 -114 -396q-114 -165 -346 -165t-337 168h-4v-573h-192z" />
    <glyph glyph-name="ydieresis" unicode="&#xff;" horiz-adv-x="1024"
d="M584 1204v205h192v-205h-192zM248 1204v205h192v-205h-192zM185 -299q50 0 110 46t98 163q13 37 13 46t-37 114l-355 974h211l281 -864h4l287 864h194l-385 -1067q-59 -174 -83 -211q-23 -36 -49 -78t-50 -61q-25 -18 -70 -49q-77 -53 -280 -18l12 157q49 -16 99 -16z
" />
    <glyph glyph-name="dotlessi" unicode="&#x131;" horiz-adv-x="569"
d="M188 0v1044h193v-1044h-193z" />
    <glyph glyph-name="Lslash" unicode="&#x141;" horiz-adv-x="1024"
d="M180 0v483l-131 -77v147l131 78v799h205v-680l401 235v-147l-401 -236v-422h598v-180h-803z" />
    <glyph glyph-name="lslash" unicode="&#x142;" horiz-adv-x="569"
d="M188 0v696l-131 -104v145l131 105v694h193v-543l131 105v-146l-131 -104v-848h-193z" />
    <glyph glyph-name="OE" unicode="&#x152;" horiz-adv-x="1933"
d="M1792 1430v-181h-578v-418h537v-180h-537v-471h592v-180h-594q-80 0 -159 -6l-160 -6q-348 0 -566 200t-218 534q0 336 218 528t570 192q76 0 150 -6l149 -6h596zM326 727q0 -260 154 -410t407 -149q74 0 123 12v1069q-82 12 -125 13q-263 0 -411 -138t-148 -397z" />
    <glyph glyph-name="oe" unicode="&#x153;" horiz-adv-x="1933"
d="M1110 623h535q0 111 -72 201q-71 90 -189 89q-118 1 -196 -83t-78 -207zM918 520q0 150 -82 272t-233 122t-233 -123t-83 -279q0 -156 79 -268t230 -113q151 0 237 120q85 120 85 269zM1442 -25q-326 0 -430 226q-53 -115 -168 -170t-242 -56q-238 0 -378 154t-140 384
t143 393t375 163q303 0 416 -205q98 205 373 205q352 0 436 -369q23 -100 22 -221h-739q0 -145 97 -247t248 -101q151 0 286 109v-195q-154 -70 -299 -70z" />
    <glyph glyph-name="Scaron" unicode="&#x160;" horiz-adv-x="1024"
d="M809 1829l-203 -295h-186l-205 295h164l135 -201l133 201h162zM313 1083q0 -63 45 -113t114 -81q167 -75 297 -163q69 -46 114 -130t45 -195q0 -217 -146 -321t-376 -105q-111 0 -293 60l20 190q169 -69 285 -69t205 59q88 59 88 161q1 102 -63 162t-154 101t-180 87
t-154 131q-63 85 -64 208q0 185 129 287t309 102t326 -51l-29 -189q-285 111 -444 16q-74 -44 -74 -147z" />
    <glyph glyph-name="scaron" unicode="&#x161;" horiz-adv-x="796"
d="M696 1485l-202 -295h-187l-205 295h164l135 -201l134 201h161zM522 268q0 64 -47 105t-114 71t-133 66q-66 35 -112 95t-46 143q0 156 102 238t266 83q102 0 240 -41l-16 -168q-31 18 -99 36t-125 17t-110 -33q-54 -32 -54 -92q-1 -100 161 -170q67 -28 133 -62t112 -98
q47 -64 47 -157q0 -158 -106 -242q-107 -83 -273 -83t-272 57l10 172q110 -71 256 -73q62 0 121 35q59 37 59 101z" />
    <glyph glyph-name="Ydieresis" unicode="&#x178;" horiz-adv-x="1366"
d="M756 1548v205h192v-205h-192zM420 1548v205h192v-205h-192zM582 0v598l-559 832h239l426 -642l416 642h239l-557 -832v-598h-204z" />
    <glyph glyph-name="Zcaron" unicode="&#x17d;"
d="M866 1829l-202 -295h-187l-205 295h164l135 -201l134 201h161zM66 0v184l741 1065h-717v181h952v-185l-739 -1065h752v-180h-989z" />
    <glyph glyph-name="zcaron" unicode="&#x17e;" horiz-adv-x="1024"
d="M809 1485l-203 -295h-186l-205 295h164l135 -201l133 201h162zM88 0v168l602 721h-573v155h796v-167l-602 -721h625v-156h-848z" />
    <glyph glyph-name="florin" unicode="&#x192;"
d="M174 -287q49 0 88 35t52 75t26 107l145 775h-229l27 143h229l43 223q19 89 39 147t60 117q81 119 268 119q18 0 149 -16l-29 -164q-57 12 -93 12q-112 0 -151 -90q-25 -58 -40 -135l-43 -213h258l-29 -143h-258l-141 -754q-17 -101 -37 -163t-61 -125q-75 -118 -253 -118
q-78 0 -126 11l32 165q25 -8 74 -8z" />
    <glyph glyph-name="circumflex" unicode="&#x2c6;" horiz-adv-x="569"
d="M-12 1190l202 295h187l205 -295h-164l-135 201l-133 -201h-162z" />
    <glyph glyph-name="caron" unicode="&#x2c7;" horiz-adv-x="569"
d="M582 1485l-203 -295h-186l-205 295h164l135 -201l133 201h162z" />
    <glyph glyph-name="uni02C9" unicode="&#x2c9;" horiz-adv-x="569"
d="M-18 1260v118h606v-118h-606z" />
    <glyph glyph-name="breve" unicode="&#x2d8;" horiz-adv-x="569"
d="M285 1319q184 0 215 160h100q-14 -131 -97 -205t-218 -74t-219 74t-97 205h101q31 -160 215 -160z" />
    <glyph glyph-name="dotaccent" unicode="&#x2d9;" horiz-adv-x="569"
d="M188 1204v205h193v-205h-193z" />
    <glyph glyph-name="ring" unicode="&#x2da;" horiz-adv-x="569"
d="M285 1489q-51 0 -89 -38t-38 -89t38 -89t88 -38t89 39t39 89t-38 88t-89 38zM76 1362q0 86 62 148t146 61q85 -1 147 -63q63 -62 63 -146t-62 -146t-147 -63q-84 0 -147 61q-62 62 -62 148z" />
    <glyph glyph-name="ogonek" unicode="&#x2db;" horiz-adv-x="569"
d="M295 -254q-1 -94 67 -94t115 59l64 -16q-84 -125 -234 -125q-118 0 -152 76t-3 150q12 32 70 92t151 112h98q-176 -139 -176 -254z" />
    <glyph glyph-name="tilde" unicode="&#x2dc;" horiz-adv-x="569"
d="M125 1294q-80 4 -94 -94h-94q33 229 192 230q55 0 165 -48t150 -47q81 -4 95 95h94q-33 -229 -193 -230q-55 0 -165 47t-150 47z" />
    <glyph glyph-name="hungarumlaut" unicode="&#x2dd;" horiz-adv-x="569"
d="M336 1190l182 295h223l-268 -295h-137zM-35 1190l182 295h224l-269 -295h-137z" />
    <glyph glyph-name="uni03A9" unicode="&#x3a9;" horiz-adv-x="1464"
d="M389 154v6q-117 104 -192 262q-76 158 -76 352q0 291 175 482q175 192 443 192q269 0 435 -199t165 -465q-1 -200 -79 -364t-191 -260v-6h299v-154h-506v113q123 83 206 245t82 384t-112 384q-111 164 -302 164t-308 -156t-117 -382t85 -396t204 -243v-113h-508v154h297z
" />
    <glyph glyph-name="uni03BC" unicode="&#x3bc;" horiz-adv-x="1251"
d="M1087 1044v-1044h-186v166h-4q-43 -88 -137 -139t-212 -51t-192 40v-446h-192v1474h192v-540q0 -188 50 -276t172 -97q160 0 238 116t79 314v483h192z" />
    <glyph glyph-name="pi" unicode="&#x3c0;" horiz-adv-x="1187"
d="M977 903v-602q0 -201 29 -301h-183q-35 63 -35 289v614h-342q-10 -213 -51 -489t-92 -414h-184q53 162 94 430t47 473q-154 0 -219 -24l-25 125q88 59 306 59h829l-16 -160h-158z" />
    <glyph glyph-name="uni2010" unicode="&#x2010;" horiz-adv-x="681"
d="M78 473v156h526v-156h-526z" />
    <glyph glyph-name="endash" unicode="&#x2013;" horiz-adv-x="1024"
d="M0 479v144h1024v-144h-1024z" />
    <glyph glyph-name="emdash" unicode="&#x2014;" horiz-adv-x="2048"
d="M0 479v144h2048v-144h-2048z" />
    <glyph glyph-name="quoteleft" unicode="&#x2018;" horiz-adv-x="569"
d="M463 1430l-129 -502h-228l175 502h182z" />
    <glyph glyph-name="quoteright" unicode="&#x2019;" horiz-adv-x="569"
d="M106 928l127 502h230l-180 -502h-177z" />
    <glyph glyph-name="quotesinglbase" unicode="&#x201a;" horiz-adv-x="569"
d="M106 -272l130 501h227l-174 -501h-183z" />
    <glyph glyph-name="quotedblleft" unicode="&#x201c;"
d="M942 1430l-131 -502h-225l172 502h184zM553 1430l-127 -502h-229l176 502h180z" />
    <glyph glyph-name="quotedblright" unicode="&#x201d;"
d="M586 928l129 502h227l-174 -502h-182zM197 928l129 502h227l-174 -502h-182z" />
    <glyph glyph-name="quotedblbase" unicode="&#x201e;"
d="M586 -272l129 501h227l-174 -501h-182zM197 -272l129 501h227l-174 -501h-182z" />
    <glyph glyph-name="dagger" unicode="&#x2020;"
d="M479 0v928h-342v143h342v359h180v-359h342v-143h-342v-928h-180z" />
    <glyph glyph-name="daggerdbl" unicode="&#x2021;"
d="M1001 332h-342v-332h-180v332h-342v143h342v479h-342v144h342v332h180v-332h342v-144h-342v-479h342v-143z" />
    <glyph glyph-name="bullet" unicode="&#x2022;" horiz-adv-x="1024"
d="M156 715q0 150 103 253t253 103t254 -103t104 -253t-104 -254q-104 -105 -254 -105t-253 104t-103 255z" />
    <glyph glyph-name="ellipsis" unicode="&#x2026;" horiz-adv-x="2048"
d="M1591 0v229h230v-229h-230zM909 0v229h230v-229h-230zM227 0v229h230v-229h-230z" />
    <glyph glyph-name="perthousand" unicode="&#x2030;" horiz-adv-x="2048"
d="M160 -45l887 1520h147l-887 -1520h-147zM1735 -25q-164 0 -236 117t-72 299t68 293t240 111q307 0 307 -410q0 -176 -72 -293t-235 -117zM1735 119q127 0 127 266v14q0 184 -54 229q-30 24 -74 24q-89 -1 -111 -104q-15 -68 -15 -163q0 -266 127 -266zM1042 -25
q-164 0 -236 117t-71 299q0 182 68 293t239 111q307 0 308 -410q0 -176 -72 -293t-236 -117zM1042 119q127 0 127 266v14q0 185 -53 229q-29 24 -74 24q-88 -1 -111 -104q-14 -63 -16 -163q0 -266 127 -266zM313 778q127 0 127 266v15q0 186 -53 228q-29 24 -74 24t-73 -27
q-54 -54 -54 -240q0 -266 127 -266zM313 635q-163 0 -235 117q-72 116 -72 298t68 293t239 111q307 0 308 -410q0 -176 -72 -292t-236 -117z" />
    <glyph glyph-name="guilsinglleft" unicode="&#x2039;" horiz-adv-x="569"
d="M334 137l-293 414l293 414h180l-266 -414l266 -414h-180z" />
    <glyph glyph-name="guilsinglright" unicode="&#x203a;" horiz-adv-x="569"
d="M236 965l292 -414l-292 -414h-181l267 414l-267 414h181z" />
    <glyph glyph-name="fraction" unicode="&#x2044;" horiz-adv-x="342"
d="M-346 -45l887 1520h147l-887 -1520h-147z" />
    <glyph glyph-name="Euro" unicode="&#x20ac;"
d="M884 1286q-163 0 -284 -101t-166 -274h651l-26 -110h-649q-8 -86 0 -172h612l-25 -111h-563q45 -172 166 -271q122 -99 282 -99t269 51l12 -179q-115 -45 -284 -45q-261 1 -441 145t-231 398h-195l27 111h154q-6 86 0 172h-181l27 110h170q55 247 235 395t435 148
q182 0 313 -53l-41 -170q-104 55 -267 55z" />
    <glyph glyph-name="afii61289" unicode="&#x2113;" horiz-adv-x="1009"
d="M399 1079v-407q291 319 291 559q0 201 -135 201q-63 0 -110 -84q-46 -85 -46 -269zM569 -16q-166 0 -251 102t-95 262q-2 8 -2 25q-94 -78 -112 -92l-54 106q135 113 164 139v545q0 258 95 379q94 121 230 121t204 -96t67 -246q0 -334 -416 -735v-74q1 -141 61 -214
t147 -73q87 -1 158 57t118 138l84 -78q-139 -266 -398 -266z" />
    <glyph glyph-name="trademark" unicode="&#x2122;" horiz-adv-x="2027"
d="M991 578v852h242l223 -576l219 576h242v-852h-156v651h-4l-239 -651h-127l-240 651h-4v-651h-156zM373 578v708h-262v144h680v-144h-263v-708h-155z" />
    <glyph glyph-name="Omega" unicode="&#x2126;" horiz-adv-x="1464"
d="M389 154v6q-117 104 -192 262q-76 158 -76 352q0 291 175 482q175 192 443 192q269 0 435 -199t165 -465q-1 -200 -79 -364t-191 -260v-6h299v-154h-506v113q123 83 206 245t82 384t-112 384q-111 164 -302 164t-308 -156t-117 -382t85 -396t204 -243v-113h-508v154h297z
" />
    <glyph glyph-name="estimated" unicode="&#x212e;" horiz-adv-x="1781"
d="M1409 748v403q0 29 -18 49q-213 209 -500 209t-500 -217q-20 -18 -20 -49v-395q0 -14 10 -15h1020q8 1 8 15zM1712 694h-1331q-10 0 -10 -8v-403q0 -27 18 -45q213 -219 502 -220q156 0 293 66t237 178h117q-111 -131 -283 -208t-366 -77q-340 1 -580 217t-239 521
q0 305 239 522q240 217 580 217q339 0 581 -217t242 -522v-21z" />
    <glyph glyph-name="partialdiff" unicode="&#x2202;" horiz-adv-x="1134"
d="M504 139h2q129 1 215 145t106 343q-25 75 -99 141t-184 66t-193 -112t-83 -257t65 -235t171 -91zM511 1602q214 0 368 -201q153 -201 153 -575t-143 -608t-402 -234q-193 0 -298 143t-105 332q0 233 128 379t308 147q121 0 207 -61t119 -125h2q2 23 2 82q0 245 -106 405
t-262 160q-154 0 -273 -96l-59 137q147 115 361 115z" />
    <glyph glyph-name="uni2206" unicode="&#x2206;" horiz-adv-x="1329"
d="M252 152h815l-272 722q-11 40 -63 182t-66 193h-9q-10 -41 -56 -168t-60 -174zM59 0v119l500 1341h219l490 -1337v-123h-1209z" />
    <glyph glyph-name="product" unicode="&#x220f;" horiz-adv-x="1443"
d="M1389 1255h-218v-1452h-184v1452h-532v-1452h-185v1452h-219v168h1338v-168z" />
    <glyph glyph-name="summation" unicode="&#x2211;" horiz-adv-x="1132"
d="M1090 -197h-1043v123l531 686l-508 682v129h989v-159h-735v-7l467 -616l-508 -655v-6h807v-177z" />
    <glyph glyph-name="minus" unicode="&#x2212;" horiz-adv-x="1228"
d="M96 428v180h1037v-180h-1037z" />
    <glyph glyph-name="uni2215" unicode="&#x2215;" horiz-adv-x="342"
d="M-346 -45l887 1520h147l-887 -1520h-147z" />
    <glyph glyph-name="uni2219" unicode="&#x2219;" horiz-adv-x="569"
d="M287 500q-49 0 -85 37t-38 86q2 49 38 84t85 35t85 -36q36 -34 36 -83t-36 -86t-85 -37z" />
    <glyph glyph-name="radical" unicode="&#x221a;" horiz-adv-x="1181"
d="M1188 1698l-457 -1997h-158l-319 930l-152 -60l-34 111l301 119l245 -725q6 -25 20 -79t17 -77l2 -2l29 162l371 1618h135z" />
    <glyph glyph-name="infinity" unicode="&#x221e;" horiz-adv-x="1587"
d="M1169 805h-2q-79 0 -140 -51t-111 -106q-50 -54 -56 -60q110 -125 174 -173t146 -48q82 -1 135 65t53 159t-56 153t-143 61zM428 367h2q54 -1 112 33t92 68t99 110q-63 80 -93 114t-93 73q-63 40 -142 40t-133 -65q-54 -66 -55 -158q0 -92 59 -154q60 -61 152 -61z
M1485 592v-2q0 -150 -94 -242t-224 -92q-92 0 -179 56t-191 184q-101 -116 -187 -178t-206 -62t-210 93q-92 93 -92 235t94 235q94 94 216 94t210 -62t181 -175q136 153 199 188q92 49 180 49q133 0 218 -89t85 -232z" />
    <glyph glyph-name="integral" unicode="&#x222b;" horiz-adv-x="753"
d="M477 193q0 -277 -77 -403t-228 -126q-80 0 -141 33l28 135q55 -25 103 -25t82 46q66 86 65 340q0 176 -14 521t-14 513t26 270q27 102 88 166q78 84 207 84q66 0 115 -27l-25 -129q-38 21 -90 21t-88 -49q-66 -80 -65 -359q0 -160 14 -498t14 -513z" />
    <glyph glyph-name="approxequal" unicode="&#x2248;" horiz-adv-x="1142"
d="M782 270q-57 0 -104 20q-48 20 -150 78t-166 58t-108 -39q-43 -39 -92 -115l-74 66q47 92 123 145t167 53t192 -64q26 -15 32 -18q6 -4 28 -16q94 -54 156 -53q61 0 105 36q43 36 88 114l72 -66q-102 -199 -269 -199zM776 741q69 0 113 37q43 37 90 115l72 -66
q-100 -199 -267 -198q-57 0 -104 18q-46 18 -148 77q-102 58 -168 58t-111 -38q-44 -38 -91 -111l-74 63q47 92 123 146t149 53t111 -17q94 -40 120 -57q116 -80 185 -80z" />
    <glyph glyph-name="notequal" unicode="&#x2260;" horiz-adv-x="1142"
d="M1038 840v-115h-352l-133 -293h485v-115h-530l-107 -237l-92 39l90 198h-297v115h344l132 293h-476v115h521l106 233l90 -39l-88 -194h307z" />
    <glyph glyph-name="lessequal" unicode="&#x2264;" horiz-adv-x="1142"
d="M1040 0h-938v117h938v-117zM1034 199l-921 458v123l919 457v-135l-799 -381v-4l801 -383v-135z" />
    <glyph glyph-name="greaterequal" unicode="&#x2265;" horiz-adv-x="1142"
d="M1038 0h-934v117h934v-117zM117 1237l919 -459v-123l-919 -456v135l798 383v4l-798 381v135z" />
    <glyph glyph-name="lozenge" unicode="&#x25ca;" horiz-adv-x="1183"
d="M905 707l-274 544q-29 68 -37 113h-6q-20 -68 -39 -113l-273 -536l275 -549q29 -72 35 -109h8q25 80 37 105zM1073 711l-411 -807h-150l-403 807l409 809h152z" />
    <glyph glyph-name="fi" unicode="&#xfb01;" horiz-adv-x="1366"
d="M985 0v1044h193v-1044h-193zM1190 1495v-217h-217v217h217zM289 0v889h-246v155h246v97q0 209 75 314t275 106q51 0 129 -13l-8 -155q-35 12 -92 12q-115 -1 -151 -63t-36 -185v-113h277v-155h-277v-889h-192z" />
    <glyph glyph-name="fl" unicode="&#xfb02;" horiz-adv-x="1366"
d="M985 0v1536h193v-1536h-193zM289 0v889h-246v155h246v97q0 209 75 314t275 106q51 0 129 -13l-8 -155q-35 12 -92 12q-115 -1 -151 -63t-36 -185v-113h277v-155h-277v-889h-192z" />
    <glyph glyph-name="a.superior" horiz-adv-x="739"
d="M215 985q0 -35 37 -53t84 -19q180 0 180 123v56l-82 4q-219 0 -219 -111zM384 1454q142 0 222 -55q78 -55 78 -205v-262q0 -31 2 -59l3 -42q1 -14 1 -20h-172v78h-4q-59 -94 -201 -94q-98 0 -182 46t-84 150q0 61 36 105q85 106 323 106q68 0 110 -4q0 137 -160 137
q-129 1 -221 -67l-6 129q113 57 255 57z" />
    <glyph glyph-name="o.superior" horiz-adv-x="813"
d="M221 1124q1 -211 185 -211t184 211q0 92 -46 152t-137 59q-91 0 -139 -59q-47 -60 -47 -152zM406 795q-156 0 -254 95t-98 237q0 143 96 235q98 92 257 92t255 -92t96 -234t-98 -238q-98 -95 -254 -95z" />
    <glyph glyph-name="one.superior" horiz-adv-x="739"
d="M315 578v708l-143 -112l-70 94l228 174h166v-864h-181z" />
    <glyph glyph-name="two.superior" horiz-adv-x="739"
d="M63 578v155q7 6 59 47t89 72q273 228 271 340q-1 61 -52 90t-113 29q-115 0 -213 -60l-12 152q121 51 254 51t224 -61q92 -61 92 -181t-148 -278q-148 -160 -246 -209v-4h408v-143h-613z" />
    <glyph glyph-name="three.superior" horiz-adv-x="739"
d="M190 954v144h95q71 0 137 30t66 84q0 53 -58 76q-57 23 -138 23t-186 -45l-8 147q113 41 249 41t228 -58t93 -173q0 -80 -60 -129t-145 -66v-4q96 -12 154 -68t59 -147q0 -244 -379 -244q-113 0 -231 33l20 156q16 -16 74 -30t112 -15q54 0 98 8t85 34t41 66
q0 66 -65 102t-140 35h-101z" />
    </font>
</defs>
</svg>
