<?xml version="1.0" standalone="no"?>
<!DOCTYPE svg PUBLIC "-//W3C//DTD SVG 1.1//EN" "http://www.w3.org/Graphics/SVG/1.1/DTD/svg11.dtd" >
<svg xmlns="http://www.w3.org/2000/svg">
<metadata>
Created by FontPrep 20130207 at Mon Jan 18 17:19:46 2016
 By Rafael Gomes
(c) 1991, 2002 Adobe Systems Incorporated. All rights reserved.
</metadata>
<defs>
<font id="46bc109a199985e364790756c61f351b" horiz-adv-x='1024' >
  <font-face
    font-family="FrutigerLTStd-BoldCn"
    font-weight="700"
    font-stretch="condensed"
    units-per-em="2048"
    panose-1="2 11 7 6 3 5 4 2 2 4"
    ascent="1536"
    descent="-512"
    x-height="1055"
    cap-height="1430"
    bbox="-229 -512 2048 1926"
    underline-thickness="102"
    underline-position="-102"
    unicode-range="U+0020-FB02"
  />
<missing-glyph
d="M102 1239v-1044l349 522zM164 102h696l-348 523zM573 717l349 -522v1044zM512 809l348 522h-696zM0 0v1434h1024v-1434h-1024z" />
    <glyph glyph-name="f_i" unicode="fi" horiz-adv-x="1175"
d="M197 0v868h-177v187h177v215q0 127 70 209q71 82 233 82q63 0 182 -25l-10 -184q-60 16 -108 16t-81 -36t-32 -95v-182h192v-187h-192v-868h-254zM778 1253v250h262v-250h-262zM782 0v1055h254v-1055h-254z" />
    <glyph glyph-name="f_l" unicode="fl" horiz-adv-x="1175"
d="M197 0v868h-177v187h177v215q0 127 70 209q71 82 233 82q63 0 182 -25l-10 -184q-60 16 -108 16t-81 -36t-32 -95v-182h192v-187h-192v-868h-254zM782 0v1536h254v-1536h-254z" />
    <glyph glyph-name=".notdef"
d="M102 1239v-1044l349 522zM164 102h696l-348 523zM573 717l349 -522v1044zM512 809l348 522h-696zM0 0v1434h1024v-1434h-1024z" />
    <glyph glyph-name=".null" horiz-adv-x="0"
 />
    <glyph glyph-name="nonmarkingreturn" horiz-adv-x="681"
 />
    <glyph glyph-name="space" unicode=" " horiz-adv-x="532"
 />
    <glyph glyph-name="exclam" unicode="!" horiz-adv-x="757"
d="M256 0v258h246v-258h-246zM281 422l-33 1008h262l-33 -1008h-196z" />
    <glyph glyph-name="quotedbl" unicode="&#x22;" horiz-adv-x="1062"
d="M262 1028v508h205v-508h-205zM596 1028v508h205v-508h-205z" />
    <glyph glyph-name="numbersign" unicode="#" horiz-adv-x="1064"
d="M635 582l37 266h-242l-37 -266h242zM20 422v160h213l37 266h-192v160h215l59 422h160l-59 -422h241l60 422h159l-59 -422h190v-160h-213l-36 -266h190v-160h-213l-59 -422h-160l59 422h-241l-60 -422h-159l59 422h-191z" />
    <glyph glyph-name="dollar" unicode="$" horiz-adv-x="1064"
d="M487 879v381q-83 -10 -119 -62t-36 -113q-1 -136 155 -206zM477 -195v175q-209 8 -342 63l17 233q147 -102 325 -110v483l-82 33q-293 121 -293 358q0 180 109 286t276 120v166h95v-162q178 -2 307 -61l-15 -215q-129 88 -292 90v-424l123 -47q258 -98 258 -351
q-1 -216 -105 -332t-287 -126v-179h-94zM741 390q0 91 -34 138t-136 82v-440q82 12 126 70t44 150z" />
    <glyph glyph-name="percent" unicode="%" horiz-adv-x="1705"
d="M453 -70l647 1569h160l-648 -1569h-159zM1006 385q0 195 76 300t220 105t221 -104q77 -106 77 -301t-78 -300q-76 -105 -219 -105t-221 105q-76 105 -76 300zM1186 385q0 -262 117 -262t116 262t-117 262t-116 -262zM106 1044q0 194 77 300t220 106t221 -105t76 -301
q0 -196 -76 -300q-76 -105 -220 -105t-221 105t-77 300zM287 1044q1 -262 117 -262t116 262t-117 263q-116 -1 -116 -263z" />
    <glyph glyph-name="ampersand" unicode="&#x26;" horiz-adv-x="1327"
d="M94 395q0 281 266 412q-4 4 -46 56t-52 73q-10 20 -32 63t-21 125q0 122 98 224q99 102 287 102t278 -93t90 -223t-87 -222q-88 -91 -177 -150l226 -293q78 119 77 326h230q0 -125 -42 -267t-128 -241l225 -287h-278l-103 131q-77 -80 -147 -116t-195 -35
q-229 0 -349 120t-120 295zM348 406q0 -110 72 -172t153 -62q127 0 213 109l-288 376q-150 -94 -150 -251zM741 1147q0 67 -43 105q-42 38 -110 38t-113 -43t-45 -107t24 -105q24 -42 42 -64q18 -21 22 -27t24 -26t19 -23q180 121 180 252z" />
    <glyph glyph-name="quotesingle" unicode="'" horiz-adv-x="532"
d="M164 1028v508h205v-508h-205z" />
    <glyph glyph-name="parenleft" unicode="(" horiz-adv-x="606"
d="M90 573q0 317 127 597q60 136 156 321h196q-258 -473 -258 -917t258 -918h-196q-154 299 -201 434q-82 236 -82 483z" />
    <glyph glyph-name="parenright" unicode=")" horiz-adv-x="606"
d="M295 574q0 444 -258 917h196q154 -299 201 -434q82 -236 82 -458t-56 -434q-33 -136 -227 -509h-196q258 474 258 918z" />
    <glyph glyph-name="asterisk" unicode="*" horiz-adv-x="1062"
d="M252 825l176 211l-258 62l63 182l238 -119l-35 269h197l-33 -269l234 119l61 -182l-256 -62l178 -211l-160 -108l-122 241l-123 -241z" />
    <glyph glyph-name="plus" unicode="+" horiz-adv-x="1228"
d="M524 0v428h-428v180h428v428h181v-428h428v-180h-428v-428h-181z" />
    <glyph glyph-name="comma" unicode="," horiz-adv-x="532"
d="M143 262h246l-156 -508h-196z" />
    <glyph glyph-name="hyphen" unicode="-" horiz-adv-x="645"
d="M86 477v209h473v-209h-473z" />
    <glyph glyph-name="period" unicode="." horiz-adv-x="532"
d="M143 0v266h246v-266h-246z" />
    <glyph glyph-name="slash" unicode="/" horiz-adv-x="569"
d="M16 -20l357 1470h180l-365 -1470h-172z" />
    <glyph glyph-name="zero" unicode="0" horiz-adv-x="1064"
d="M82 715q0 735 450 735t451 -735q-1 -735 -451 -735t-450 735zM729 714q0 264 -42 404q-43 139 -157 139q-115 0 -156 -154q-38 -133 -38 -324t8 -283q28 -324 188 -324q113 0 155 139t42 403z" />
    <glyph glyph-name="one" unicode="1" horiz-adv-x="1064"
d="M479 0v1128l-190 -178l-121 176l348 304h217v-1430h-254z" />
    <glyph glyph-name="two" unicode="2" horiz-adv-x="1064"
d="M127 0v211l106 121q278 315 341 431q88 155 88 259t-54 162t-134 57q-79 -1 -142 -23t-88 -38t-64 -47l-22 235q137 82 352 82t314 -105t100 -276q0 -311 -455 -805l-51 -55h520v-209h-811z" />
    <glyph glyph-name="three" unicode="3" horiz-adv-x="1064"
d="M394 188q126 0 200 64t74 176q0 113 -81 163t-196 50q-61 0 -104 -6v199h43q332 0 332 217q0 92 -68 141t-178 49t-258 -70l-15 220q187 59 363 59t293 -94t116 -266q-1 -90 -29 -157t-75 -102q-80 -60 -172 -73v-4q67 -18 105 -34q129 -55 168 -158q26 -65 26 -154
q0 -205 -143 -317t-353 -111q-160 0 -340 61l15 219q150 -72 277 -72z" />
    <glyph glyph-name="four" unicode="4" horiz-adv-x="1064"
d="M606 0v297h-545v238l496 895h287v-941h160v-192h-160v-297h-238zM606 489v678h-4l-352 -678h356z" />
    <glyph glyph-name="five" unicode="5" horiz-adv-x="1064"
d="M162 1430h723v-201h-494v-328q63 18 162 19q170 0 284 -118q113 -118 113 -337t-131 -352t-354 -133q-133 0 -330 59l17 219q135 -70 264 -70q128 0 200 77t72 197t-73 196t-216 75q-102 0 -237 -45v742z" />
    <glyph glyph-name="six" unicode="6" horiz-adv-x="1064"
d="M587 911q167 -1 277 -121t111 -340q0 -220 -110 -345q-110 -126 -310 -125q-465 0 -465 667q0 803 555 803q133 0 264 -49l-14 -213q-4 2 -32 14l-42 18q-81 29 -162 29q-309 0 -331 -477l4 -4q88 143 255 143zM352 442q0 -270 184 -270t185 269q0 269 -184 270
q-89 0 -137 -72t-48 -197z" />
    <glyph glyph-name="seven" unicode="7" horiz-adv-x="1064"
d="M127 1221v209h811v-230l-428 -1200h-283l465 1221h-565z" />
    <glyph glyph-name="eight" unicode="8" horiz-adv-x="1064"
d="M360 1084q0 -72 32 -120t66 -74t93 -61q51 43 73 63t52 74t29 111q0 186 -168 187q-77 0 -127 -54t-50 -126zM82 377q0 113 54 200t143 128l71 34q-227 113 -227 332q0 179 114 279t291 100q178 0 296 -93t118 -255q0 -229 -233 -346l53 -29q221 -119 221 -342
q0 -199 -126 -302t-329 -103q-202 0 -324 112t-122 285zM336 379q0 -93 52 -153t145 -60t145 60q51 60 51 152t-36 141q-36 50 -122 102l-53 32l-49 -35q-133 -94 -133 -239z" />
    <glyph glyph-name="nine" unicode="9" horiz-adv-x="1064"
d="M406 180q309 0 331 477l-4 5q-88 -144 -255 -144q-168 0 -278 121t-110 340t110 345t310 126q465 0 465 -668q0 -803 -555 -802q-133 0 -264 49l14 213q124 -62 236 -62zM713 987q-1 270 -185 270t-184 -269t184 -269q88 0 137 72q48 72 48 196z" />
    <glyph glyph-name="colon" unicode=":" horiz-adv-x="532"
d="M143 788v267h246v-267h-246zM143 0v266h246v-266h-246z" />
    <glyph glyph-name="semicolon" unicode=";" horiz-adv-x="532"
d="M143 788v267h246v-267h-246zM37 -246l106 508h246l-156 -508h-196z" />
    <glyph glyph-name="less" unicode="&#x3c;" horiz-adv-x="1228"
d="M1133 1055v-181l-807 -356l807 -354v-180l-1037 454v160z" />
    <glyph glyph-name="equal" unicode="=" horiz-adv-x="1228"
d="M96 213v180h1037v-180h-1037zM96 643v180h1037v-180h-1037z" />
    <glyph glyph-name="greater" unicode="&#x3e;" horiz-adv-x="1228"
d="M96 -16v180l807 354l-807 356v181l1037 -457v-160z" />
    <glyph glyph-name="question" unicode="?" horiz-adv-x="948"
d="M342 0v258h246v-258h-246zM354 418v82q0 45 23 105t100 165q119 168 119 265t-59 151t-169 55q-110 0 -216 -70l-13 224q139 55 319 55t291 -94q110 -94 109 -250q0 -61 -24 -129t-48 -111q-25 -44 -100 -156q-74 -112 -92 -168t-19 -96v-28h-221z" />
    <glyph glyph-name="at" unicode="@" horiz-adv-x="1638"
d="M858 -20q-338 0 -556 196t-218 532q0 334 220 538t532 204t515 -168q204 -168 203 -436q0 -137 -55 -251q-92 -191 -300 -281q-157 -68 -232 -6q-35 30 -37 85h-4q-115 -115 -249 -115t-209 93q-75 92 -75 233q0 224 133 370q132 146 304 146t247 -139l33 106h152
l-138 -505q-20 -72 -20 -97q0 -51 53 -51q86 0 166 116t80 265q0 229 -159 361q-160 132 -408 131q-248 0 -414 -171q-166 -170 -166 -438t169 -422t441 -153q139 0 260 48t197 132h152q-101 -151 -265 -237t-352 -86zM573 631q0 -80 45 -130t117 -50q115 0 194 105t79 222
q0 76 -50 123t-142 47q-93 0 -168 -95t-75 -222z" />
    <glyph glyph-name="A" unicode="A" horiz-adv-x="1251"
d="M969 0l-101 344h-491l-103 -344h-262l480 1430h286l461 -1430h-270zM432 545h381l-180 667h-4z" />
    <glyph glyph-name="B" unicode="B" horiz-adv-x="1138"
d="M152 0v1430h417q221 0 325 -86t105 -258q0 -171 -85 -247q-68 -61 -152 -91v-5q110 -25 190 -103t80 -254q0 -174 -124 -280t-320 -106h-436zM406 639v-438h145q104 0 162 59q57 60 57 160t-55 160t-172 59h-137zM406 1237v-406h135q94 -1 149 61t55 152t-58 142t-152 51
h-129z" />
    <glyph glyph-name="C" unicode="C" horiz-adv-x="1138"
d="M752 -20q-315 0 -487 204q-171 205 -171 531q0 327 170 531t479 204q164 0 318 -59l-14 -236q-2 2 -24 12q-22 11 -31 15l-54 24q-60 27 -162 27q-176 0 -290 -128t-114 -390t114 -390q114 -129 286 -129t275 74l14 -239q-94 -51 -309 -51z" />
    <glyph glyph-name="D" unicode="D" horiz-adv-x="1290"
d="M401 1229v-1028h88q215 0 322 135q106 135 107 379q0 244 -106 379t-323 135h-88zM139 0v1430h373q336 0 510 -180t174 -533t-187 -535t-497 -182h-373z" />
    <glyph glyph-name="E" unicode="E"
d="M152 0v1430h751v-209h-489v-381h463v-209h-463v-422h510v-209h-772z" />
    <glyph glyph-name="F" unicode="F" horiz-adv-x="948"
d="M152 0v1430h722v-209h-460v-390h440v-208h-440v-623h-262z" />
    <glyph glyph-name="G" unicode="G" horiz-adv-x="1327"
d="M721 600v201h463v-748q-139 -74 -387 -73q-334 0 -518 204t-185 531q0 327 184 531t519 204q211 0 348 -61l-15 -236q-144 88 -338 88t-307 -147t-113 -386t108 -379t306 -141q86 0 152 27v385h-217z" />
    <glyph glyph-name="H" unicode="H" horiz-adv-x="1251"
d="M152 0v1430h262v-582h424v582h262v-1430h-262v631h-424v-631h-262z" />
    <glyph glyph-name="I" unicode="I" horiz-adv-x="569"
d="M154 0v1430h262v-1430h-262z" />
    <glyph glyph-name="J" unicode="J" horiz-adv-x="720"
d="M324 1430h262v-1012q0 -221 -100 -330t-257 -108q-109 0 -188 34v226q66 -27 121 -27q162 0 162 207v1010z" />
    <glyph glyph-name="K" unicode="K" horiz-adv-x="1175"
d="M152 0v1430h262v-607h6l407 607h301l-485 -674l524 -756h-317l-430 672h-6v-672h-262z" />
    <glyph glyph-name="L" unicode="L" horiz-adv-x="909"
d="M139 0v1430h262v-1221h471v-209h-733z" />
    <glyph glyph-name="M" unicode="M" horiz-adv-x="1669"
d="M1282 0v1192h-4l-358 -1192h-187l-342 1192h-4v-1192h-237v1430h391l295 -1068h4l301 1068h379v-1430h-238z" />
    <glyph glyph-name="N" unicode="N" horiz-adv-x="1327"
d="M150 0v1430h311l475 -1123h4v1123h238v-1430h-314l-473 1114h-4v-1114h-237z" />
    <glyph glyph-name="O" unicode="O" horiz-adv-x="1327"
d="M94 715q0 363 164 549t406 186t406 -186t163 -548q0 -362 -164 -550q-163 -186 -405 -186t-406 186t-164 549zM365 715q-1 -279 81 -407t218 -128t217 128q82 128 82 407t-82 407t-217 127q-135 1 -217 -127t-82 -407z" />
    <glyph glyph-name="P" unicode="P" horiz-adv-x="1062"
d="M139 0v1430h410q219 0 334 -115t115 -320t-116 -321t-333 -115h-148v-559h-262zM401 760h99q236 0 235 235q0 119 -57 176t-178 58h-99v-469z" />
    <glyph glyph-name="Q" unicode="Q" horiz-adv-x="1327"
d="M664 -20q-242 0 -406 186t-164 548t164 550q164 186 406 186t406 -186t163 -549q0 -254 -83 -422t-222 -246l282 -319h-301l-200 252h-45zM365 715q-1 -279 81 -407t218 -128t217 128q82 128 82 407t-82 407t-217 127q-135 1 -217 -127t-82 -407z" />
    <glyph glyph-name="R" unicode="R" horiz-adv-x="1138"
d="M401 807h107q109 0 171 55t62 167t-57 156t-176 44h-107v-422zM139 0v1430h447q198 0 312 -94t114 -283q0 -137 -77 -227t-200 -109v-6q49 -8 88 -42t70 -124l186 -545h-278l-142 465q-47 150 -198 149h-60v-614h-262z" />
    <glyph glyph-name="S" unicode="S"
d="M436 188q92 0 154 52t63 140q0 87 -41 131t-145 101l-133 74q-233 129 -234 375q0 185 130 287t321 102q129 0 299 -51l-12 -219q-160 61 -262 61t-154 -46q-51 -47 -51 -109q1 -62 25 -101t50 -57t76 -47l154 -86q133 -74 190 -158t58 -227q0 -211 -132 -321
q-132 -109 -350 -109t-323 63l14 233q137 -88 303 -88z" />
    <glyph glyph-name="T" unicode="T" horiz-adv-x="985"
d="M362 0v1221h-319v209h899v-209h-317v-1221h-263z" />
    <glyph glyph-name="U" unicode="U" horiz-adv-x="1251"
d="M139 1430h262v-926q-1 -174 53 -245t172 -71t171 71t53 245v926h262v-926q0 -268 -134 -396t-352 -128t-353 128q-134 128 -134 396v926z" />
    <glyph glyph-name="V" unicode="V" horiz-adv-x="1175"
d="M446 0l-430 1430h283l289 -1102h4l297 1102h270l-436 -1430h-277z" />
    <glyph glyph-name="W" unicode="W" horiz-adv-x="1705"
d="M1069 0l-213 1171h-4l-225 -1171h-310l-288 1430h245l201 -1102h4l215 1102h320l213 -1102h4l209 1102h237l-295 -1430h-313z" />
    <glyph glyph-name="X" unicode="X" horiz-adv-x="1175"
d="M864 0l-266 532l-297 -532h-289l426 758l-375 672h302l225 -461l264 461h281l-385 -672l413 -758h-299z" />
    <glyph glyph-name="Y" unicode="Y" horiz-adv-x="1138"
d="M438 0v573l-422 857h283l279 -572l262 572h282l-422 -863v-567h-262z" />
    <glyph glyph-name="Z" unicode="Z"
d="M74 0v229l563 992h-547v209h852v-218l-569 -1003h577v-209h-876z" />
    <glyph glyph-name="bracketleft" unicode="[" horiz-adv-x="606"
d="M152 -344v1835h372v-160h-176v-1515h176v-160h-372z" />
    <glyph glyph-name="backslash" unicode="\" horiz-adv-x="569"
d="M381 -20l-365 1470h181l356 -1470h-172z" />
    <glyph glyph-name="bracketright" unicode="]" horiz-adv-x="606"
d="M82 -344v160h176v1515h-176v160h373v-1835h-373z" />
    <glyph glyph-name="asciicircum" unicode="^" horiz-adv-x="1228"
d="M123 602l405 828h172l406 -828h-180l-312 641l-311 -641h-180z" />
    <glyph glyph-name="underscore" unicode="_"
d="M0 -256v102h1024v-102h-1024z" />
    <glyph glyph-name="grave" unicode="`" horiz-adv-x="454"
d="M-20 1466h237l131 -295h-160z" />
    <glyph glyph-name="a" unicode="a"
d="M666 457v59h-23q-174 0 -260 -44t-86 -155q0 -73 44 -117t118 -44q207 0 207 301zM500 1071q231 0 317 -104t86 -320v-461q0 -90 15 -186h-230q-14 47 -14 143h-4q-55 -75 -123 -117q-69 -42 -185 -42t-209 84t-94 225q1 201 145 279t410 79h52v39q0 88 -48 144t-141 57
q-94 0 -173 -32t-124 -71l-14 205q170 78 334 78z" />
    <glyph glyph-name="b" unicode="b" horiz-adv-x="1099"
d="M373 530q0 -360 200 -360q106 0 147 87q40 87 40 280q0 348 -191 348q-100 -1 -148 -97t-48 -258zM119 1536h254v-633h4q76 168 260 168q185 0 281 -143q96 -144 96 -392t-92 -400t-285 -152t-275 180h-6q0 -102 -8 -164h-237q8 51 8 180v1356z" />
    <glyph glyph-name="c" unicode="c" horiz-adv-x="872"
d="M582 -16q-248 0 -372 152t-124 390q0 240 128 393t382 152q111 0 221 -43l-14 -201q-102 51 -178 52q-276 0 -277 -355q0 -154 74 -251t215 -97q100 0 180 51l14 -200q-113 -43 -249 -43z" />
    <glyph glyph-name="d" unicode="d" horiz-adv-x="1099"
d="M340 537q0 -193 40 -280t146 -87q201 0 201 360q0 162 -48 258t-149 97q-190 0 -190 -348zM727 1536h254v-1356q0 -129 8 -180h-237q-8 61 -9 164h-6q-82 -180 -274 -180t-285 152q-92 152 -92 400t96 392t281 143q185 0 260 -168h4v633z" />
    <glyph glyph-name="e" unicode="e"
d="M332 618h364q0 281 -176 281q-94 0 -141 -82t-47 -199zM86 518q0 236 119 394t312 159q193 0 309 -131t116 -432v-49h-610q0 -289 268 -289q166 0 277 82l12 -201q-160 -68 -316 -67q-243 0 -365 150q-122 148 -122 384z" />
    <glyph glyph-name="f" unicode="f" horiz-adv-x="681"
d="M197 0v868h-177v187h177v215q0 127 70 209q71 82 233 82q63 0 182 -25l-10 -184q-60 16 -108 16t-81 -36t-32 -95v-182h192v-187h-192v-868h-254z" />
    <glyph glyph-name="g" unicode="g" horiz-adv-x="1099"
d="M983 889v-778q0 -272 -107 -419q-108 -146 -380 -147q-185 0 -363 66l14 225q164 -90 323 -90t219 106q48 86 48 226v100h-4q-90 -178 -278 -178q-127 0 -239 101q-58 54 -94 163t-36 260q0 240 93 394t288 153q105 0 167 -48t111 -132h9l8 164h229q-8 -111 -8 -166z
M348 539q0 -173 48 -263t118 -90q119 0 171 86t52 258t-56 262q-56 89 -149 87q-184 -2 -184 -340z" />
    <glyph glyph-name="h" unicode="h" horiz-adv-x="1062"
d="M115 0v1536h254v-616h6q31 44 53 70t79 54q56 28 130 27q311 0 311 -391v-680h-254v633q0 123 -34 176t-120 53t-128 -68q-43 -68 -43 -180v-614h-254z" />
    <glyph glyph-name="i" unicode="i" horiz-adv-x="532"
d="M135 1253v250h262v-250h-262zM139 0v1055h254v-1055h-254z" />
    <glyph glyph-name="j" unicode="j" horiz-adv-x="532"
d="M135 1253v250h262v-250h-262zM139 1055h254v-1098q0 -221 -58 -316t-216 -96q-33 0 -156 13l8 192q45 -12 85 -12t62 33t21 145v1139z" />
    <glyph glyph-name="k" unicode="k"
d="M115 0v1536h254v-903h6l309 422h270l-370 -477l405 -578h-295l-319 514h-6v-514h-254z" />
    <glyph glyph-name="l" unicode="l" horiz-adv-x="532"
d="M139 0v1536h254v-1536h-254z" />
    <glyph glyph-name="m" unicode="m" horiz-adv-x="1593"
d="M633 1071q82 0 142 -34t80 -61q19 -28 44 -73q33 47 63 78t89 61t131 29q164 1 234 -107t69 -313v-651h-254v666q0 197 -135 196q-80 0 -126 -66t-46 -157v-639h-254v666q0 197 -135 196q-80 0 -126 -66t-47 -157v-639h-253v883q0 94 -9 172h254l8 -166h5q86 182 266 182
z" />
    <glyph glyph-name="n" unicode="n" horiz-adv-x="1062"
d="M637 1071q311 0 311 -391v-680h-254v633q0 123 -34 176t-120 53t-128 -68q-43 -68 -43 -180v-614h-254v881q0 111 -9 174h238l8 -162h4q27 45 52 77t87 66t142 35z" />
    <glyph glyph-name="o" unicode="o" horiz-adv-x="1099"
d="M86 542q0 140 41 252t112 169q137 110 315 109t308 -109q70 -57 111 -169t41 -268t-41 -268t-112 -169q-136 -107 -297 -106q-478 3 -478 559zM348 526q0 -364 203 -362q201 0 201 363t-201 364q-203 -1 -203 -365z" />
    <glyph glyph-name="p" unicode="p" horiz-adv-x="1099"
d="M373 524q0 -162 48 -258t148 -96q190 0 191 348q0 193 -40 280t-147 87q-200 -1 -200 -361zM119 -442v1316q0 129 -8 181h237q8 -61 8 -164h6q82 180 274 180t286 -152q92 -153 92 -401t-96 -391t-281 -143t-260 168h-4v-594h-254z" />
    <glyph glyph-name="q" unicode="q" horiz-adv-x="1099"
d="M340 518q0 -348 190 -348q100 0 149 96q48 96 48 258q0 360 -201 361q-106 0 -146 -87t-40 -280zM727 -442v594h-4q-76 -168 -260 -168t-281 143q-96 143 -96 391t92 401t285 153t274 -181h6q0 102 9 164h237q-8 -51 -8 -181v-1316h-254z" />
    <glyph glyph-name="r" unicode="r" horiz-adv-x="720"
d="M377 0h-254v881q0 111 -8 174h229l8 -193h4q31 82 98 146t171 63l43 -6v-238q-37 10 -72 11q-90 0 -155 -62t-64 -198v-578z" />
    <glyph glyph-name="s" unicode="s" horiz-adv-x="833"
d="M514 281q0 68 -113 133l-104 61q-174 104 -206 192q-17 46 -17 105q0 117 102 208t250 91t276 -43l-14 -197q-121 47 -223 48q-145 0 -146 -103q0 -38 27 -66t92 -69l125 -80q105 -70 151 -125t46 -141q0 -143 -110 -227t-276 -84t-300 51l12 211q2 0 30 -12
q129 -58 234 -58q164 0 164 105z" />
    <glyph glyph-name="t" unicode="t" horiz-adv-x="720"
d="M209 1055v217l254 78v-295h211v-187h-211v-546q-1 -82 27 -114t86 -32t98 23v-181q-74 -35 -170 -34q-145 0 -220 72t-75 235v577h-168v187h168z" />
    <glyph glyph-name="u" unicode="u" horiz-adv-x="1062"
d="M115 375v680h254v-633q-1 -121 35 -175t116 -54q174 0 174 258v604h254v-881q0 -111 8 -174h-237l-8 162l-6 2l2 -2q-33 -53 -59 -84t-86 -63t-136 -31q-311 0 -311 391z" />
    <glyph glyph-name="v" unicode="v" horiz-adv-x="985"
d="M342 0l-322 1055h263l215 -813h4l217 813h246l-324 -1055h-299z" />
    <glyph glyph-name="w" unicode="w" horiz-adv-x="1517"
d="M950 0l-188 821h-4l-185 -821h-278l-285 1055h262l170 -822h4l179 822h288l174 -822h5l170 822h245l-280 -1055h-277z" />
    <glyph glyph-name="x" unicode="x" horiz-adv-x="948"
d="M4 0l318 569l-291 486h286l166 -338l174 338h263l-293 -486l317 -569h-280l-195 391l-195 -391h-270z" />
    <glyph glyph-name="y" unicode="y" horiz-adv-x="948"
d="M252 -455q-82 0 -162 27l14 195q132 -46 182 13q30 36 56 120l18 90l-350 1065h262l213 -797h4l203 797h246l-385 -1256q-78 -254 -301 -254z" />
    <glyph glyph-name="z" unicode="z" horiz-adv-x="833"
d="M57 0v219l451 643h-436v193h690v-217l-443 -645h457v-193h-719z" />
    <glyph glyph-name="braceleft" unicode="{" horiz-adv-x="681"
d="M641 -344h-160q-92 0 -162 69t-69 189v373q0 98 -55 156t-125 59v143q70 0 125 56t55 149v383q0 121 70 189t161 69h160v-143h-92q-102 0 -103 -156v-371q0 -119 -59 -176t-121 -70v-4q51 -4 97 -41q83 -68 83 -211v-364q0 -156 103 -156h92v-143z" />
    <glyph glyph-name="bar" unicode="|" horiz-adv-x="454"
d="M137 -512v2048h180v-2048h-180z" />
    <glyph glyph-name="braceright" unicode="}" horiz-adv-x="681"
d="M41 -344v143h92q102 0 103 156v371q0 119 59 176t121 69v4q-50 4 -96 41q-84 68 -84 211v365q0 156 -103 156h-92v143h160q91 0 161 -69t70 -189v-373q0 -98 55 -156t125 -59v-143q-70 0 -125 -56t-55 -149v-383q0 -122 -70 -190t-161 -68h-160z" />
    <glyph glyph-name="asciitilde" unicode="~" horiz-adv-x="1228"
d="M410 500q-83 0 -144 -73q-20 -26 -51 -73l-74 144q102 174 256 174q71 0 223 -68t202 -68q80 1 141 73q20 26 51 73l73 -143q-35 -51 -59 -79t-78 -62q-55 -34 -123 -34t-219 68q-144 68 -198 68z" />
    <glyph glyph-name="uni00A0" unicode="&#xa0;" horiz-adv-x="532"
 />
    <glyph glyph-name="exclamdown" unicode="&#xa1;" horiz-adv-x="757"
d="M502 1055v-258h-246v258h246zM477 633l33 -1008h-262l33 1008h196z" />
    <glyph glyph-name="cent" unicode="&#xa2;" horiz-adv-x="1064"
d="M160 546q0 220 128 373t382 152h4l35 234h102l-37 -242q47 -8 117 -35l-14 -201q-84 39 -129 47l-105 -690q31 -8 68 -8q100 0 180 51l14 -200q-121 -43 -293 -43l-37 -246h-102l39 262q-176 41 -264 183q-88 143 -88 363zM422 524q0 -211 125 -299l98 654
q-223 -33 -223 -355z" />
    <glyph glyph-name="sterling" unicode="&#xa3;" horiz-adv-x="1064"
d="M111 0v201h145v479h-145v160h145v114q0 496 442 496q96 0 256 -37l-16 -203q-114 47 -232 47q-118 1 -165 -79t-47 -226v-112h317v-160h-317v-479h460v-201h-843z" />
    <glyph glyph-name="currency" unicode="&#xa4;" horiz-adv-x="1064"
d="M532 387q135 0 228 96q92 95 92 231t-92 232t-228 96t-227 -96q-92 -96 -92 -231t92 -231t227 -97zM53 718q0 159 94 279l-106 107l102 102l107 -106q126 94 284 94t281 -94l107 106l102 -102l-106 -107q94 -123 94 -283t-94 -282l106 -106l-102 -103l-107 107
q-123 -94 -281 -94t-284 94l-107 -107l-102 103l106 106q-94 127 -94 286z" />
    <glyph glyph-name="yen" unicode="&#xa5;" horiz-adv-x="1064"
d="M410 0v299h-312v152h312v155h-312v152h242l-322 672h263l251 -572l252 572h263l-318 -672h238v-152h-312v-155h312v-152h-312v-299h-245z" />
    <glyph glyph-name="brokenbar" unicode="&#xa6;" horiz-adv-x="454"
d="M137 666v716h180v-716h-180zM137 -358v716h180v-716h-180z" />
    <glyph glyph-name="section" unicode="&#xa7;" horiz-adv-x="1062"
d="M700 577q0 52 -34 94q-35 42 -125 95l-95 53q-26 -25 -40 -41q-42 -49 -44 -127q0 -109 154 -194l113 -62q27 33 37 48t22 49t12 85zM463 -78q74 0 124 37t50 98t-36 101t-122 90l-137 84q-201 125 -201 293q1 85 59 157t124 109q-137 111 -138 268q0 123 98 207t269 84
q172 0 303 -59l-22 -197q-154 70 -242 70t-128 -34t-40 -87q0 -84 151 -172l109 -64q102 -59 152 -104q49 -45 67 -90t19 -103q0 -150 -160 -301q129 -94 129 -237q1 -144 -105 -240t-292 -96t-347 74l23 200q176 -88 293 -88z" />
    <glyph glyph-name="dieresis" unicode="&#xa8;" horiz-adv-x="454"
d="M301 1235v225h197v-225h-197zM-43 1235v225h197v-225h-197z" />
    <glyph glyph-name="copyright" unicode="&#xa9;" horiz-adv-x="1638"
d="M256 715q0 -242 164 -413t400 -171t399 171q164 171 163 413q0 243 -164 413t-399 170t-399 -170t-164 -413zM84 715q0 305 216 520t519 215t519 -215t216 -520t-216 -520t-519 -215t-519 215t-216 520zM838 266q-197 0 -308 126t-110 323q0 197 110 321t301 123
q143 0 245 -78t116 -227h-152q-16 74 -71 118t-135 44q-121 0 -188 -83q-66 -83 -66 -217t68 -220t190 -86q84 0 138 46t64 128h152q-14 -150 -116 -234t-238 -84z" />
    <glyph glyph-name="ordfeminine" unicode="&#xaa;" horiz-adv-x="720"
d="M471 1081v29h-14q-89 0 -153 -27t-64 -82q0 -88 102 -88q129 0 129 168zM394 1450q134 0 192 -64t57 -190v-276q0 -61 10 -109h-159q-8 41 -9 82h-6q-72 -90 -178 -90t-170 48q-63 48 -63 132q0 221 374 221h29v23q0 104 -123 104t-186 -51l-10 123q108 47 242 47z" />
    <glyph glyph-name="guillemotleft" unicode="&#xab;" horiz-adv-x="1062"
d="M344 106l-217 424l217 424h205l-201 -424l201 -424h-205zM707 106l-218 424l218 424h204l-200 -424l200 -424h-204z" />
    <glyph glyph-name="logicalnot" unicode="&#xac;" horiz-adv-x="1228"
d="M952 213v430h-856v180h1037v-610h-181z" />
    <glyph glyph-name="uni00AD" unicode="&#xad;" horiz-adv-x="645"
d="M86 477v209h473v-209h-473z" />
    <glyph glyph-name="registered" unicode="&#xae;" horiz-adv-x="1638"
d="M256 715q0 -242 164 -413t400 -171t399 171q164 171 163 413q0 243 -164 413t-399 170t-399 -170t-164 -413zM84 715q0 305 216 520t519 215t519 -215t216 -520t-216 -520t-519 -215t-519 215t-216 520zM690 1004v-234h160q76 0 113 26t37 94t-37 91t-117 23h-156z
M690 635v-334h-160v838h295q184 -1 259 -57t75 -193q0 -215 -215 -248l223 -340h-180l-211 334h-86z" />
    <glyph glyph-name="macron" unicode="&#xaf;" horiz-adv-x="454"
d="M-57 1247v152h569v-152h-569z" />
    <glyph glyph-name="degree" unicode="&#xb0;" horiz-adv-x="819"
d="M260 1157q0 -61 44 -105t106 -44t105 44q44 44 44 105t-44 105t-105 45q-61 0 -106 -44q-44 -45 -44 -106zM117 1157q0 121 86 207t207 86q120 0 206 -86t86 -207t-86 -207t-206 -86t-207 86q-86 86 -86 207z" />
    <glyph glyph-name="plusminus" unicode="&#xb1;" horiz-adv-x="1228"
d="M96 0v180h1037v-180h-1037zM524 254v301h-428v180h428v301h181v-301h428v-180h-428v-301h-181z" />
    <glyph glyph-name="twosuperior" unicode="&#xb2;" horiz-adv-x="692"
d="M76 578v137l65 69q14 16 91 96t122 145q66 93 66 154q0 60 -34 94t-75 34q-78 -1 -104 -13q-27 -12 -37 -16t-30 -16t-21 -13l-15 152q94 49 238 49t210 -64q65 -64 64 -165q0 -193 -294 -476l-15 -16h305v-151h-536z" />
    <glyph glyph-name="threesuperior" unicode="&#xb3;" horiz-adv-x="692"
d="M424 1201q0 114 -150 114q-70 0 -172 -43l-12 141q127 37 245 37q117 0 193 -56t76 -158t-57 -148t-123 -54v-4q146 -34 181 -112q17 -39 18 -93q-1 -123 -95 -189t-217 -67q-123 0 -250 37l11 142q108 -43 186 -43q78 1 123 37t45 96q0 123 -168 123q-47 0 -72 -9v138
q27 -10 78 -10t106 30q54 31 54 91z" />
    <glyph glyph-name="acute" unicode="&#xb4;" horiz-adv-x="454"
d="M106 1171l132 295h237l-209 -295h-160z" />
    <glyph glyph-name="mu" unicode="&#xb5;" horiz-adv-x="1062"
d="M444 -16q-45 0 -75 24v-450h-254v1497h254v-633q-1 -121 35 -175t116 -54q174 0 174 258v604h254v-881q0 -111 8 -174h-237l-8 162l-6 2l2 -2q-106 -178 -263 -178z" />
    <glyph glyph-name="paragraph" unicode="&#xb6;" horiz-adv-x="1228"
d="M852 -244v1522h-217v-1522h-197v926q-141 0 -245 95q-105 95 -105 281t123 278t309 94h529v-1674h-197z" />
    <glyph glyph-name="periodcentered" unicode="&#xb7;" horiz-adv-x="530"
d="M109 582q0 66 46 112q45 46 111 45q66 0 112 -46q46 -45 46 -111t-46 -112t-112 -46t-112 46t-45 112z" />
    <glyph glyph-name="cedilla" unicode="&#xb8;" horiz-adv-x="454"
d="M295 -277q0 36 -26 56q-27 20 -71 20t-77 -14l-37 35l63 180h91l-41 -127q41 12 79 12q82 0 130 -42q48 -43 49 -121q0 -78 -71 -128q-70 -50 -180 -49q-110 0 -192 41l33 82q158 -56 221 -4q29 24 29 59z" />
    <glyph glyph-name="onesuperior" unicode="&#xb9;" horiz-adv-x="692"
d="M311 578v669l-123 -108l-90 114l230 183h164v-858h-181z" />
    <glyph glyph-name="ordmasculine" unicode="&#xba;" horiz-adv-x="720"
d="M49 1126q0 174 91 249t220 75q128 0 220 -75t92 -249t-91 -248t-221 -75q-130 1 -220 75q-91 74 -91 248zM229 1126q0 -205 131 -204q132 0 132 204t-132 205q-132 0 -131 -205z" />
    <glyph glyph-name="guillemotright" unicode="&#xbb;" horiz-adv-x="1062"
d="M356 954l217 -424l-217 -424h-204l200 424l-200 424h204zM719 954l217 -424l-217 -424h-205l201 424l-201 424h205z" />
    <glyph glyph-name="onequarter" unicode="&#xbc;" horiz-adv-x="1593"
d="M274 578v669l-122 -108l-91 114l230 183h164v-858h-181zM360 -70l641 1569h160l-641 -1569h-160zM1255 0v170h-366v152l317 536h221v-553h105v-135h-105v-170h-172zM1255 305v393h-4l-227 -393h231z" />
    <glyph glyph-name="onehalf" unicode="&#xbd;" horiz-adv-x="1593"
d="M991 -2v137l66 70q14 16 56 60q42 45 58 63t50 56q114 131 114 203t-33 106q-34 34 -76 34t-77 -4q-36 -4 -74 -29q-38 -24 -41 -24l-14 151q94 49 238 49t210 -63q64 -63 64 -166q0 -193 -295 -475l-14 -16h305v-152h-537zM274 578v669l-122 -108l-91 114l230 183h164
v-858h-181zM350 -70l641 1569h160l-641 -1569h-160z" />
    <glyph glyph-name="threequarters" unicode="&#xbe;" horiz-adv-x="1593"
d="M424 1201q0 114 -150 114q-70 0 -172 -43l-12 141q127 37 245 37q117 0 193 -56t76 -158t-57 -148t-123 -54v-4q146 -34 181 -112q17 -39 18 -93q-1 -123 -95 -189t-217 -67q-123 0 -250 37l11 142q108 -43 186 -43q78 1 123 37t45 96q0 123 -168 123q-47 0 -72 -9v138
q27 -10 78 -10t106 30q54 31 54 91zM408 -70l641 1569h159l-641 -1569h-159zM1255 0v170h-366v152l317 536h221v-553h105v-135h-105v-170h-172zM1255 305v393h-4l-227 -393h231z" />
    <glyph glyph-name="questiondown" unicode="&#xbf;" horiz-adv-x="948"
d="M606 1055v-258h-246v258h246zM594 637v-82q0 -85 -62 -181q-20 -32 -61 -89q-119 -167 -119 -265t60 -152t168 -54q110 0 217 69l12 -223q-137 -55 -319 -55t-290 94q-110 94 -110 250q0 61 24 129t48 110t100 156q74 113 92 168t19 96v29h221z" />
    <glyph glyph-name="Agrave" unicode="&#xc0;" horiz-adv-x="1251"
d="M379 1792h237l132 -295h-160zM969 0l-101 344h-491l-103 -344h-262l480 1430h286l461 -1430h-270zM432 545h381l-180 667h-4z" />
    <glyph glyph-name="Aacute" unicode="&#xc1;" horiz-adv-x="1251"
d="M506 1497l131 295h237l-208 -295h-160zM969 0l-101 344h-491l-103 -344h-262l480 1430h286l461 -1430h-270zM432 545h381l-180 667h-4z" />
    <glyph glyph-name="Acircumflex" unicode="&#xc2;" horiz-adv-x="1251"
d="M332 1497l186 295h221l183 -295h-187l-110 178l-113 -178h-180zM969 0l-101 344h-491l-103 -344h-262l480 1430h286l461 -1430h-270zM432 545h381l-180 667h-4z" />
    <glyph glyph-name="Atilde" unicode="&#xc3;" horiz-adv-x="1251"
d="M438 1520h-119q1 78 47 158t146 81q51 0 130 -35t106 -34q59 0 59 79h127q0 -109 -75 -189q-45 -50 -101 -50t-132 35q-128 59 -168 12q-20 -22 -20 -57zM969 0l-101 344h-491l-103 -344h-262l480 1430h286l461 -1430h-270zM432 545h381l-180 667h-4z" />
    <glyph glyph-name="Adieresis" unicode="&#xc4;" horiz-adv-x="1251"
d="M700 1561v225h197v-225h-197zM356 1561v225h197v-225h-197zM969 0l-101 344h-491l-103 -344h-262l480 1430h286l461 -1430h-270zM432 545h381l-180 667h-4z" />
    <glyph glyph-name="Aring" unicode="&#xc5;" horiz-adv-x="1251"
d="M526 1706q0 -47 35 -82t82 -35t82 35t35 82t-35 82t-82 35t-82 -35t-35 -82zM424 1706q0 90 64 155q65 65 155 65t155 -66q64 -64 64 -154t-64 -155t-155 -65q-90 0 -155 65q-64 65 -64 155zM969 0l-101 344h-491l-103 -344h-262l480 1430h286l461 -1430h-270zM432 545
h381l-180 667h-4z" />
    <glyph glyph-name="AE" unicode="&#xc6;" horiz-adv-x="1705"
d="M870 0v344h-417l-158 -344h-279l682 1430h879v-209h-461v-381h434v-209h-434v-422h479v-209h-725zM870 545v704h-6l-325 -704h331z" />
    <glyph glyph-name="Ccedilla" unicode="&#xc7;" horiz-adv-x="1138"
d="M752 -20q-35 0 -52 2l-34 -109q41 12 79 12q83 0 131 -42q48 -43 48 -121t-71 -128t-181 -49q-110 0 -191 41l33 82q157 -56 221 -5q29 24 29 60t-26 56t-70 20t-78 -14l-37 35l61 172q-250 44 -385 240t-135 502t170 512q170 204 479 204q164 0 318 -59l-14 -236
q-2 2 -24 12q-22 11 -31 15l-54 24q-60 27 -162 27q-176 0 -290 -128t-114 -390t114 -390q114 -129 286 -129t275 74l14 -239q-94 -51 -309 -51z" />
    <glyph glyph-name="Egrave" unicode="&#xc8;"
d="M285 1792h237l131 -295h-159zM152 0v1430h751v-209h-489v-381h463v-209h-463v-422h510v-209h-772z" />
    <glyph glyph-name="Eacute" unicode="&#xc9;"
d="M412 1497l131 295h237l-209 -295h-159zM152 0v1430h751v-209h-489v-381h463v-209h-463v-422h510v-209h-772z" />
    <glyph glyph-name="Ecircumflex" unicode="&#xca;"
d="M238 1497l186 295h221l182 -295h-186l-111 178l-112 -178h-180zM152 0v1430h751v-209h-489v-381h463v-209h-463v-422h510v-209h-772z" />
    <glyph glyph-name="Edieresis" unicode="&#xcb;"
d="M606 1561v225h197v-225h-197zM262 1561v225h197v-225h-197zM152 0v1430h751v-209h-489v-381h463v-209h-463v-422h510v-209h-772z" />
    <glyph glyph-name="Igrave" unicode="&#xcc;" horiz-adv-x="569"
d="M37 1792h237l132 -295h-160zM154 0v1430h262v-1430h-262z" />
    <glyph glyph-name="Iacute" unicode="&#xcd;" horiz-adv-x="569"
d="M164 1497l131 295h237l-208 -295h-160zM154 0v1430h262v-1430h-262z" />
    <glyph glyph-name="Icircumflex" unicode="&#xce;" horiz-adv-x="569"
d="M-10 1497l186 295h221l183 -295h-187l-110 178l-113 -178h-180zM154 0v1430h262v-1430h-262z" />
    <glyph glyph-name="Idieresis" unicode="&#xcf;" horiz-adv-x="569"
d="M358 1561v225h197v-225h-197zM14 1561v225h197v-225h-197zM154 0v1430h262v-1430h-262z" />
    <glyph glyph-name="Eth" unicode="&#xd0;" horiz-adv-x="1290"
d="M401 1229v-406h267v-172h-267v-450h88q215 0 322 135q106 135 107 379q0 244 -106 379t-323 135h-88zM139 0v651h-139v172h139v607h373q336 0 510 -180t174 -533t-187 -535t-497 -182h-373z" />
    <glyph glyph-name="Ntilde" unicode="&#xd1;" horiz-adv-x="1327"
d="M475 1520h-119q0 78 46 158t147 81q51 0 130 -35t105 -34q59 0 60 79h127q0 -107 -75 -189q-46 -50 -102 -50t-130 35q-128 59 -169 12q-20 -22 -20 -57zM150 0v1430h311l475 -1123h4v1123h238v-1430h-314l-473 1114h-4v-1114h-237z" />
    <glyph glyph-name="Ograve" unicode="&#xd2;" horiz-adv-x="1327"
d="M416 1792h237l131 -295h-159zM94 715q0 363 164 549t406 186t406 -186t163 -548q0 -362 -164 -550q-163 -186 -405 -186t-406 186t-164 549zM365 715q-1 -279 81 -407t218 -128t217 128q82 128 82 407t-82 407t-217 127q-135 1 -217 -127t-82 -407z" />
    <glyph glyph-name="Oacute" unicode="&#xd3;" horiz-adv-x="1327"
d="M543 1497l131 295h237l-209 -295h-159zM94 715q0 363 164 549t406 186t406 -186t163 -548q0 -362 -164 -550q-163 -186 -405 -186t-406 186t-164 549zM365 715q-1 -279 81 -407t218 -128t217 128q82 128 82 407t-82 407t-217 127q-135 1 -217 -127t-82 -407z" />
    <glyph glyph-name="Ocircumflex" unicode="&#xd4;" horiz-adv-x="1327"
d="M369 1497l186 295h221l182 -295h-186l-110 178l-113 -178h-180zM94 715q0 363 164 549t406 186t406 -186t163 -548q0 -362 -164 -550q-163 -186 -405 -186t-406 186t-164 549zM365 715q-1 -279 81 -407t218 -128t217 128q82 128 82 407t-82 407t-217 127
q-135 1 -217 -127t-82 -407z" />
    <glyph glyph-name="Otilde" unicode="&#xd5;" horiz-adv-x="1327"
d="M475 1520h-119q0 78 46 158t147 81q51 0 130 -35t105 -34q59 0 60 79h127q0 -107 -75 -189q-46 -50 -102 -50t-130 35q-128 59 -169 12q-20 -22 -20 -57zM94 715q0 363 164 549t406 186t406 -186t163 -548q0 -362 -164 -550q-163 -186 -405 -186t-406 186t-164 549z
M365 715q-1 -279 81 -407t218 -128t217 128q82 128 82 407t-82 407t-217 127q-135 1 -217 -127t-82 -407z" />
    <glyph glyph-name="Odieresis" unicode="&#xd6;" horiz-adv-x="1327"
d="M737 1561v225h197v-225h-197zM393 1561v225h197v-225h-197zM94 715q0 363 164 549t406 186t406 -186t163 -548q0 -362 -164 -550q-163 -186 -405 -186t-406 186t-164 549zM365 715q-1 -279 81 -407t218 -128t217 128q82 128 82 407t-82 407t-217 127q-135 1 -217 -127
t-82 -407z" />
    <glyph glyph-name="multiply" unicode="&#xd7;" horiz-adv-x="1228"
d="M487 518l-348 348l127 127l348 -348l349 348l127 -127l-349 -348l349 -348l-127 -127l-349 350l-348 -350l-127 127z" />
    <glyph glyph-name="Oslash" unicode="&#xd8;" horiz-adv-x="1327"
d="M664 180q135 0 217 128t82 407q0 156 -27 260l-504 -635q74 -160 232 -160zM94 715q0 363 164 549t404 186t387 -166l145 182l82 -63l-162 -203q119 -190 119 -485q0 -363 -164 -549t-401 -186t-389 165l-146 -182l-82 64l162 202q-119 188 -119 486zM391 455l504 637
q-74 158 -231 157q-136 0 -218 -128t-81 -406q-1 -149 26 -260z" />
    <glyph glyph-name="Ugrave" unicode="&#xd9;" horiz-adv-x="1251"
d="M379 1792h237l132 -295h-160zM139 1430h262v-926q-1 -174 53 -245t172 -71t171 71t53 245v926h262v-926q0 -268 -134 -396t-352 -128t-353 128q-134 128 -134 396v926z" />
    <glyph glyph-name="Uacute" unicode="&#xda;" horiz-adv-x="1251"
d="M506 1497l131 295h237l-208 -295h-160zM139 1430h262v-926q-1 -174 53 -245t172 -71t171 71t53 245v926h262v-926q0 -268 -134 -396t-352 -128t-353 128q-134 128 -134 396v926z" />
    <glyph glyph-name="Ucircumflex" unicode="&#xdb;" horiz-adv-x="1251"
d="M332 1497l186 295h221l183 -295h-187l-110 178l-113 -178h-180zM139 1430h262v-926q-1 -174 53 -245t172 -71t171 71t53 245v926h262v-926q0 -268 -134 -396t-352 -128t-353 128q-134 128 -134 396v926z" />
    <glyph glyph-name="Udieresis" unicode="&#xdc;" horiz-adv-x="1251"
d="M700 1561v225h197v-225h-197zM356 1561v225h197v-225h-197zM139 1430h262v-926q-1 -174 53 -245t172 -71t171 71t53 245v926h262v-926q0 -268 -134 -396t-352 -128t-353 128q-134 128 -134 396v926z" />
    <glyph glyph-name="Yacute" unicode="&#xdd;" horiz-adv-x="1138"
d="M449 1497l131 295h237l-209 -295h-159zM438 0v573l-422 857h283l279 -572l262 572h282l-422 -863v-567h-262z" />
    <glyph glyph-name="Thorn" unicode="&#xde;" horiz-adv-x="1062"
d="M139 0v1430h262v-228h148q219 0 334 -115t115 -321t-116 -320q-116 -115 -333 -114h-148v-332h-262zM401 1001v-469h99q236 0 235 236q0 119 -57 176t-178 57h-99z" />
    <glyph glyph-name="germandbls" unicode="&#xdf;" horiz-adv-x="1099"
d="M115 0v1106q0 227 113 341q114 114 314 114t304 -108t104 -298t-115 -273q-38 -28 -62 -38l-60 -25v-4q129 -13 211 -119t82 -256q0 -213 -104 -335t-312 -121q-90 0 -123 22l12 187q29 -16 72 -17q193 0 192 252q0 186 -95 240q-68 39 -156 41v192q213 0 213 254
q-1 99 -45 159t-128 60q-172 0 -172 -225v-1149h-245z" />
    <glyph glyph-name="agrave" unicode="&#xe0;"
d="M264 1466h238l131 -295h-160zM666 457v59h-23q-174 0 -260 -44t-86 -155q0 -73 44 -117t118 -44q207 0 207 301zM500 1071q231 0 317 -104t86 -320v-461q0 -90 15 -186h-230q-14 47 -14 143h-4q-55 -75 -123 -117q-69 -42 -185 -42t-209 84t-94 225q1 201 145 279t410 79
h52v39q0 88 -48 144t-141 57q-94 0 -173 -32t-124 -71l-14 205q170 78 334 78z" />
    <glyph glyph-name="aacute" unicode="&#xe1;"
d="M391 1171l131 295h238l-209 -295h-160zM666 457v59h-23q-174 0 -260 -44t-86 -155q0 -73 44 -117t118 -44q207 0 207 301zM500 1071q231 0 317 -104t86 -320v-461q0 -90 15 -186h-230q-14 47 -14 143h-4q-55 -75 -123 -117q-69 -42 -185 -42t-209 84t-94 225
q1 201 145 279t410 79h52v39q0 88 -48 144t-141 57q-94 0 -173 -32t-124 -71l-14 205q170 78 334 78z" />
    <glyph glyph-name="acircumflex" unicode="&#xe2;"
d="M217 1171l186 295h222l182 -295h-186l-111 179l-113 -179h-180zM666 457v59h-23q-174 0 -260 -44t-86 -155q0 -73 44 -117t118 -44q207 0 207 301zM500 1071q231 0 317 -104t86 -320v-461q0 -90 15 -186h-230q-14 47 -14 143h-4q-55 -75 -123 -117q-69 -42 -185 -42
t-209 84t-94 225q1 201 145 279t410 79h52v39q0 88 -48 144t-141 57q-94 0 -173 -32t-124 -71l-14 205q170 78 334 78z" />
    <glyph glyph-name="atilde" unicode="&#xe3;"
d="M324 1194h-119q0 78 46 158t146 82q51 0 130 -35t106 -35q59 0 59 80h127q0 -109 -75 -190q-46 -50 -101 -50t-131 35t-113 35t-56 -22t-19 -58zM666 457v59h-23q-174 0 -260 -44t-86 -155q0 -73 44 -117t118 -44q207 0 207 301zM500 1071q231 0 317 -104t86 -320v-461
q0 -90 15 -186h-230q-14 47 -14 143h-4q-55 -75 -123 -117q-69 -42 -185 -42t-209 84t-94 225q1 201 145 279t410 79h52v39q0 88 -48 144t-141 57q-94 0 -173 -32t-124 -71l-14 205q170 78 334 78z" />
    <glyph glyph-name="adieresis" unicode="&#xe4;"
d="M586 1235v225h196v-225h-196zM242 1235v225h196v-225h-196zM666 457v59h-23q-174 0 -260 -44t-86 -155q0 -73 44 -117t118 -44q207 0 207 301zM500 1071q231 0 317 -104t86 -320v-461q0 -90 15 -186h-230q-14 47 -14 143h-4q-55 -75 -123 -117q-69 -42 -185 -42t-209 84
t-94 225q1 201 145 279t410 79h52v39q0 88 -48 144t-141 57q-94 0 -173 -32t-124 -71l-14 205q170 78 334 78z" />
    <glyph glyph-name="aring" unicode="&#xe5;"
d="M436 1360q0 -47 35 -82t82 -35t82 35t35 82t-35 82t-82 35t-82 -35t-35 -82zM334 1360q0 90 64 154t155 65q90 0 155 -65q64 -64 64 -154t-64 -155t-155 -65q-90 0 -155 65q-64 65 -64 155zM666 457v59h-23q-174 0 -260 -44t-86 -155q0 -73 44 -117t118 -44
q207 0 207 301zM500 1071q231 0 317 -104t86 -320v-461q0 -90 15 -186h-230q-14 47 -14 143h-4q-55 -75 -123 -117q-69 -42 -185 -42t-209 84t-94 225q1 201 145 279t410 79h52v39q0 88 -48 144t-141 57q-94 0 -173 -32t-124 -71l-14 205q170 78 334 78z" />
    <glyph glyph-name="ae" unicode="&#xe6;" horiz-adv-x="1589"
d="M664 457v59h-37q-309 0 -310 -199q0 -73 44 -117t116 -44q187 0 187 301zM522 1071q207 0 285 -143q94 143 282 143q189 0 305 -131t115 -432v-49h-608q4 -289 262 -289q166 0 277 82l12 -201q-160 -68 -315 -67q-303 0 -379 204h-4q-68 -104 -149 -154t-210 -50t-222 84
t-93 225q0 207 156 287q138 71 380 71h48v45q0 82 -44 138t-130 57q-86 0 -164 -32t-123 -71l-15 205q170 78 334 78zM901 618h363q0 281 -177 281q-92 0 -139 -82t-47 -199z" />
    <glyph glyph-name="ccedilla" unicode="&#xe7;" horiz-adv-x="872"
d="M582 -16h-13l-37 -111q41 12 80 12q82 0 130 -42q48 -43 48 -121t-70 -128t-180 -49q-110 0 -192 41l33 82q157 -56 221 -5q29 24 29 60t-26 56q-27 20 -71 20t-77 -14l-37 35l61 172q-199 33 -297 177q-98 145 -98 371t128 379t382 152q111 0 221 -43l-14 -201
q-102 51 -178 52q-276 0 -277 -355q0 -154 74 -251t215 -97q100 0 180 51l14 -200q-113 -43 -249 -43z" />
    <glyph glyph-name="egrave" unicode="&#xe8;"
d="M264 1466h238l131 -295h-160zM332 618h364q0 281 -176 281q-94 0 -141 -82t-47 -199zM86 518q0 236 119 394t312 159q193 0 309 -131t116 -432v-49h-610q0 -289 268 -289q166 0 277 82l12 -201q-160 -68 -316 -67q-243 0 -365 150q-122 148 -122 384z" />
    <glyph glyph-name="eacute" unicode="&#xe9;"
d="M391 1171l131 295h238l-209 -295h-160zM332 618h364q0 281 -176 281q-94 0 -141 -82t-47 -199zM86 518q0 236 119 394t312 159q193 0 309 -131t116 -432v-49h-610q0 -289 268 -289q166 0 277 82l12 -201q-160 -68 -316 -67q-243 0 -365 150q-122 148 -122 384z" />
    <glyph glyph-name="ecircumflex" unicode="&#xea;"
d="M217 1171l186 295h222l182 -295h-186l-111 179l-113 -179h-180zM332 618h364q0 281 -176 281q-94 0 -141 -82t-47 -199zM86 518q0 236 119 394t312 159q193 0 309 -131t116 -432v-49h-610q0 -289 268 -289q166 0 277 82l12 -201q-160 -68 -316 -67q-243 0 -365 150
q-122 148 -122 384z" />
    <glyph glyph-name="edieresis" unicode="&#xeb;"
d="M586 1235v225h196v-225h-196zM242 1235v225h196v-225h-196zM332 618h364q0 281 -176 281q-94 0 -141 -82t-47 -199zM86 518q0 236 119 394t312 159q193 0 309 -131t116 -432v-49h-610q0 -289 268 -289q166 0 277 82l12 -201q-160 -68 -316 -67q-243 0 -365 150
q-122 148 -122 384z" />
    <glyph glyph-name="igrave" unicode="&#xec;" horiz-adv-x="532"
d="M18 1466h238l131 -295h-160zM139 0v1055h254v-1055h-254z" />
    <glyph glyph-name="iacute" unicode="&#xed;" horiz-adv-x="532"
d="M145 1171l131 295h238l-209 -295h-160zM139 0v1055h254v-1055h-254z" />
    <glyph glyph-name="icircumflex" unicode="&#xee;" horiz-adv-x="532"
d="M-29 1171l187 295h221l182 -295h-186l-111 179l-112 -179h-181zM139 0v1055h254v-1055h-254z" />
    <glyph glyph-name="idieresis" unicode="&#xef;" horiz-adv-x="532"
d="M340 1235v225h197v-225h-197zM-4 1235v225h197v-225h-197zM139 0v1055h254v-1055h-254z" />
    <glyph glyph-name="eth" unicode="&#xf0;" horiz-adv-x="1099"
d="M1014 578q0 -594 -463 -594q-241 0 -364 161q-101 135 -101 383q0 413 292 518q73 26 152 25q125 0 195 -96l4 4q-20 86 -82 189q-61 103 -110 143l-177 -90l-67 77l158 82q-68 49 -158 80l162 101q84 -25 174 -88l172 88l67 -78l-151 -78q297 -268 297 -827zM348 526
q0 -364 203 -362q201 0 201 363t-201 364q-203 -1 -203 -365z" />
    <glyph glyph-name="ntilde" unicode="&#xf1;" horiz-adv-x="1062"
d="M344 1194h-119q0 78 46 158t147 82q51 0 130 -35t105 -35q59 0 60 80h127q0 -107 -75 -190q-45 -50 -101 -50t-132 35t-112 35t-56 -22t-20 -58zM637 1071q311 0 311 -391v-680h-254v633q0 123 -34 176t-120 53t-128 -68q-43 -68 -43 -180v-614h-254v881q0 111 -9 174
h238l8 -162h4q27 45 52 77t87 66t142 35z" />
    <glyph glyph-name="ograve" unicode="&#xf2;" horiz-adv-x="1099"
d="M303 1466h238l131 -295h-160zM86 542q0 140 41 252t112 169q137 110 315 109t308 -109q70 -57 111 -169t41 -268t-41 -268t-112 -169q-136 -107 -297 -106q-478 3 -478 559zM348 526q0 -364 203 -362q201 0 201 363t-201 364q-203 -1 -203 -365z" />
    <glyph glyph-name="oacute" unicode="&#xf3;" horiz-adv-x="1099"
d="M430 1171l131 295h238l-209 -295h-160zM86 542q0 140 41 252t112 169q137 110 315 109t308 -109q70 -57 111 -169t41 -268t-41 -268t-112 -169q-136 -107 -297 -106q-478 3 -478 559zM348 526q0 -364 203 -362q201 0 201 363t-201 364q-203 -1 -203 -365z" />
    <glyph glyph-name="ocircumflex" unicode="&#xf4;" horiz-adv-x="1099"
d="M256 1171l186 295h222l182 -295h-187l-110 179l-113 -179h-180zM86 542q0 140 41 252t112 169q137 110 315 109t308 -109q70 -57 111 -169t41 -268t-41 -268t-112 -169q-136 -107 -297 -106q-478 3 -478 559zM348 526q0 -364 203 -362q201 0 201 363t-201 364
q-203 -1 -203 -365z" />
    <glyph glyph-name="otilde" unicode="&#xf5;" horiz-adv-x="1099"
d="M362 1194h-118q0 78 46 158t146 82q51 0 130 -35t106 -35q59 0 59 80h127q0 -109 -75 -190q-46 -50 -101 -50t-131 35t-113 35q-36 0 -56 -22t-20 -58zM86 542q0 140 41 252t112 169q137 110 315 109t308 -109q70 -57 111 -169t41 -268t-41 -268t-112 -169
q-136 -107 -297 -106q-478 3 -478 559zM348 526q0 -364 203 -362q201 0 201 363t-201 364q-203 -1 -203 -365z" />
    <glyph glyph-name="odieresis" unicode="&#xf6;" horiz-adv-x="1099"
d="M625 1235v225h196v-225h-196zM281 1235v225h196v-225h-196zM86 542q0 140 41 252t112 169q137 110 315 109t308 -109q70 -57 111 -169t41 -268t-41 -268t-112 -169q-136 -107 -297 -106q-478 3 -478 559zM348 526q0 -364 203 -362q201 0 201 363t-201 364
q-203 -1 -203 -365z" />
    <glyph glyph-name="divide" unicode="&#xf7;" horiz-adv-x="1228"
d="M457 94q0 66 46 112q45 46 111 46t112 -46t46 -112t-46 -112t-112 -45q-66 -1 -112 45t-45 112zM457 942q0 66 46 112q45 46 111 46t112 -46t46 -112t-46 -112t-112 -46t-112 46t-45 112zM96 428v180h1037v-180h-1037z" />
    <glyph glyph-name="oslash" unicode="&#xf8;" horiz-adv-x="1099"
d="M551 164q201 0 201 364q-1 90 -15 160l-338 -428q47 -96 152 -96zM86 528q0 154 41 266t112 169q137 110 314 109q176 -1 291 -97l96 121l74 -58l-105 -131q104 -135 105 -379q0 -158 -41 -270t-112 -169q-136 -107 -316 -106t-291 95l-94 -119l-74 57l102 129
q-102 139 -102 383zM551 891q-203 0 -203 -363q0 -89 14 -161l340 428q-47 96 -151 96z" />
    <glyph glyph-name="ugrave" unicode="&#xf9;" horiz-adv-x="1062"
d="M285 1466h237l131 -295h-159zM115 375v680h254v-633q-1 -121 35 -175t116 -54q174 0 174 258v604h254v-881q0 -111 8 -174h-237l-8 162l-6 2l2 -2q-33 -53 -59 -84t-86 -63t-136 -31q-311 0 -311 391z" />
    <glyph glyph-name="uacute" unicode="&#xfa;" horiz-adv-x="1062"
d="M412 1171l131 295h237l-209 -295h-159zM115 375v680h254v-633q-1 -121 35 -175t116 -54q174 0 174 258v604h254v-881q0 -111 8 -174h-237l-8 162l-6 2l2 -2q-33 -53 -59 -84t-86 -63t-136 -31q-311 0 -311 391z" />
    <glyph glyph-name="ucircumflex" unicode="&#xfb;" horiz-adv-x="1062"
d="M238 1171l186 295h221l182 -295h-186l-111 179l-112 -179h-180zM115 375v680h254v-633q-1 -121 35 -175t116 -54q174 0 174 258v604h254v-881q0 -111 8 -174h-237l-8 162l-6 2l2 -2q-33 -53 -59 -84t-86 -63t-136 -31q-311 0 -311 391z" />
    <glyph glyph-name="udieresis" unicode="&#xfc;" horiz-adv-x="1062"
d="M606 1235v225h197v-225h-197zM262 1235v225h197v-225h-197zM115 375v680h254v-633q-1 -121 35 -175t116 -54q174 0 174 258v604h254v-881q0 -111 8 -174h-237l-8 162l-6 2l2 -2q-33 -53 -59 -84t-86 -63t-136 -31q-311 0 -311 391z" />
    <glyph glyph-name="yacute" unicode="&#xfd;" horiz-adv-x="948"
d="M354 1171l131 295h238l-209 -295h-160zM252 -455q-82 0 -162 27l14 195q132 -46 182 13q30 36 56 120l18 90l-350 1065h262l213 -797h4l203 797h246l-385 -1256q-78 -254 -301 -254z" />
    <glyph glyph-name="thorn" unicode="&#xfe;" horiz-adv-x="1099"
d="M373 524q0 -162 48 -258t148 -96q190 0 191 348q0 193 -40 280t-147 87q-200 -1 -200 -361zM119 -442v1978h254v-645h4q82 180 267 180t278 -152q92 -153 92 -401t-96 -391t-281 -143t-260 168h-4v-594h-254z" />
    <glyph glyph-name="ydieresis" unicode="&#xff;" horiz-adv-x="948"
d="M549 1235v225h196v-225h-196zM205 1235v225h196v-225h-196zM252 -455q-82 0 -162 27l14 195q132 -46 182 13q30 36 56 120l18 90l-350 1065h262l213 -797h4l203 797h246l-385 -1256q-78 -254 -301 -254z" />
    <glyph glyph-name="dotlessi" unicode="&#x131;" horiz-adv-x="532"
d="M139 0v1055h254v-1055h-254z" />
    <glyph glyph-name="Lslash" unicode="&#x141;" horiz-adv-x="909"
d="M139 0v496l-139 -127v192l139 127v742h262v-502l258 235v-192l-258 -236v-526h471v-209h-733z" />
    <glyph glyph-name="lslash" unicode="&#x142;" horiz-adv-x="569"
d="M158 0v528l-158 -172v201l158 172v807h254v-528l157 172v-201l-157 -172v-807h-254z" />
    <glyph glyph-name="OE" unicode="&#x152;" horiz-adv-x="1705"
d="M704 1241q-282 0 -323 -363q-8 -73 -8 -163q0 -293 104 -422q87 -105 248 -105q82 1 141 21v1012q-86 20 -162 20zM1595 1430v-209h-467v-381h439v-209h-439v-422h488v-209h-676l-260 -12q-162 0 -281 60t-182 166q-123 206 -123 517t160 511t465 200l289 -12h587z" />
    <glyph glyph-name="oe" unicode="&#x153;" horiz-adv-x="1669"
d="M348 526q0 -364 203 -362q201 0 201 363t-201 364q-203 -1 -203 -365zM989 618h365q0 281 -176 281q-94 0 -142 -82t-47 -199zM570 -16q-88 0 -150 13q-60 13 -124 51q-210 125 -210 480q0 154 41 266t112 169q137 110 312 108q100 0 187 -44t132 -146q96 190 297 190
t317 -131t115 -432v-49h-610q0 -289 268 -289q166 0 277 82l12 -201q-160 -68 -315 -67q-248 0 -352 186q-35 -84 -128 -135t-181 -51z" />
    <glyph glyph-name="Scaron" unicode="&#x160;"
d="M399 1497l-182 295h186l111 -178l113 178h180l-186 -295h-222zM436 188q92 0 154 52t63 140q0 87 -41 131t-145 101l-133 74q-233 129 -234 375q0 185 130 287t321 102q129 0 299 -51l-12 -219q-160 61 -262 61t-154 -46q-51 -47 -51 -109q1 -62 25 -101t50 -57t76 -47
l154 -86q133 -74 190 -158t58 -227q0 -211 -132 -321q-132 -109 -350 -109t-323 63l14 233q137 -88 303 -88z" />
    <glyph glyph-name="scaron" unicode="&#x161;" horiz-adv-x="833"
d="M305 1171l-182 295h186l111 -178l112 178h181l-187 -295h-221zM514 281q0 68 -113 133l-104 61q-174 104 -206 192q-17 46 -17 105q0 117 102 208t250 91t276 -43l-14 -197q-121 47 -223 48q-145 0 -146 -103q0 -38 27 -66t92 -69l125 -80q105 -70 151 -125t46 -141
q0 -143 -110 -227t-276 -84t-300 51l12 211q2 0 30 -12q129 -58 234 -58q164 0 164 105z" />
    <glyph glyph-name="Ydieresis" unicode="&#x178;" horiz-adv-x="1138"
d="M643 1561v225h197v-225h-197zM299 1561v225h197v-225h-197zM438 0v573l-422 857h283l279 -572l262 572h282l-422 -863v-567h-262z" />
    <glyph glyph-name="Zcaron" unicode="&#x17d;"
d="M399 1497l-182 295h186l111 -178l113 178h180l-186 -295h-222zM74 0v229l563 992h-547v209h852v-218l-569 -1003h577v-209h-876z" />
    <glyph glyph-name="zcaron" unicode="&#x17e;" horiz-adv-x="833"
d="M305 1171l-182 295h186l111 -178l112 178h181l-187 -295h-221zM57 0v219l451 643h-436v193h690v-217l-443 -645h457v-193h-719z" />
    <glyph glyph-name="florin" unicode="&#x192;" horiz-adv-x="1064"
d="M797 1450q100 0 186 -37l-25 -178q-49 35 -101 35t-82 -47t-50 -154l-39 -231h184l-22 -160h-186l-113 -701q-35 -215 -117 -323t-227 -109q-86 0 -168 37l22 185q61 -29 107 -29t73 35t52 170l125 735h-187l23 160h188l43 241q31 171 101 271t213 100z" />
    <glyph glyph-name="circumflex" unicode="&#x2c6;" horiz-adv-x="454"
d="M-68 1171l187 295h221l182 -295h-186l-111 179l-112 -179h-181z" />
    <glyph glyph-name="caron" unicode="&#x2c7;" horiz-adv-x="454"
d="M115 1171l-183 295h187l110 -178l113 178h180l-186 -295h-221z" />
    <glyph glyph-name="uni02C9" unicode="&#x2c9;" horiz-adv-x="454"
d="M-57 1247v152h569v-152h-569z" />
    <glyph glyph-name="breve" unicode="&#x2d8;" horiz-adv-x="454"
d="M-41 1450h119q0 -45 40 -92t108 -47t110 47q41 47 41 92h119q0 -74 -40 -161q-24 -50 -83 -82q-59 -31 -145 -31t-146 32q-59 32 -83 81q-40 83 -40 161z" />
    <glyph glyph-name="dotaccent" unicode="&#x2d9;" horiz-adv-x="454"
d="M129 1235v225h197v-225h-197z" />
    <glyph glyph-name="ring" unicode="&#x2da;" horiz-adv-x="454"
d="M111 1360q1 -47 35 -82t81 -35t82 35t35 82t-35 82t-82 35t-81 -35t-35 -82zM8 1360q0 90 65 154t155 65q90 0 154 -65q64 -64 64 -154t-64 -155t-155 -65t-155 66q-64 64 -64 154z" />
    <glyph glyph-name="ogonek" unicode="&#x2db;" horiz-adv-x="454"
d="M345 -455q-85 1 -143 51t-59 150q0 129 193 254h86q-127 -133 -127 -248q0 -51 31 -82q54 -54 159 -16l21 -80q-76 -29 -161 -29z" />
    <glyph glyph-name="tilde" unicode="&#x2dc;" horiz-adv-x="454"
d="M39 1194h-119q0 78 46 158t147 82q51 0 130 -35t105 -35q59 0 60 80h127q0 -107 -75 -190q-46 -50 -102 -50t-131 35q-77 35 -113 35t-56 -22t-19 -58z" />
    <glyph glyph-name="hungarumlaut" unicode="&#x2dd;" horiz-adv-x="454"
d="M246 1171l131 295h237l-208 -295h-160zM-98 1171l131 295h237l-209 -295h-159z" />
    <glyph glyph-name="uni03A9" unicode="&#x3a9;" horiz-adv-x="1351"
d="M342 180v6q-102 104 -170 257t-68 337q0 281 163 470q163 190 417 190t407 -197t152 -450q0 -189 -71 -349t-171 -258v-6h269v-180h-488v133q102 71 172 229t69 374t-92 366t-252 150t-258 -146q-97 -144 -97 -362t70 -380t171 -231v-133h-487v180h264z" />
    <glyph glyph-name="uni03BC" unicode="&#x3bc;" horiz-adv-x="1062"
d="M444 -16q-45 0 -75 24v-450h-254v1497h254v-633q-1 -121 35 -175t116 -54q174 0 174 258v604h254v-881q0 -111 8 -174h-237l-8 162l-6 2l2 -2q-106 -178 -263 -178z" />
    <glyph glyph-name="pi" unicode="&#x3c0;" horiz-adv-x="1136"
d="M950 872v-579q0 -182 27 -293h-209q-35 63 -35 283v589h-287q-8 -200 -45 -462t-84 -410h-211q49 170 87 427q37 257 40 445q-127 0 -194 -20l-27 147q90 63 305 64h791l-16 -191h-142z" />
    <glyph glyph-name="uni2010" unicode="&#x2010;" horiz-adv-x="645"
d="M86 477v209h473v-209h-473z" />
    <glyph glyph-name="endash" unicode="&#x2013;"
d="M0 492v180h1024v-180h-1024z" />
    <glyph glyph-name="emdash" unicode="&#x2014;" horiz-adv-x="2048"
d="M0 492v180h2048v-180h-2048z" />
    <glyph glyph-name="quoteleft" unicode="&#x2018;" horiz-adv-x="532"
d="M90 1028l156 508h196l-106 -508h-246z" />
    <glyph glyph-name="quoteright" unicode="&#x2019;" horiz-adv-x="532"
d="M197 1536h245l-155 -508h-197z" />
    <glyph glyph-name="quotesinglbase" unicode="&#x201a;" horiz-adv-x="532"
d="M172 262h246l-156 -508h-196z" />
    <glyph glyph-name="quotedblleft" unicode="&#x201c;" horiz-adv-x="1062"
d="M537 1028l155 508h197l-107 -508h-245zM174 1028l156 508h196l-106 -508h-246z" />
    <glyph glyph-name="quotedblright" unicode="&#x201d;" horiz-adv-x="1062"
d="M281 1536h245l-155 -508h-197zM643 1536h246l-156 -508h-196z" />
    <glyph glyph-name="quotedblbase" unicode="&#x201e;" horiz-adv-x="1062"
d="M281 262h245l-155 -508h-197zM643 262h246l-156 -508h-196z" />
    <glyph glyph-name="dagger" unicode="&#x2020;" horiz-adv-x="1064"
d="M422 0v879h-285v192h285v359h221v-359h285v-192h-285v-879h-221z" />
    <glyph glyph-name="daggerdbl" unicode="&#x2021;" horiz-adv-x="1064"
d="M428 0v317h-291v181h291v434h-291v180h291v318h209v-318h291v-180h-291v-434h291v-181h-291v-317h-209z" />
    <glyph glyph-name="bullet" unicode="&#x2022;"
d="M154 715q0 150 104 254t254 104t254 -104t104 -254t-104 -254q-104 -105 -254 -105t-254 104t-104 255z" />
    <glyph glyph-name="ellipsis" unicode="&#x2026;" horiz-adv-x="2048"
d="M1583 0v266h246v-266h-246zM901 0v266h246v-266h-246zM219 0v266h246v-266h-246z" />
    <glyph glyph-name="perthousand" unicode="&#x2030;" horiz-adv-x="1896"
d="M305 -45l565 1520h127l-565 -1520h-127zM317 680q-248 0 -247 385q0 385 248 385t247 -385q0 -385 -248 -385zM317 823q57 -1 77 55t20 187t-20 186t-76 55q-58 0 -77 -54q-19 -56 -19 -187t18 -187q20 -56 77 -55zM985 -20q-248 0 -248 385t248 385t248 -385t-248 -385z
M985 123q57 0 77 55q19 54 19 186t-19 187q-18 55 -76 55t-78 -55t-19 -186q0 -131 19 -187q20 -55 77 -55zM1579 -20q-248 0 -248 385t248 385t248 -385t-248 -385zM1579 123q57 0 77 55q19 54 19 186t-19 187q-18 55 -76 55t-78 -55t-19 -186q0 -131 19 -187
q20 -55 77 -55z" />
    <glyph glyph-name="guilsinglleft" unicode="&#x2039;" horiz-adv-x="606"
d="M295 106l-217 424l217 424h205l-201 -424l201 -424h-205z" />
    <glyph glyph-name="guilsinglright" unicode="&#x203a;" horiz-adv-x="606"
d="M311 954l217 -424l-217 -424h-205l201 424l-201 424h205z" />
    <glyph glyph-name="fraction" unicode="&#x2044;" horiz-adv-x="342"
d="M-229 -70l641 1569h159l-641 -1569h-159z" />
    <glyph glyph-name="Euro" unicode="&#x20ac;" horiz-adv-x="1064"
d="M813 209q125 0 207 47l12 -240q-119 -37 -258 -36q-233 0 -382 147q-148 147 -193 385h-179l29 123h135q-6 80 0 160h-164l29 123h150q43 228 190 380t371 152q170 0 307 -66l-47 -215q-80 57 -210 57t-213 -84q-83 -85 -120 -224h492l-29 -123h-483q-8 -96 0 -160h454
l-26 -123h-406q39 -133 124 -218t210 -85z" />
    <glyph glyph-name="afii61289" unicode="&#x2113;" horiz-adv-x="970"
d="M414 1061v-348q246 293 245 512q0 178 -114 178q-53 0 -92 -81t-39 -261zM205 1065q0 252 94 376q93 124 229 124q136 1 202 -97t65 -251q0 -324 -381 -711v-88q2 -127 52 -192t130 -64q142 0 246 184l90 -92q-131 -266 -383 -266q-166 0 -248 97t-94 253v22
q-14 -10 -49 -40t-56 -44l-55 119q126 108 158 140v530z" />
    <glyph glyph-name="trademark" unicode="&#x2122;" horiz-adv-x="2048"
d="M1761 578v651h-4l-239 -651h-127l-240 651h-4v-651h-160v852h246l223 -576l219 576h246v-852h-160zM367 578v700h-261v152h680v-152h-260v-700h-159z" />
    <glyph glyph-name="Omega" unicode="&#x2126;" horiz-adv-x="1351"
d="M342 180v6q-102 104 -170 257t-68 337q0 281 163 470q163 190 417 190t407 -197t152 -450q0 -189 -71 -349t-171 -258v-6h269v-180h-488v133q102 71 172 229t69 374t-92 366t-252 150t-258 -146q-97 -144 -97 -362t70 -380t171 -231v-133h-487v180h264z" />
    <glyph glyph-name="estimated" unicode="&#x212e;" horiz-adv-x="1773"
d="M1403 745v404q0 27 -21 47q-212 209 -498 209t-495 -215q-20 -18 -20 -49v-396q0 -12 10 -12h1014q10 0 10 12zM1702 694h-1323q-10 0 -10 -8v-401q0 -27 18 -45q207 -217 511 -217t515 243h117q-111 -131 -282 -208t-363 -76q-338 0 -578 215t-239 518q0 303 239 519
q240 216 579 216q340 0 578 -215t238 -520v-21z" />
    <glyph glyph-name="partialdiff" unicode="&#x2202;" horiz-adv-x="1091"
d="M487 174h2q109 0 182 138t91 325q-20 63 -82 119t-156 57q-94 0 -164 -106q-70 -105 -70 -239t55 -214q54 -80 142 -80zM488 1604q208 0 358 -200t150 -578t-140 -606q-139 -230 -389 -230q-184 0 -287 142q-102 142 -102 331q0 238 121 384t293 146q106 0 181 -52
t107 -110h2v72q0 215 -94 366t-236 151t-251 -97l-64 166q143 115 351 115z" />
    <glyph glyph-name="uni2206" unicode="&#x2206;" horiz-adv-x="1253"
d="M276 178h691l-226 645q-14 51 -58 187t-56 184h-6q-7 -41 -49 -165t-56 -175zM55 0v133l449 1317h256l436 -1313v-137h-1141z" />
    <glyph glyph-name="product" unicode="&#x220f;" horiz-adv-x="1376"
d="M1325 1217h-197v-1414h-215v1414h-450v-1414h-215v1414h-199v200h1276v-200z" />
    <glyph glyph-name="summation" unicode="&#x2211;" horiz-adv-x="1071"
d="M1030 -197h-985v146l481 663l-463 650v155h936v-186h-645v-8l416 -574l-461 -633v-6h721v-207z" />
    <glyph glyph-name="minus" unicode="&#x2212;" horiz-adv-x="1228"
d="M96 428v180h1037v-180h-1037z" />
    <glyph glyph-name="uni2215" unicode="&#x2215;" horiz-adv-x="342"
d="M-229 -70l641 1569h159l-641 -1569h-159z" />
    <glyph glyph-name="uni2219" unicode="&#x2219;" horiz-adv-x="530"
d="M109 582q0 66 46 112q45 46 111 45q66 0 112 -46q46 -45 46 -111t-46 -112t-112 -46t-112 46t-45 112z" />
    <glyph glyph-name="radical" unicode="&#x221a;" horiz-adv-x="1134"
d="M1143 1698l-430 -1985h-176l-293 903l-144 -55l-37 127l314 125l209 -668q18 -106 37 -170l2 -2q4 21 13 83t15 98l338 1544h152z" />
    <glyph glyph-name="infinity" unicode="&#x221e;" horiz-adv-x="1529"
d="M1120 786h-2q-74 0 -134 -51t-100 -97t-48 -54q98 -117 157 -162t136 -45t126 61t49 146q0 86 -50 144q-52 58 -134 58zM416 377h4q53 0 109 35q56 34 84 64t85 95q-98 129 -156 172t-138 43q-82 0 -132 -60t-49 -148q-1 -88 55 -144q56 -57 138 -57zM1432 588v-2
q0 -150 -92 -242t-220 -92q-90 0 -174 52t-180 175q-88 -111 -172 -169t-201 -58t-208 93t-91 235t92 234q92 93 230 93q102 0 186 -57t170 -166q109 121 162 158q94 66 212 66t202 -90q84 -89 84 -230z" />
    <glyph glyph-name="integral" unicode="&#x222b;" horiz-adv-x="757"
d="M164 -172q131 0 131 334q0 215 -13 548q-14 332 -14 502t26 274t87 171q78 90 215 90q66 0 115 -25l-25 -153q-33 18 -80 18t-86 -51q-55 -74 -55 -348q0 -160 13 -485t14 -504q0 -273 -73 -407t-237 -134q-88 0 -141 31l29 159q47 -20 94 -20z" />
    <glyph glyph-name="approxequal" unicode="&#x2248;" horiz-adv-x="1071"
d="M729 266q-86 0 -208 74t-171 74t-86 -25t-54 -49t-50 -72l-82 70q45 90 118 145t145 55t110 -16t74 -36t63 -36q97 -57 148 -57q52 0 90 35t83 109l80 -72q-98 -199 -260 -199zM727 623q-84 -1 -204 73t-172 74q-86 0 -141 -73q-19 -26 -50 -72l-82 71q45 90 118 144
t157 55q84 0 181 -56q26 -15 30 -19t22 -13q18 -10 24 -14t33 -20t42 -17q15 -2 27 -4t23 -2q53 0 92 36t82 109l80 -72q-43 -90 -111 -145t-151 -55z" />
    <glyph glyph-name="notequal" unicode="&#x2260;" horiz-adv-x="1071"
d="M975 842v-131h-324l-119 -273h443v-129h-492l-98 -225l-100 43l80 182h-271v129h320l118 273h-438v131h486l98 221l100 -41l-78 -180h275z" />
    <glyph glyph-name="lessequal" unicode="&#x2264;" horiz-adv-x="1071"
d="M977 -8h-881v133h881v-133zM969 201l-863 444v139l863 445v-154l-733 -356v-4l733 -359v-155z" />
    <glyph glyph-name="greaterequal" unicode="&#x2265;" horiz-adv-x="1071"
d="M975 -8h-877v133h877v-133zM109 1229l864 -445v-139l-864 -444v155l733 357v4l-733 358v154z" />
    <glyph glyph-name="lozenge" unicode="&#x25ca;" horiz-adv-x="1134"
d="M840 702l-232 502q-23 59 -37 123h-6q-10 -47 -37 -123l-235 -491l235 -510q27 -78 33 -117h8q23 88 35 113zM1034 709l-385 -803h-174l-375 803l383 802h176z" />
    <glyph glyph-name="fi" unicode="&#xfb01;" horiz-adv-x="1175"
d="M197 0v868h-177v187h177v215q0 127 70 209q71 82 233 82q63 0 182 -25l-10 -184q-60 16 -108 16t-81 -36t-32 -95v-182h192v-187h-192v-868h-254zM778 1253v250h262v-250h-262zM782 0v1055h254v-1055h-254z" />
    <glyph glyph-name="fl" unicode="&#xfb02;" horiz-adv-x="1175"
d="M197 0v868h-177v187h177v215q0 127 70 209q71 82 233 82q63 0 182 -25l-10 -184q-60 16 -108 16t-81 -36t-32 -95v-182h192v-187h-192v-868h-254zM782 0v1536h254v-1536h-254z" />
    <glyph glyph-name="a.superior" horiz-adv-x="720"
d="M471 1081v29h-14q-89 0 -153 -27t-64 -82q0 -88 102 -88q129 0 129 168zM394 1450q134 0 192 -64t57 -190v-276q0 -61 10 -109h-159q-8 41 -9 82h-6q-72 -90 -178 -90t-170 48q-63 48 -63 132q0 221 374 221h29v23q0 104 -123 104t-186 -51l-10 123q108 47 242 47z" />
    <glyph glyph-name="o.superior" horiz-adv-x="720"
d="M49 1126q0 174 91 249t220 75q128 0 220 -75t92 -249t-91 -248t-221 -75q-130 1 -220 75q-91 74 -91 248zM229 1126q0 -205 131 -204q132 0 132 204t-132 205q-132 0 -131 -205z" />
    <glyph glyph-name="one.superior" horiz-adv-x="692"
d="M311 578v669l-123 -108l-90 114l230 183h164v-858h-181z" />
    <glyph glyph-name="two.superior" horiz-adv-x="692"
d="M76 578v137l65 69q14 16 91 96t122 145q66 93 66 154q0 60 -34 94t-75 34q-78 -1 -104 -13q-27 -12 -37 -16t-30 -16t-21 -13l-15 152q94 49 238 49t210 -64q65 -64 64 -165q0 -193 -294 -476l-15 -16h305v-151h-536z" />
    <glyph glyph-name="three.superior" horiz-adv-x="692"
d="M424 1201q0 114 -150 114q-70 0 -172 -43l-12 141q127 37 245 37q117 0 193 -56t76 -158t-57 -148t-123 -54v-4q146 -34 181 -112q17 -39 18 -93q-1 -123 -95 -189t-217 -67q-123 0 -250 37l11 142q108 -43 186 -43q78 1 123 37t45 96q0 123 -168 123q-47 0 -72 -9v138
q27 -10 78 -10t106 30q54 31 54 91z" />
    </font>
</defs>
</svg>
