<?xml version="1.0" standalone="no"?>
<!DOCTYPE svg PUBLIC "-//W3C//DTD SVG 1.1//EN" "http://www.w3.org/Graphics/SVG/1.1/DTD/svg11.dtd" >
<svg xmlns="http://www.w3.org/2000/svg">
<metadata>
Created by FontPrep 20130207 at Mon Jan 18 17:19:41 2016
 By Rafael Gomes
(c) 1988, 1990, 1994, 2002 Adobe Systems Incorporated. All rights reserved.
</metadata>
<defs>
<font id="bf67fadca544e69c4c25f93d798ea14a" horiz-adv-x='1024' >
  <font-face
    font-family="FrutigerLTStd-BlackItalic"
    font-weight="850"
    font-style="italic"
    font-stretch="normal"
    units-per-em="2048"
    panose-1="2 11 8 3 3 5 4 10 2 4"
    ascent="1536"
    descent="-512"
    x-height="1067"
    cap-height="1430"
    bbox="-393 -512 2232 1940"
    underline-thickness="102"
    underline-position="-102"
    slope="-12"
    unicode-range="U+0020-FB02"
  />
<missing-glyph horiz-adv-x="1228"
d="M307 1239v-1044l348 522zM369 102h696l-348 523zM778 717l348 -522v1044zM717 809l348 522h-696zM205 0v1434h1024v-1434h-1024z" />
    <glyph glyph-name="f_i" unicode="fi" horiz-adv-x="1593"
d="M924 1303q-131 0 -170 -173l-15 -63h275l-58 -258h-270l-168 -809h-368l172 809h-232l57 258h224l28 135q37 168 149 263t281 95t281 -32l-70 -252q-68 27 -116 27zM965 0l221 1067h373l-222 -1067h-372zM1223 1241l57 270h373l-58 -270h-372z" />
    <glyph glyph-name="f_l" unicode="fl" horiz-adv-x="1593"
d="M924 1303q-131 0 -170 -173l-15 -63h275l-58 -258h-270l-168 -809h-368l172 809h-232l57 258h224l28 135q37 168 149 263t281 95t281 -32l-70 -252q-68 27 -116 27zM965 0l319 1536h373l-320 -1536h-372z" />
    <glyph glyph-name=".notdef" horiz-adv-x="1228"
d="M307 1239v-1044l348 522zM369 102h696l-348 523zM778 717l348 -522v1044zM717 809l348 522h-696zM205 0v1434h1024v-1434h-1024z" />
    <glyph glyph-name=".null" horiz-adv-x="0"
 />
    <glyph glyph-name="nonmarkingreturn" horiz-adv-x="681"
 />
    <glyph glyph-name="space" unicode=" " horiz-adv-x="626"
 />
    <glyph glyph-name="exclam" unicode="!" horiz-adv-x="909"
d="M182 0l70 332h346l-70 -332h-346zM313 469l156 961h381l-254 -961h-283z" />
    <glyph glyph-name="quotedbl" unicode="&#x22;"
d="M436 874v556h271v-556h-271zM836 874v556h270v-556h-270z" />
    <glyph glyph-name="numbersign" unicode="#" horiz-adv-x="1253"
d="M756 604l30 225h-178l-30 -225h178zM158 383l20 221h182l31 225h-172l21 222h182l53 379h217l-53 -379h178l51 379h215l-51 -379h162l-20 -222h-173l-30 -225h162l-21 -221h-172l-53 -383h-215l53 383h-178l-53 -383h-218l54 383h-172z" />
    <glyph glyph-name="dollar" unicode="$" horiz-adv-x="1253"
d="M1184 498q0 -254 -167 -383t-427 -140l-39 -165h-143l38 165q-252 0 -407 70l90 283q139 -68 377 -82l82 362q-160 52 -276 135q-115 84 -109 252q0 113 50 203t134 144q174 112 393 112l37 164h144l-37 -164q170 -8 350 -68l-90 -272q-170 76 -320 82l-69 -307
q159 -47 261 -117q128 -89 128 -274zM852 436q0 84 -127 137l-74 -321q201 37 201 184zM659 915l64 281q-84 -8 -136 -52t-52 -108q-1 -84 124 -121z" />
    <glyph glyph-name="percent" unicode="%" horiz-adv-x="2048"
d="M412 -45l1106 1520h225l-1106 -1520h-225zM643 1270q-67 0 -103 -114t-36 -204t61 -90q68 0 109 106t41 189q0 113 -72 113zM563 678q-149 0 -233 86t-84 250t107 303q108 137 294 137q154 0 240 -86t86 -254t-109 -302t-301 -134zM1438 250q0 -90 61 -90q66 0 108 110
t42 185q0 113 -72 112q-67 1 -103 -113t-36 -204zM1180 312q0 164 107 302q108 138 278 138t256 -86t86 -254t-109 -302t-301 -135q-149 1 -233 87t-84 250z" />
    <glyph glyph-name="ampersand" unicode="&#x26;" horiz-adv-x="1593"
d="M420 381q0 -76 54 -118t163 -42t233 68q-186 226 -266 317q-184 -82 -184 -225zM588 -25q-224 1 -362 105t-138 317q0 163 101 265t266 139q-127 123 -127 287t151 265q152 101 341 101q190 0 320 -85t130 -259q0 -144 -112 -242t-275 -147q106 -117 213 -260
q133 111 172 311h293q-27 -158 -105 -300t-194 -216l208 -256h-389l-63 84q-141 -109 -430 -109zM647 1071q0 -80 88 -168q84 21 156 73t72 118t-41 100q-41 35 -111 35t-117 -39t-47 -119z" />
    <glyph glyph-name="quotesingle" unicode="'" horiz-adv-x="681"
d="M326 874v556h270v-556h-270z" />
    <glyph glyph-name="parenleft" unicode="(" horiz-adv-x="796"
d="M504 358q0 -342 141 -645h-278q-195 385 -195 690q1 676 576 1145h278q-522 -528 -522 -1190z" />
    <glyph glyph-name="parenright" unicode=")" horiz-adv-x="796"
d="M168 -287h-279q522 528 523 1190q0 342 -142 645h279q195 -385 194 -690q0 -676 -575 -1145z" />
    <glyph glyph-name="asterisk" unicode="*"
d="M780 594l-88 276l-205 -241l-163 180l256 174l-283 109l121 215l248 -185l8 308l246 -44l-99 -286l287 74l33 -240h-297l151 -240z" />
    <glyph glyph-name="plus" unicode="+" horiz-adv-x="1228"
d="M127 389v258h389v389h258v-389h389v-258h-389v-389h-258v389h-389z" />
    <glyph glyph-name="comma" unicode="," horiz-adv-x="626"
d="M-125 -223l236 555h364l-305 -555h-295z" />
    <glyph glyph-name="hyphen" unicode="-" horiz-adv-x="681"
d="M61 416l54 270h555l-56 -270h-553z" />
    <glyph glyph-name="period" unicode="." horiz-adv-x="626"
d="M41 0l70 332h346l-70 -332h-346z" />
    <glyph glyph-name="slash" unicode="/" horiz-adv-x="569"
d="M4 -25l397 1479h258l-397 -1479h-258z" />
    <glyph glyph-name="zero" unicode="0" horiz-adv-x="1253"
d="M98 494q0 383 170 663q82 135 215 216t297 81q230 0 356 -134t126 -391t-76 -471t-234 -348t-380 -134t-348 134t-126 384zM913 1016q0 176 -127 180q-86 0 -156 -98t-108 -236q-74 -275 -75 -452q-1 -176 139 -177q86 1 154 99t104 236q69 272 69 448z" />
    <glyph glyph-name="one" unicode="1" horiz-adv-x="1253"
d="M422 0l242 1053l-283 -193l-139 260l532 310h330l-301 -1430h-381z" />
    <glyph glyph-name="two" unicode="2" horiz-adv-x="1253"
d="M627 1171q-160 0 -346 -104l36 324q205 63 403 63t337 -94q71 -47 111 -128q40 -82 40 -184q0 -192 -125 -359q-97 -130 -282 -262t-219 -153v-4h503l-55 -270h-1028l45 248q479 338 600 444q178 160 179 270t-55 159q-56 50 -144 50z" />
    <glyph glyph-name="three" unicode="3" horiz-adv-x="1253"
d="M559 850q295 0 295 168q0 82 -68 118t-165 35q-172 0 -326 -65l37 297q206 51 370 51t270 -32t185 -116q78 -84 78 -208q-1 -162 -105 -259t-272 -114v-4q260 -59 260 -291q0 -347 -420 -433q-106 -22 -225 -22q-276 0 -459 91l72 274q178 -82 375 -82q115 0 195 46
t81 149q0 65 -43 101t-89 43t-115 7t-130 -6l52 260q41 -8 147 -8z" />
    <glyph glyph-name="four" unicode="4" horiz-adv-x="1253"
d="M555 0l57 272h-624l43 258l768 900h424l-195 -900h201l-51 -258h-205l-60 -272h-358zM684 530l145 605h-4l-485 -605h344z" />
    <glyph glyph-name="five" unicode="5" horiz-adv-x="1253"
d="M1157 510q0 -166 -100 -292q-101 -126 -249 -184t-346 -58t-390 83l57 281q141 -82 301 -82t253 58t93 170t-82 161t-210 49t-271 -30l162 764h934l-47 -259h-615l-45 -229q555 0 555 -432z" />
    <glyph glyph-name="six" unicode="6" horiz-adv-x="1253"
d="M903 1184q-170 0 -257 -95t-122 -255l4 -5q100 80 244 80q184 1 296 -113t112 -330t-144 -353t-386 -137q-243 0 -381 140t-138 386q0 388 173 658q87 136 238 215q152 79 364 79t392 -106l-88 -256q-137 92 -307 92zM831 466q0 89 -41 143q-42 55 -131 55t-143 -77
t-53 -165q0 -88 42 -144t133 -56t142 77q51 78 51 167z" />
    <glyph glyph-name="seven" unicode="7" horiz-adv-x="1253"
d="M1323 1430l-70 -324l-725 -1106h-434l774 1159h-639l56 271h1038z" />
    <glyph glyph-name="eight" unicode="8" horiz-adv-x="1253"
d="M410 392q0 -75 53 -117t137 -42q84 1 144 53t61 130q0 125 -170 200q-93 -31 -159 -90t-66 -134zM569 1044q0 -100 121 -192q219 80 219 213q0 71 -44 107q-45 36 -113 36t-126 -50t-57 -114zM1153 401q0 -107 -49 -188q-50 -81 -108 -127t-163 -79q-105 -32 -243 -32
q-215 1 -372 105t-157 272q-1 168 93 258t254 146q-86 41 -137 113q-50 73 -50 159q1 198 149 312t392 114q290 0 422 -155q74 -87 74 -220t-104 -233q-102 -100 -245 -127v-2q244 -84 244 -316z" />
    <glyph glyph-name="nine" unicode="9" horiz-adv-x="1253"
d="M446 246q170 0 257 95t122 255l-4 4q-100 -80 -243 -80q-184 0 -296 114t-112 330t143 352q143 138 386 138t381 -140t139 -386q0 -389 -173 -659q-87 -136 -238 -215q-151 -78 -364 -78t-393 106l88 256q137 -92 307 -92zM712 1208q-90 0 -142 -78t-52 -167t42 -143
t131 -54t143 77q53 77 53 165t-42 144t-133 56z" />
    <glyph glyph-name="colon" unicode=":" horiz-adv-x="626"
d="M41 0l70 332h346l-70 -332h-346zM195 735l69 332h346l-69 -332h-346z" />
    <glyph glyph-name="semicolon" unicode=";" horiz-adv-x="626"
d="M195 735l69 332h346l-69 -332h-346zM-125 -223l236 555h364l-305 -555h-295z" />
    <glyph glyph-name="less" unicode="&#x3c;" horiz-adv-x="1228"
d="M1163 1053v-250l-698 -285l698 -285v-249l-1036 426v217z" />
    <glyph glyph-name="equal" unicode="=" horiz-adv-x="1228"
d="M127 154v258h1036v-258h-1036zM127 625v258h1036v-258h-1036z" />
    <glyph glyph-name="greater" unicode="&#x3e;" horiz-adv-x="1228"
d="M127 -16v249l698 285l-698 285v250l1036 -426v-217z" />
    <glyph glyph-name="question" unicode="?" horiz-adv-x="1138"
d="M268 0l70 332h346l-70 -332h-346zM624 1454q291 0 439 -139q84 -79 84 -187t-40 -188t-101 -136q-60 -56 -124 -106q-164 -130 -202 -239h-291q6 90 49 167q44 77 100 129t110 100q130 116 130 206q0 51 -64 93q-65 42 -155 42q-159 0 -319 -72l43 281q209 49 341 49z
" />
    <glyph glyph-name="at" unicode="@" horiz-adv-x="1638"
d="M76 712q0 320 220 531t560 211q295 0 501 -166t206 -432q0 -129 -44 -232q-45 -102 -107 -164t-165 -118t-207 -57q-42 -1 -72 25t-32 75h-4q-90 -100 -213 -100q-123 1 -216 113t-93 280t109 291q110 123 276 123t249 -117l19 96h192l-69 -428q-20 -106 -21 -113
q0 -39 27 -38q66 0 119 76t55 225q2 225 -128 345t-383 120t-399 -154t-146 -402t151 -388q152 -142 395 -142t399 109h209q-221 -305 -596 -306q-338 0 -565 209q-227 208 -227 528zM631 678q0 -86 45 -142t130 -55t136 63t51 154t-47 144q-47 53 -128 53t-134 -66
q-53 -65 -53 -151z" />
    <glyph glyph-name="A" unicode="A" horiz-adv-x="1593"
d="M1018 575l-62 560h-4l-303 -560h369zM-84 0l850 1430h479l234 -1430h-385l-39 305h-555l-170 -305h-414z" />
    <glyph glyph-name="B" unicode="B" horiz-adv-x="1366"
d="M567 270q322 0 322 193q-1 88 -61 116t-201 27h-92l-70 -336h102zM965 1430q132 0 256 -62q67 -34 107 -102t40 -164q0 -142 -102 -242t-273 -121v-4q127 -18 202 -90t75 -186q0 -217 -164 -332t-424 -119l-651 -8l299 1430h635zM733 864q119 0 187 44t68 121t-59 104
q-58 27 -179 26h-99l-61 -295h143z" />
    <glyph glyph-name="C" unicode="C" horiz-adv-x="1366"
d="M1063 1171q-137 0 -243 -46t-170 -124q-124 -155 -124 -355t106 -294t300 -94q193 0 348 80l-41 -307q-166 -55 -381 -56q-340 1 -532 183t-193 483q0 361 237 587t634 226q300 0 505 -76l-90 -293q-150 86 -356 86z" />
    <glyph glyph-name="D" unicode="D" horiz-adv-x="1593"
d="M645 283q135 0 239 47q183 83 252 301q30 94 29 198q0 182 -107 250q-108 68 -306 68h-95l-180 -864h168zM829 1430q345 0 537 -146t193 -428q0 -432 -245 -644t-667 -212h-616l303 1430h495z" />
    <glyph glyph-name="E" unicode="E"
d="M31 0l307 1430h1005l-55 -271h-629l-65 -295h596l-60 -270h-593l-70 -324h653l-55 -270h-1034z" />
    <glyph glyph-name="F" unicode="F" horiz-adv-x="1138"
d="M10 0l303 1430h957l-53 -271h-582l-72 -313h561l-55 -271h-553l-121 -575h-385z" />
    <glyph glyph-name="G" unicode="G" horiz-adv-x="1593"
d="M883 258q72 0 151 25l64 282h-228l56 271h600l-170 -797q-211 -63 -498 -64q-340 1 -532 183t-193 483q1 375 235 594t713 219q214 0 478 -70l-82 -290q-176 78 -414 77q-137 0 -243 -46t-170 -124q-124 -155 -124 -354q0 -197 100 -293t257 -96z" />
    <glyph glyph-name="H" unicode="H" horiz-adv-x="1478"
d="M31 0l297 1430h383l-113 -547h453l112 547h383l-297 -1430h-383l127 612h-452l-127 -612h-383z" />
    <glyph glyph-name="I" unicode="I" horiz-adv-x="681"
d="M47 0l297 1430h385l-297 -1430h-385z" />
    <glyph glyph-name="J" unicode="J" horiz-adv-x="909"
d="M230 -25q-128 0 -298 48l78 309q80 -37 162 -37q82 1 111 23t45 34t30 42t23 43q8 13 18 53q9 40 13 50t13 56q9 45 9 49l168 785h387l-194 -893q-53 -242 -90 -322q-74 -160 -244 -213q-103 -27 -231 -27z" />
    <glyph glyph-name="K" unicode="K" horiz-adv-x="1478"
d="M31 0l301 1430h385l-123 -584h4l516 584h494l-680 -695l422 -735h-441l-352 649h-4l-137 -649h-385z" />
    <glyph glyph-name="L" unicode="L" horiz-adv-x="1138"
d="M31 0l297 1430h387l-238 -1147h598l-59 -283h-985z" />
    <glyph glyph-name="M" unicode="M" horiz-adv-x="1933"
d="M12 0l312 1430h598l22 -961h4l449 961h610l-303 -1430h-373l260 1171h-4l-561 -1171h-360l-54 1171h-4l-248 -1171h-348z" />
    <glyph glyph-name="N" unicode="N" horiz-adv-x="1593"
d="M27 0l305 1430h477l293 -992h4l201 992h360l-303 -1430h-475l-299 989h-4l-199 -989h-360z" />
    <glyph glyph-name="O" unicode="O" horiz-adv-x="1593"
d="M1190 840q0 150 -64 240t-202 91q-104 0 -188 -56q-146 -97 -206 -333q-25 -98 -24 -194q0 -146 63 -238t203 -92q104 0 189 56q146 98 204 333q25 99 25 193zM1583 870q0 -414 -215 -654t-620 -241q-168 -1 -294 49t-199 134q-144 166 -142 399q0 417 215 657t620 240
q168 0 294 -49q229 -89 306 -319q35 -101 35 -216z" />
    <glyph glyph-name="P" unicode="P"
d="M694 1430q309 0 438 -64t167 -175q24 -67 24 -155q0 -256 -181 -396t-454 -140h-194l-107 -500h-381l307 1430h381zM653 770q127 0 208 52t81 171q0 166 -197 166h-112l-82 -389h102z" />
    <glyph glyph-name="Q" unicode="Q" horiz-adv-x="1593"
d="M748 -25q-279 -1 -457 147t-178 435q0 417 215 657t620 240q168 0 294 -49q229 -89 306 -318q35 -100 35 -215q0 -305 -118 -519t-343 -308l271 -315h-447l-160 245h-38zM1190 840q0 150 -64 240t-202 91q-104 0 -188 -56q-146 -97 -206 -333q-25 -98 -24 -194
q0 -146 63 -238t203 -92q104 0 189 56q146 98 204 333q25 99 25 193z" />
    <glyph glyph-name="R" unicode="R" horiz-adv-x="1366"
d="M788 1430q248 0 363 -37t176 -113q61 -77 62 -215q0 -315 -416 -367v-4q117 -10 170 -254l102 -440h-381l-73 365q-29 141 -61 171t-161 29h-41l-114 -565h-383l301 1430h456zM713 836q295 0 295 176q0 143 -177 147h-182l-65 -323h129z" />
    <glyph glyph-name="S" unicode="S"
d="M604 1034q0 -55 58 -93t138 -69q81 -32 163 -72t139 -123t57 -201t-41 -207q-40 -89 -108 -143q-185 -148 -537 -150q-217 -1 -455 73l91 291q55 -38 155 -60t197 -22q305 0 305 170q0 61 -57 104t-139 73t-162 68q-82 38 -140 113q-57 76 -57 199t54 219q96 170 350 227
q108 24 233 23q303 0 438 -63l-92 -285q-138 66 -292 66t-226 -30q-72 -28 -72 -108z" />
    <glyph glyph-name="T" unicode="T" horiz-adv-x="1138"
d="M274 0l244 1147h-356l61 283h1100l-61 -283h-357l-243 -1147h-388z" />
    <glyph glyph-name="U" unicode="U" horiz-adv-x="1478"
d="M702 -25q-262 1 -418 107t-155 344q0 129 31 270l162 734h387l-172 -809q-27 -125 -27 -156q0 -91 52 -149t160 -58t163 71q23 28 38 47t30 59t25 63q9 24 21 72q11 48 17 68t16 74t15 70l141 648h379l-140 -666q-33 -158 -61 -259t-84 -212q-55 -111 -127 -173
q-73 -62 -187 -104t-266 -41z" />
    <glyph glyph-name="V" unicode="V" horiz-adv-x="1478"
d="M1663 1430l-791 -1430h-471l-186 1430h383l96 -1082h4l553 1082h412z" />
    <glyph glyph-name="W" unicode="W" horiz-adv-x="2048"
d="M231 0l-8 1430h377l-49 -1098h4l424 1098h487l-32 -1098h4l409 1098h385l-612 -1430h-492l29 1122h-4l-430 -1122h-492z" />
    <glyph glyph-name="X" unicode="X" horiz-adv-x="1478"
d="M-78 0l631 758l-293 672h416l151 -455l334 455h463l-573 -682l315 -748h-416l-178 512l-387 -512h-463z" />
    <glyph glyph-name="Y" unicode="Y" horiz-adv-x="1478"
d="M444 0l111 528l-334 902h402l178 -576l395 576h469l-721 -902l-110 -528h-390z" />
    <glyph glyph-name="Z" unicode="Z"
d="M223 1147l58 283h1101l-63 -304l-825 -843h653l-53 -283h-1131l66 303l811 844h-617z" />
    <glyph glyph-name="bracketleft" unicode="[" horiz-adv-x="909"
d="M102 -287l381 1835h543l-47 -225h-236l-286 -1384h235l-47 -226h-543z" />
    <glyph glyph-name="backslash" unicode="\" horiz-adv-x="569"
d="M401 -25l-397 1479h258l397 -1479h-258z" />
    <glyph glyph-name="bracketright" unicode="]" horiz-adv-x="909"
d="M870 1548l-381 -1835h-542l47 226h235l287 1384h-235l47 225h542z" />
    <glyph glyph-name="asciicircum" unicode="^" horiz-adv-x="1228"
d="M225 682l357 748h229l356 -748h-249l-222 465l-221 -465h-250z" />
    <glyph glyph-name="underscore" unicode="_" horiz-adv-x="1024"
d="M0 -154h1024v-102h-1024v102z" />
    <glyph glyph-name="grave" unicode="`" horiz-adv-x="569"
d="M117 1493h383l196 -270v-25h-241l-338 250v45z" />
    <glyph glyph-name="a" unicode="a"
d="M381 328q0 -41 35 -74t90 -33q114 0 186 70t92 182q-31 6 -98 6q-133 3 -219 -39t-86 -112zM33 285q0 188 165 289t423 102q72 0 198 -10q4 14 4 43q0 59 -54 98t-142 39q-184 0 -346 -84l36 268q179 62 389 62t338 -88t127 -275q0 -86 -57 -330t-78 -399h-301l17 150
l-4 4v-4q-111 -174 -359 -175q-356 0 -356 310z" />
    <glyph glyph-name="b" unicode="b" horiz-adv-x="1366"
d="M743 809q-121 1 -199 -107t-79 -212q0 -104 45 -168q45 -63 131 -64q125 0 202 100t77 216t-46 176t-131 59zM896 1092q194 0 300 -126q104 -126 104 -312q0 -400 -246 -581q-130 -97 -315 -98q-272 0 -370 226h-4l-54 -201h-342q33 92 74 266l283 1270h362l-133 -598h4
q143 154 337 154z" />
    <glyph glyph-name="c" unicode="c" horiz-adv-x="1024"
d="M552 -25q-210 1 -348 141t-138 347q0 266 192 447q193 181 496 182q164 0 336 -72l-80 -256q-125 57 -254 57t-219 -91t-91 -253q0 -98 70 -165q70 -66 188 -66t234 47l-53 -277q-123 -41 -333 -41z" />
    <glyph glyph-name="d" unicode="d" horiz-adv-x="1366"
d="M623 258q121 0 199 108t79 211q0 103 -45 167t-131 65q-125 0 -202 -100t-77 -216q0 -115 46 -175t131 -60zM825 0l29 170h-4q-80 -100 -163 -147t-239 -47t-269 128q-113 130 -113 312q1 396 240 578q126 98 280 98t252 -54q96 -54 139 -143h4l129 641h363l-287 -1376
q-14 -74 -23 -160h-338z" />
    <glyph glyph-name="e" unicode="e"
d="M889 635q0 211 -180 211q-111 0 -181 -62t-92 -149h453zM1196 627q0 -82 -27 -201h-755q4 -96 66 -150t231 -55q169 0 323 74l-47 -260q-197 -59 -373 -60q-258 1 -403 139t-145 349t140 405q71 98 201 160t298 64q223 0 357 -116t134 -349z" />
    <glyph glyph-name="f" unicode="f" horiz-adv-x="909"
d="M924 1303q-131 0 -170 -173l-15 -63h275l-58 -258h-270l-168 -809h-368l172 809h-232l57 258h224l28 135q37 168 149 263t281 95t281 -32l-70 -252q-68 27 -116 27z" />
    <glyph glyph-name="g" unicode="g" horiz-adv-x="1366"
d="M909 598q0 104 -51 158t-145 53q-127 0 -197 -101t-70 -229q0 -84 54 -140t139 -56q129 0 200 105q70 106 70 210zM505 0q-216 0 -328 133t-111 352q0 254 159 430q160 176 412 177q129 0 226 -54t143 -166h4l47 195h342q-2 -12 -27 -100t-41 -156l-164 -727
q-72 -313 -213 -426t-471 -113q-198 0 -417 68l71 287q141 -82 320 -84t267 78q87 80 130 288l-4 4q-129 -186 -345 -186z" />
    <glyph glyph-name="h" unicode="h" horiz-adv-x="1366"
d="M1286 723q0 -82 -29 -225l-98 -498h-381l103 500q25 127 25 171t-37 80q-36 36 -107 33q-110 0 -182 -83t-93 -209l-104 -492h-369l324 1536h373l-131 -625h4q135 180 370 181q156 0 244 -104t88 -265z" />
    <glyph glyph-name="i" unicode="i" horiz-adv-x="681"
d="M311 1241l58 270h372l-57 -270h-373zM53 0l221 1067h373l-221 -1067h-373z" />
    <glyph glyph-name="j" unicode="j" horiz-adv-x="681"
d="M311 1241l58 270h372l-57 -270h-373zM-250 -424l60 236q41 -20 100 -20t89 46q30 47 54 166l221 1063h373l-221 -1063q-52 -250 -158 -354t-340 -105q-82 0 -178 31z" />
    <glyph glyph-name="k" unicode="k"
d="M14 0l330 1536h373l-197 -918h4l355 449h419l-440 -514l277 -553h-410l-219 528h-4l-113 -528h-375z" />
    <glyph glyph-name="l" unicode="l" horiz-adv-x="681"
d="M53 0l320 1536h372l-319 -1536h-373z" />
    <glyph glyph-name="m" unicode="m" horiz-adv-x="1933"
d="M1886 774q0 -127 -24 -239l-111 -535h-369l107 518q20 92 20 156q0 111 -118 110q-150 0 -202 -217q-7 -29 -18 -75l-104 -492h-369l107 518q20 92 20 156q0 111 -118 110q-150 0 -202 -217q-7 -29 -18 -75l-104 -492h-369l166 788q33 164 45 279h328l-41 -195l4 2
q68 102 167 160t205 58t185 -56q80 -56 101 -162q145 217 380 218q140 0 236 -77t96 -241z" />
    <glyph glyph-name="n" unicode="n" horiz-adv-x="1366"
d="M1286 723q0 -82 -29 -225l-98 -498h-381l103 500q25 127 25 171t-37 80q-36 36 -107 33q-110 0 -182 -83t-93 -209l-104 -492h-369l166 788q33 164 45 279h342l-28 -174h4q88 98 182 148q93 51 239 51t234 -104t88 -265z" />
    <glyph glyph-name="o" unicode="o" horiz-adv-x="1366"
d="M1309 614q-1 -319 -187 -479t-484 -160q-298 -1 -435 135t-137 353q0 283 188 456t500 173q262 0 408 -134t147 -344zM928 618q0 92 -46 154t-160 62t-195 -113t-81 -236t54 -189t147 -63q129 1 205 103t76 282z" />
    <glyph glyph-name="p" unicode="p" horiz-adv-x="1366"
d="M743 809q-121 1 -199 -107t-79 -212q0 -104 45 -168q45 -63 131 -64q125 0 202 100t77 216t-46 176t-131 59zM903 1092q189 0 293 -126t104 -312q0 -400 -246 -581q-130 -97 -315 -98q-225 0 -344 203l-135 -608h-373l297 1337q12 55 23 160h338l-29 -170h4
q160 195 383 195z" />
    <glyph glyph-name="q" unicode="q" horiz-adv-x="1366"
d="M623 258q121 0 199 108t79 211q0 103 -45 167t-131 65q-125 0 -202 -100t-77 -216q0 -115 46 -175t131 -60zM478 -25q-184 0 -299 129q-113 130 -113 312q1 396 240 578q126 98 289 98t256 -62t142 -188h4l58 225h342q-37 -98 -66 -238l-264 -1259h-373l117 557h-4
q-145 -152 -329 -152z" />
    <glyph glyph-name="r" unicode="r" horiz-adv-x="909"
d="M853 1092q99 0 163 -27l-84 -326q-57 45 -169 45q-111 0 -183 -83t-93 -209l-104 -492h-369l166 788q33 164 45 279h342l-41 -219h4q48 102 136 173t187 71z" />
    <glyph glyph-name="s" unicode="s" horiz-adv-x="1024"
d="M131 752q0 108 85 190q155 150 454 150q158 0 354 -64l-78 -242q-143 60 -305 60t-162 -92q0 -64 231 -133q86 -27 158 -92t72 -154q0 -191 -140 -293t-372 -106t-436 55l74 252q141 -61 299 -62q207 0 206 94q0 41 -45 68q-46 27 -110 49t-130 50q-66 30 -110 96
q-45 66 -45 174z" />
    <glyph glyph-name="t" unicode="t" horiz-adv-x="909"
d="M573 318q0 -44 33 -76q33 -33 78 -33t129 31l-41 -244q-129 -20 -229 -21q-152 0 -245 78t-93 238q0 70 33 219l63 299h-197l46 258h210l52 229l389 105l-74 -334h254l-45 -258h-268l-64 -297q-31 -150 -31 -194z" />
    <glyph glyph-name="u" unicode="u" horiz-adv-x="1366"
d="M80 344q0 82 29 225l98 498h381l-103 -500q-25 -127 -25 -171t37 -80q36 -36 107 -33q110 0 182 83t93 209l104 492h369l-166 -788q-33 -164 -45 -279h-342l28 174h-4q-88 -98 -182 -148q-93 -50 -239 -50t-234 102q-88 104 -88 266z" />
    <glyph glyph-name="v" unicode="v"
d="M1360 1067l-627 -1067h-420l-174 1067h371l74 -760h4l375 760h397z" />
    <glyph glyph-name="w" unicode="w" horiz-adv-x="1933"
d="M2044 1067l-559 -1067h-428l-15 772h-4l-366 -772h-430l-103 1067h367l10 -772h4l350 772h447l8 -772h4l342 772h373z" />
    <glyph glyph-name="x" unicode="x"
d="M-86 0l483 557l-227 510h389l117 -319l225 319h436l-452 -524l252 -543h-400l-123 332l-245 -332h-455z" />
    <glyph glyph-name="y" unicode="y"
d="M207 -455q-158 0 -297 45l78 269q100 -31 168 -31q145 0 215 176l-236 1063h375l96 -674h4l363 674h391l-700 -1208q-90 -156 -194 -235t-263 -79z" />
    <glyph glyph-name="z" unicode="z" horiz-adv-x="1024"
d="M-49 0l53 279l582 518h-457l55 270h906l-58 -279l-586 -518h488l-55 -270h-928z" />
    <glyph glyph-name="braceleft" unicode="{" horiz-adv-x="796"
d="M799 1364q-69 0 -95 -34t-40 -99l-84 -400q-41 -184 -277 -198v-4q150 -7 184 -72q17 -31 17 -66t-17 -112l-63 -313q-14 -76 -14 -99q0 -70 84 -69h110l-37 -185h-176q-264 0 -264 217q0 16 18 113l62 297q14 63 14 98q0 100 -160 101l37 184q136 0 184 60q24 30 33 75
l84 408q57 283 373 282h176l-39 -184h-110z" />
    <glyph glyph-name="bar" unicode="|" horiz-adv-x="454"
d="M150 1536h258v-2048h-258v2048z" />
    <glyph glyph-name="braceright" unicode="}" horiz-adv-x="796"
d="M59 -102q68 0 95 34t41 99l84 399q41 184 276 199v4q-151 7 -184 72q-17 31 -17 65t17 113l63 313q14 76 15 98q0 70 -84 70h-111l37 184h176q264 0 264 -217q0 -16 -18 -112l-62 -297q-14 -63 -14 -99q0 -100 160 -100l-37 -184q-75 1 -118 -15q-79 -29 -99 -121
l-84 -407q-57 -283 -373 -283h-176l39 185h110z" />
    <glyph glyph-name="asciitilde" unicode="~" horiz-adv-x="1228"
d="M862 324q-88 0 -232 66t-194 65q-80 0 -139 -72q-20 -25 -51 -70l-74 224q92 176 256 176q88 0 232 -66q144 -65 194 -65q81 1 139 71q20 25 51 70l74 -223q-92 -176 -256 -176z" />
    <glyph glyph-name="uni00A0" unicode="&#xa0;" horiz-adv-x="626"
 />
    <glyph glyph-name="exclamdown" unicode="&#xa1;" horiz-adv-x="909"
d="M750 1067l-70 -332h-346l69 332h347zM618 598l-155 -960h-381l254 960h282z" />
    <glyph glyph-name="cent" unicode="&#xa2;" horiz-adv-x="1253"
d="M498 -287l82 271q-195 24 -309 158t-113 321q0 266 192 447q193 181 496 182q27 0 67 -7l74 242h143l-79 -266q66 -14 131 -41l-80 -256q-55 27 -127 47l-170 -565q117 2 225 47l-53 -277q-106 -35 -254 -41l-80 -262h-145zM668 274l166 547q-136 -10 -216 -99t-79 -245
q0 -66 35 -121t94 -82z" />
    <glyph glyph-name="sterling" unicode="&#xa3;" horiz-adv-x="1253"
d="M1006 1454q170 0 342 -47l-82 -268q-118 33 -254 33t-178 -52q-42 -51 -70 -180l-21 -96h310l-39 -185h-309l-82 -389h462l-57 -270h-1038l53 270h203l84 389h-176l43 185h172l43 170q55 216 192 328t402 112z" />
    <glyph glyph-name="currency" unicode="&#xa4;" horiz-adv-x="1253"
d="M627 465q102 0 170 71q67 72 67 180t-68 178t-169 71q-102 0 -170 -71q-68 -72 -68 -180t68 -178t170 -71zM119 715q0 195 94 289l-119 116l129 127l117 -110q51 41 132 63t155 23q75 0 155 -23t131 -63l117 110l129 -127l-119 -116q94 -94 94 -289t-94 -289l119 -117
l-129 -127l-117 111q-51 -41 -132 -64q-151 -43 -309 0q-81 23 -132 64l-117 -111l-129 127l119 117q-94 94 -94 289z" />
    <glyph glyph-name="yen" unicode="&#xa5;" horiz-adv-x="1253"
d="M342 0l57 283h-288l39 172h282l14 73l-14 50h-272l39 172h180l-207 680h381l127 -576l356 576h404l-471 -680h196l-39 -172h-276l-35 -50l-14 -73h295l-39 -172h-289l-57 -283h-369z" />
    <glyph glyph-name="brokenbar" unicode="&#xa6;" horiz-adv-x="454"
d="M150 358h258v-716h-258v716zM150 1382h258v-716h-258v716z" />
    <glyph glyph-name="section" unicode="&#xa7;"
d="M453 628q0 -40 48 -83t128 -90t88 -54q43 33 61 49q53 49 53 117q0 36 -43 81t-121 87q-78 43 -83 47q-45 -23 -68 -37q-23 -13 -43 -45t-20 -72zM643 60q0 83 -171 176q-70 39 -142 85q-72 47 -122 119t-50 172t68 172q68 74 182 107q-123 100 -123 223q0 150 145 245
t340 95q261 0 449 -104l-76 -236q-66 37 -164 66t-172 28q-190 0 -191 -98q0 -72 185 -165q77 -38 153 -83q76 -44 130 -110t55 -146q0 -123 -69 -205t-187 -108q109 -94 108 -207q0 -172 -145 -270t-380 -98t-452 122l76 230q195 -106 374 -106t179 96z" />
    <glyph glyph-name="dieresis" unicode="&#xa8;" horiz-adv-x="569"
d="M436 1493l-61 -295h-283l62 295h282zM881 1493l-62 -295h-282l61 295h283z" />
    <glyph glyph-name="copyright" unicode="&#xa9;" horiz-adv-x="1638"
d="M313 715q-1 -225 147 -378t359 -153t359 153q147 153 147 378t-147 378q-146 153 -358 153t-360 -154q-148 -152 -147 -377zM80 715q0 305 217 522t522 217t522 -217t217 -522t-216 -522q-218 -217 -523 -217t-522 216q-217 218 -217 523zM818 289q-170 0 -278 120
t-108 306t108 305t278 119t261 -82q90 -82 95 -228h-197q-18 59 -50 86t-103 27q-70 0 -114 -61t-44 -165t44 -168q44 -62 114 -62t103 26q32 27 50 86h197q-4 -145 -94 -227t-262 -82z" />
    <glyph glyph-name="ordfeminine" unicode="&#xaa;" horiz-adv-x="813"
d="M365 995q0 -73 85 -73t144 47t65 104q-74 4 -143 4q-151 0 -151 -82zM586 1454q131 0 225 -49t94 -164q0 -47 -22 -145l-47 -207q-6 -33 -11 -94h-215l13 100h-5q-100 -117 -280 -117q-92 0 -145 50t-53 124t38 126t100 77q111 45 203 45q91 0 193 -4l6 43q0 39 -44 55
q-128 46 -321 -30l25 139q115 51 246 51z" />
    <glyph glyph-name="guillemotleft" unicode="&#xab;" horiz-adv-x="1366"
d="M930 133l-309 418l385 418h360l-408 -418l306 -418h-334zM385 133l-334 418l385 418h361l-408 -418l330 -418h-334z" />
    <glyph glyph-name="logicalnot" unicode="&#xac;" horiz-adv-x="1228"
d="M127 625v258h1036v-662h-258v404h-778z" />
    <glyph glyph-name="uni00AD" unicode="&#xad;" horiz-adv-x="681"
d="M61 416l54 270h555l-56 -270h-553z" />
    <glyph glyph-name="registered" unicode="&#xae;" horiz-adv-x="1638"
d="M723 965v-158h119q125 0 125 88q0 70 -142 70h-102zM526 315v805h328q158 0 234 -52t75 -172q0 -120 -61 -174t-164 -58l192 -349h-196l-176 336h-35v-336h-197zM819 184q211 0 359 153q147 153 147 378t-147 378q-146 153 -358 153t-359 -154q-147 -152 -147 -377
t146 -378q148 -153 359 -153zM819 -25q-305 -1 -522 217t-217 523t217 522t522 217t522 -217t217 -522t-216 -523q-218 -218 -523 -217z" />
    <glyph glyph-name="macron" unicode="&#xaf;" horiz-adv-x="569"
d="M825 1276h-768l33 172h768z" />
    <glyph glyph-name="degree" unicode="&#xb0;" horiz-adv-x="819"
d="M381 1153q0 -59 41 -100t100 -41t101 41q41 41 41 100t-41 100t-101 41t-100 -41q-41 -41 -41 -100zM221 1153q0 125 88 213t213 88t213 -88t88 -213t-88 -213t-213 -88t-213 88t-88 213z" />
    <glyph glyph-name="plusminus" unicode="&#xb1;" horiz-adv-x="1228"
d="M127 0v258h1036v-258h-1036zM127 549v258h389v229h258v-229h389v-258h-389v-230h-258v230h-389z" />
    <glyph glyph-name="twosuperior" unicode="&#xb2;" horiz-adv-x="815"
d="M590 1147q0 55 -35 83t-78 27q-98 0 -225 -57l24 209q118 45 268 45t246 -62t95 -199q0 -137 -116 -232t-306 -195v-4h342l-39 -184h-692l26 147l162 109q158 106 243 182t85 131z" />
    <glyph glyph-name="threesuperior" unicode="&#xb3;" horiz-adv-x="815"
d="M566 1454q144 0 240 -53t97 -161q0 -108 -80 -174q-80 -65 -190 -75v-4q195 -33 194 -174q-1 -92 -71 -151q-70 -60 -161 -80t-243 -20t-264 52l45 193q121 -49 215 -49t146 24q51 24 51 64q0 74 -131 74q-25 0 -60 -1t-45 -1l35 176q28 -2 102 -2t124 24t51 72
q-1 70 -127 70t-226 -39l23 204q131 31 275 31z" />
    <glyph glyph-name="acute" unicode="&#xb4;" horiz-adv-x="569"
d="M848 1493v-45l-338 -250h-242v25l197 270h383z" />
    <glyph glyph-name="mu" unicode="&#xb5;" horiz-adv-x="1366"
d="M1352 1067l-166 -788q-33 -164 -45 -279h-342l28 174h-4q-88 -98 -182 -148t-229 -51q-23 0 -52 5l-77 -410h-367l291 1497h381l-103 -500q-25 -127 -25 -171t37 -80q36 -36 107 -33q110 0 182 83t93 209l104 492h369z" />
    <glyph glyph-name="paragraph" unicode="&#xb6;" horiz-adv-x="1269"
d="M891 1245l-313 -1503h-246l203 973q-182 0 -286 76q-103 76 -104 235q0 94 38 167q69 132 235 188q134 47 317 49h639l-352 -1688h-246l314 1503h-199z" />
    <glyph glyph-name="periodcentered" unicode="&#xb7;" horiz-adv-x="626"
d="M348 367q-78 0 -134 56t-56 134t56 134q56 57 134 57t134 -56t56 -135q0 -78 -56 -134t-134 -56z" />
    <glyph glyph-name="cedilla" unicode="&#xb8;" horiz-adv-x="569"
d="M229 -215q-25 0 -73 -12l-76 47l131 180h147l-108 -129l4 -4q29 12 97 12q67 0 113 -42t46 -125t-77 -125t-210 -42t-237 56l45 86q101 -47 153 -47q116 0 117 61q0 84 -72 84z" />
    <glyph glyph-name="onesuperior" unicode="&#xb9;" horiz-adv-x="815"
d="M319 578l130 589l-170 -98l-78 170l348 199h235l-178 -860h-287z" />
    <glyph glyph-name="ordmasculine" unicode="&#xba;" horiz-adv-x="888"
d="M602 1454q162 0 264 -80t101 -238q0 -158 -123 -258q-124 -100 -310 -100q-394 -1 -395 275q0 189 127 295t336 106zM584 1282q-80 0 -134 -62t-53 -130q0 -140 129 -140q82 0 132 54t51 124q0 154 -125 154z" />
    <glyph glyph-name="guillemotright" unicode="&#xbb;" horiz-adv-x="1366"
d="M1010 969l305 -418l-385 -418h-361l408 418l-301 418h334zM440 969l305 -418l-385 -418h-360l408 418l-302 418h334z" />
    <glyph glyph-name="onequarter" unicode="&#xbc;" horiz-adv-x="1875"
d="M215 578l129 589l-170 -98l-78 170l348 199h236l-178 -860h-287zM295 -45l1012 1520h225l-1012 -1520h-225zM1360 0l33 145h-410l33 168l497 547h299l-108 -530h121l-35 -185h-123l-31 -145h-276zM1432 330l59 284h-4l-258 -284h203z" />
    <glyph glyph-name="onehalf" unicode="&#xbd;" horiz-adv-x="1875"
d="M1544 569q0 55 -34 83t-78 28q-98 0 -226 -57l25 208q117 45 267 45t246 -62t95 -199q0 -137 -115 -231q-115 -93 -307 -196v-4h342l-39 -184h-692l27 147l162 109q159 106 243 182t84 131zM215 578l129 589l-170 -98l-78 170l348 199h236l-178 -860h-287zM250 -45
l1012 1520h225l-1012 -1520h-225z" />
    <glyph glyph-name="threequarters" unicode="&#xbe;" horiz-adv-x="1875"
d="M455 -45l1011 1520h226l-1012 -1520h-225zM1497 330l59 284h-4l-258 -284h203zM566 1454q144 0 240 -53t97 -161q0 -108 -80 -174q-80 -65 -190 -75v-4q195 -33 194 -174q-1 -92 -71 -151q-70 -60 -161 -80t-243 -20t-264 52l45 193q121 -49 215 -49t146 24q51 24 51 64
q0 74 -131 74q-25 0 -60 -1t-45 -1l35 176q28 -2 102 -2t124 24t51 72q-1 70 -127 70t-226 -39l23 204q131 31 275 31zM1425 0l33 145h-409l32 168l498 547h299l-109 -530h121l-35 -185h-122l-31 -145h-277z" />
    <glyph glyph-name="questiondown" unicode="&#xbf;" horiz-adv-x="1138"
d="M870 1067l-69 -332h-346l69 332h346zM515 -387q-293 0 -439 139q-84 80 -84 188t40 187q40 80 101 136q61 57 125 107q164 130 201 238h291q-6 -90 -50 -167t-99 -129q-57 -52 -111 -100q-130 -115 -130 -206q0 -51 65 -93t155 -42q159 0 319 72l-43 -281
q-209 -49 -341 -49z" />
    <glyph glyph-name="Agrave" unicode="&#xc0;" horiz-adv-x="1593"
d="M629 1825h383l196 -271v-24h-241l-338 250v45zM1018 575l-62 560h-4l-303 -560h369zM-84 0l850 1430h479l234 -1430h-385l-39 305h-555l-170 -305h-414z" />
    <glyph glyph-name="Aacute" unicode="&#xc1;" horiz-adv-x="1593"
d="M1421 1825v-45l-338 -250h-241v24l196 271h383zM1018 575l-62 560h-4l-303 -560h369zM-84 0l850 1430h479l234 -1430h-385l-39 305h-555l-170 -305h-414z" />
    <glyph glyph-name="Acircumflex" unicode="&#xc2;" horiz-adv-x="1593"
d="M1393 1530h-228l-127 160l-178 -160h-254v24l281 271h330l176 -271v-24zM1018 575l-62 560h-4l-303 -560h369zM-84 0l850 1430h479l234 -1430h-385l-39 305h-555l-170 -305h-414z" />
    <glyph glyph-name="Atilde" unicode="&#xc3;" horiz-adv-x="1593"
d="M1163 1536q-57 0 -159 37t-132 37q-82 0 -100 -80h-147q14 121 80 205t180 84q59 0 159 -37t134 -37q88 0 102 80h147q-13 -127 -79 -208t-185 -81zM1018 575l-62 560h-4l-303 -560h369zM-84 0l850 1430h479l234 -1430h-385l-39 305h-555l-170 -305h-414z" />
    <glyph glyph-name="Adieresis" unicode="&#xc4;" horiz-adv-x="1593"
d="M1010 1825l-62 -295h-282l61 295h283zM1454 1825l-61 -295h-283l61 295h283zM1018 575l-62 560h-4l-303 -560h369zM-84 0l850 1430h479l234 -1430h-385l-39 305h-555l-170 -305h-414z" />
    <glyph glyph-name="Aring" unicode="&#xc5;" horiz-adv-x="1593"
d="M932 1710q0 -43 32 -75q32 -31 74 -31t75 32q32 32 32 74q0 43 -32 75t-75 32q-42 0 -74 -32t-32 -75zM809 1710q0 94 68 162q67 68 161 68t162 -68t68 -162t-68 -162t-162 -68t-162 68t-67 162zM1018 575l-62 560h-4l-303 -560h369zM-84 0l850 1430h479l234 -1430h-385
l-39 305h-555l-170 -305h-414z" />
    <glyph glyph-name="AE" unicode="&#xc6;" horiz-adv-x="1933"
d="M977 575l88 580h-4l-363 -580h279zM-57 0l931 1430h1094l-57 -271h-486l-45 -295h432l-55 -270h-411l-50 -324h449l-57 -270h-795l45 305h-403l-175 -305h-417z" />
    <glyph glyph-name="Ccedilla" unicode="&#xc7;" horiz-adv-x="1366"
d="M898 -121q68 0 114 -42t45 -125q0 -83 -77 -125t-210 -42t-238 56l46 86q102 -47 153 -47q117 0 117 61q0 84 -72 84l-74 -12l-75 47l116 162q-289 34 -449 210t-161 449q0 361 237 587t634 226q301 0 505 -76l-90 -293q-150 86 -356 86q-137 0 -243 -46t-170 -124
q-124 -155 -124 -355t106 -294t300 -94q192 0 348 80l-41 -307q-150 -49 -354 -54l-88 -106l4 -4q29 12 97 12z" />
    <glyph glyph-name="Egrave" unicode="&#xc8;"
d="M459 1825h383l196 -271v-24h-241l-338 250v45zM31 0l307 1430h1005l-55 -271h-629l-65 -295h596l-60 -270h-593l-70 -324h653l-55 -270h-1034z" />
    <glyph glyph-name="Eacute" unicode="&#xc9;"
d="M1221 1825v-45l-338 -250h-242v24l197 271h383zM31 0l307 1430h1005l-55 -271h-629l-65 -295h596l-60 -270h-593l-70 -324h653l-55 -270h-1034z" />
    <glyph glyph-name="Ecircumflex" unicode="&#xca;"
d="M1192 1530h-227l-127 160l-179 -160h-253v24l280 271h330l176 -271v-24zM31 0l307 1430h1005l-55 -271h-629l-65 -295h596l-60 -270h-593l-70 -324h653l-55 -270h-1034z" />
    <glyph glyph-name="Edieresis" unicode="&#xcb;"
d="M809 1825l-61 -295h-283l61 295h283zM1253 1825l-61 -295h-283l62 295h282zM31 0l307 1430h1005l-55 -271h-629l-65 -295h596l-60 -270h-593l-70 -324h653l-55 -270h-1034z" />
    <glyph glyph-name="Igrave" unicode="&#xcc;" horiz-adv-x="681"
d="M143 1825h383l197 -271v-24h-242l-338 250v45zM47 0l297 1430h385l-297 -1430h-385z" />
    <glyph glyph-name="Iacute" unicode="&#xcd;" horiz-adv-x="681"
d="M967 1825v-45l-338 -250h-242v24l197 271h383zM47 0l297 1430h385l-297 -1430h-385z" />
    <glyph glyph-name="Icircumflex" unicode="&#xce;" horiz-adv-x="681"
d="M938 1530h-227l-127 160l-178 -160h-254v24l280 271h330l176 -271v-24zM47 0l297 1430h385l-297 -1430h-385z" />
    <glyph glyph-name="Idieresis" unicode="&#xcf;" horiz-adv-x="681"
d="M555 1825l-61 -295h-283l61 295h283zM999 1825l-61 -295h-283l62 295h282zM47 0l297 1430h385l-297 -1430h-385z" />
    <glyph glyph-name="Eth" unicode="&#xd0;" horiz-adv-x="1593"
d="M602 283q279 0 421 137t142 387q0 190 -106 265t-328 75h-74l-63 -299h340l-45 -209h-338l-74 -356h125zM829 1430q349 0 539 -155t191 -474q0 -391 -253 -596t-659 -205h-616l135 639h-139l45 209h139l123 582h495z" />
    <glyph glyph-name="Ntilde" unicode="&#xd1;" horiz-adv-x="1593"
d="M1163 1536q-57 0 -159 37t-132 37q-82 0 -100 -80h-147q14 121 80 205t180 84q59 0 159 -37t134 -37q88 0 102 80h147q-13 -127 -79 -208t-185 -81zM27 0l305 1430h477l293 -992h4l201 992h360l-303 -1430h-475l-299 989h-4l-199 -989h-360z" />
    <glyph glyph-name="Ograve" unicode="&#xd2;" horiz-adv-x="1593"
d="M573 1825h383l197 -271v-24h-242l-338 250v45zM1190 840q0 150 -64 240t-202 91q-104 0 -188 -56q-146 -97 -206 -333q-25 -98 -24 -194q0 -146 63 -238t203 -92q104 0 189 56q146 98 204 333q25 99 25 193zM1583 870q0 -414 -215 -654t-620 -241q-168 -1 -294 49
t-199 134q-144 166 -142 399q0 417 215 657t620 240q168 0 294 -49q229 -89 306 -319q35 -101 35 -216z" />
    <glyph glyph-name="Oacute" unicode="&#xd3;" horiz-adv-x="1593"
d="M1360 1825v-45l-338 -250h-242v24l197 271h383zM1190 840q0 150 -64 240t-202 91q-104 0 -188 -56q-146 -97 -206 -333q-25 -98 -24 -194q0 -146 63 -238t203 -92q104 0 189 56q146 98 204 333q25 99 25 193zM1583 870q0 -414 -215 -654t-620 -241q-168 -1 -294 49
t-199 134q-144 166 -142 399q0 417 215 657t620 240q168 0 294 -49q229 -89 306 -319q35 -101 35 -216z" />
    <glyph glyph-name="Ocircumflex" unicode="&#xd4;" horiz-adv-x="1593"
d="M1331 1530h-227l-127 160l-178 -160h-254v24l280 271h330l176 -271v-24zM1190 840q0 150 -64 240t-202 91q-104 0 -188 -56q-146 -97 -206 -333q-25 -98 -24 -194q0 -146 63 -238t203 -92q104 0 189 56q146 98 204 333q25 99 25 193zM1583 870q0 -414 -215 -654
t-620 -241q-168 -1 -294 49t-199 134q-144 166 -142 399q0 417 215 657t620 240q168 0 294 -49q229 -89 306 -319q35 -101 35 -216z" />
    <glyph glyph-name="Otilde" unicode="&#xd5;" horiz-adv-x="1593"
d="M1102 1536q-58 0 -160 37t-131 37q-82 0 -100 -80h-148q14 121 80 205t180 84q59 0 159 -37t134 -37q89 0 103 80h147q-14 -127 -80 -208t-184 -81zM1190 840q0 150 -64 240t-202 91q-104 0 -188 -56q-146 -97 -206 -333q-25 -98 -24 -194q0 -146 63 -238t203 -92
q104 0 189 56q146 98 204 333q25 99 25 193zM1583 870q0 -414 -215 -654t-620 -241q-168 -1 -294 49t-199 134q-144 166 -142 399q0 417 215 657t620 240q168 0 294 -49q229 -89 306 -319q35 -101 35 -216z" />
    <glyph glyph-name="Odieresis" unicode="&#xd6;" horiz-adv-x="1593"
d="M948 1825l-61 -295h-283l62 295h282zM1393 1825l-62 -295h-282l61 295h283zM1190 840q0 150 -64 240t-202 91q-104 0 -188 -56q-146 -97 -206 -333q-25 -98 -24 -194q0 -146 63 -238t203 -92q104 0 189 56q146 98 204 333q25 99 25 193zM1583 870q0 -414 -215 -654
t-620 -241q-168 -1 -294 49t-199 134q-144 166 -142 399q0 417 215 657t620 240q168 0 294 -49q229 -89 306 -319q35 -101 35 -216z" />
    <glyph glyph-name="multiply" unicode="&#xd7;" horiz-adv-x="1228"
d="M469 518l-311 311l176 177l311 -312l311 312l177 -177l-314 -311l314 -311l-177 -176l-311 313l-311 -313l-176 176z" />
    <glyph glyph-name="Oslash" unicode="&#xd8;" horiz-adv-x="1593"
d="M948 1454q156 0 269 -41l167 227l177 -124l-156 -209q178 -162 178 -437q0 -414 -215 -654t-620 -241q-164 0 -289 48l-172 -234l-174 125l163 223q-164 156 -163 420q0 417 215 657t620 240zM924 1171q-104 0 -188 -56q-146 -97 -206 -333q-44 -171 -12 -317l508 690
q-49 16 -102 16zM788 258q88 0 173 56q146 98 204 333q51 198 4 340l-518 -704q49 -25 137 -25z" />
    <glyph glyph-name="Ugrave" unicode="&#xd9;" horiz-adv-x="1478"
d="M516 1825h383l197 -271v-24h-242l-338 250v45zM702 -25q-262 1 -418 107t-155 344q0 129 31 270l162 734h387l-172 -809q-27 -125 -27 -156q0 -91 52 -149t160 -58t163 71q23 28 38 47t30 59t25 63q9 24 21 72q11 48 17 68t16 74t15 70l141 648h379l-140 -666
q-33 -158 -61 -259t-84 -212q-55 -111 -127 -173q-73 -62 -187 -104t-266 -41z" />
    <glyph glyph-name="Uacute" unicode="&#xda;" horiz-adv-x="1478"
d="M1364 1825v-45l-338 -250h-242v24l197 271h383zM702 -25q-262 1 -418 107t-155 344q0 129 31 270l162 734h387l-172 -809q-27 -125 -27 -156q0 -91 52 -149t160 -58t163 71q23 28 38 47t30 59t25 63q9 24 21 72q11 48 17 68t16 74t15 70l141 648h379l-140 -666
q-33 -158 -61 -259t-84 -212q-55 -111 -127 -173q-73 -62 -187 -104t-266 -41z" />
    <glyph glyph-name="Ucircumflex" unicode="&#xdb;" horiz-adv-x="1478"
d="M1335 1530h-227l-127 160l-178 -160h-254v24l280 271h330l176 -271v-24zM702 -25q-262 1 -418 107t-155 344q0 129 31 270l162 734h387l-172 -809q-27 -125 -27 -156q0 -91 52 -149t160 -58t163 71q23 28 38 47t30 59t25 63q9 24 21 72q11 48 17 68t16 74t15 70l141 648
h379l-140 -666q-33 -158 -61 -259t-84 -212q-55 -111 -127 -173q-73 -62 -187 -104t-266 -41z" />
    <glyph glyph-name="Udieresis" unicode="&#xdc;" horiz-adv-x="1478"
d="M952 1825l-61 -295h-283l62 295h282zM1397 1825l-62 -295h-282l61 295h283zM702 -25q-262 1 -418 107t-155 344q0 129 31 270l162 734h387l-172 -809q-27 -125 -27 -156q0 -91 52 -149t160 -58t163 71q23 28 38 47t30 59t25 63q9 24 21 72q11 48 17 68t16 74t15 70
l141 648h379l-140 -666q-33 -158 -61 -259t-84 -212q-55 -111 -127 -173q-73 -62 -187 -104t-266 -41z" />
    <glyph glyph-name="Yacute" unicode="&#xdd;" horiz-adv-x="1478"
d="M1303 1825v-45l-338 -250h-242v24l197 271h383zM444 0l111 528l-334 902h402l178 -576l395 576h469l-721 -902l-110 -528h-390z" />
    <glyph glyph-name="Thorn" unicode="&#xde;"
d="M1284 827q0 -237 -182 -371t-453 -134h-194l-68 -322h-381l307 1430h381l-39 -179q111 0 188 -6t167 -31q90 -24 145 -68t92 -125t37 -194zM614 592q127 0 208 52t81 171q0 166 -196 166h-113l-82 -389h102z" />
    <glyph glyph-name="germandbls" unicode="&#xdf;" horiz-adv-x="1366"
d="M1018 1132q0 184 -174 183q-84 0 -148 -83t-88 -196l-223 -1036h-371l215 1010q59 291 199 421t426 130q387 0 499 -215q34 -66 33 -152q0 -174 -100 -274t-282 -119v-4q136 -31 210 -118t74 -206q0 -215 -152 -350t-407 -135q-125 0 -244 16l58 264q57 -22 138 -22
t160 70t79 184q0 115 -70 142q-70 28 -176 28l53 258h72q83 0 151 55t68 149z" />
    <glyph glyph-name="agrave" unicode="&#xe0;"
d="M422 1493h383l196 -270v-25h-241l-338 250v45zM381 328q0 -41 35 -74t90 -33q114 0 186 70t92 182q-31 6 -98 6q-133 3 -219 -39t-86 -112zM33 285q0 188 165 289t423 102q72 0 198 -10q4 14 4 43q0 59 -54 98t-142 39q-184 0 -346 -84l36 268q179 62 389 62t338 -88
t127 -275q0 -86 -57 -330t-78 -399h-301l17 150l-4 4v-4q-111 -174 -359 -175q-356 0 -356 310z" />
    <glyph glyph-name="aacute" unicode="&#xe1;"
d="M1153 1493v-45l-338 -250h-242v25l197 270h383zM381 328q0 -41 35 -74t90 -33q114 0 186 70t92 182q-31 6 -98 6q-133 3 -219 -39t-86 -112zM33 285q0 188 165 289t423 102q72 0 198 -10q4 14 4 43q0 59 -54 98t-142 39q-184 0 -346 -84l36 268q179 62 389 62t338 -88
t127 -275q0 -86 -57 -330t-78 -399h-301l17 150l-4 4v-4q-111 -174 -359 -175q-356 0 -356 310z" />
    <glyph glyph-name="acircumflex" unicode="&#xe2;"
d="M1161 1198h-227l-127 160l-178 -160h-254v25l280 270h330l176 -270v-25zM381 328q0 -41 35 -74t90 -33q114 0 186 70t92 182q-31 6 -98 6q-133 3 -219 -39t-86 -112zM33 285q0 188 165 289t423 102q72 0 198 -10q4 14 4 43q0 59 -54 98t-142 39q-184 0 -346 -84l36 268
q179 62 389 62t338 -88t127 -275q0 -86 -57 -330t-78 -399h-301l17 150l-4 4v-4q-111 -174 -359 -175q-356 0 -356 310z" />
    <glyph glyph-name="atilde" unicode="&#xe3;"
d="M932 1204q-58 0 -160 37t-131 37q-82 0 -100 -80h-148q14 121 80 205t180 84q59 0 159 -37t134 -37q89 0 103 80h147q-14 -127 -80 -208t-184 -81zM381 328q0 -41 35 -74t90 -33q114 0 186 70t92 182q-31 6 -98 6q-133 3 -219 -39t-86 -112zM33 285q0 188 165 289
t423 102q72 0 198 -10q4 14 4 43q0 59 -54 98t-142 39q-184 0 -346 -84l36 268q179 62 389 62t338 -88t127 -275q0 -86 -57 -330t-78 -399h-301l17 150l-4 4v-4q-111 -174 -359 -175q-356 0 -356 310z" />
    <glyph glyph-name="adieresis" unicode="&#xe4;"
d="M778 1493l-61 -295h-283l62 295h282zM1223 1493l-62 -295h-282l61 295h283zM381 328q0 -41 35 -74t90 -33q114 0 186 70t92 182q-31 6 -98 6q-133 3 -219 -39t-86 -112zM33 285q0 188 165 289t423 102q72 0 198 -10q4 14 4 43q0 59 -54 98t-142 39q-184 0 -346 -84
l36 268q179 62 389 62t338 -88t127 -275q0 -86 -57 -330t-78 -399h-301l17 150l-4 4v-4q-111 -174 -359 -175q-356 0 -356 310z" />
    <glyph glyph-name="aring" unicode="&#xe5;"
d="M578 1389q0 93 68 161t161 68q94 0 162 -68q67 -68 67 -162t-68 -161q-68 -68 -161 -68q-94 0 -162 68q-67 68 -67 162zM381 328q0 -41 35 -74t90 -33q114 0 186 70t92 182q-31 6 -98 6q-133 3 -219 -39t-86 -112zM700 1389q0 -43 32 -75t75 -32t75 32t31 75q1 43 -31 75
t-75 31q-43 1 -75 -31t-32 -75zM33 285q0 188 165 289t423 102q72 0 198 -10q4 14 4 43q0 59 -54 98t-142 39q-184 0 -346 -84l36 268q179 62 389 62t338 -88t127 -275q0 -86 -57 -330t-78 -399h-301l17 150l-4 4v-4q-111 -174 -359 -175q-356 0 -356 310z" />
    <glyph glyph-name="ae" unicode="&#xe6;" horiz-adv-x="1820"
d="M1520 635q0 211 -174 211q-112 0 -172 -62t-70 -149h416zM358 328q0 -41 35 -74t90 -33q115 0 187 70t92 182q-31 6 -98 6q-134 3 -220 -39t-86 -112zM6 285q0 188 165 289t423 102q70 0 199 -10q4 14 4 43q-1 59 -55 98t-142 39q-184 0 -346 -84l37 268q180 62 393 62
t340 -117q136 117 334 117t328 -119t129 -346q0 -82 -27 -201h-729q-4 -82 55 -143t222 -61t317 73l-47 -260q-197 -59 -373 -60q-266 0 -379 220q-176 -219 -492 -220q-356 0 -356 310z" />
    <glyph glyph-name="ccedilla" unicode="&#xe7;" horiz-adv-x="1024"
d="M652 -121q68 0 114 -42t45 -125q0 -83 -77 -125t-210 -42t-237 56l45 86q102 -47 154 -47q116 0 116 61q0 84 -72 84l-73 -12l-76 47l119 162q-199 20 -317 155t-117 326q0 266 192 447q193 181 496 182q164 0 336 -72l-80 -256q-125 57 -254 57t-219 -91t-91 -253
q0 -98 70 -165q70 -66 188 -66t234 47l-53 -277q-100 -33 -244 -39l-90 -106l4 -4q29 12 97 12z" />
    <glyph glyph-name="egrave" unicode="&#xe8;"
d="M459 1493h383l196 -270v-25h-241l-338 250v45zM889 635q0 211 -180 211q-111 0 -181 -62t-92 -149h453zM1196 627q0 -82 -27 -201h-755q4 -96 66 -150t231 -55q169 0 323 74l-47 -260q-197 -59 -373 -60q-258 1 -403 139t-145 349t140 405q71 98 201 160t298 64
q223 0 357 -116t134 -349z" />
    <glyph glyph-name="eacute" unicode="&#xe9;"
d="M1190 1493v-45l-338 -250h-242v25l197 270h383zM889 635q0 211 -180 211q-111 0 -181 -62t-92 -149h453zM1196 627q0 -82 -27 -201h-755q4 -96 66 -150t231 -55q169 0 323 74l-47 -260q-197 -59 -373 -60q-258 1 -403 139t-145 349t140 405q71 98 201 160t298 64
q223 0 357 -116t134 -349z" />
    <glyph glyph-name="ecircumflex" unicode="&#xea;"
d="M1161 1198h-227l-127 160l-178 -160h-254v25l280 270h330l176 -270v-25zM889 635q0 211 -180 211q-111 0 -181 -62t-92 -149h453zM1196 627q0 -82 -27 -201h-755q4 -96 66 -150t231 -55q169 0 323 74l-47 -260q-197 -59 -373 -60q-258 1 -403 139t-145 349t140 405
q71 98 201 160t298 64q223 0 357 -116t134 -349z" />
    <glyph glyph-name="edieresis" unicode="&#xeb;"
d="M778 1493l-61 -295h-283l62 295h282zM1223 1493l-62 -295h-282l61 295h283zM889 635q0 211 -180 211q-111 0 -181 -62t-92 -149h453zM1196 627q0 -82 -27 -201h-755q4 -96 66 -150t231 -55q169 0 323 74l-47 -260q-197 -59 -373 -60q-258 1 -403 139t-145 349t140 405
q71 98 201 160t298 64q223 0 357 -116t134 -349z" />
    <glyph glyph-name="igrave" unicode="&#xec;" horiz-adv-x="681"
d="M90 1493h383l197 -270v-25h-242l-338 250v45zM53 0l221 1067h373l-221 -1067h-373z" />
    <glyph glyph-name="iacute" unicode="&#xed;" horiz-adv-x="681"
d="M821 1493v-45l-338 -250h-241v25l196 270h383zM53 0l221 1067h373l-221 -1067h-373z" />
    <glyph glyph-name="icircumflex" unicode="&#xee;" horiz-adv-x="681"
d="M877 1198h-228l-127 160l-178 -160h-254v25l281 270h329l177 -270v-25zM53 0l221 1067h373l-221 -1067h-373z" />
    <glyph glyph-name="idieresis" unicode="&#xef;" horiz-adv-x="681"
d="M494 1493l-62 -295h-282l61 295h283zM938 1493l-61 -295h-283l61 295h283zM53 0l221 1067h373l-221 -1067h-373z" />
    <glyph glyph-name="eth" unicode="&#xf0;" horiz-adv-x="1366"
d="M1309 737q1 -381 -183 -571t-495 -191q-250 0 -408 127t-157 340q0 274 163 436q164 161 389 160q96 0 160 -28t133 -99h4q-49 168 -186 310l-256 -93l-80 129l209 76q-70 55 -168 109l262 168q123 -61 234 -158l241 88l82 -131l-202 -72q258 -276 258 -600zM446 471
q0 -238 201 -238q127 -1 204 95t77 243q0 85 -45 147t-158 62t-196 -98t-83 -211z" />
    <glyph glyph-name="ntilde" unicode="&#xf1;" horiz-adv-x="1366"
d="M989 1204q-57 0 -159 37t-132 37q-82 0 -100 -80h-147q14 121 79 205q66 84 181 84q59 0 159 -37t134 -37q88 0 102 80h147q-13 -127 -79 -208t-185 -81zM1286 723q0 -82 -29 -225l-98 -498h-381l103 500q25 127 25 171t-37 80q-36 36 -107 33q-110 0 -182 -83t-93 -209
l-104 -492h-369l166 788q33 164 45 279h342l-28 -174h4q88 98 182 148q93 51 239 51t234 -104t88 -265z" />
    <glyph glyph-name="ograve" unicode="&#xf2;" horiz-adv-x="1366"
d="M383 1493h383l197 -270v-25h-242l-338 250v45zM1309 614q-1 -319 -187 -479t-484 -160q-298 -1 -435 135t-137 353q0 283 188 456t500 173q262 0 408 -134t147 -344zM928 618q0 92 -46 154t-160 62t-195 -113t-81 -236t54 -189t147 -63q129 1 205 103t76 282z" />
    <glyph glyph-name="oacute" unicode="&#xf3;" horiz-adv-x="1366"
d="M1247 1493v-45l-338 -250h-241v25l196 270h383zM1309 614q-1 -319 -187 -479t-484 -160q-298 -1 -435 135t-137 353q0 283 188 456t500 173q262 0 408 -134t147 -344zM928 618q0 92 -46 154t-160 62t-195 -113t-81 -236t54 -189t147 -63q129 1 205 103t76 282z" />
    <glyph glyph-name="ocircumflex" unicode="&#xf4;" horiz-adv-x="1366"
d="M1219 1198h-228l-127 160l-178 -160h-254v25l281 270h329l177 -270v-25zM1309 614q-1 -319 -187 -479t-484 -160q-298 -1 -435 135t-137 353q0 283 188 456t500 173q262 0 408 -134t147 -344zM928 618q0 92 -46 154t-160 62t-195 -113t-81 -236t54 -189t147 -63
q129 1 205 103t76 282z" />
    <glyph glyph-name="otilde" unicode="&#xf5;" horiz-adv-x="1366"
d="M989 1204q-57 0 -159 37t-132 37q-82 0 -100 -80h-147q14 121 79 205q66 84 181 84q59 0 159 -37t134 -37q88 0 102 80h147q-13 -127 -79 -208t-185 -81zM1309 614q-1 -319 -187 -479t-484 -160q-298 -1 -435 135t-137 353q0 283 188 456t500 173q262 0 408 -134
t147 -344zM928 618q0 92 -46 154t-160 62t-195 -113t-81 -236t54 -189t147 -63q129 1 205 103t76 282z" />
    <glyph glyph-name="odieresis" unicode="&#xf6;" horiz-adv-x="1366"
d="M836 1493l-62 -295h-282l61 295h283zM1280 1493l-61 -295h-283l61 295h283zM1309 614q-1 -319 -187 -479t-484 -160q-298 -1 -435 135t-137 353q0 283 188 456t500 173q262 0 408 -134t147 -344zM928 618q0 92 -46 154t-160 62t-195 -113t-81 -236t54 -189t147 -63
q129 1 205 103t76 282z" />
    <glyph glyph-name="divide" unicode="&#xf7;" horiz-adv-x="1228"
d="M453 92q0 78 56 134t134 56t134 -56q57 -56 57 -134t-56 -134t-135 -56q-78 0 -134 56t-56 134zM453 944q0 78 56 134t134 56t134 -56q57 -56 57 -134t-56 -134t-135 -56q-78 0 -134 56t-56 134zM127 389v258h1036v-258h-1036z" />
    <glyph glyph-name="oslash" unicode="&#xf8;" horiz-adv-x="1366"
d="M754 1092q104 0 204 -27l138 184l147 -110l-115 -154q180 -133 181 -371q-1 -319 -187 -479t-501 -160q-121 0 -218 29l-131 -176l-147 111l108 147q-168 127 -167 377q0 283 188 456t500 173zM457 387l325 440q-18 6 -47 7q-127 0 -208 -113t-81 -250q1 -39 11 -84z
M928 618q0 49 -10 80l-336 -454q27 -10 65 -11q129 1 205 103t76 282z" />
    <glyph glyph-name="ugrave" unicode="&#xf9;" horiz-adv-x="1366"
d="M383 1493h383l197 -270v-25h-242l-338 250v45zM80 344q0 82 29 225l98 498h381l-103 -500q-25 -127 -25 -171t37 -80q36 -36 107 -33q110 0 182 83t93 209l104 492h369l-166 -788q-33 -164 -45 -279h-342l28 174h-4q-88 -98 -182 -148q-93 -50 -239 -50t-234 102
q-88 104 -88 266z" />
    <glyph glyph-name="uacute" unicode="&#xfa;" horiz-adv-x="1366"
d="M1247 1493v-45l-338 -250h-241v25l196 270h383zM80 344q0 82 29 225l98 498h381l-103 -500q-25 -127 -25 -171t37 -80q36 -36 107 -33q110 0 182 83t93 209l104 492h369l-166 -788q-33 -164 -45 -279h-342l28 174h-4q-88 -98 -182 -148q-93 -50 -239 -50t-234 102
q-88 104 -88 266z" />
    <glyph glyph-name="ucircumflex" unicode="&#xfb;" horiz-adv-x="1366"
d="M1219 1198h-228l-127 160l-178 -160h-254v25l281 270h329l177 -270v-25zM80 344q0 82 29 225l98 498h381l-103 -500q-25 -127 -25 -171t37 -80q36 -36 107 -33q110 0 182 83t93 209l104 492h369l-166 -788q-33 -164 -45 -279h-342l28 174h-4q-88 -98 -182 -148
q-93 -50 -239 -50t-234 102q-88 104 -88 266z" />
    <glyph glyph-name="udieresis" unicode="&#xfc;" horiz-adv-x="1366"
d="M836 1493l-62 -295h-282l61 295h283zM1280 1493l-61 -295h-283l61 295h283zM80 344q0 82 29 225l98 498h381l-103 -500q-25 -127 -25 -171t37 -80q36 -36 107 -33q110 0 182 83t93 209l104 492h369l-166 -788q-33 -164 -45 -279h-342l28 174h-4q-88 -98 -182 -148
q-93 -50 -239 -50t-234 102q-88 104 -88 266z" />
    <glyph glyph-name="yacute" unicode="&#xfd;"
d="M1190 1493v-45l-338 -250h-242v25l197 270h383zM207 -455q-158 0 -297 45l78 269q100 -31 168 -31q145 0 215 176l-236 1063h375l96 -674h4l363 674h391l-700 -1208q-90 -156 -194 -235t-263 -79z" />
    <glyph glyph-name="thorn" unicode="&#xfe;" horiz-adv-x="1366"
d="M743 809q-121 1 -199 -107t-79 -212q0 -104 45 -168q45 -63 131 -64q125 0 202 100t77 216t-46 176t-131 59zM896 1092q194 0 300 -126q104 -126 104 -312q0 -400 -246 -581q-130 -97 -315 -98q-225 0 -344 203l-135 -608h-373l439 1966h362l-133 -598h4q143 154 337 154
z" />
    <glyph glyph-name="ydieresis" unicode="&#xff;"
d="M778 1493l-61 -295h-283l62 295h282zM1223 1493l-62 -295h-282l61 295h283zM207 -455q-158 0 -297 45l78 269q100 -31 168 -31q145 0 215 176l-236 1063h375l96 -674h4l363 674h391l-700 -1208q-90 -156 -194 -235t-263 -79z" />
    <glyph glyph-name="dotlessi" unicode="&#x131;" horiz-adv-x="681"
d="M53 0l221 1067h373l-221 -1067h-373z" />
    <glyph glyph-name="Lslash" unicode="&#x141;" horiz-adv-x="1138"
d="M31 0l88 426l-150 -78l47 223l150 78l162 781h387l-115 -551l414 217l-47 -226l-414 -217l-76 -370h598l-59 -283h-985z" />
    <glyph glyph-name="lslash" unicode="&#x142;" horiz-adv-x="681"
d="M53 0l117 565l-178 -94l45 207l176 92l160 766h372l-114 -547l174 90l-43 -202l-174 -91l-162 -786h-373z" />
    <glyph glyph-name="OE" unicode="&#x152;" horiz-adv-x="1972"
d="M934 1159q-205 0 -335 -164t-130 -393q0 -332 342 -332q53 1 135 9l189 872q-106 8 -201 8zM76 641q0 334 237 567q238 233 576 234l362 -12h824l-58 -271h-514l-61 -295h479l-53 -270h-479l-64 -324h533l-54 -270h-823l-289 -12q-292 0 -454 184t-162 469z" />
    <glyph glyph-name="oe" unicode="&#x153;" horiz-adv-x="1933"
d="M1632 635q0 211 -174 211q-111 0 -171 -62t-70 -149h415zM414 471q0 -236 184 -238q123 1 197 101t73 268q0 231 -188 232q-114 0 -190 -106t-76 -257zM66 463q0 164 57 290q57 125 151 197q186 142 435 142q104 0 212 -37t171 -119q78 74 166 115t227 41q184 0 313 -119
t129 -346q0 -82 -26 -201h-730q-5 -82 55 -143t222 -61t317 73l-47 -260q-197 -59 -388 -59t-322 137q-166 -137 -439 -138q-227 1 -365 141t-138 347z" />
    <glyph glyph-name="Scaron" unicode="&#x160;"
d="M442 1825h228l127 -160l178 160h254v-25l-281 -270h-330l-176 270v25zM604 1034q0 -55 58 -93t138 -69q81 -32 163 -72t139 -123t57 -201t-41 -207q-40 -89 -108 -143q-185 -148 -537 -150q-217 -1 -455 73l91 291q55 -38 155 -60t197 -22q305 0 305 170q0 61 -57 104
t-139 73t-162 68q-82 38 -140 113q-57 76 -57 199t54 219q96 170 350 227q108 24 233 23q303 0 438 -63l-92 -285q-138 66 -292 66t-226 -30q-72 -28 -72 -108z" />
    <glyph glyph-name="scaron" unicode="&#x161;" horiz-adv-x="1024"
d="M328 1493h227l127 -160l178 160h254v-25l-280 -270h-330l-176 270v25zM131 752q0 108 85 190q155 150 454 150q158 0 354 -64l-78 -242q-143 60 -305 60t-162 -92q0 -64 231 -133q86 -27 158 -92t72 -154q0 -191 -140 -293t-372 -106t-436 55l74 252q141 -61 299 -62
q207 0 206 94q0 41 -45 68q-46 27 -110 49t-130 50q-66 30 -110 96q-45 66 -45 174z" />
    <glyph glyph-name="Ydieresis" unicode="&#x178;" horiz-adv-x="1478"
d="M891 1825l-62 -295h-282l61 295h283zM1335 1825l-61 -295h-283l62 295h282zM444 0l111 528l-334 902h402l178 -576l395 576h469l-721 -902l-110 -528h-390z" />
    <glyph glyph-name="Zcaron" unicode="&#x17d;"
d="M442 1825h228l127 -160l178 160h254v-25l-281 -270h-330l-176 270v25zM223 1147l58 283h1101l-63 -304l-825 -843h653l-53 -283h-1131l66 303l811 844h-617z" />
    <glyph glyph-name="zcaron" unicode="&#x17e;" horiz-adv-x="1024"
d="M328 1493h227l127 -160l178 160h254v-25l-280 -270h-330l-176 270v25zM-49 0l53 279l582 518h-457l55 270h906l-58 -279l-586 -518h488l-55 -270h-928z" />
    <glyph glyph-name="florin" unicode="&#x192;" horiz-adv-x="1253"
d="M934 1454q150 0 268 -61l-49 -248q-72 51 -124 51t-80 -32t-38 -68t-24 -113l-23 -119h254l-43 -221h-248l-112 -588q-47 -225 -127 -351q-101 -159 -312 -159q-147 0 -245 54l49 249q45 -45 127 -45q47 0 78 39t49 142l127 659h-256l43 221h258l31 160q84 430 397 430z
" />
    <glyph glyph-name="circumflex" unicode="&#x2c6;" horiz-adv-x="569"
d="M819 1198h-227l-127 160l-178 -160h-254v25l280 270h330l176 -270v-25z" />
    <glyph glyph-name="caron" unicode="&#x2c7;" horiz-adv-x="569"
d="M100 1493h228l127 -160l178 160h254v-25l-281 -270h-330l-176 270v25z" />
    <glyph glyph-name="uni02C9" unicode="&#x2c9;" horiz-adv-x="569"
d="M825 1276h-768l33 172h768z" />
    <glyph glyph-name="breve" unicode="&#x2d8;" horiz-adv-x="569"
d="M88 1493h166q12 -84 62 -117t134 -33t148 43q66 43 84 107h180q-100 -322 -440 -322q-142 -1 -238 89t-96 233z" />
    <glyph glyph-name="dotaccent" unicode="&#x2d9;" horiz-adv-x="569"
d="M690 1493l-61 -295h-283l62 295h282z" />
    <glyph glyph-name="ring" unicode="&#x2da;" horiz-adv-x="569"
d="M358 1389q0 -43 32 -75t75 -32t75 32t31 75q1 43 -31 75t-75 31q-43 1 -75 -31t-32 -75zM236 1389q0 93 68 161t161 68q94 0 162 -68q67 -68 67 -162t-68 -161q-68 -68 -161 -68q-94 0 -162 68q-67 68 -67 162z" />
    <glyph glyph-name="ogonek" unicode="&#x2db;" horiz-adv-x="569"
d="M238 -229q0 -41 26 -66t62 -24q80 0 127 51l77 -29q-102 -158 -274 -158q-227 0 -227 181q0 149 260 274h125q-176 -137 -176 -229z" />
    <glyph glyph-name="tilde" unicode="&#x2dc;" horiz-adv-x="569"
d="M590 1204q-58 0 -160 37t-131 37q-82 0 -100 -80h-148q14 121 80 205t180 84q59 0 159 -37t134 -37q89 0 103 80h147q-14 -127 -80 -208t-184 -81z" />
    <glyph glyph-name="hungarumlaut" unicode="&#x2dd;" horiz-adv-x="569"
d="M1126 1493v-45l-338 -250h-241v25l196 270h383zM575 1493v-45l-337 -250h-242v25l197 270h382z" />
    <glyph glyph-name="uni03A9" unicode="&#x3a9;" horiz-adv-x="1595"
d="M1155 233h305l-49 -233h-610l37 174q311 168 397 571q41 195 -31 330t-242 135t-306 -134t-180 -339t3 -352t152 -211l-37 -174h-608l47 233h301l2 7q-96 92 -145 233q-48 141 -9 322q56 270 290 461t538 192q209 0 347 -98t184 -242t11 -303q-74 -344 -397 -565v-7z" />
    <glyph glyph-name="uni03BC" unicode="&#x3bc;" horiz-adv-x="1366"
d="M1352 1067l-166 -788q-33 -164 -45 -279h-342l28 174h-4q-88 -98 -182 -148t-229 -51q-23 0 -52 5l-77 -410h-367l291 1497h381l-103 -500q-25 -127 -25 -171t37 -80q36 -36 107 -33q110 0 182 83t93 209l104 492h369z" />
    <glyph glyph-name="pi" unicode="&#x3c0;" horiz-adv-x="1345"
d="M1071 0h-293q-25 59 27 303l110 524h-286q-47 -188 -139 -440t-173 -387h-294q88 170 179 416t128 411q-150 0 -217 -18l8 190q106 72 385 72h942l-76 -244h-151l-109 -508q-41 -188 -41 -319z" />
    <glyph glyph-name="uni2010" unicode="&#x2010;" horiz-adv-x="681"
d="M61 416l54 270h555l-56 -270h-553z" />
    <glyph glyph-name="endash" unicode="&#x2013;" horiz-adv-x="1024"
d="M0 422l57 258h1024l-57 -258h-1024z" />
    <glyph glyph-name="emdash" unicode="&#x2014;" horiz-adv-x="2048"
d="M0 422l57 258h2048l-57 -258h-2048z" />
    <glyph glyph-name="quoteleft" unicode="&#x2018;" horiz-adv-x="681"
d="M776 1430l-235 -556h-365l305 556h295z" />
    <glyph glyph-name="quoteright" unicode="&#x2019;" horiz-adv-x="681"
d="M170 874l236 556h364l-305 -556h-295z" />
    <glyph glyph-name="quotesinglbase" unicode="&#x201a;" horiz-adv-x="681"
d="M-61 -223l235 555h365l-306 -555h-294z" />
    <glyph glyph-name="quotedblleft" unicode="&#x201c;"
d="M1298 1430l-235 -556h-365l306 556h294zM817 1430l-235 -556h-365l305 556h295z" />
    <glyph glyph-name="quotedblright" unicode="&#x201d;"
d="M217 874l236 556h364l-305 -556h-295zM698 874l236 556h364l-305 -556h-295z" />
    <glyph glyph-name="quotedblbase" unicode="&#x201e;"
d="M477 -223l236 555h364l-305 -555h-295zM-4 -223l235 555h365l-305 -555h-295z" />
    <glyph glyph-name="dagger" unicode="&#x2020;"
d="M160 817l57 270h356l70 343h338l-70 -343h357l-58 -270h-356l-170 -817h-338l170 817h-356z" />
    <glyph glyph-name="daggerdbl" unicode="&#x2021;"
d="M186 905l52 246h352l57 279h338l-57 -279h352l-51 -246h-352l-80 -383h352l-51 -246h-353l-57 -276h-338l58 276h-353l51 246h353l80 383h-353z" />
    <glyph glyph-name="bullet" unicode="&#x2022;" horiz-adv-x="1024"
d="M188 715q0 147 104 251t252 105q148 0 254 -104q106 -103 105 -251q0 -148 -105 -254q-104 -106 -252 -106t-253 106t-105 253z" />
    <glyph glyph-name="ellipsis" unicode="&#x2026;" horiz-adv-x="2048"
d="M1434 0l69 332h346l-69 -332h-346zM752 0l69 332h346l-69 -332h-346zM70 0l69 332h346l-69 -332h-346z" />
    <glyph glyph-name="perthousand" unicode="&#x2030;" horiz-adv-x="2048"
d="M47 -45l1172 1520h213l-1170 -1520h-215zM1677 147q33 0 68 46t50 133q15 88 15 114q0 74 -61 74t-94 -105t-33 -183t55 -79zM1671 -25q-129 0 -193 77q-64 78 -65 194q0 116 35 212t112 162q77 67 181 66q279 0 278 -280q0 -180 -91 -306t-257 -125zM397 915q33 0 68 46
t50 133q15 88 15 114q0 74 -61 74t-94 -105t-33 -183t55 -79zM391 743q-129 0 -193 77q-64 78 -65 194q0 116 35 212t112 162q77 67 181 66q279 0 278 -280q0 -180 -91 -306t-257 -125zM1010 -25q-129 0 -194 77q-64 78 -64 194t34 212t112 162q77 67 181 66q279 0 279 -280
q0 -180 -91 -306t-257 -125zM1016 147q33 0 66 44t50 134q17 89 17 115q1 74 -61 74t-95 -105t-33 -183t56 -79z" />
    <glyph glyph-name="guilsinglleft" unicode="&#x2039;" horiz-adv-x="796"
d="M360 133l-309 418l385 418h361l-408 -418l305 -418h-334z" />
    <glyph glyph-name="guilsinglright" unicode="&#x203a;" horiz-adv-x="796"
d="M440 969l305 -418l-385 -418h-360l408 418l-302 418h334z" />
    <glyph glyph-name="fraction" unicode="&#x2044;" horiz-adv-x="342"
d="M-393 -45l1011 1520h226l-1012 -1520h-225z" />
    <glyph glyph-name="Euro" unicode="&#x20ac;" horiz-adv-x="1253"
d="M1141 1176q-131 0 -241 -67t-181 -181h541l-66 -142h-547q-23 -76 -29 -143h512l-67 -141h-434q25 -117 109 -179q84 -63 206 -63q123 0 234 41l-50 -287q-137 -39 -309 -39q-262 -1 -430 135t-174 392h-213l66 141h157q10 84 29 143h-193l66 142h180q111 236 335 381
t482 145q195 0 355 -57l-123 -262q-84 41 -215 41z" />
    <glyph glyph-name="afii61289" unicode="&#x2113;" horiz-adv-x="1163"
d="M844 1364q-52 0 -106 -72t-89 -237l-65 -307q297 258 338 454q37 162 -78 162zM537 -18q-176 0 -256 88t-76 233q0 2 2 9t2 12q-71 -47 -127 -80l-43 153l105 69q71 46 106 71l102 487q58 270 198 406t311 137t231 -105t25 -274q-36 -168 -182 -338t-407 -363l-14 -71
q-14 -92 27 -144t118 -53q158 1 326 189l96 -125q-229 -301 -544 -301z" />
    <glyph glyph-name="trademark" unicode="&#x2122;" horiz-adv-x="2048"
d="M977 578v852h319l177 -496h4l176 496h319v-852h-225v557h-4l-180 -557h-177l-180 557h-4v-557h-225zM315 578v667h-239v185h704v-185h-239v-667h-226z" />
    <glyph glyph-name="Omega" unicode="&#x2126;" horiz-adv-x="1595"
d="M1155 233h305l-49 -233h-610l37 174q311 168 397 571q41 195 -31 330t-242 135t-306 -134t-180 -339t3 -352t152 -211l-37 -174h-608l47 233h301l2 7q-96 92 -145 233q-48 141 -9 322q56 270 290 461t538 192q209 0 347 -98t184 -242t11 -303q-74 -344 -397 -565v-7z" />
    <glyph glyph-name="estimated" unicode="&#x212e;" horiz-adv-x="1992"
d="M1620 748v403q0 29 -18 49q-213 209 -500 209t-500 -217q-20 -18 -20 -49v-395q0 -14 10 -15h1020q8 1 8 15zM1923 694h-1331q-10 0 -10 -8v-403q0 -27 18 -45q213 -219 502 -220q156 0 293 66t237 178h117q-111 -131 -283 -208t-366 -77q-340 1 -580 217t-239 521
q0 305 239 522q240 217 580 217t582 -217t241 -522v-21z" />
    <glyph glyph-name="partialdiff" unicode="&#x2202;" horiz-adv-x="1280"
d="M524 221h2q111 0 210 118t151 265q-7 58 -59 116t-150 58t-188 -92t-114 -208q-26 -116 16 -186q42 -71 132 -71zM810 1610q255 0 390 -210t56 -582t-300 -603t-514 -231q-114 0 -198 47t-121 119q-87 170 -45 323q49 238 217 386t375 149q120 0 194 -56t99 -116h2
q62 242 -14 388q-77 146 -239 146t-317 -94l-41 209q201 125 456 125z" />
    <glyph glyph-name="uni2206" unicode="&#x2206;" horiz-adv-x="1464"
d="M322 233h704l-106 584q-4 45 -22 175q-17 130 -21 177h-9q-16 -33 -81 -151t-93 -172zM-43 0l35 164l776 1292h360l215 -1290l-34 -166h-1352z" />
    <glyph glyph-name="product" unicode="&#x220f;" horiz-adv-x="1796"
d="M1749 1163h-225v-1360h-295v1360h-457v-1360h-293v1360h-227v260h1497v-260z" />
    <glyph glyph-name="summation" unicode="&#x2211;" horiz-adv-x="1441"
d="M1407 -197h-1155v179l522 630l-500 613v198h1094v-247h-688v-7l432 -516l-479 -579v-6h774v-265z" />
    <glyph glyph-name="minus" unicode="&#x2212;" horiz-adv-x="1228"
d="M127 389v258h1036v-258h-1036z" />
    <glyph glyph-name="uni2215" unicode="&#x2215;" horiz-adv-x="342"
d="M-393 -45l1011 1520h226l-1012 -1520h-225z" />
    <glyph glyph-name="uni2219" unicode="&#x2219;" horiz-adv-x="626"
d="M348 367q-78 0 -134 56t-56 134t56 134q56 57 134 57t134 -56t56 -135q0 -78 -56 -134t-134 -56z" />
    <glyph glyph-name="radical" unicode="&#x221a;" horiz-adv-x="1521"
d="M1554 1706l-503 -1995h-236l-330 885l-161 -66l-50 156l385 158l228 -649q28 -92 47 -175l4 -2q23 125 35 191l373 1497h208z" />
    <glyph glyph-name="infinity" unicode="&#x221e;" horiz-adv-x="1755"
d="M1307 791h-2q-101 0 -208 -117q-70 -77 -77 -90q96 -121 158 -166t141 -45q78 0 127 63t49 148t-52 146t-136 61zM561 373h2q53 0 109 34q56 35 89 67q32 32 85 95q-73 98 -120 145q-46 46 -85 61t-88 16q-86 1 -138 -59q-53 -60 -53 -150t58 -150q58 -59 141 -59z
M1657 590v-2q1 -168 -103 -270t-243 -103q-201 0 -379 238q-96 -117 -186 -177t-216 -61q-126 0 -227 101q-100 101 -100 261q0 159 101 263t255 104q113 0 203 -58t178 -173q25 25 43 46q86 101 145 130q19 11 63 33t132 22q143 -2 239 -99t95 -255z" />
    <glyph glyph-name="integral" unicode="&#x222b;" horiz-adv-x="1060"
d="M390 -143q142 0 142 330q0 213 -17 528t-17 490t30 284q31 109 103 180q90 96 260 96q86 1 135 -24l-29 -195q-41 18 -79 19q-70 0 -111 -56q-55 -72 -55 -335q0 -162 16 -469t16 -537q0 -528 -364 -526q-109 0 -174 34l35 201q55 -20 109 -20z" />
    <glyph glyph-name="approxequal" unicode="&#x2248;" horiz-adv-x="1302"
d="M920 225q-98 0 -244 84q-113 70 -171 70q-94 0 -162 -74q-22 -25 -60 -76l-105 101q51 92 139 153t185 62q41 0 61 -5l32 -8q11 -2 27 -8t23 -9q8 -3 28 -13t37 -20q17 -11 23 -14t33 -19q94 -56 153 -56q58 0 101 36t98 114l103 -101q-127 -217 -301 -217zM922 627
q-100 0 -246 84q-113 69 -171 69q-95 -1 -162 -73q-22 -25 -60 -76l-105 100q51 91 139 153t185 62q49 0 97 -14q49 -14 67 -24t44 -26t49 -28t27 -15t20 -13t23 -11q7 -2 21 -8t22 -7t20 -3t26 -2q59 1 104 37t96 112l103 -100q-125 -217 -299 -217z" />
    <glyph glyph-name="notequal" unicode="&#x2260;" horiz-adv-x="1339"
d="M1237 885v-168h-356l-125 -279h481v-166h-549l-106 -243l-133 57l83 186h-288v166h354l125 279h-479v168h544l107 237l133 -57l-82 -180h291z" />
    <glyph glyph-name="lessequal" unicode="&#x2264;" horiz-adv-x="1382"
d="M1282 -33h-993v170h993v-170zM1276 213l-981 465v180l979 465v-190l-809 -363v-4l811 -363v-190z" />
    <glyph glyph-name="greaterequal" unicode="&#x2265;" horiz-adv-x="1380"
d="M1276 -33h-987v170h987v-170zM299 1323l979 -467v-178l-979 -465v190l809 363v4l-809 363v190z" />
    <glyph glyph-name="lozenge" unicode="&#x25ca;" horiz-adv-x="1519"
d="M1157 705l-248 481q-33 80 -41 112h-6q-18 -61 -41 -112l-246 -469l250 -490q29 -74 37 -106h8q27 84 37 104zM1417 711l-440 -815h-234l-428 815l439 815h233z" />
    <glyph glyph-name="fi" unicode="&#xfb01;" horiz-adv-x="1593"
d="M924 1303q-131 0 -170 -173l-15 -63h275l-58 -258h-270l-168 -809h-368l172 809h-232l57 258h224l28 135q37 168 149 263t281 95t281 -32l-70 -252q-68 27 -116 27zM965 0l221 1067h373l-222 -1067h-372zM1223 1241l57 270h373l-58 -270h-372z" />
    <glyph glyph-name="fl" unicode="&#xfb02;" horiz-adv-x="1593"
d="M924 1303q-131 0 -170 -173l-15 -63h275l-58 -258h-270l-168 -809h-368l172 809h-232l57 258h224l28 135q37 168 149 263t281 95t281 -32l-70 -252q-68 27 -116 27zM965 0l319 1536h373l-320 -1536h-372z" />
    <glyph glyph-name="a.superior" horiz-adv-x="813"
d="M365 995q0 -73 85 -73t144 47t65 104q-74 4 -143 4q-151 0 -151 -82zM586 1454q131 0 225 -49t94 -164q0 -47 -22 -145l-47 -207q-6 -33 -11 -94h-215l13 100h-5q-100 -117 -280 -117q-92 0 -145 50t-53 124t38 126t100 77q111 45 203 45q91 0 193 -4l6 43q0 39 -44 55
q-128 46 -321 -30l25 139q115 51 246 51z" />
    <glyph glyph-name="o.superior" horiz-adv-x="888"
d="M602 1454q162 0 264 -80t101 -238q0 -158 -123 -258q-124 -100 -310 -100q-394 -1 -395 275q0 189 127 295t336 106zM584 1282q-80 0 -134 -62t-53 -130q0 -140 129 -140q82 0 132 54t51 124q0 154 -125 154z" />
    <glyph glyph-name="one.superior" horiz-adv-x="815"
d="M319 578l130 589l-170 -98l-78 170l348 199h235l-178 -860h-287z" />
    <glyph glyph-name="two.superior" horiz-adv-x="815"
d="M590 1147q0 55 -35 83t-78 27q-98 0 -225 -57l24 209q118 45 268 45t246 -62t95 -199q0 -137 -116 -232t-306 -195v-4h342l-39 -184h-692l26 147l162 109q158 106 243 182t85 131z" />
    <glyph glyph-name="three.superior" horiz-adv-x="815"
d="M566 1454q144 0 240 -53t97 -161q0 -108 -80 -174q-80 -65 -190 -75v-4q195 -33 194 -174q-1 -92 -71 -151q-70 -60 -161 -80t-243 -20t-264 52l45 193q121 -49 215 -49t146 24q51 24 51 64q0 74 -131 74q-25 0 -60 -1t-45 -1l35 176q28 -2 102 -2t124 24t51 72
q-1 70 -127 70t-226 -39l23 204q131 31 275 31z" />
    </font>
</defs>
</svg>
