<?xml version="1.0" standalone="no"?>
<!DOCTYPE svg PUBLIC "-//W3C//DTD SVG 1.1//EN" "http://www.w3.org/Graphics/SVG/1.1/DTD/svg11.dtd" >
<svg xmlns="http://www.w3.org/2000/svg">
<metadata>
Created by FontPrep 20130207 at Mon Jan 18 17:19:37 2016
 By Rafael Gomes
(c) 1988, 1990, 1994, 2002 Adobe Systems Incorporated. All rights reserved.
</metadata>
<defs>
<font id="83ea818e28e395c22f7adf907f852560" horiz-adv-x='1024' >
  <font-face
    font-family="FrutigerLTStd-Black"
    font-weight="850"
    font-stretch="normal"
    units-per-em="2048"
    panose-1="2 11 8 3 3 5 4 3 2 4"
    ascent="1536"
    descent="-512"
    x-height="1067"
    cap-height="1430"
    bbox="-336 -512 2048 1954"
    underline-thickness="102"
    underline-position="-102"
    unicode-range="U+0020-FB02"
  />
<missing-glyph horiz-adv-x="1024"
d="M102 1239v-1044l349 522zM164 102h696l-348 523zM573 717l349 -522v1044zM512 809l348 522h-696zM0 0v1434h1024v-1434h-1024z" />
    <glyph glyph-name="f_i" unicode="fi" horiz-adv-x="1593"
d="M1436 1511v-270h-369v270h369zM1067 0v1067h369v-1067h-369zM244 0v809h-217v258h223v66q0 231 108 329q109 98 336 99q72 0 189 -21l-23 -254q-49 16 -117 17q-131 0 -131 -170v-66h262v-258h-262v-809h-368z" />
    <glyph glyph-name="f_l" unicode="fl" horiz-adv-x="1593"
d="M1067 0v1536h369v-1536h-369zM244 0v809h-217v258h223v66q0 231 108 329q109 98 336 99q72 0 189 -21l-23 -254q-49 16 -117 17q-131 0 -131 -170v-66h262v-258h-262v-809h-368z" />
    <glyph glyph-name=".notdef" horiz-adv-x="1024"
d="M102 1239v-1044l349 522zM164 102h696l-348 523zM573 717l349 -522v1044zM512 809l348 522h-696zM0 0v1434h1024v-1434h-1024z" />
    <glyph glyph-name=".null" horiz-adv-x="0"
 />
    <glyph glyph-name="nonmarkingreturn" horiz-adv-x="681"
 />
    <glyph glyph-name="space" unicode=" " horiz-adv-x="626"
 />
    <glyph glyph-name="exclam" unicode="!" horiz-adv-x="909"
d="M283 0v332h344v-332h-344zM645 1430l-53 -945h-275l-53 945h381z" />
    <glyph glyph-name="quotedbl" unicode="&#x22;"
d="M291 874v556h270v-556h-270zM690 874v556h271v-556h-271z" />
    <glyph glyph-name="numbersign" unicode="#" horiz-adv-x="1253"
d="M717 604l31 225h-179l-30 -225h178zM119 383v221h203l30 225h-172v222h203l53 379h217l-53 -379h178l51 379h215l-51 -379h142v-222h-172l-31 -225h141v-221h-172l-53 -383h-215l53 383h-178l-53 -383h-217l53 383h-172z" />
    <glyph glyph-name="dollar" unicode="$" horiz-adv-x="1253"
d="M846 422q0 120 -178 151v-327q178 16 178 176zM410 1054q0 -60 46 -98t115 -45v285q-69 -4 -115 -43t-46 -99zM545 246v346q-193 30 -330 140t-137 304t137 301q137 106 356 117v174h123v-174q246 0 379 -63l-24 -277q-168 82 -355 82v-309q293 -65 388 -176
q96 -111 96 -273q0 -164 -77 -266q-143 -191 -433 -197v-176h-123v176q-103 -1 -229 15t-185 39l27 290q182 -73 387 -73z" />
    <glyph glyph-name="percent" unicode="%" horiz-adv-x="2048"
d="M518 -45l782 1520h224l-781 -1520h-225zM356 1030q0 -180 43 -219q23 -20 58 -20t57 20t31 62q8 42 10 73t2 84q0 92 -12 156q-15 82 -89 83t-87 -83q-13 -70 -13 -156zM98 1030q0 192 85 308t273 116t274 -116q85 -116 85 -308q-1 -424 -359 -424t-358 424zM1491 399
q0 -180 43 -219q24 -20 58 -20q74 0 87 83q13 68 13 139q0 197 -43 236q-23 20 -58 20q-72 1 -88 -83q-12 -64 -12 -156zM1233 399q0 193 85 309t273 116t274 -116q85 -116 85 -309q0 -424 -358 -424t-359 424z" />
    <glyph glyph-name="ampersand" unicode="&#x26;" horiz-adv-x="1593"
d="M526 1094q0 -84 138 -193q54 33 80 49t60 58t34 95q0 52 -45 85t-113 33t-111 -37t-43 -90zM438 410q0 -80 69 -134t171 -55q102 0 207 78q-125 137 -318 315q-65 -36 -97 -80t-32 -124zM90 410q0 142 71 233q71 90 210 156q-172 135 -172 313q0 119 73 199
q132 143 402 143q213 0 354 -84t141 -268q0 -131 -90 -209t-217 -152q125 -111 246 -227q86 94 94 258h332q-12 -287 -219 -489l254 -283h-408q-57 78 -86 109q-154 -133 -454 -133t-451 190q-80 102 -80 244z" />
    <glyph glyph-name="quotesingle" unicode="'" horiz-adv-x="681"
d="M207 874v556h270v-556h-270z" />
    <glyph glyph-name="parenleft" unicode="(" horiz-adv-x="796"
d="M473 638q0 -449 281 -925h-291q-322 432 -322 918q0 446 326 917h301q-295 -461 -295 -910z" />
    <glyph glyph-name="parenright" unicode=")" horiz-adv-x="796"
d="M324 633q0 457 -295 915h301q326 -424 325 -917q1 -451 -325 -918h-301q295 463 295 920z" />
    <glyph glyph-name="asterisk" unicode="*"
d="M276 762l211 211l-290 55l77 238l273 -136l-43 300h250l-41 -295l266 131l76 -240l-295 -51l209 -211l-207 -150l-137 265l-148 -263z" />
    <glyph glyph-name="plus" unicode="+" horiz-adv-x="1228"
d="M96 389v258h389v389h258v-389h390v-258h-390v-389h-258v389h-389z" />
    <glyph glyph-name="comma" unicode="," horiz-adv-x="626"
d="M4 -223l137 555h344l-200 -555h-281z" />
    <glyph glyph-name="hyphen" unicode="-" horiz-adv-x="681"
d="M63 416v270h555v-270h-555z" />
    <glyph glyph-name="period" unicode="." horiz-adv-x="626"
d="M141 0v332h344v-332h-344z" />
    <glyph glyph-name="slash" unicode="/" horiz-adv-x="569"
d="M-43 -25l397 1479h258l-397 -1479h-258z" />
    <glyph glyph-name="zero" unicode="0" horiz-adv-x="1253"
d="M627 233q61 0 101 40q85 85 85 442q0 356 -85 441q-40 40 -101 40t-101 -40q-63 -62 -81 -267q-5 -72 -5 -174q0 -357 85 -442q41 -40 102 -40zM627 -25q-137 0 -239 43t-161 110t-95 167q-60 167 -60 420q0 411 155 587q59 68 161 110t238 42q138 0 239 -43t161 -109
q153 -173 154 -585q2 -412 -154 -589q-58 -67 -160 -110t-239 -43z" />
    <glyph glyph-name="one" unicode="1" horiz-adv-x="1253"
d="M573 0v1049l-270 -193l-170 258l485 316h336v-1430h-381z" />
    <glyph glyph-name="two" unicode="2" horiz-adv-x="1253"
d="M86 0v272q324 281 418 377q209 215 209 342q1 90 -55 135t-147 45q-91 1 -200 -29t-176 -69l-14 297q233 84 424 84q249 0 399 -106t150 -314q0 -299 -437 -676l-102 -88h565v-270h-1034z" />
    <glyph glyph-name="three" unicode="3" horiz-adv-x="1253"
d="M1106 1058q0 -114 -70 -195t-192 -113v-5q133 -27 209 -111q75 -84 75 -200q-1 -299 -284 -403q-146 -54 -340 -56q-281 0 -418 50l18 301q117 -68 355 -68q68 0 127 13t110 57t52 112q0 164 -261 164q-70 0 -159 -4v254q42 -4 144 -4t178 40t75 118q0 164 -246 163
q-205 0 -332 -57l-18 281q201 59 419 59t376 -78q84 -41 133 -122q49 -82 49 -196z" />
    <glyph glyph-name="four" unicode="4" horiz-adv-x="1253"
d="M680 530v605h-4l-389 -605h393zM655 0v272h-639v303l574 855h422v-900h202v-258h-202v-272h-357z" />
    <glyph glyph-name="five" unicode="5" horiz-adv-x="1253"
d="M1096 1430v-259h-604v-237q106 8 112 8q238 0 392 -110t155 -332q0 -399 -394 -498q-109 -27 -259 -27t-359 52l6 309q158 -78 349 -78q124 0 206 52t82 177q0 76 -49 125q-84 84 -265 84t-314 -34l10 768h932z" />
    <glyph glyph-name="six" unicode="6" horiz-adv-x="1253"
d="M444 438q0 -90 50 -153t136 -63q87 0 135 58t48 150t-44 157t-135 65q-90 0 -140 -62t-50 -152zM766 1184q-184 0 -260 -109t-78 -311h4q102 145 302 145t318 -127q118 -128 118 -326t-152 -339t-385 -142q-147 1 -257 55t-171 151q-121 192 -121 472q0 346 144 573
q144 228 487 228q204 1 370 -65l-22 -281q-113 76 -297 76z" />
    <glyph glyph-name="seven" unicode="7" horiz-adv-x="1253"
d="M102 1159v271h1028v-310l-512 -1120h-409l532 1159h-639z" />
    <glyph glyph-name="eight" unicode="8" horiz-adv-x="1253"
d="M436 412q0 -76 54 -127t134 -51t137 50q56 50 56 134q0 143 -215 207q-166 -78 -166 -213zM616 1208q-70 0 -118 -48t-49 -110t29 -100q30 -39 61 -55t88 -43q84 47 123 92q38 45 38 115q0 69 -51 109t-121 40zM104 1042q0 212 151 312t380 100t363 -92t135 -275
q0 -123 -67 -205t-169 -122v-4q135 -43 212 -123t77 -230q0 -217 -159 -322t-405 -105t-400 98q-155 100 -154 309q-1 270 282 352v2q-104 35 -175 119t-71 186z" />
    <glyph glyph-name="nine" unicode="9" horiz-adv-x="1253"
d="M620 778q92 0 140 62q49 62 49 151t-49 153t-136 64q-88 0 -136 -58t-48 -150t44 -157t136 -65zM488 246q184 0 260 108t77 312h-4q-102 -146 -302 -146q-199 0 -317 127t-118 326t152 340t385 141q147 0 257 -54t171 -152q122 -195 120 -472q0 -348 -137 -563
q-150 -236 -493 -238q-205 0 -371 66l22 281q114 -76 298 -76z" />
    <glyph glyph-name="colon" unicode=":" horiz-adv-x="626"
d="M141 0v332h344v-332h-344zM141 735v332h344v-332h-344z" />
    <glyph glyph-name="semicolon" unicode=";" horiz-adv-x="626"
d="M141 735v332h344v-332h-344zM4 -223l137 555h344l-200 -555h-281z" />
    <glyph glyph-name="less" unicode="&#x3c;" horiz-adv-x="1228"
d="M1133 1053v-250l-699 -285l699 -285v-249l-1037 426v217z" />
    <glyph glyph-name="equal" unicode="=" horiz-adv-x="1228"
d="M96 154v258h1037v-258h-1037zM96 625v258h1037v-258h-1037z" />
    <glyph glyph-name="greater" unicode="&#x3e;" horiz-adv-x="1228"
d="M96 -16v249l699 285l-699 285v250l1037 -426v-217z" />
    <glyph glyph-name="question" unicode="?" horiz-adv-x="1138"
d="M401 0v332h344v-332h-344zM978 1312q79 -81 79 -212t-111 -253q-47 -53 -95 -103q-117 -123 -128 -259h-299q0 137 94 256q39 49 77 97q93 116 93 193t-70 115t-155 38q-172 0 -322 -76l-8 287q193 59 449 59t396 -142z" />
    <glyph glyph-name="at" unicode="@" horiz-adv-x="1638"
d="M76 712q0 320 220 531t560 211q295 0 501 -166t206 -432q0 -129 -44 -232q-45 -102 -107 -164t-165 -118t-207 -57q-42 -1 -72 25t-32 75h-4q-90 -100 -213 -100q-123 1 -216 113t-93 280t109 291q110 123 276 123t249 -117l19 96h192l-69 -428q-20 -106 -21 -113
q0 -39 27 -38q66 0 119 76t55 225q2 225 -128 345t-383 120t-399 -154t-146 -402t151 -388q152 -142 395 -142t399 109h209q-221 -305 -596 -306q-338 0 -565 209q-227 208 -227 528zM631 678q0 -86 45 -142t130 -55t136 63t51 154t-47 144q-47 53 -128 53t-134 -66
q-53 -65 -53 -151z" />
    <glyph glyph-name="A" unicode="A" horiz-adv-x="1593"
d="M963 575l-170 560h-5l-184 -560h359zM16 0l543 1430h467l551 -1430h-418l-106 305h-537l-113 -305h-387z" />
    <glyph glyph-name="B" unicode="B" horiz-adv-x="1366"
d="M504 1159v-295h106q254 0 254 152q0 61 -39 95t-87 41t-124 7h-110zM504 606v-336h112q207 0 262 80q24 35 24 88q-1 110 -85 139q-83 29 -196 29h-117zM1282 414q0 -414 -557 -414h-602v1430h657q209 0 337 -92t128 -271q0 -250 -252 -334v-4q289 -59 289 -315z" />
    <glyph glyph-name="C" unicode="C" horiz-adv-x="1366"
d="M80 709q0 360 226 553t593 192q176 0 424 -74l-31 -309q-182 100 -378 100t-318 -130q-123 -131 -123 -335t132 -326t345 -122q169 0 357 74l18 -299q-532 -130 -876 45q-231 116 -320 348q-49 127 -49 283z" />
    <glyph glyph-name="D" unicode="D" horiz-adv-x="1593"
d="M514 1147v-864h148q216 -1 330 109t114 322t-117 322t-327 111h-148zM133 0v1430h520q197 0 344 -34t265 -113q238 -160 237 -557q0 -397 -242 -567q-224 -159 -604 -159h-520z" />
    <glyph glyph-name="E" unicode="E"
d="M123 0v1430h1007v-271h-626v-295h592v-270h-592v-324h649v-270h-1030z" />
    <glyph glyph-name="F" unicode="F" horiz-adv-x="1138"
d="M123 0v1430h956v-271h-575v-313h551v-271h-551v-575h-381z" />
    <glyph glyph-name="G" unicode="G" horiz-adv-x="1593"
d="M1454 836v-795q-258 -66 -530 -66t-475 103q-231 116 -320 348q-49 127 -49 283q0 385 243 565t660 180q266 0 432 -63l-31 -312q-158 92 -334 92t-298 -44q-122 -43 -201 -151q-78 -108 -78 -267q0 -207 132 -329t345 -122q82 0 135 25v282h-223v271h592z" />
    <glyph glyph-name="H" unicode="H" horiz-adv-x="1478"
d="M133 0v1430h381v-547h451v547h381v-1430h-381v612h-451v-612h-381z" />
    <glyph glyph-name="I" unicode="I" horiz-adv-x="684"
d="M152 0v1430h380v-1430h-380z" />
    <glyph glyph-name="J" unicode="J" horiz-adv-x="909"
d="M201 295q195 0 194 313v822h381v-936q0 -248 -118 -383t-394 -136q-79 0 -235 39v316q74 -35 172 -35z" />
    <glyph glyph-name="K" unicode="K" horiz-adv-x="1478"
d="M133 0v1430h381v-584h4l430 584h459l-528 -666l569 -764h-485l-445 649h-4v-649h-381z" />
    <glyph glyph-name="L" unicode="L" horiz-adv-x="1138"
d="M133 0v1430h381v-1147h590v-283h-971z" />
    <glyph glyph-name="M" unicode="M" horiz-adv-x="2048"
d="M123 0v1430h600l303 -951h4l318 951h577v-1430h-373l7 1098h-5l-364 -1098h-350l-348 1098h-5l9 -1098h-373z" />
    <glyph glyph-name="N" unicode="N" horiz-adv-x="1593"
d="M139 0v1430h486l483 -971h4l-6 971h348v-1430h-473l-500 977h-4l12 -977h-350z" />
    <glyph glyph-name="O" unicode="O" horiz-adv-x="1593"
d="M797 258q163 0 243 131t80 329t-80 326t-244 127q-164 1 -243 -127q-80 -128 -80 -326t81 -329t243 -131zM80 716q0 346 184 542t532 196t533 -196q184 -196 184 -542t-185 -544q-185 -197 -531 -197t-532 197q-185 197 -185 544z" />
    <glyph glyph-name="P" unicode="P"
d="M494 1159v-389h98q236 0 235 197q0 193 -235 192h-98zM113 0v1430h454q328 0 485 -114q156 -114 156 -343t-150 -351t-417 -122h-147v-500h-381z" />
    <glyph glyph-name="Q" unicode="Q" horiz-adv-x="1593"
d="M797 -25q-346 0 -532 197q-185 197 -185 544q0 346 184 542t532 196t533 -196q184 -196 184 -543q0 -244 -93 -416t-271 -252l338 -317h-430l-240 245h-20zM797 258q163 0 243 131t80 329t-80 326t-244 127q-164 1 -243 -127q-80 -128 -80 -326t81 -329t243 -131z" />
    <glyph glyph-name="R" unicode="R" horiz-adv-x="1366"
d="M504 1159v-323h100q207 0 255 72q24 36 24 96t-42 96q-43 36 -99 48q-56 11 -138 11h-100zM123 0v1430h680q203 0 332 -92t129 -269q0 -297 -275 -360v-4q74 -21 102 -72t56 -129t45 -115l139 -389h-397l-82 258q-60 186 -112 246t-156 61h-80v-565h-381z" />
    <glyph glyph-name="S" unicode="S"
d="M538 258q228 0 228 139q0 61 -50 103t-125 60q-75 19 -163 51t-163 72t-125 125q-50 84 -50 196t38 190q127 260 585 260q213 0 368 -53l-24 -295q-143 66 -318 65q-256 0 -256 -133q1 -53 51 -89t124 -52t163 -48q88 -32 163 -71t125 -125t50 -201q0 -116 -36 -198
q-67 -153 -224 -214q-157 -62 -381 -63t-414 60l33 315q173 -94 401 -94z" />
    <glyph glyph-name="T" unicode="T" horiz-adv-x="1138"
d="M379 0v1147h-352v283h1085v-283h-352v-1147h-381z" />
    <glyph glyph-name="U" unicode="U" horiz-adv-x="1478"
d="M1366 1430v-887q0 -285 -168 -426t-459 -141t-459 140q-168 142 -167 427v887h381v-824q0 -348 246 -348t245 348v824h381z" />
    <glyph glyph-name="V" unicode="V" horiz-adv-x="1478"
d="M500 0l-480 1430h406l317 -1123h5l319 1123h391l-487 -1430h-471z" />
    <glyph glyph-name="W" unicode="W" horiz-adv-x="2048"
d="M334 0l-318 1430h390l184 -1098h4l192 1098h484l200 -1098h5l186 1098h371l-320 -1430h-489l-203 1098h-4l-189 -1098h-493z" />
    <glyph glyph-name="X" unicode="X" horiz-adv-x="1478"
d="M20 0l463 752l-413 678h444l240 -472l245 472h418l-418 -678l459 -752h-454l-277 526l-274 -526h-433z" />
    <glyph glyph-name="Y" unicode="Y" horiz-adv-x="1478"
d="M551 0v539l-528 891h438l280 -574l277 574h438l-524 -891v-539h-381z" />
    <glyph glyph-name="Z" unicode="Z"
d="M1167 1430v-304l-700 -843h704v-283h-1118v303l680 844h-661v283h1095z" />
    <glyph glyph-name="bracketleft" unicode="[" horiz-adv-x="796"
d="M721 1548v-233h-234v-1368h234v-234h-541v1835h541z" />
    <glyph glyph-name="backslash" unicode="\" horiz-adv-x="569"
d="M354 -25l-397 1479h258l397 -1479h-258z" />
    <glyph glyph-name="bracketright" unicode="]" horiz-adv-x="796"
d="M76 -287v234h233v1368h-233v233h540v-1835h-540z" />
    <glyph glyph-name="asciicircum" unicode="^" horiz-adv-x="1228"
d="M143 682l357 748h229l356 -748h-249l-222 465l-221 -465h-250z" />
    <glyph glyph-name="underscore" unicode="_" horiz-adv-x="1024"
d="M0 -154h1024v-102h-1024v102z" />
    <glyph glyph-name="grave" unicode="`" horiz-adv-x="681"
d="M504 1198h-258l-264 295h383z" />
    <glyph glyph-name="a" unicode="a"
d="M408 338q0 -53 43 -85t108 -32q100 0 164 77q63 77 63 175q-141 6 -155 6q-223 0 -223 -141zM463 -25q-170 0 -285 86t-115 250q0 92 40 162q41 70 97 108q56 39 159 67t224 28t203 -14q-2 184 -243 184q-197 0 -340 -80l-6 250q187 76 419 76t373 -106t141 -337v-397
q1 -148 21 -252h-338l-8 168h-4q-121 -193 -338 -193z" />
    <glyph glyph-name="b" unicode="b" horiz-adv-x="1368"
d="M924 536q0 120 -60 196t-162 77q-102 0 -164 -79t-62 -197q0 -119 65 -197t163 -78t159 79t61 199zM106 0v1536h371v-606h4q129 162 353 162t347 -164q124 -164 124 -394t-129 -394q-129 -165 -359 -165q-125 1 -227 63t-139 152h-5v-190h-340z" />
    <glyph glyph-name="c" unicode="c" horiz-adv-x="1024"
d="M728 821q-124 0 -204 -80t-80 -209q0 -130 90 -208t218 -78q129 0 225 51l8 -274q-141 -47 -301 -48q-272 0 -446 150q-174 151 -174 409t174 408t446 150q172 -1 293 -60l-27 -270q-98 59 -222 59z" />
    <glyph glyph-name="d" unicode="d" horiz-adv-x="1368"
d="M444 536q0 -120 60 -199t160 -79q98 0 164 79t65 197t-63 197q-62 78 -164 78q-102 -1 -162 -77t-60 -196zM1262 1536v-1536h-340v190h-4q-38 -90 -140 -152t-227 -63q-229 0 -358 165q-129 166 -129 396t123 393q124 163 333 163q242 0 367 -162h4v606h371z" />
    <glyph glyph-name="e" unicode="e"
d="M842 635q0 99 -50 161t-150 62t-152 -62q-52 -63 -58 -161h410zM1174 426h-738q29 -205 314 -205q174 0 325 82v-260q-170 -68 -391 -68q-270 0 -445 151t-175 410t158 407q159 148 413 149q143 0 249 -48t168 -134q122 -168 122 -416v-68z" />
    <glyph glyph-name="f" unicode="f" horiz-adv-x="909"
d="M244 0v809h-217v258h223v66q0 231 108 329q109 98 336 99q72 0 189 -21l-23 -254q-49 16 -117 17q-131 0 -131 -170v-66h262v-258h-262v-809h-368z" />
    <glyph glyph-name="g" unicode="g" horiz-adv-x="1368"
d="M444 541q0 -117 60 -188t155 -71q94 0 162 78q68 76 68 186q-1 110 -61 187q-60 76 -166 76q-106 1 -162 -75t-56 -193zM1245 1067v-942q0 -319 -154 -450q-155 -130 -489 -130q-219 0 -407 68l18 291q180 -88 360 -88q328 0 328 309v57h-4q-129 -182 -352 -182t-352 148
t-129 394t120 398q122 152 358 152t365 -218h4v193h334z" />
    <glyph glyph-name="h" unicode="h" horiz-adv-x="1366"
d="M115 0v1536h368v-627h4q131 183 347 183t316 -122q101 -122 101 -304v-666h-368v516q0 268 -170 268q-229 0 -230 -333v-451h-368z" />
    <glyph glyph-name="i" unicode="i" horiz-adv-x="684"
d="M526 1511v-270h-368v270h368zM158 0v1067h368v-1067h-368z" />
    <glyph glyph-name="j" unicode="j" horiz-adv-x="684"
d="M526 1511v-270h-368v270h368zM30 -209q89 0 110 67q18 56 18 142v1067h368v-1077q0 -215 -84 -330t-286 -115q-123 1 -207 19l8 233q27 -6 73 -6z" />
    <glyph glyph-name="k" unicode="k"
d="M115 0v1536h368v-918h4l308 449h403l-371 -489l402 -578h-447l-295 528h-4v-528h-368z" />
    <glyph glyph-name="l" unicode="l" horiz-adv-x="684"
d="M158 0v1536h368v-1536h-368z" />
    <glyph glyph-name="m" unicode="m" horiz-adv-x="2048"
d="M115 0v1067h336v-197h4q106 221 389 222q250 0 334 -205q123 205 378 205q217 0 297 -114t80 -349v-629h-368v573q0 211 -148 211q-209 0 -209 -333v-451h-368v573q0 211 -148 211q-209 0 -209 -333v-451h-368z" />
    <glyph glyph-name="n" unicode="n" horiz-adv-x="1366"
d="M115 0v1067h336v-197h4q106 221 389 222q205 0 306 -122t101 -304v-666h-368v516q0 268 -170 268q-229 0 -230 -333v-451h-368z" />
    <glyph glyph-name="o" unicode="o" horiz-adv-x="1368"
d="M684 233q121 0 180 85q60 85 60 215q0 129 -60 215t-180 86q-121 0 -180 -85q-60 -85 -60 -215t60 -216q60 -85 180 -85zM684 -25q-272 0 -446 150q-174 151 -174 409t174 408t446 150t446 -150t174 -409t-174 -409t-446 -149z" />
    <glyph glyph-name="p" unicode="p" horiz-adv-x="1368"
d="M924 536q0 120 -60 196t-162 77q-102 0 -164 -79t-62 -197q0 -119 65 -197t163 -78t159 79t61 199zM106 -430v1497h340v-193h5q53 109 159 163t238 55q209 0 333 -164t124 -394t-129 -394q-129 -165 -365 -165t-332 175h-4v-580h-369z" />
    <glyph glyph-name="q" unicode="q" horiz-adv-x="1368"
d="M444 536q0 -120 60 -199t160 -79q98 0 164 79t65 197t-63 197q-62 78 -164 78q-102 -1 -162 -77t-60 -196zM1262 1067v-1497h-369v580h-4q-95 -174 -331 -174t-365 164q-129 166 -129 396t123 393q124 163 333 163q132 0 238 -54t160 -164h4v193h340z" />
    <glyph glyph-name="r" unicode="r" horiz-adv-x="909"
d="M752 784q-129 0 -199 -88t-70 -245v-451h-368v1067h336v-197h4q104 221 315 222q51 -1 125 -13l-18 -307q-41 12 -125 12z" />
    <glyph glyph-name="s" unicode="s" horiz-adv-x="1024"
d="M958 332q0 -352 -497 -357q-227 1 -387 52l20 268q172 -74 334 -74t162 86q0 49 -54 77t-132 46t-154 46t-130 96t-54 173q0 171 137 259t337 88t355 -62l-29 -256q-120 72 -288 72t-168 -74q0 -45 56 -70t137 -42t162 -45q81 -27 137 -99t56 -184z" />
    <glyph glyph-name="t" unicode="t" horiz-adv-x="909"
d="M20 809v258h218v240l362 112v-352h258v-258h-258v-393q0 -102 32 -148t116 -47q27 0 112 15l12 -240q-174 -20 -231 -21q-236 -1 -323 97t-87 303v434h-211z" />
    <glyph glyph-name="u" unicode="u" horiz-adv-x="1366"
d="M1251 1067v-1067h-336v197h-4q-106 -221 -389 -222q-205 0 -306 122t-101 304v666h368v-516q0 -268 170 -268q229 0 230 333v451h368z" />
    <glyph glyph-name="v" unicode="v"
d="M416 0l-396 1067h396l221 -760h4l223 760h367l-395 -1067h-420z" />
    <glyph glyph-name="w" unicode="w" horiz-adv-x="1933"
d="M346 0l-328 1067h385l172 -768h5l184 768h442l180 -768h5l168 768h356l-326 -1067h-428l-180 772h-4l-203 -772h-428z" />
    <glyph glyph-name="x" unicode="x"
d="M18 0l363 543l-334 524h436l158 -319l166 319h403l-333 -520l356 -547h-445l-178 332l-176 -332h-416z" />
    <glyph glyph-name="y" unicode="y"
d="M272 -455q-66 0 -180 25l25 280q69 -22 141 -22t121 39t70 108l-433 1092h398l229 -696h4l219 696h369l-391 -993q-92 -238 -137 -312q-125 -203 -351 -217h-84z" />
    <glyph glyph-name="z" unicode="z" horiz-adv-x="1024"
d="M53 0v295l488 502h-478v270h900v-295l-488 -502h496v-270h-918z" />
    <glyph glyph-name="braceleft" unicode="{" horiz-adv-x="796"
d="M61 723q174 0 177 135v410q0 137 86 209t206 71h205v-184h-96q-119 0 -119 -131v-375q-2 -209 -237 -225v-4q167 -15 214 -112q24 -50 23 -128v-360q0 -131 119 -131h96v-185h-205q-120 0 -206 72t-86 209v395q0 97 -65 124q-65 26 -112 26v184z" />
    <glyph glyph-name="bar" unicode="|" horiz-adv-x="454"
d="M98 1536h258v-2048h-258v2048z" />
    <glyph glyph-name="braceright" unicode="}" horiz-adv-x="796"
d="M735 539q-173 0 -176 -136v-409q0 -137 -86 -209t-207 -72h-205v185h97q119 0 118 131v374q2 209 238 226v4q-45 4 -76 10q-30 6 -72 29q-90 50 -90 200v361q0 131 -118 131h-97v184h205q121 0 207 -72t86 -208v-396q0 -95 64 -122t112 -27v-184z" />
    <glyph glyph-name="asciitilde" unicode="~" horiz-adv-x="1228"
d="M831 324q-88 0 -232 66q-143 66 -193 65q-76 0 -140 -72q-20 -25 -51 -70l-74 224q92 176 256 176q89 0 233 -66q144 -65 194 -65q78 1 139 71q20 25 51 70l73 -223q-92 -176 -256 -176z" />
    <glyph glyph-name="uni00A0" unicode="&#xa0;" horiz-adv-x="626"
 />
    <glyph glyph-name="exclamdown" unicode="&#xa1;" horiz-adv-x="909"
d="M627 1067v-332h-344v332h344zM264 -362l53 944h275l53 -944h-381z" />
    <glyph glyph-name="cent" unicode="&#xa2;" horiz-adv-x="1253"
d="M770 1092q53 0 107 -7l73 240h121l-80 -264q27 -8 72 -29l-27 -270q-66 39 -121 51l-165 -555q43 -12 84 -12q133 0 229 51l8 -274q-141 -47 -301 -48q-53 0 -102 7l-82 -269h-123l88 293q-184 50 -293 188t-108 338q0 260 174 410t446 150zM530 521q0 -136 113 -214
l154 514q-117 -4 -192 -84t-75 -216z" />
    <glyph glyph-name="sterling" unicode="&#xa3;" horiz-adv-x="1253"
d="M109 0v270h188v389h-172v185h176v108q0 252 151 377t427 125q129 0 276 -37l-16 -270q-72 25 -170 24q-162 -1 -227 -65t-64 -195v-67h311v-185h-311v-389h461v-270h-1030z" />
    <glyph glyph-name="currency" unicode="&#xa4;" horiz-adv-x="1253"
d="M627 465q102 0 170 71q67 72 67 180t-68 178t-169 71q-102 0 -170 -71q-68 -72 -68 -180t68 -178t170 -71zM119 715q0 195 94 289l-119 116l129 127l117 -110q51 41 132 63t155 23q75 0 155 -23t131 -63l117 110l129 -127l-119 -116q94 -94 94 -289t-94 -289l119 -117
l-129 -127l-117 111q-51 -41 -132 -64q-151 -43 -309 0q-81 23 -132 64l-117 -111l-129 127l119 117q-94 94 -94 289z" />
    <glyph glyph-name="yen" unicode="&#xa5;" horiz-adv-x="1253"
d="M442 0v279h-303v172h303v88l-18 39h-285v172h199l-338 680h381l246 -578l241 578h385l-338 -680h199v-172h-283l-20 -39v-88h303v-172h-303v-279h-369z" />
    <glyph glyph-name="brokenbar" unicode="&#xa6;" horiz-adv-x="454"
d="M98 358h258v-716h-258v716zM98 1382h258v-716h-258v716z" />
    <glyph glyph-name="section" unicode="&#xa7;"
d="M430 645q0 -57 31 -86q89 -83 299 -147q61 72 61 155q1 55 -67 96t-256 119q-68 -80 -68 -137zM552 -37q184 0 183 107q0 80 -216 157q-89 33 -179 74t-154 115q-63 74 -63 169t46 159t138 122q-70 31 -116 98t-46 140q0 350 533 350q141 0 332 -51l-17 -254
q-151 59 -315 59t-164 -94q0 -73 217 -145q90 -31 180 -73q89 -42 153 -120t64 -184q0 -160 -167 -279q63 -33 103 -103t40 -154q0 -82 -51 -152t-133 -109q-296 -141 -748 -18l18 268q178 -82 362 -82z" />
    <glyph glyph-name="dieresis" unicode="&#xa8;" horiz-adv-x="681"
d="M-39 1198v295h295v-295h-295zM428 1198v295h295v-295h-295z" />
    <glyph glyph-name="copyright" unicode="&#xa9;" horiz-adv-x="1638"
d="M313 715q-1 -225 147 -378t359 -153t359 153q147 153 147 378t-147 378q-146 153 -358 153t-360 -154q-148 -152 -147 -377zM80 715q0 305 217 522t522 217t522 -217t217 -522t-216 -522q-218 -217 -523 -217t-522 216q-217 218 -217 523zM818 289q-170 0 -278 120
t-108 306t108 305t278 119t261 -82q90 -82 95 -228h-197q-18 59 -50 86t-103 27q-70 0 -114 -61t-44 -165t44 -168q44 -62 114 -62t103 26q32 27 50 86h197q-4 -145 -94 -227t-262 -82z" />
    <glyph glyph-name="ordfeminine" unicode="&#xaa;" horiz-adv-x="813"
d="M512 1073h-88q-135 0 -135 -76t88 -75q57 0 96 45t39 106zM367 1454q115 0 170 -8t109 -32q112 -50 112 -200v-294q4 -63 12 -125h-242l-12 96h-4q-68 -113 -211 -113q-111 0 -185 51t-73 154q0 70 36 117t92 67q104 37 196 37q23 0 145 -8q0 115 -158 115
q-129 0 -225 -51v149q123 45 238 45z" />
    <glyph glyph-name="guillemotleft" unicode="&#xab;"
d="M827 133l-243 418l243 418h303l-225 -418l225 -418h-303zM340 133l-244 418l244 418h303l-225 -418l225 -418h-303z" />
    <glyph glyph-name="logicalnot" unicode="&#xac;" horiz-adv-x="1228"
d="M96 625v258h1037v-662h-259v404h-778z" />
    <glyph glyph-name="uni00AD" unicode="&#xad;" horiz-adv-x="681"
d="M63 416v270h555v-270h-555z" />
    <glyph glyph-name="registered" unicode="&#xae;" horiz-adv-x="1638"
d="M723 965v-158h119q125 0 125 88q0 70 -142 70h-102zM526 315v805h328q158 0 234 -52t75 -172q0 -120 -61 -174t-164 -58l192 -349h-196l-176 336h-35v-336h-197zM819 184q211 0 359 153q147 153 147 378t-147 378q-146 153 -358 153t-359 -154q-147 -152 -147 -377
t146 -378q148 -153 359 -153zM819 -25q-305 -1 -522 217t-217 523t217 522t522 217t522 -217t217 -522t-216 -523q-218 -218 -523 -217z" />
    <glyph glyph-name="macron" unicode="&#xaf;" horiz-adv-x="681"
d="M-43 1276v172h768v-172h-768z" />
    <glyph glyph-name="degree" unicode="&#xb0;" horiz-adv-x="819"
d="M264 1153q0 -59 43 -102t103 -43t102 43q43 43 43 102t-43 102t-102 43q-58 0 -102 -43t-44 -102zM109 1153q0 125 88 213t213 88t213 -88t88 -213t-88 -213t-213 -88t-213 88t-88 213z" />
    <glyph glyph-name="plusminus" unicode="&#xb1;" horiz-adv-x="1228"
d="M96 0v258h1037v-258h-1037zM96 549v258h389v229h258v-229h390v-258h-390v-230h-258v230h-389z" />
    <glyph glyph-name="twosuperior" unicode="&#xb2;" horiz-adv-x="815"
d="M61 578v184q397 270 398 405q0 43 -36 67t-89 23q-131 0 -238 -49l-10 197q158 49 318 49t254 -66q95 -66 96 -186q0 -153 -200 -330q-26 -23 -87 -77l-37 -33h307v-184h-676z" />
    <glyph glyph-name="threesuperior" unicode="&#xb3;" horiz-adv-x="815"
d="M374 1454q157 0 263 -54t106 -191t-174 -181v-4q89 -14 139 -66t50 -128q0 -77 -37 -132q-92 -137 -393 -137q-183 0 -271 29l13 213q90 -45 198 -45q206 0 207 84q0 78 -162 78q-47 0 -104 -5v183q29 -6 104 -6t111 24t37 66q0 41 -47 58q-46 18 -132 18t-182 -41
l-12 200q129 37 286 37z" />
    <glyph glyph-name="acute" unicode="&#xb4;" horiz-adv-x="681"
d="M203 1198l139 295h383l-264 -295h-258z" />
    <glyph glyph-name="mu" unicode="&#xb5;" horiz-adv-x="1366"
d="M1251 1067v-1067h-336v197h-4q-106 -221 -389 -222h-35v-405h-372v1497h368v-516q0 -268 170 -268q229 0 230 333v451h368z" />
    <glyph glyph-name="paragraph" unicode="&#xb6;" horiz-adv-x="1269"
d="M494 -258v971q-457 0 -457 358t457 359h690v-1688h-246v1503h-199v-1503h-245z" />
    <glyph glyph-name="periodcentered" unicode="&#xb7;" horiz-adv-x="626"
d="M123 557q0 78 56 134q56 57 134 57t134 -56q57 -56 57 -135q0 -78 -56 -134t-135 -56q-78 0 -134 56t-56 134z" />
    <glyph glyph-name="cedilla" unicode="&#xb8;" horiz-adv-x="681"
d="M486 -123q58 0 106 -44q47 -44 47 -134q0 -154 -270 -154q-139 0 -256 47l34 95q95 -43 189 -43t94 63q0 72 -78 72q-27 0 -57 -12l-80 49l86 184h135l-55 -133q47 10 105 10z" />
    <glyph glyph-name="onesuperior" unicode="&#xb9;" horiz-adv-x="815"
d="M334 578v589l-162 -98l-111 178l312 191h231v-860h-270z" />
    <glyph glyph-name="ordmasculine" unicode="&#xba;" horiz-adv-x="888"
d="M444 1282q-74 0 -112 -49t-39 -118q0 -69 38 -117q37 -48 113 -48t114 48t38 117t-39 118t-113 49zM35 1116q0 156 115 247q114 91 294 91t295 -91t115 -247t-115 -247t-295 -91t-294 91t-115 247z" />
    <glyph glyph-name="guillemotright" unicode="&#xbb;"
d="M911 969l244 -418l-244 -418h-303l226 418l-226 418h303zM424 969l244 -418l-244 -418h-303l225 418l-225 418h303z" />
    <glyph glyph-name="onequarter" unicode="&#xbc;" horiz-adv-x="1875"
d="M334 582v589l-162 -98l-111 178l312 191h231v-860h-270zM428 -45l793 1520h223l-793 -1520h-223zM1462 330v352h-4l-248 -352h252zM1462 0v145h-430v207l367 508h309v-530h123v-185h-123v-145h-246z" />
    <glyph glyph-name="onehalf" unicode="&#xbd;" horiz-adv-x="1875"
d="M1139 0v184q397 270 397 406q0 42 -36 66t-89 24q-129 0 -237 -49l-11 196q158 49 342 50q135 0 231 -67t95 -185q0 -153 -200 -330q-26 -23 -87 -78l-37 -33h308v-184h-676zM317 578v589l-161 -98l-111 178l311 191h232v-860h-271zM412 -45l792 1520h223l-792 -1520
h-223z" />
    <glyph glyph-name="threequarters" unicode="&#xbe;" horiz-adv-x="1875"
d="M374 1454q157 0 263 -54t106 -191t-174 -181v-4q89 -14 139 -66t50 -128q0 -77 -37 -132q-92 -137 -393 -137q-183 0 -271 29l13 213q90 -45 198 -45q206 0 207 84q0 78 -162 78q-47 0 -104 -5v183q29 -6 104 -6t111 24t37 66q0 41 -47 58q-46 18 -132 18t-182 -41
l-12 200q129 37 286 37zM428 -45l793 1520h223l-793 -1520h-223zM1462 330v352h-4l-248 -352h252zM1462 0v145h-430v207l367 508h309v-530h123v-185h-123v-145h-246z" />
    <glyph glyph-name="questiondown" unicode="&#xbf;" horiz-adv-x="1138"
d="M737 1067v-332h-344v332h344zM161 -245q-79 81 -79 212t111 253q47 52 95 102q117 123 128 260h299q0 -137 -94 -256q-39 -48 -77 -96q-95 -118 -94 -195q0 -76 70 -114t156 -38q171 0 321 76l9 -287q-193 -59 -449 -59t-396 142z" />
    <glyph glyph-name="Agrave" unicode="&#xc0;" horiz-adv-x="1593"
d="M961 1505h-259l-264 295h383zM963 575l-170 560h-5l-184 -560h359zM16 0l543 1430h467l551 -1430h-418l-106 305h-537l-113 -305h-387z" />
    <glyph glyph-name="Aacute" unicode="&#xc1;" horiz-adv-x="1593"
d="M631 1505l139 295h383l-264 -295h-258zM963 575l-170 560h-5l-184 -560h359zM16 0l543 1430h467l551 -1430h-418l-106 305h-537l-113 -305h-387z" />
    <glyph glyph-name="Acircumflex" unicode="&#xc2;" horiz-adv-x="1593"
d="M403 1505l232 295h332l223 -295h-256l-133 160l-142 -160h-256zM963 575l-170 560h-5l-184 -560h359zM16 0l543 1430h467l551 -1430h-418l-106 305h-537l-113 -305h-387z" />
    <glyph glyph-name="Atilde" unicode="&#xc3;" horiz-adv-x="1593"
d="M936 1511q-58 0 -160 37t-131 37q-82 0 -100 -80h-148q14 121 80 205t180 84q59 0 159 -37t134 -37q89 0 103 80h147q-14 -127 -80 -208t-184 -81zM963 575l-170 560h-5l-184 -560h359zM16 0l543 1430h467l551 -1430h-418l-106 305h-537l-113 -305h-387z" />
    <glyph glyph-name="Adieresis" unicode="&#xc4;" horiz-adv-x="1593"
d="M418 1505v295h295v-295h-295zM885 1505v295h295v-295h-295zM963 575l-170 560h-5l-184 -560h359zM16 0l543 1430h467l551 -1430h-418l-106 305h-537l-113 -305h-387z" />
    <glyph glyph-name="Aring" unicode="&#xc5;" horiz-adv-x="1593"
d="M700 1724q0 -42 29 -70t70 -28t69 29t29 69q0 40 -29 70q-30 29 -70 29t-69 -29t-29 -70zM569 1724q0 94 68 162t162 68t162 -68q67 -68 67 -162t-68 -162t-161 -67q-94 -1 -162 67t-68 162zM963 575l-170 560h-5l-184 -560h359zM16 0l543 1430h467l551 -1430h-418
l-106 305h-537l-113 -305h-387z" />
    <glyph glyph-name="AE" unicode="&#xc6;" horiz-adv-x="2048"
d="M977 575v584h-19l-284 -584h303zM1944 1430v-271h-586v-295h549v-270h-549v-324h610v-270h-991v305h-436l-150 -305h-399l747 1430h1205z" />
    <glyph glyph-name="Ccedilla" unicode="&#xc7;" horiz-adv-x="1366"
d="M940 -123q58 0 104 -44t48 -134q0 -154 -271 -154q-137 0 -256 47l35 95q96 -43 189 -43t94 63q0 72 -78 72q-27 0 -57 -12l-80 49l80 172q-273 37 -460 201q-96 85 -152 219t-56 301q0 360 226 553t593 192q176 0 424 -74l-31 -309q-182 100 -378 100t-318 -130
q-123 -131 -123 -335t132 -326t345 -122q169 0 357 74l18 -299q-233 -57 -424 -58h-22l-45 -108q48 10 106 10z" />
    <glyph glyph-name="Egrave" unicode="&#xc8;"
d="M788 1505h-258l-264 295h383zM123 0v1430h1007v-271h-626v-295h592v-270h-592v-324h649v-270h-1030z" />
    <glyph glyph-name="Eacute" unicode="&#xc9;"
d="M459 1505l139 295h383l-264 -295h-258zM123 0v1430h1007v-271h-626v-295h592v-270h-592v-324h649v-270h-1030z" />
    <glyph glyph-name="Ecircumflex" unicode="&#xca;"
d="M231 1505l232 295h332l223 -295h-256l-133 160l-142 -160h-256zM123 0v1430h1007v-271h-626v-295h592v-270h-592v-324h649v-270h-1030z" />
    <glyph glyph-name="Edieresis" unicode="&#xcb;"
d="M246 1505v295h295v-295h-295zM713 1505v295h295v-295h-295zM123 0v1430h1007v-271h-626v-295h592v-270h-592v-324h649v-270h-1030z" />
    <glyph glyph-name="Igrave" unicode="&#xcc;" horiz-adv-x="684"
d="M506 1505h-258l-264 295h383zM152 0v1430h380v-1430h-380z" />
    <glyph glyph-name="Iacute" unicode="&#xcd;" horiz-adv-x="684"
d="M174 1505l139 295h383l-264 -295h-258zM152 0v1430h380v-1430h-380z" />
    <glyph glyph-name="Icircumflex" unicode="&#xce;" horiz-adv-x="684"
d="M-51 1505l231 295h332l223 -295h-256l-133 160l-141 -160h-256zM152 0v1430h380v-1430h-380z" />
    <glyph glyph-name="Idieresis" unicode="&#xcf;" horiz-adv-x="684"
d="M-37 1505v295h295v-295h-295zM430 1505v295h295v-295h-295zM152 0v1430h380v-1430h-380z" />
    <glyph glyph-name="Eth" unicode="&#xd0;" horiz-adv-x="1593"
d="M133 0v639h-137v209h137v582h520q197 0 344 -34t265 -113q238 -160 237 -557q0 -397 -242 -567q-224 -159 -604 -159h-520zM514 1147v-299h342v-209h-342v-356h148q216 -1 330 109t114 322t-117 322t-327 111h-148z" />
    <glyph glyph-name="Ntilde" unicode="&#xd1;" horiz-adv-x="1593"
d="M936 1511q-58 0 -160 37t-131 37q-82 0 -100 -80h-148q14 121 80 205t180 84q59 0 159 -37t134 -37q89 0 103 80h147q-14 -127 -80 -208t-184 -81zM139 0v1430h486l483 -971h4l-6 971h348v-1430h-473l-500 977h-4l12 -977h-350z" />
    <glyph glyph-name="Ograve" unicode="&#xd2;" horiz-adv-x="1593"
d="M961 1505h-259l-264 295h383zM797 258q163 0 243 131t80 329t-80 326t-244 127q-164 1 -243 -127q-80 -128 -80 -326t81 -329t243 -131zM80 716q0 346 184 542t532 196t533 -196q184 -196 184 -542t-185 -544q-185 -197 -531 -197t-532 197q-185 197 -185 544z" />
    <glyph glyph-name="Oacute" unicode="&#xd3;" horiz-adv-x="1593"
d="M631 1505l139 295h383l-264 -295h-258zM797 258q163 0 243 131t80 329t-80 326t-244 127q-164 1 -243 -127q-80 -128 -80 -326t81 -329t243 -131zM80 716q0 346 184 542t532 196t533 -196q184 -196 184 -542t-185 -544q-185 -197 -531 -197t-532 197q-185 197 -185 544z
" />
    <glyph glyph-name="Ocircumflex" unicode="&#xd4;" horiz-adv-x="1593"
d="M403 1505l232 295h332l223 -295h-256l-133 160l-142 -160h-256zM797 258q163 0 243 131t80 329t-80 326t-244 127q-164 1 -243 -127q-80 -128 -80 -326t81 -329t243 -131zM80 716q0 346 184 542t532 196t533 -196q184 -196 184 -542t-185 -544q-185 -197 -531 -197
t-532 197q-185 197 -185 544z" />
    <glyph glyph-name="Otilde" unicode="&#xd5;" horiz-adv-x="1593"
d="M936 1511q-58 0 -160 37t-131 37q-82 0 -100 -80h-148q14 121 80 205t180 84q59 0 159 -37t134 -37q89 0 103 80h147q-14 -127 -80 -208t-184 -81zM797 258q163 0 243 131t80 329t-80 326t-244 127q-164 1 -243 -127q-80 -128 -80 -326t81 -329t243 -131zM80 716
q0 346 184 542t532 196t533 -196q184 -196 184 -542t-185 -544q-185 -197 -531 -197t-532 197q-185 197 -185 544z" />
    <glyph glyph-name="Odieresis" unicode="&#xd6;" horiz-adv-x="1593"
d="M418 1505v295h295v-295h-295zM885 1505v295h295v-295h-295zM797 258q163 0 243 131t80 329t-80 326t-244 127q-164 1 -243 -127q-80 -128 -80 -326t81 -329t243 -131zM80 716q0 346 184 542t532 196t533 -196q184 -196 184 -542t-185 -544q-185 -197 -531 -197t-532 197
q-185 197 -185 544z" />
    <glyph glyph-name="multiply" unicode="&#xd7;" horiz-adv-x="1228"
d="M438 518l-311 311l176 177l311 -312l312 312l176 -177l-314 -311l314 -311l-176 -176l-312 313l-311 -313l-176 176z" />
    <glyph glyph-name="Oslash" unicode="&#xd8;" horiz-adv-x="1593"
d="M80 715q0 347 184 543t533 196q268 0 442 -121l172 187l131 -123l-172 -187q143 -190 143 -516t-185 -522q-185 -197 -531 -197q-281 0 -455 131l-180 -194l-131 123l186 198q-137 184 -137 482zM808 258q150 0 232 131q80 131 80 326q1 112 -24 200l-518 -557
q80 -100 230 -100zM797 1171q-164 0 -244 -128t-80 -328q0 -107 23 -183l512 551q-82 88 -211 88z" />
    <glyph glyph-name="Ugrave" unicode="&#xd9;" horiz-adv-x="1478"
d="M903 1505h-258l-264 295h383zM1366 1430v-887q0 -285 -168 -426t-459 -141t-459 140q-168 142 -167 427v887h381v-824q0 -348 246 -348t245 348v824h381z" />
    <glyph glyph-name="Uacute" unicode="&#xda;" horiz-adv-x="1478"
d="M573 1505l140 295h383l-265 -295h-258zM1366 1430v-887q0 -285 -168 -426t-459 -141t-459 140q-168 142 -167 427v887h381v-824q0 -348 246 -348t245 348v824h381z" />
    <glyph glyph-name="Ucircumflex" unicode="&#xdb;" horiz-adv-x="1478"
d="M346 1505l232 295h331l224 -295h-256l-134 160l-141 -160h-256zM1366 1430v-887q0 -285 -168 -426t-459 -141t-459 140q-168 142 -167 427v887h381v-824q0 -348 246 -348t245 348v824h381z" />
    <glyph glyph-name="Udieresis" unicode="&#xdc;" horiz-adv-x="1478"
d="M360 1505v295h295v-295h-295zM827 1505v295h295v-295h-295zM1366 1430v-887q0 -285 -168 -426t-459 -141t-459 140q-168 142 -167 427v887h381v-824q0 -348 246 -348t245 348v824h381z" />
    <glyph glyph-name="Yacute" unicode="&#xdd;" horiz-adv-x="1478"
d="M602 1505l139 295h383l-264 -295h-258zM551 0v539l-528 891h438l280 -574l277 574h438l-524 -891v-539h-381z" />
    <glyph glyph-name="Thorn" unicode="&#xde;"
d="M494 981v-389h98q236 0 235 196q0 193 -235 193h-98zM113 0v1430h381v-179h73q334 1 488 -107q153 -108 153 -350q-1 -474 -567 -472h-147v-322h-381z" />
    <glyph glyph-name="germandbls" unicode="&#xdf;" horiz-adv-x="1366"
d="M862 1126q0 189 -188 189q-96 0 -144 -78q-47 -78 -47 -199v-1038h-368v1012q0 133 36 233q36 101 92 159t162 106t251 50q146 1 236 -21t170 -68q79 -46 124 -131q45 -86 45 -212q-1 -126 -63 -208t-193 -127v-5q311 -49 311 -356q0 -252 -169 -355q-146 -89 -355 -89
q-88 0 -182 12l10 268q68 -10 133 -10q195 0 195 211q0 94 -52 147q-52 54 -128 54q-75 0 -107 -4v262h51q78 0 129 54t51 144z" />
    <glyph glyph-name="agrave" unicode="&#xe0;"
d="M788 1198h-258l-264 295h383zM408 338q0 -53 43 -85t108 -32q100 0 164 77q63 77 63 175q-141 6 -155 6q-223 0 -223 -141zM463 -25q-170 0 -285 86t-115 250q0 92 40 162q41 70 97 108q56 39 159 67t224 28t203 -14q-2 184 -243 184q-197 0 -340 -80l-6 250
q187 76 419 76t373 -106t141 -337v-397q1 -148 21 -252h-338l-8 168h-4q-121 -193 -338 -193z" />
    <glyph glyph-name="aacute" unicode="&#xe1;"
d="M487 1198l140 295h383l-265 -295h-258zM408 338q0 -53 43 -85t108 -32q100 0 164 77q63 77 63 175q-141 6 -155 6q-223 0 -223 -141zM463 -25q-170 0 -285 86t-115 250q0 92 40 162q41 70 97 108q56 39 159 67t224 28t203 -14q-2 184 -243 184q-197 0 -340 -80l-6 250
q187 76 419 76t373 -106t141 -337v-397q1 -148 21 -252h-338l-8 168h-4q-121 -193 -338 -193z" />
    <glyph glyph-name="acircumflex" unicode="&#xe2;"
d="M231 1198l232 295h332l223 -295h-256l-133 160l-142 -160h-256zM408 338q0 -53 43 -85t108 -32q100 0 164 77q63 77 63 175q-141 6 -155 6q-223 0 -223 -141zM463 -25q-170 0 -285 86t-115 250q0 92 40 162q41 70 97 108q56 39 159 67t224 28t203 -14q-2 184 -243 184
q-197 0 -340 -80l-6 250q187 76 419 76t373 -106t141 -337v-397q1 -148 21 -252h-338l-8 168h-4q-121 -193 -338 -193z" />
    <glyph glyph-name="atilde" unicode="&#xe3;"
d="M764 1204q-58 0 -160 37t-131 37q-82 0 -100 -80h-148q14 121 80 205t180 84q59 0 159 -37t134 -37q89 0 103 80h147q-14 -127 -80 -208t-184 -81zM408 338q0 -53 43 -85t108 -32q100 0 164 77q63 77 63 175q-141 6 -155 6q-223 0 -223 -141zM463 -25q-170 0 -285 86
t-115 250q0 92 40 162q41 70 97 108q56 39 159 67t224 28t203 -14q-2 184 -243 184q-197 0 -340 -80l-6 250q187 76 419 76t373 -106t141 -337v-397q1 -148 21 -252h-338l-8 168h-4q-121 -193 -338 -193z" />
    <glyph glyph-name="adieresis" unicode="&#xe4;"
d="M246 1198v295h295v-295h-295zM713 1198v295h295v-295h-295zM408 338q0 -53 43 -85t108 -32q100 0 164 77q63 77 63 175q-141 6 -155 6q-223 0 -223 -141zM463 -25q-170 0 -285 86t-115 250q0 92 40 162q41 70 97 108q56 39 159 67t224 28t203 -14q-2 184 -243 184
q-197 0 -340 -80l-6 250q187 76 419 76t373 -106t141 -337v-397q1 -148 21 -252h-338l-8 168h-4q-121 -193 -338 -193z" />
    <glyph glyph-name="aring" unicode="&#xe5;"
d="M528 1389q0 -41 29 -70t70 -29t69 29t29 70q0 41 -29 69q-30 28 -70 29q-40 -1 -69 -29t-29 -69zM397 1389q0 93 68 161t162 68q93 0 161 -68t68 -162t-68 -161q-68 -68 -162 -68t-161 68q-68 68 -68 162zM408 338q0 -53 43 -85t108 -32q100 0 164 77q63 77 63 175
q-141 6 -155 6q-223 0 -223 -141zM463 -25q-170 0 -285 86t-115 250q0 92 40 162q41 70 97 108q56 39 159 67t224 28t203 -14q-2 184 -243 184q-197 0 -340 -80l-6 250q187 76 419 76t373 -106t141 -337v-397q1 -148 21 -252h-338l-8 168h-4q-121 -193 -338 -193z" />
    <glyph glyph-name="ae" unicode="&#xe6;" horiz-adv-x="1933"
d="M1546 635q0 99 -50 161t-150 62t-151 -62q-52 -62 -58 -161h409zM389 340q0 -55 43 -87t109 -32q100 0 164 79q63 79 63 179h-141q-238 0 -238 -139zM1416 -25q-194 -1 -315 49q-122 50 -198 191q-73 -133 -187 -186t-278 -53t-278 85q-114 86 -115 252q0 92 40 162
t96 107q56 38 159 66t207 28t221 -10q-2 180 -244 180q-197 0 -340 -80l-6 252q188 74 426 74q254 -8 359 -131q164 131 376 131q143 0 249 -48t168 -134q122 -168 122 -416v-68h-737q29 -205 313 -205q174 0 326 82v-260q-170 -68 -364 -68z" />
    <glyph glyph-name="ccedilla" unicode="&#xe7;" horiz-adv-x="1024"
d="M728 821q-124 0 -204 -80t-80 -209q0 -130 90 -208t218 -78q129 0 225 51l8 -274q-141 -47 -301 -48q-23 0 -31 2l-45 -110q47 10 106 10q60 0 106 -44t46 -134q0 -154 -270 -154q-137 0 -256 47l35 95q96 -43 189 -43t93 63q0 72 -77 72q-27 0 -58 -12l-80 49l82 178
q-209 39 -335 180t-126 358q1 260 175 410t446 150q172 -1 293 -60l-27 -270q-98 59 -222 59z" />
    <glyph glyph-name="egrave" unicode="&#xe8;"
d="M788 1198h-258l-264 295h383zM842 635q0 99 -50 161t-150 62t-152 -62q-52 -63 -58 -161h410zM1174 426h-738q29 -205 314 -205q174 0 325 82v-260q-170 -68 -391 -68q-270 0 -445 151t-175 410t158 407q159 148 413 149q143 0 249 -48t168 -134q122 -168 122 -416v-68z
" />
    <glyph glyph-name="eacute" unicode="&#xe9;"
d="M487 1198l140 295h383l-265 -295h-258zM842 635q0 99 -50 161t-150 62t-152 -62q-52 -63 -58 -161h410zM1174 426h-738q29 -205 314 -205q174 0 325 82v-260q-170 -68 -391 -68q-270 0 -445 151t-175 410t158 407q159 148 413 149q143 0 249 -48t168 -134
q122 -168 122 -416v-68z" />
    <glyph glyph-name="ecircumflex" unicode="&#xea;"
d="M231 1198l232 295h332l223 -295h-256l-133 160l-142 -160h-256zM842 635q0 99 -50 161t-150 62t-152 -62q-52 -63 -58 -161h410zM1174 426h-738q29 -205 314 -205q174 0 325 82v-260q-170 -68 -391 -68q-270 0 -445 151t-175 410t158 407q159 148 413 149q143 0 249 -48
t168 -134q122 -168 122 -416v-68z" />
    <glyph glyph-name="edieresis" unicode="&#xeb;"
d="M246 1198v295h295v-295h-295zM713 1198v295h295v-295h-295zM842 635q0 99 -50 161t-150 62t-152 -62q-52 -63 -58 -161h410zM1174 426h-738q29 -205 314 -205q174 0 325 82v-260q-170 -68 -391 -68q-270 0 -445 151t-175 410t158 407q159 148 413 149q143 0 249 -48
t168 -134q122 -168 122 -416v-68z" />
    <glyph glyph-name="igrave" unicode="&#xec;" horiz-adv-x="684"
d="M506 1198h-258l-264 295h383zM158 0v1067h368v-1067h-368z" />
    <glyph glyph-name="iacute" unicode="&#xed;" horiz-adv-x="684"
d="M205 1198l139 295h383l-264 -295h-258zM158 0v1067h368v-1067h-368z" />
    <glyph glyph-name="icircumflex" unicode="&#xee;" horiz-adv-x="684"
d="M-51 1198l231 295h332l223 -295h-256l-133 160l-141 -160h-256zM158 0v1067h368v-1067h-368z" />
    <glyph glyph-name="idieresis" unicode="&#xef;" horiz-adv-x="684"
d="M-37 1198v295h295v-295h-295zM430 1198v295h295v-295h-295zM158 0v1067h368v-1067h-368z" />
    <glyph glyph-name="eth" unicode="&#xf0;" horiz-adv-x="1368"
d="M674 -25q-297 1 -454 135t-157 400q1 219 143 374t357 154q256 0 328 -166l4 5q-61 193 -311 342l-295 -136l-123 134l219 100q-43 18 -182 69l213 224q172 -59 317 -135l299 135l127 -131l-246 -111q391 -276 392 -750q0 -299 -167 -471t-464 -172zM444 510
q0 -115 58 -196t178 -81q121 0 182 82q62 82 62 196q0 113 -62 191t-182 78t-178 -78t-58 -192z" />
    <glyph glyph-name="ntilde" unicode="&#xf1;" horiz-adv-x="1366"
d="M821 1204q-57 0 -159 37t-132 37q-82 0 -100 -80h-147q14 121 79 205q66 84 181 84q59 0 159 -37t134 -37q88 0 102 80h147q-13 -127 -79 -208t-185 -81zM115 0v1067h336v-197h4q106 221 389 222q205 0 306 -122t101 -304v-666h-368v516q0 268 -170 268q-229 0 -230 -333
v-451h-368z" />
    <glyph glyph-name="ograve" unicode="&#xf2;" horiz-adv-x="1368"
d="M848 1198h-258l-264 295h383zM684 233q121 0 180 85q60 85 60 215q0 129 -60 215t-180 86q-121 0 -180 -85q-60 -85 -60 -215t60 -216q60 -85 180 -85zM684 -25q-272 0 -446 150q-174 151 -174 409t174 408t446 150t446 -150t174 -409t-174 -409t-446 -149z" />
    <glyph glyph-name="oacute" unicode="&#xf3;" horiz-adv-x="1368"
d="M547 1198l139 295h383l-264 -295h-258zM684 233q121 0 180 85q60 85 60 215q0 129 -60 215t-180 86q-121 0 -180 -85q-60 -85 -60 -215t60 -216q60 -85 180 -85zM684 -25q-272 0 -446 150q-174 151 -174 409t174 408t446 150t446 -150t174 -409t-174 -409t-446 -149z" />
    <glyph glyph-name="ocircumflex" unicode="&#xf4;" horiz-adv-x="1368"
d="M291 1198l231 295h332l223 -295h-256l-133 160l-141 -160h-256zM684 233q121 0 180 85q60 85 60 215q0 129 -60 215t-180 86q-121 0 -180 -85q-60 -85 -60 -215t60 -216q60 -85 180 -85zM684 -25q-272 0 -446 150q-174 151 -174 409t174 408t446 150t446 -150t174 -409
t-174 -409t-446 -149z" />
    <glyph glyph-name="otilde" unicode="&#xf5;" horiz-adv-x="1368"
d="M823 1204q-57 0 -159 37t-132 37q-82 0 -100 -80h-147q14 121 80 205t180 84q59 0 159 -37t134 -37q88 0 102 80h147q-13 -127 -79 -208t-185 -81zM684 233q121 0 180 85q60 85 60 215q0 129 -60 215t-180 86q-121 0 -180 -85q-60 -85 -60 -215t60 -216q60 -85 180 -85z
M684 -25q-272 0 -446 150q-174 151 -174 409t174 408t446 150t446 -150t174 -409t-174 -409t-446 -149z" />
    <glyph glyph-name="odieresis" unicode="&#xf6;" horiz-adv-x="1368"
d="M305 1198v295h295v-295h-295zM772 1198v295h295v-295h-295zM684 233q121 0 180 85q60 85 60 215q0 129 -60 215t-180 86q-121 0 -180 -85q-60 -85 -60 -215t60 -216q60 -85 180 -85zM684 -25q-272 0 -446 150q-174 151 -174 409t174 408t446 150t446 -150t174 -409
t-174 -409t-446 -149z" />
    <glyph glyph-name="divide" unicode="&#xf7;" horiz-adv-x="1228"
d="M422 92q0 78 56 134t134 56t134 -56t56 -134t-56 -134t-134 -56t-134 56t-56 134zM422 944q0 78 56 134t134 56t134 -56t56 -134t-56 -134t-134 -56t-134 56t-56 134zM96 389v258h1037v-258h-1037z" />
    <glyph glyph-name="oslash" unicode="&#xf8;" horiz-adv-x="1368"
d="M684 1092q197 0 342 -80l154 159l125 -118l-140 -146q139 -149 139 -391t-174 -392t-446 -149q-193 0 -340 80l-154 -159l-124 118l139 144q-141 146 -141 390t174 394t446 150zM684 834q-121 0 -180 -85t-60 -217q1 -61 13 -112l360 375q-55 39 -133 39zM684 233
q121 0 180 85t60 214q-1 58 -13 111l-358 -371q51 -39 131 -39z" />
    <glyph glyph-name="ugrave" unicode="&#xf9;" horiz-adv-x="1366"
d="M846 1198h-258l-264 295h383zM1251 1067v-1067h-336v197h-4q-106 -221 -389 -222q-205 0 -306 122t-101 304v666h368v-516q0 -268 170 -268q229 0 230 333v451h368z" />
    <glyph glyph-name="uacute" unicode="&#xfa;" horiz-adv-x="1366"
d="M545 1198l139 295h383l-264 -295h-258zM1251 1067v-1067h-336v197h-4q-106 -221 -389 -222q-205 0 -306 122t-101 304v666h368v-516q0 -268 170 -268q229 0 230 333v451h368z" />
    <glyph glyph-name="ucircumflex" unicode="&#xfb;" horiz-adv-x="1366"
d="M289 1198l231 295h332l223 -295h-256l-133 160l-141 -160h-256zM1251 1067v-1067h-336v197h-4q-106 -221 -389 -222q-205 0 -306 122t-101 304v666h368v-516q0 -268 170 -268q229 0 230 333v451h368z" />
    <glyph glyph-name="udieresis" unicode="&#xfc;" horiz-adv-x="1366"
d="M303 1198v295h295v-295h-295zM770 1198v295h295v-295h-295zM1251 1067v-1067h-336v197h-4q-106 -221 -389 -222q-205 0 -306 122t-101 304v666h368v-516q0 -268 170 -268q229 0 230 333v451h368z" />
    <glyph glyph-name="yacute" unicode="&#xfd;"
d="M487 1198l140 295h383l-265 -295h-258zM272 -455q-66 0 -180 25l25 280q69 -22 141 -22t121 39t70 108l-433 1092h398l229 -696h4l219 696h369l-391 -993q-92 -238 -137 -312q-125 -203 -351 -217h-84z" />
    <glyph glyph-name="thorn" unicode="&#xfe;" horiz-adv-x="1368"
d="M924 536q0 120 -60 196t-162 77q-102 0 -164 -79t-62 -197q0 -119 65 -197t163 -78t159 79t61 199zM106 -430v1966h371v-606h4q129 162 353 162t347 -164q124 -164 124 -394t-129 -394q-129 -165 -365 -165t-332 175h-4v-580h-369z" />
    <glyph glyph-name="ydieresis" unicode="&#xff;"
d="M246 1198v295h295v-295h-295zM713 1198v295h295v-295h-295zM272 -455q-66 0 -180 25l25 280q69 -22 141 -22t121 39t70 108l-433 1092h398l229 -696h4l219 696h369l-391 -993q-92 -238 -137 -312q-125 -203 -351 -217h-84z" />
    <glyph glyph-name="dotlessi" unicode="&#x131;" horiz-adv-x="684"
d="M158 0v1067h368v-1067h-368z" />
    <glyph glyph-name="Lslash" unicode="&#x141;" horiz-adv-x="1138"
d="M133 0v426l-133 -78v223l133 78v781h381v-556l375 222v-224l-375 -221v-368h590v-283h-971z" />
    <glyph glyph-name="lslash" unicode="&#x142;" horiz-adv-x="684"
d="M158 0v565l-158 -94v205l158 94v766h368v-549l158 92v-205l-158 -92v-782h-368z" />
    <glyph glyph-name="OE" unicode="&#x152;" horiz-adv-x="2048"
d="M430 724q0 -194 92 -324t269 -130l217 9v872l-254 8q-182 0 -253 -121t-71 -314zM1989 1430v-271h-594v-295h555v-270h-549v-324h610v-270h-852l-405 -12q-344 0 -531 195q-186 196 -186 534q0 337 184 531t533 194q143 0 284 -6l283 -6h668z" />
    <glyph glyph-name="oe" unicode="&#x153;" horiz-adv-x="2048"
d="M1661 635q0 99 -50 161q-49 62 -149 62t-152 -62t-59 -161h410zM659 846q-109 0 -166 -92t-57 -221q0 -128 58 -220t166 -92t165 92t57 220q0 129 -56 221q-58 92 -167 92zM623 -25q-250 -1 -409 145t-159 413t166 413t414 146q145 0 247 -36t175 -126q143 162 397 162
q144 0 250 -48t168 -134q122 -168 121 -416v-68h-738q29 -205 314 -205q174 0 325 82v-260q-170 -68 -391 -68q-309 0 -442 172q-127 -172 -438 -172z" />
    <glyph glyph-name="Scaron" unicode="&#x160;"
d="M1020 1800l-232 -295h-331l-224 295h228l162 -160l170 160h227zM538 258q228 0 228 139q0 61 -50 103t-125 60q-75 19 -163 51t-163 72t-125 125q-50 84 -50 196t38 190q127 260 585 260q213 0 368 -53l-24 -295q-143 66 -318 65q-256 0 -256 -133q1 -53 51 -89t124 -52
t163 -48q88 -32 163 -71t125 -125t50 -201q0 -116 -36 -198q-67 -153 -224 -214q-157 -62 -381 -63t-414 60l33 315q173 -94 401 -94z" />
    <glyph glyph-name="scaron" unicode="&#x161;" horiz-adv-x="1024"
d="M907 1493l-231 -295h-332l-223 295h227l162 -160l170 160h227zM958 332q0 -352 -497 -357q-227 1 -387 52l20 268q172 -74 334 -74t162 86q0 49 -54 77t-132 46t-154 46t-130 96t-54 173q0 171 137 259t337 88t355 -62l-29 -256q-120 72 -288 72t-168 -74q0 -45 56 -70
t137 -42t162 -45q81 -27 137 -99t56 -184z" />
    <glyph glyph-name="Ydieresis" unicode="&#x178;" horiz-adv-x="1478"
d="M360 1505v295h295v-295h-295zM827 1505v295h295v-295h-295zM551 0v539l-528 891h438l280 -574l277 574h438l-524 -891v-539h-381z" />
    <glyph glyph-name="Zcaron" unicode="&#x17d;"
d="M1020 1800l-232 -295h-331l-224 295h228l162 -160l170 160h227zM1167 1430v-304l-700 -843h704v-283h-1118v303l680 844h-661v283h1095z" />
    <glyph glyph-name="zcaron" unicode="&#x17e;" horiz-adv-x="1024"
d="M907 1493l-231 -295h-332l-223 295h227l162 -160l170 160h227zM53 0v295l488 502h-478v270h900v-295l-488 -502h496v-270h-918z" />
    <glyph glyph-name="florin" unicode="&#x192;" horiz-adv-x="1253"
d="M211 643v221h262l47 221q37 177 127 273t252 96t272 -53l-43 -258q-49 53 -104 53t-82 -27t-37 -57t-20 -78l-37 -170h203v-221h-254l-148 -688q-53 -246 -152 -328t-245 -82t-252 54l43 245q41 -41 104 -41q98 0 121 99l158 741h-215z" />
    <glyph glyph-name="circumflex" unicode="&#x2c6;" horiz-adv-x="681"
d="M-53 1198l231 295h332l223 -295h-256l-133 160l-141 -160h-256z" />
    <glyph glyph-name="caron" unicode="&#x2c7;" horiz-adv-x="681"
d="M735 1493l-231 -295h-332l-223 295h227l162 -160l170 160h227z" />
    <glyph glyph-name="uni02C9" unicode="&#x2c9;" horiz-adv-x="681"
d="M-43 1276v172h768v-172h-768z" />
    <glyph glyph-name="breve" unicode="&#x2d8;" horiz-adv-x="681"
d="M342 1343q196 0 231 150h156q-17 -152 -113 -237t-274 -85t-274 85t-113 237h156q35 -150 231 -150z" />
    <glyph glyph-name="dotaccent" unicode="&#x2d9;" horiz-adv-x="681"
d="M195 1198v295h294v-295h-294z" />
    <glyph glyph-name="ring" unicode="&#x2da;" horiz-adv-x="681"
d="M244 1389q0 -41 28 -70t70 -29q41 0 70 29t28 70q0 41 -28 69t-70 29q-42 -1 -70 -29t-28 -69zM113 1389q-1 93 67 161t162 68t162 -68t68 -162t-68 -161q-68 -68 -162 -68t-162 68q-67 68 -67 162z" />
    <glyph glyph-name="ogonek" unicode="&#x2db;" horiz-adv-x="681"
d="M307 -236q0 -36 27 -60t61 -23q70 0 127 57l78 -35q-57 -88 -126 -123t-170 -35t-153 47q-53 48 -53 134t66 150t178 124h141q-176 -137 -176 -236z" />
    <glyph glyph-name="tilde" unicode="&#x2dc;" horiz-adv-x="681"
d="M479 1204q-57 0 -159 37t-132 37q-82 0 -100 -80h-147q14 121 79 205q66 84 181 84q59 0 159 -37t134 -37q88 0 102 80h147q-13 -127 -79 -208t-185 -81z" />
    <glyph glyph-name="hungarumlaut" unicode="&#x2dd;" horiz-adv-x="681"
d="M457 1198l139 295h383l-264 -295h-258zM-51 1198l139 295h383l-264 -295h-258z" />
    <glyph glyph-name="uni03A9" unicode="&#x3a9;" horiz-adv-x="1593"
d="M379 240v6q-115 92 -193 232t-77 319q0 270 193 460q194 190 499 191q209 0 367 -98t235 -242q76 -144 76 -301q0 -342 -275 -561v-6h303v-240h-612v180q270 162 270 565q0 193 -98 326t-266 133q-169 0 -273 -132t-104 -336t77 -349t193 -207v-180h-614v240h299z" />
    <glyph glyph-name="uni03BC" unicode="&#x3bc;" horiz-adv-x="1366"
d="M1251 1067v-1067h-336v197h-4q-106 -221 -389 -222h-35v-405h-372v1497h368v-516q0 -268 170 -268q229 0 230 333v451h368z" />
    <glyph glyph-name="pi" unicode="&#x3c0;" horiz-adv-x="1349"
d="M1149 823v-501q0 -197 27 -322h-302q-39 63 -38 303v520h-279q-8 -190 -46 -439t-89 -384h-301q51 170 89 415t40 408q-139 0 -213 -20l-33 196q94 74 375 74h944l-25 -250h-149z" />
    <glyph glyph-name="uni2010" unicode="&#x2010;" horiz-adv-x="681"
d="M63 416v270h555v-270h-555z" />
    <glyph glyph-name="endash" unicode="&#x2013;" horiz-adv-x="1024"
d="M0 422v258h1024v-258h-1024z" />
    <glyph glyph-name="emdash" unicode="&#x2014;" horiz-adv-x="2048"
d="M0 422v258h2048v-258h-2048z" />
    <glyph glyph-name="quoteleft" unicode="&#x2018;" horiz-adv-x="681"
d="M582 1430l-138 -556h-344l201 556h281z" />
    <glyph glyph-name="quoteright" unicode="&#x2019;" horiz-adv-x="681"
d="M100 874l138 556h344l-201 -556h-281z" />
    <glyph glyph-name="quotesinglbase" unicode="&#x201a;" horiz-adv-x="681"
d="M100 -223l138 555h344l-201 -555h-281z" />
    <glyph glyph-name="quotedblleft" unicode="&#x201c;"
d="M1102 1430l-137 -556h-344l200 556h281zM631 1430l-137 -556h-344l200 556h281z" />
    <glyph glyph-name="quotedblright" unicode="&#x201d;"
d="M621 874l137 556h344l-201 -556h-280zM150 874l137 556h344l-201 -556h-280z" />
    <glyph glyph-name="quotedblbase" unicode="&#x201e;"
d="M618 -223l138 555h346l-201 -555h-283zM150 -223l137 555h346l-201 -555h-282z" />
    <glyph glyph-name="dagger" unicode="&#x2020;"
d="M461 0v817h-355v270h355v343h332v-343h354v-270h-354v-817h-332z" />
    <glyph glyph-name="daggerdbl" unicode="&#x2021;"
d="M461 0v276h-355v246h355v383h-355v246h355v279h332v-279h354v-246h-354v-383h354v-246h-354v-276h-332z" />
    <glyph glyph-name="bullet" unicode="&#x2022;" horiz-adv-x="1024"
d="M156 715q0 147 104 251t252 105q148 0 252 -104q106 -103 106 -251t-105 -254t-253 -106t-252 106t-104 253z" />
    <glyph glyph-name="ellipsis" unicode="&#x2026;" horiz-adv-x="2048"
d="M1534 0v332h344v-332h-344zM852 0v332h344v-332h-344zM170 0v332h344v-332h-344z" />
    <glyph glyph-name="perthousand" unicode="&#x2030;" horiz-adv-x="2048"
d="M199 -45l792 1520h164l-797 -1520h-159zM392 1195q-11 73 -73 75q-61 0 -72 -74t-11 -130q0 -83 11 -157q11 -73 73 -73t72 73q11 73 11 143t-11 143zM319 651q-317 -1 -317 401t317 402t317 -402t-317 -401zM1729 147q29 1 48 21t25 60t8 67t2 70q0 69 -11 142t-72 75
q-62 0 -73 -74t-11 -130t5 -120t27 -87q23 -24 52 -24zM1729 -25q-317 -1 -317 401t316 402q318 0 318 -402t-317 -401zM1034 -25q-317 -1 -317 401t317 402t317 -402t-317 -401zM1034 147q60 0 72 74t12 130q0 57 -5 120t-27 87q-23 24 -52 24q-61 1 -72 -77
q-12 -77 -12 -130q0 -169 36 -207q19 -21 48 -21z" />
    <glyph glyph-name="guilsinglleft" unicode="&#x2039;" horiz-adv-x="681"
d="M301 133l-244 418l244 418h303l-225 -418l225 -418h-303z" />
    <glyph glyph-name="guilsinglright" unicode="&#x203a;" horiz-adv-x="681"
d="M381 969l244 -418l-244 -418h-303l225 418l-225 418h303z" />
    <glyph glyph-name="fraction" unicode="&#x2044;" horiz-adv-x="342"
d="M-336 -45l793 1520h223l-793 -1520h-223z" />
    <glyph glyph-name="Euro" unicode="&#x20ac;" horiz-adv-x="1253"
d="M1000 1176q-130 0 -226 -66t-143 -182h540l-34 -142h-547q-10 -72 0 -143h512l-37 -141h-434q47 -114 144 -178t222 -64t226 41l12 -287q-127 -39 -301 -39q-268 1 -463 137t-254 390h-213l35 141h158q-6 72 0 143h-193l35 142h180q61 242 257 384t448 142q192 0 366 -57
l-67 -262q-93 41 -223 41z" />
    <glyph glyph-name="afii61289" unicode="&#x2113;" horiz-adv-x="1167"
d="M530 1053v-297q236 252 236 444q0 158 -109 158q-127 0 -127 -305zM233 1020q0 272 112 410t285 137q173 1 256 -105t83 -275t-111 -338t-328 -360v-73q4 -88 56 -140t129 -51q155 1 284 187l125 -129q-166 -301 -483 -301q-178 0 -276 87t-125 232q-2 6 -2 18l-54 -39
t-55 -38l-78 157l182 140v481z" />
    <glyph glyph-name="trademark" unicode="&#x2122;" horiz-adv-x="2048"
d="M977 578v852h315l183 -496l182 496h315v-852h-221v557h-4l-182 -557h-181l-182 557h-4v-557h-221zM317 578v667h-241v185h704v-185h-241v-667h-222z" />
    <glyph glyph-name="Omega" unicode="&#x2126;" horiz-adv-x="1593"
d="M379 240v6q-115 92 -193 232t-77 319q0 270 193 460q194 190 499 191q209 0 367 -98t235 -242q76 -144 76 -301q0 -342 -275 -561v-6h303v-240h-612v180q270 162 270 565q0 193 -98 326t-266 133q-169 0 -273 -132t-104 -336t77 -349t193 -207v-180h-614v240h299z" />
    <glyph glyph-name="estimated" unicode="&#x212e;" horiz-adv-x="1781"
d="M1409 748v403q0 29 -18 49q-213 209 -500 209t-500 -217q-20 -18 -20 -49v-395q0 -14 10 -15h1020q8 1 8 15zM1712 694h-1331q-10 0 -10 -8v-403q0 -27 18 -45q213 -219 502 -220q156 0 293 66t237 178h117q-111 -131 -283 -208t-366 -77q-340 1 -580 217t-239 521
q0 305 239 522q240 217 580 217q339 0 581 -217t242 -522v-21z" />
    <glyph glyph-name="partialdiff" unicode="&#x2202;" horiz-adv-x="1284"
d="M578 227h2q106 0 181 117t91 260q-16 58 -80 114t-159 56t-165 -91t-70 -203t58 -183q56 -70 142 -70zM569 1610q255 0 435 -210t180 -582t-173 -603t-464 -231q-115 0 -209 46q-162 79 -235 278q-30 83 -29 165q0 240 135 388t344 149q119 0 204 -56t124 -114h2v59
q-1 191 -101 329t-266 138t-295 -96l-86 217q178 123 434 123z" />
    <glyph glyph-name="uni2206" unicode="&#x2206;" horiz-adv-x="1464"
d="M377 240h690l-225 571q-10 33 -57 166q-46 133 -58 184h-8q-10 -35 -50 -151t-57 -168zM53 0v166l498 1288h371l485 -1284v-170h-1354z" />
    <glyph glyph-name="product" unicode="&#x220f;" horiz-adv-x="1597"
d="M1548 1157h-225v-1354h-303v1354h-447v-1354h-301v1354h-225v266h1501v-266z" />
    <glyph glyph-name="summation" unicode="&#x2211;" horiz-adv-x="1241"
d="M1202 -197h-1155v183l518 626l-497 607v204h1095v-254h-678v-6l426 -508l-473 -575v-6h764v-271z" />
    <glyph glyph-name="minus" unicode="&#x2212;" horiz-adv-x="1228"
d="M96 389v258h1037v-258h-1037z" />
    <glyph glyph-name="uni2215" unicode="&#x2215;" horiz-adv-x="342"
d="M-336 -45l793 1520h223l-793 -1520h-223z" />
    <glyph glyph-name="uni2219" unicode="&#x2219;" horiz-adv-x="626"
d="M123 557q0 78 56 134q56 57 134 57t134 -56q57 -56 57 -135q0 -78 -56 -134t-135 -56q-78 0 -134 56t-56 134z" />
    <glyph glyph-name="radical" unicode="&#x221a;" horiz-adv-x="1314"
d="M1348 1708l-504 -1997h-242l-328 881l-159 -64l-52 160l390 158l225 -641q33 -127 47 -176l2 -2q4 18 16 85t21 107l369 1489h215z" />
    <glyph glyph-name="infinity" unicode="&#x221e;" horiz-adv-x="1652"
d="M1202 788h-4q-95 0 -196 -106q-22 -23 -42 -49t-42 -49q94 -121 156 -166t139 -45t126 63t49 148q0 84 -50 144q-52 60 -136 60zM457 373h4q53 0 108 34q55 33 87 67t83 95q-95 133 -153 176t-138 43t-134 -59q-52 -59 -52 -149t56 -148q56 -59 139 -59zM1552 590v-2
q0 -170 -103 -272t-243 -103q-203 0 -379 238q-94 -117 -183 -177t-216 -61q-127 0 -228 102q-102 102 -102 262q0 159 102 263t257 104q205 0 381 -229q2 1 28 31t32 36q7 6 33 33t38 36l38 29q26 20 46 27q20 9 55 23t109 14q143 0 239 -98t96 -256z" />
    <glyph glyph-name="integral" unicode="&#x222b;" horiz-adv-x="858"
d="M545 1171q0 -162 17 -468q18 -306 18 -534t-76 -366q-88 -164 -293 -163q-111 0 -176 34l37 207q45 -23 101 -23t89 42q60 76 60 288t-18 526q-17 314 -17 490t30 285q31 109 103 180q96 98 264 98q76 1 135 -24l-28 -199q-45 16 -80 17q-72 0 -111 -54q-55 -74 -55 -336
z" />
    <glyph glyph-name="approxequal" unicode="&#x2248;" horiz-adv-x="1198"
d="M813 223q-96 0 -242 84q-113 70 -170 70t-99 -25q-42 -24 -62 -50l-60 -77l-106 105q51 92 139 153t193 62t264 -101q84 -51 141 -51t101 36t100 114l104 -103q-127 -217 -303 -217zM815 627q-63 0 -115 18t-146 77q-96 58 -153 58t-99 -26t-61 -48t-61 -75l-106 102
q51 91 139 153t188 62t226 -76q6 -4 29 -17t43 -25q19 -11 25 -13t21 -8t23 -7t20 -3t25 -2q57 1 103 37t96 112l104 -102q-127 -217 -301 -217z" />
    <glyph glyph-name="notequal" unicode="&#x2260;" horiz-adv-x="1198"
d="M1096 887v-170h-357l-123 -277h480v-170h-547l-109 -241l-135 57l84 184h-287v170h355l121 277h-476v170h543l107 235l135 -55l-80 -180h289z" />
    <glyph glyph-name="lessequal" unicode="&#x2264;" horiz-adv-x="1198"
d="M1096 -35h-992v174h992v-174zM1090 215l-979 463v184l979 465v-194l-805 -359v-4l805 -360v-195z" />
    <glyph glyph-name="greaterequal" unicode="&#x2265;" horiz-adv-x="1198"
d="M1092 -35h-986v174h986v-174zM115 1327l979 -465v-184l-979 -463v195l805 360v4l-805 359v194z" />
    <glyph glyph-name="lozenge" unicode="&#x25ca;" horiz-adv-x="1314"
d="M944 705l-246 475q-27 66 -39 112h-6q-23 -70 -41 -112l-243 -463l245 -484q23 -53 37 -106h8q23 72 37 104zM1210 711l-440 -815h-238l-428 815l437 815h239z" />
    <glyph glyph-name="fi" unicode="&#xfb01;" horiz-adv-x="1593"
d="M1436 1511v-270h-369v270h369zM1067 0v1067h369v-1067h-369zM244 0v809h-217v258h223v66q0 231 108 329q109 98 336 99q72 0 189 -21l-23 -254q-49 16 -117 17q-131 0 -131 -170v-66h262v-258h-262v-809h-368z" />
    <glyph glyph-name="fl" unicode="&#xfb02;" horiz-adv-x="1593"
d="M1067 0v1536h369v-1536h-369zM244 0v809h-217v258h223v66q0 231 108 329q109 98 336 99q72 0 189 -21l-23 -254q-49 16 -117 17q-131 0 -131 -170v-66h262v-258h-262v-809h-368z" />
    <glyph glyph-name="a.superior" horiz-adv-x="813"
d="M512 1073h-88q-135 0 -135 -76t88 -75q57 0 96 45t39 106zM367 1454q115 0 170 -8t109 -32q112 -50 112 -200v-294q4 -63 12 -125h-242l-12 96h-4q-68 -113 -211 -113q-111 0 -185 51t-73 154q0 70 36 117t92 67q104 37 196 37q23 0 145 -8q0 115 -158 115
q-129 0 -225 -51v149q123 45 238 45z" />
    <glyph glyph-name="o.superior" horiz-adv-x="888"
d="M444 1282q-74 0 -112 -49t-39 -118q0 -69 38 -117q37 -48 113 -48t114 48t38 117t-39 118t-113 49zM35 1116q0 156 115 247q114 91 294 91t295 -91t115 -247t-115 -247t-295 -91t-294 91t-115 247z" />
    <glyph glyph-name="one.superior" horiz-adv-x="815"
d="M334 578v589l-162 -98l-111 178l312 191h231v-860h-270z" />
    <glyph glyph-name="two.superior" horiz-adv-x="815"
d="M61 578v184q397 270 398 405q0 43 -36 67t-89 23q-131 0 -238 -49l-10 197q158 49 318 49t254 -66q95 -66 96 -186q0 -153 -200 -330q-26 -23 -87 -77l-37 -33h307v-184h-676z" />
    <glyph glyph-name="three.superior" horiz-adv-x="815"
d="M374 1454q157 0 263 -54t106 -191t-174 -181v-4q89 -14 139 -66t50 -128q0 -77 -37 -132q-92 -137 -393 -137q-183 0 -271 29l13 213q90 -45 198 -45q206 0 207 84q0 78 -162 78q-47 0 -104 -5v183q29 -6 104 -6t111 24t37 66q0 41 -47 58q-46 18 -132 18t-182 -41
l-12 200q129 37 286 37z" />
    </font>
</defs>
</svg>
