<?xml version="1.0" standalone="no"?>
<!DOCTYPE svg PUBLIC "-//W3C//DTD SVG 1.1//EN" "http://www.w3.org/Graphics/SVG/1.1/DTD/svg11.dtd" >
<svg xmlns="http://www.w3.org/2000/svg">
<metadata>
Created by FontPrep 20130207 at Mon Jan 18 17:19:49 2016
 By Rafael Gomes
(c) 1988, 1990, 1994, 2002 Adobe Systems Incorporated. All rights reserved.
</metadata>
<defs>
<font id="272d5c3d7ba27ebc507939943ad6e675" horiz-adv-x='1024' >
  <font-face
    font-family="FrutigerLTStd-BoldItalic"
    font-weight="700"
    font-style="italic"
    font-stretch="normal"
    units-per-em="2048"
    panose-1="2 11 7 3 3 5 4 9 2 4"
    ascent="1536"
    descent="-512"
    x-height="1055"
    cap-height="1430"
    bbox="-344 -512 2226 1915.02"
    underline-thickness="102"
    underline-position="-102"
    slope="-12"
    unicode-range="U+0020-FB02"
  />
<missing-glyph horiz-adv-x="1220"
d="M299 1239v-1044l348 522zM360 102h697l-348 523zM770 717l348 -522v1044zM709 809l348 522h-697zM197 0v1434h1024v-1434h-1024z" />
    <glyph glyph-name="f_i" unicode="fi" horiz-adv-x="1366"
d="M840 0l225 1055h274l-225 -1055h-274zM1108 1247l57 262h275l-58 -262h-274zM826 1561q88 0 173 -27l-63 -205q-37 19 -86 19q-127 1 -182 -183q-12 -37 -20 -71t-9 -39h246l-43 -201h-246l-180 -854h-275l181 854h-213l43 201h213q36 182 95 293q109 213 366 213z" />
    <glyph glyph-name="f_l" unicode="fl" horiz-adv-x="1366"
d="M826 1561q88 0 173 -27l-63 -205q-37 19 -86 19q-127 1 -182 -183q-12 -37 -20 -71t-9 -39h246l-43 -201h-246l-180 -854h-275l181 854h-213l43 201h213q36 182 95 293q109 213 366 213zM840 0l325 1536h275l-326 -1536h-274z" />
    <glyph glyph-name=".notdef" horiz-adv-x="1220"
d="M299 1239v-1044l348 522zM360 102h697l-348 523zM770 717l348 -522v1044zM709 809l348 522h-697zM197 0v1434h1024v-1434h-1024z" />
    <glyph glyph-name=".null" horiz-adv-x="0"
 />
    <glyph glyph-name="nonmarkingreturn" horiz-adv-x="681"
 />
    <glyph glyph-name="space" unicode=" " horiz-adv-x="569"
 />
    <glyph glyph-name="exclam" unicode="!" horiz-adv-x="796"
d="M217 287h287l-60 -287h-286zM272 420l164 1010h322l-258 -1010h-228z" />
    <glyph glyph-name="quotedbl" unicode="&#x22;" horiz-adv-x="1024"
d="M299 918v512h250v-512h-250zM674 918v512h250v-512h-250z" />
    <glyph glyph-name="numbersign" unicode="#"
d="M735 846h-207l-34 -262h206zM1073 584l-22 -164h-189l-57 -420h-182l57 420h-213l-57 -420h-181l58 420h-189l23 164h188l37 262h-188l22 164h189l57 420h182l-59 -420h211l57 420h182l-59 -420h188l-22 -164h-184l-37 -262h188z" />
    <glyph glyph-name="dollar" unicode="$"
d="M762 416q0 100 -119 166l-80 -381q199 43 199 215zM602 901l70 328q-76 -4 -130 -48t-55 -120q0 -101 115 -160zM1049 459q-1 -229 -149 -357t-382 -127l-37 -178h-106l37 178q-108 0 -218 26t-176 56l74 250q182 -106 365 -106l88 426q-148 70 -218 131q-71 60 -99 124
t-27 142q1 206 151 318t365 112l35 172h102l-35 -172q73 0 179 -22t159 -46l-72 -233q-164 78 -311 76l-78 -373q263 -125 324 -257q29 -62 29 -140z" />
    <glyph glyph-name="percent" unicode="%" horiz-adv-x="2048"
d="M430 -45l1110 1520h174l-1110 -1520h-174zM549 700q-131 0 -209 73t-78 216q0 193 100 329t287 136q137 0 224 -70t88 -204q-1 -192 -109 -336t-303 -144zM567 864q53 0 91 34q86 77 90 296q0 96 -107 96q-123 0 -159 -226q-7 -50 -7 -97q0 -103 92 -103zM1477 139
q138 0 173 225q7 50 7 101q0 100 -107 100q-47 0 -82 -35t-58 -111t-24 -178t91 -102zM1458 -25q-133 0 -210 71t-77 214q-1 193 101 331t287 138q137 0 224 -72t87 -206q0 -193 -108 -335t-304 -141z" />
    <glyph glyph-name="ampersand" unicode="&#x26;" horiz-adv-x="1478"
d="M1004 1128q0 128 -153 126q-71 0 -121 -46q-50 -45 -50 -123t76 -182q248 67 248 225zM891 260l-254 385q-111 -43 -174 -97t-63 -156t69 -153q70 -51 198 -51t224 72zM623 -25q-209 -1 -353 101t-145 305q0 167 111 279t282 165q-35 49 -52 78q-48 82 -48 189
q0 174 126 268t288 94t285 -85q124 -85 124 -241t-100 -246t-273 -153l207 -297q119 176 125 344h250q-41 -326 -246 -534l166 -242h-307l-51 82q-68 -47 -178 -77t-211 -30z" />
    <glyph glyph-name="quotesingle" unicode="'" horiz-adv-x="569"
d="M274 918v512h250v-512h-250z" />
    <glyph glyph-name="parenleft" unicode="(" horiz-adv-x="681"
d="M399 422q0 -354 109 -709h-234q-59 187 -83 271q-23 84 -53 238q-101 531 164 946q70 110 128 184t158 196h291q-129 -156 -207 -266q-192 -270 -243 -529q-30 -148 -30 -331z" />
    <glyph glyph-name="parenright" unicode=")" horiz-adv-x="681"
d="M647 756q1 -128 -25 -250q-26 -121 -62 -212t-106 -201q-70 -109 -128 -183t-158 -197h-291q129 155 207 265q190 267 243 531q30 148 29 331q0 354 -108 708h233q59 -188 83 -271t54 -238t29 -283z" />
    <glyph glyph-name="asterisk" unicode="*"
d="M371 1313l243 -178l29 295l215 -48l-94 -278l291 55l16 -213h-289l146 -241l-205 -95l-92 283l-211 -234l-148 162l254 176l-270 119z" />
    <glyph glyph-name="plus" unicode="+" horiz-adv-x="1228"
d="M539 625v411h213v-411h413v-213h-413v-412h-213v412h-414v213h414z" />
    <glyph glyph-name="comma" unicode="," horiz-adv-x="569"
d="M-76 -225l209 512h309l-272 -512h-246z" />
    <glyph glyph-name="hyphen" unicode="-" horiz-adv-x="796"
d="M121 438l47 226h539l-48 -226h-538z" />
    <glyph glyph-name="period" unicode="." horiz-adv-x="569"
d="M43 0l59 287h287l-59 -287h-287z" />
    <glyph glyph-name="slash" unicode="/" horiz-adv-x="569"
d="M844 1454l-781 -1479h-237l780 1479h238z" />
    <glyph glyph-name="zero" unicode="0"
d="M725 1454q408 0 408 -475q1 -199 -41 -371t-91 -272t-115 -182q-144 -177 -368 -178q-223 0 -323 140t-101 363q0 311 142 623q70 154 197 253q128 99 292 99zM858 1030q0 211 -133 211q-92 0 -167 -103q-75 -102 -113 -248q-76 -291 -76 -466q0 -236 161 -236
q86 0 154 110q104 168 157 541q17 125 17 191z" />
    <glyph glyph-name="one" unicode="1"
d="M379 922l-125 194l479 314h260l-309 -1430h-287l244 1104z" />
    <glyph glyph-name="two" unicode="2"
d="M797 1034q1 88 -61 142t-154 53q-156 0 -330 -123l-6 256q240 92 385 92q199 0 332 -97t133 -290q0 -84 -32 -165t-72 -135t-68 -91t-83 -90q-56 -53 -97 -92t-184 -148q-143 -108 -152 -117v-4h557l-43 -225h-940l45 236q67 63 223 187t262 213t196 200q89 110 89 198z
" />
    <glyph glyph-name="three" unicode="3"
d="M719 436q0 55 -31 93t-83 64q-70 34 -288 34l39 225q224 0 297 30q109 42 142 106q20 42 20 97q0 143 -217 144q-154 0 -313 -76l28 240q203 61 373 61t299 -85t129 -246t-91 -251t-245 -122v-7q119 -43 179 -113t61 -186q0 -229 -171 -349t-416 -120t-417 82l52 219
q160 -76 346 -75q121 0 214 58t93 177z" />
    <glyph glyph-name="four" unicode="4"
d="M662 510l145 670h-4l-490 -670h349zM27 297l30 244l715 889h356l-198 -920h200l-45 -213h-196l-64 -297h-274l63 297h-587z" />
    <glyph glyph-name="five" unicode="5"
d="M625 926q190 0 314 -108t124 -338t-169 -367t-423 -138q-201 0 -395 68l47 231q350 -144 544 -1q97 73 97 198t-84 177t-210 52t-253 -41l172 771h819l-45 -213h-549l-65 -293q25 2 76 2z" />
    <glyph glyph-name="six" unicode="6"
d="M782 520q0 190 -166 191q-111 1 -169 -93t-58 -197t43 -168t119 -65q115 0 173 102t58 230zM1069 532q0 -244 -138 -400q-139 -156 -371 -157q-232 1 -338 137t-107 369q0 371 175 659q87 142 235 228t341 86t326 -59l-72 -209q-106 43 -254 43q-148 1 -252 -103
q-106 -104 -159 -270h4q102 68 223 68q182 0 284 -106t103 -286z" />
    <glyph glyph-name="seven" unicode="7"
d="M209 1204l43 226h948l-53 -261l-735 -1169h-332l772 1204h-643z" />
    <glyph glyph-name="eight" unicode="8"
d="M70 352q0 315 346 420q-74 43 -121 116t-47 154q0 204 144 308t371 104t356 -137q71 -75 71 -203t-79 -226t-224 -136q193 -111 192 -310q0 -229 -148 -348t-396 -119q-189 1 -327 103t-138 274zM928 1100q0 64 -58 102q-58 39 -141 39t-151 -53t-68 -147t170 -195
q182 66 228 152q20 38 20 102zM793 405q0 91 -46 139t-116 103q-274 -100 -275 -266q0 -92 58 -142q58 -51 153 -51q94 0 160 63t66 154z" />
    <glyph glyph-name="nine" unicode="9"
d="M848 1008q0 104 -43 169t-119 64q-115 0 -173 -102t-58 -230q0 -190 166 -190q111 0 169 93q58 92 58 196zM168 897q0 245 138 401t370 156t340 -136q106 -136 106 -370q0 -372 -175 -658q-87 -142 -235 -228t-341 -87q-193 0 -326 60l72 209q105 -43 253 -43t254 103
q105 103 158 269h-4q-102 -68 -223 -67q-182 0 -285 105q-102 105 -102 286z" />
    <glyph glyph-name="colon" unicode=":" horiz-adv-x="569"
d="M102 287h287l-59 -287h-287zM262 1055h287l-60 -287h-286z" />
    <glyph glyph-name="semicolon" unicode=";" horiz-adv-x="569"
d="M262 1055h287l-60 -287h-286zM133 287h309l-272 -512h-246z" />
    <glyph glyph-name="less" unicode="&#x3c;" horiz-adv-x="1228"
d="M1165 193v-209l-1040 446v176l1040 447v-209l-764 -326z" />
    <glyph glyph-name="equal" unicode="=" horiz-adv-x="1228"
d="M1165 401v-213h-1040v213h1040zM1165 848v-213h-1040v213h1040z" />
    <glyph glyph-name="greater" unicode="&#x3e;" horiz-adv-x="1228"
d="M125 193l764 325l-764 326v209l1040 -447v-176l-1040 -446v209z" />
    <glyph glyph-name="question" unicode="?" horiz-adv-x="1024"
d="M289 287h286l-59 -287h-287zM476 1241q-114 0 -230 -51v229q170 35 294 35q278 0 417 -155q79 -87 79 -218t-69 -212q-69 -82 -147 -143q-78 -62 -107 -87q-134 -117 -142 -219h-249q18 147 79 240t193 194q45 34 71 60t49 69q24 43 23 92q0 82 -73 124q-74 42 -188 42z
" />
    <glyph glyph-name="at" unicode="@" horiz-adv-x="1638"
d="M918 1454q263 0 470 -142q101 -71 162 -190q62 -119 62 -268t-60 -266t-149 -179q-182 -128 -307 -126q-45 -1 -77 27t-34 79h-4q-94 -106 -216 -106t-215 96t-93 242q0 203 124 348t286 145t249 -131l25 98h172l-113 -497q-14 -53 -14 -70q0 -31 31 -31q87 -1 159 93
t72 270q0 119 -47 205q-116 212 -504 214q-229 1 -394 -163t-165 -394t150 -388q150 -156 380 -156q319 0 473 129h175q-215 -317 -648 -318q-283 0 -504 184q-108 89 -174 233t-65 323q0 309 226 524t567 215zM899 913q-96 0 -163 -82q-66 -82 -66 -168t41 -133t123 -47
t150 83q67 82 67 170t-42 132t-110 45z" />
    <glyph glyph-name="A" unicode="A" horiz-adv-x="1478"
d="M-86 0l866 1430h318l260 -1430h-287l-49 328h-608l-183 -328h-317zM885 1176l-344 -623h442l-90 623h-8z" />
    <glyph glyph-name="B" unicode="B" horiz-adv-x="1251"
d="M608 852q303 0 303 209q0 98 -81 124q-58 19 -158 19h-101l-75 -352h112zM463 225q271 0 341 111q32 51 32 142t-78 126t-215 35h-92l-86 -414h98zM766 1430q188 0 310 -81t122 -262q0 -127 -89 -223t-216 -116v-5q115 -18 172 -99t57 -200q0 -118 -51 -204t-122 -130
q-178 -110 -498 -110h-408l299 1430h424z" />
    <glyph glyph-name="C" unicode="C" horiz-adv-x="1251"
d="M964 1229q-222 0 -372 -162q-152 -162 -152 -414q0 -186 113 -319t281 -133t315 88l-45 -275q-141 -39 -324 -39q-313 -1 -476 187t-163 491q-1 353 223 577t597 224q249 0 419 -70l-71 -239q-123 84 -345 84z" />
    <glyph glyph-name="D" unicode="D" horiz-adv-x="1478"
d="M795 1430q248 0 429 -118q97 -65 153 -190q57 -124 57 -268t-23 -248t-84 -217t-157 -197t-257 -138q-162 -54 -368 -54h-482l302 1430h430zM532 225q303 0 453 166t150 469q0 164 -117 254t-316 90h-98l-205 -979h133z" />
    <glyph glyph-name="E" unicode="E"
d="M63 0l302 1430h841l-43 -226h-559l-74 -352h500l-45 -225h-502l-84 -402h566l-50 -225h-852z" />
    <glyph glyph-name="F" unicode="F" horiz-adv-x="1024"
d="M63 0l302 1430h788l-49 -226h-500l-76 -352h478l-45 -225h-480l-131 -627h-287z" />
    <glyph glyph-name="G" unicode="G" horiz-adv-x="1478"
d="M854 201q109 0 141 14l80 379h-303l47 225h580l-164 -780q-154 -63 -383 -64q-328 0 -514 157t-186 478q0 388 234 616t624 228q268 0 477 -80l-72 -248q-157 102 -405 102t-404 -174q-156 -175 -155 -436q-1 -178 111 -298t292 -119z" />
    <glyph glyph-name="H" unicode="H" horiz-adv-x="1478"
d="M63 0l299 1430h287l-121 -578h578l121 578h286l-299 -1430h-286l131 627h-578l-131 -627h-287z" />
    <glyph glyph-name="I" unicode="I" horiz-adv-x="569"
d="M35 0l301 1430h299l-301 -1430h-299z" />
    <glyph glyph-name="J" unicode="J" horiz-adv-x="796"
d="M170 -25q-131 0 -240 29l66 244q63 -23 131 -23q105 -1 155 63t72 179l201 963h287l-201 -971q-47 -244 -146 -364t-325 -120z" />
    <glyph glyph-name="K" unicode="K" horiz-adv-x="1366"
d="M371 1430h286l-120 -562h4l567 562h399l-723 -652l461 -778h-342l-397 727l-156 -727h-287z" />
    <glyph glyph-name="L" unicode="L" horiz-adv-x="1024"
d="M47 0l303 1430h287l-256 -1205h561l-49 -225h-846z" />
    <glyph glyph-name="M" unicode="M" horiz-adv-x="1933"
d="M63 0l304 1430h473l96 -1031h4l563 1031h477l-305 -1430h-303l270 1184h-4l-647 -1184h-274l-115 1184h-4l-262 -1184h-273z" />
    <glyph glyph-name="N" unicode="N" horiz-adv-x="1478"
d="M51 0l307 1430h363l305 -1086h4l234 1086h270l-309 -1430h-369l-299 1096h-4l-227 -1096h-275z" />
    <glyph glyph-name="O" unicode="O" horiz-adv-x="1593"
d="M1251 880q0 150 -79 250q-79 99 -212 99t-232 -65q-98 -65 -160 -166q-128 -209 -128 -445q0 -150 77 -251t227 -101q150 -1 272 111q121 112 178 265t57 303zM954 1454q289 0 443 -159t153 -447q0 -365 -239 -633q-215 -240 -606 -240q-258 0 -411 167t-153 427
q0 354 226 619q233 266 587 266z" />
    <glyph glyph-name="P" unicode="P"
d="M596 768q129 0 224 68t95 192q0 176 -239 176h-90l-92 -436h102zM588 1430q242 0 365 -35q265 -76 263 -330t-176 -388t-430 -134h-166l-114 -543h-287l303 1430h242z" />
    <glyph glyph-name="Q" unicode="Q" horiz-adv-x="1593"
d="M1251 880q0 150 -79 250q-79 99 -212 99t-232 -65q-98 -65 -160 -166q-128 -209 -128 -445q0 -150 77 -251t227 -101q150 -1 272 111q121 112 178 265t57 303zM705 -25q-258 0 -411 167t-153 427q0 354 226 619q233 266 587 266q289 0 443 -159t153 -447
q0 -365 -239 -633q-113 -129 -285 -186l301 -299h-342l-209 247q-25 -2 -71 -2z" />
    <glyph glyph-name="R" unicode="R" horiz-adv-x="1251"
d="M610 819q88 1 159 19t126 73t55 144q0 117 -110 140q-50 9 -135 9h-119l-80 -385h104zM676 1430q338 0 422 -54t105 -95q46 -92 46 -189q0 -178 -117 -278q-118 -99 -301 -103v-4q117 -6 146 -132l137 -575h-301l-70 336q-24 139 -40 177q-15 38 -31 49q-47 32 -109 32
h-108l-125 -594h-287l299 1430h334z" />
    <glyph glyph-name="S" unicode="S"
d="M768 1229q-92 0 -166 -40q-74 -41 -74 -113t50 -122t122 -91q72 -40 144 -88t122 -130t50 -192q0 -246 -165 -362t-423 -116q-188 0 -408 80l74 244q213 -98 338 -98t205 57t80 173t-172 207q-72 38 -144 82q-71 44 -121 121t-50 183t43 192q82 157 289 212q93 26 200 26
q213 0 371 -63l-68 -236q-143 74 -297 74z" />
    <glyph glyph-name="T" unicode="T"
d="M172 1204l49 226h1104l-47 -226h-404l-260 -1204h-299l260 1204h-403z" />
    <glyph glyph-name="U" unicode="U" horiz-adv-x="1478"
d="M358 1430h287l-145 -678q-12 -58 -20 -96t-20 -122q-11 -84 5 -156q16 -73 43 -104q65 -75 181 -74t205 58q58 37 104 127t64 169q17 79 34 151l155 725h283l-191 -865q-67 -293 -217 -441t-434 -149q-637 0 -497 678z" />
    <glyph glyph-name="V" unicode="V" horiz-adv-x="1366"
d="M408 0l-189 1430h287l133 -1113h4l594 1113h311l-798 -1430h-342z" />
    <glyph glyph-name="W" unicode="W" horiz-adv-x="2048"
d="M309 0l-90 1430h287l43 -1096h4l475 1096h385l6 -1096h4l506 1096h297l-682 -1430h-358l-15 1143h-4l-503 -1143h-355z" />
    <glyph glyph-name="X" unicode="X" horiz-adv-x="1366"
d="M258 1430h309l207 -492h4l393 492h338l-591 -682l331 -748h-313l-219 573h-4l-447 -573h-356l661 776z" />
    <glyph glyph-name="Y" unicode="Y" horiz-adv-x="1366"
d="M430 0l125 592l-336 838h303l213 -601l465 601h334l-692 -838l-125 -592h-287z" />
    <glyph glyph-name="Z" unicode="Z"
d="M254 1204l49 226h981l-49 -226l-862 -979h651l-47 -225h-1004l45 225l861 979h-625z" />
    <glyph glyph-name="bracketleft" unicode="[" horiz-adv-x="796"
d="M63 -287l406 1835h467l-43 -200h-217l-318 -1434h215l-43 -201h-467z" />
    <glyph glyph-name="backslash" unicode="\" horiz-adv-x="569"
d="M479 -25l-499 1479h213l499 -1479h-213z" />
    <glyph glyph-name="bracketright" unicode="]" horiz-adv-x="796"
d="M811 1548l-405 -1835h-467l43 201h217l317 1434h-215l43 200h467z" />
    <glyph glyph-name="asciicircum" unicode="^" horiz-adv-x="1228"
d="M389 641h-213l383 789h193l383 -789h-213l-267 573z" />
    <glyph glyph-name="underscore" unicode="_" horiz-adv-x="1024"
d="M0 -154h1024v-102h-1024v102z" />
    <glyph glyph-name="grave" unicode="`" horiz-adv-x="569"
d="M606 1198h-174l-264 299h272z" />
    <glyph glyph-name="a" unicode="a"
d="M305 287q0 -53 41 -82t98 -29q139 0 206 80t106 231h-97q-354 1 -354 -200zM43 276q0 100 44 174q43 74 107 110q153 90 496 91h96q8 29 8 97t-62 99q-62 32 -148 32q-172 0 -346 -82l38 219q180 63 358 63t295 -77q116 -77 115 -248q0 -78 -59 -377t-70 -377h-231
l29 162h-4q-76 -94 -154 -140q-77 -46 -205 -46t-218 78q-89 79 -89 222z" />
    <glyph glyph-name="b" unicode="b" horiz-adv-x="1251"
d="M420 458q0 -134 43 -202t143 -68t173 82q126 142 124 371q0 101 -50 163t-142 62q-129 0 -210 -137t-81 -271zM816 1079q177 0 276 -116q98 -117 98 -301q0 -391 -246 -584q-129 -102 -303 -103q-117 0 -179 34t-124 141h-4l-33 -150h-258l326 1536h280l-135 -586v-4l4 4
l2 -4q119 133 296 133z" />
    <glyph glyph-name="c" unicode="c" horiz-adv-x="909"
d="M713 866q-156 0 -249 -122t-93 -281q0 -274 233 -275q113 0 223 54l-30 -217q-100 -49 -284 -49q-185 0 -307 124q-122 125 -122 330q0 281 171 465t452 184q141 0 274 -41l-68 -225q-82 53 -200 53z" />
    <glyph glyph-name="d" unicode="d" horiz-adv-x="1251"
d="M662 866q-96 0 -164 -76t-98 -170q-30 -95 -30 -169t13 -126q12 -53 52 -95t104 -42q141 0 230 134t89 294q0 102 -50 177q-51 73 -146 73zM84 414q0 249 130 450q62 96 166 156t234 59q195 0 326 -149l133 606h275l-285 -1303q-33 -180 -39 -233h-256l27 156h-4
q-129 -180 -345 -181q-178 0 -270 126t-92 313z" />
    <glyph glyph-name="e" unicode="e"
d="M365 631h464q6 37 7 71q0 176 -174 177q-120 1 -186 -63t-111 -185zM328 442q0 -141 74 -203q74 -63 226 -63q153 0 316 76l-35 -217q-193 -59 -336 -60q-235 0 -371 117q-136 118 -136 358t174 435t426 194q200 0 316 -102t116 -299q0 -109 -27 -236h-743z" />
    <glyph glyph-name="f" unicode="f" horiz-adv-x="796"
d="M826 1561q88 0 173 -27l-63 -205q-37 19 -86 19q-127 1 -182 -183q-12 -37 -20 -71t-9 -39h246l-43 -201h-246l-180 -854h-275l181 854h-213l43 201h213q36 182 95 293q109 213 366 213z" />
    <glyph glyph-name="g" unicode="g" horiz-adv-x="1251"
d="M856 645q0 97 -53 159t-145 62t-162 -74q-126 -135 -123 -343q0 -102 43 -169t131 -67q153 0 231 131t78 301zM394 -242q118 0 186 28t112 100q89 146 119 315h-4q-51 -93 -145 -147t-209 -54q-180 0 -274 129q-93 129 -93 317q0 254 145 444t390 189q215 0 321 -178
l31 154h264q-14 -47 -35 -148l-168 -792q-55 -279 -192 -424q-136 -145 -390 -145t-442 71l70 223q196 -82 314 -82z" />
    <glyph glyph-name="h" unicode="h" horiz-adv-x="1251"
d="M814 1079q159 0 253 -91t94 -247q0 -70 -35 -229l-110 -512h-275l103 498q30 154 30 220t-42 108q-42 40 -107 40q-221 0 -295 -336l-113 -530h-274l328 1536h274l-131 -584h4q137 127 296 127z" />
    <glyph glyph-name="i" unicode="i" horiz-adv-x="569"
d="M311 1247l58 262h274l-57 -262h-275zM43 0l225 1055h275l-226 -1055h-274z" />
    <glyph glyph-name="j" unicode="j" horiz-adv-x="569"
d="M311 1247l58 262h274l-57 -262h-275zM268 1055h275l-226 -1051q-57 -268 -123 -363t-223 -96q-92 0 -182 25l66 201q37 -13 71 -13q67 -1 94 142z" />
    <glyph glyph-name="k" unicode="k"
d="M43 0l326 1536h274l-182 -864h4l383 383h356l-506 -482l318 -573h-309l-273 559h-4l-119 -559h-268z" />
    <glyph glyph-name="l" unicode="l" horiz-adv-x="569"
d="M43 0l326 1536h274l-326 -1536h-274z" />
    <glyph glyph-name="m" unicode="m" horiz-adv-x="1820"
d="M817 1079q98 0 178 -55t90 -145h5q49 98 151 149t220 51t205 -85t87 -197t-47 -293l-111 -504h-274l111 514q34 154 34 218t-38 99t-84 35q-126 0 -183 -99q-55 -91 -96 -265l-109 -502h-274l111 514q35 154 35 218t-38 99t-92 35t-97 -26q-44 -26 -69 -59
q-26 -32 -50 -93t-32 -92t-24 -94l-109 -502h-274l193 938q10 51 22 117h256l-25 -142h5q113 166 323 166z" />
    <glyph glyph-name="n" unicode="n" horiz-adv-x="1251"
d="M814 1079q159 0 253 -91t94 -247q0 -70 -35 -229l-110 -512h-275l103 498q30 154 30 220t-42 108q-42 40 -107 40q-221 0 -295 -336l-113 -530h-274l195 903q23 113 26 152h268l-18 -103h4q137 127 296 127z" />
    <glyph glyph-name="o" unicode="o" horiz-adv-x="1251"
d="M709 1079q217 0 350 -124t133 -339q0 -280 -175 -460t-454 -181q-223 0 -351 129t-128 353q0 264 179 443q180 179 446 179zM586 188q100 0 176 71t109 165q34 94 34 190q0 252 -209 252q-102 0 -179 -70q-146 -132 -146 -360q0 -248 215 -248z" />
    <glyph glyph-name="p" unicode="p" horiz-adv-x="1251"
d="M903 643q0 99 -50 161t-142 62q-129 0 -210 -137t-81 -271t43 -202t143 -68t173 82t99 178t25 195zM798 1079q196 0 294 -116q98 -117 98 -301q0 -391 -246 -584q-129 -102 -303 -103q-233 0 -291 189h-4l-121 -594h-274l278 1348q18 92 23 137h260l-31 -140h4
q117 164 313 164z" />
    <glyph glyph-name="q" unicode="q" horiz-adv-x="1251"
d="M446 -25q-178 0 -270 126t-92 313q0 249 130 450q62 96 166 156t230 59q125 0 202 -46t116 -154h4l39 176h264q-25 -80 -45 -181l-277 -1304h-274l127 567l-4 4q-90 -166 -316 -166zM858 616q0 102 -50 176t-146 74t-164 -76t-98 -170q-30 -96 -29 -170q0 -74 12 -125
q12 -53 52 -95t104 -42q141 0 230 134t89 294z" />
    <glyph glyph-name="r" unicode="r" horiz-adv-x="796"
d="M739 817q-135 0 -214 -98t-109 -246l-99 -473h-274l188 913q12 68 25 142h262l-37 -199h4q39 88 129 156t168 68t119 -11l-57 -268q-49 16 -105 16z" />
    <glyph glyph-name="s" unicode="s" horiz-adv-x="909"
d="M793 319q0 -85 -40 -158q-100 -182 -436 -186q-186 0 -321 64l59 219q147 -82 243 -82q208 0 208 117q0 79 -126 157q-52 32 -105 68q-127 90 -125 225q0 250 292 318q78 18 186 18t277 -43l-59 -207q-226 83 -354 25q-56 -25 -56 -72t37 -82q37 -36 89 -68t105 -71
q126 -94 126 -242z" />
    <glyph glyph-name="t" unicode="t" horiz-adv-x="796"
d="M469 294q0 -106 118 -106q60 0 120 25l-48 -213q-113 -25 -147 -25q-317 0 -317 277q0 88 34 246l78 356h-198l43 201h198l47 217l295 96l-67 -313h245l-43 -201h-245l-101 -461q-12 -49 -12 -99z" />
    <glyph glyph-name="u" unicode="u" horiz-adv-x="1251"
d="M458 -25q-159 -1 -253 91t-94 247q0 70 34 230l111 512h274l-102 -498q-31 -155 -31 -221t42 -107t108 -41q221 0 295 336l112 531h275l-195 -903q-23 -113 -26 -152h-269l19 102h-4q-137 -127 -296 -127z" />
    <glyph glyph-name="v" unicode="v"
d="M313 0l-178 1055h281l106 -774h4l416 774h291l-617 -1055h-303z" />
    <glyph glyph-name="w" unicode="w" horiz-adv-x="1820"
d="M274 0l-139 1055h275l75 -793h4l388 793h305l57 -793h4l406 793h280l-586 -1055h-309l-59 807h-4l-385 -807h-312z" />
    <glyph glyph-name="x" unicode="x"
d="M455 1055l137 -363l297 363h328l-449 -504l252 -551h-299l-162 403l-315 -403h-328l477 551l-223 504h285z" />
    <glyph glyph-name="y" unicode="y"
d="M108 -455q-104 0 -208 29l61 209q66 -25 125 -25t113 41q53 41 123 150l-187 1106h281l98 -785h4l420 785h301l-715 -1215q-53 -90 -96 -144t-129 -102q-87 -48 -191 -49z" />
    <glyph glyph-name="z" unicode="z" horiz-adv-x="1024"
d="M1053 1055l-45 -213l-646 -629h529l-39 -213h-883l43 213l650 629h-486l47 213h830z" />
    <glyph glyph-name="braceleft" unicode="{" horiz-adv-x="681"
d="M770 1384q-111 0 -143 -143l-88 -387q-39 -178 -265 -221v-4q115 -7 148 -67t10 -173l-86 -381q-20 -55 -7 -93t77 -38h96l-35 -164h-176q-270 0 -203 307l70 310q29 98 1 155t-138 58l39 176q78 0 144 45t81 117l90 403q29 119 119 192t213 72h174l-35 -164h-86z" />
    <glyph glyph-name="bar" unicode="|" horiz-adv-x="454"
d="M172 1536h213v-2048h-213v2048z" />
    <glyph glyph-name="braceright" unicode="}" horiz-adv-x="681"
d="M31 -287h-174l34 164h86q111 0 144 143l88 388q39 178 264 221v4q-115 8 -147 67t-11 172l86 381q48 133 -69 131h-96l34 164h176q270 0 203 -307l-69 -309q-29 -98 -1 -156t138 -57l-39 -176q-78 0 -144 -45t-81 -117l-91 -404q-28 -119 -118 -191t-213 -73z" />
    <glyph glyph-name="asciitilde" unicode="~" horiz-adv-x="1228"
d="M420 696q108 0 274 -86q29 -14 37 -18q78 -39 127 -39q79 0 136 75q19 26 50 72l74 -180q-106 -180 -235 -180q-97 0 -235 72t-226 71q-108 0 -176 -147l-74 180q94 180 248 180z" />
    <glyph glyph-name="uni00A0" unicode="&#xa0;" horiz-adv-x="569"
 />
    <glyph glyph-name="exclamdown" unicode="&#xa1;" horiz-adv-x="796"
d="M360 -375h-321l258 1010h227zM580 768h-287l59 287h287z" />
    <glyph glyph-name="cent" unicode="&#xa2;"
d="M817 1079h14l70 230h107l-72 -240q76 -8 156 -31l-68 -225q-72 47 -147 57l-207 -675q16 -6 45 -7q113 0 223 54l-31 -217q-100 -49 -264 -50q-29 0 -39 2l-80 -262h-106l86 281q-145 37 -228 152q-82 116 -81 282q0 281 171 465t451 184zM481 448q0 -156 92 -219
l193 637q-131 -26 -208 -144t-77 -274z" />
    <glyph glyph-name="sterling" unicode="&#xa3;"
d="M956 1454q150 0 291 -51l-61 -232q-115 57 -205 57q-171 1 -241 -115q-71 -122 -99 -288h317l-34 -163h-316l-98 -449h477l-47 -213h-940l47 213h176l99 449h-156l35 163h153q29 158 66 262t104 194q132 173 432 173z" />
    <glyph glyph-name="currency" unicode="&#xa4;"
d="M340 719q0 -121 83 -208t200 -87t199 87t83 208q0 121 -83 208q-84 87 -200 87t-199 -87t-83 -208zM1130 722q0 -159 -94 -296l119 -119l-121 -121l-119 119q-135 -94 -293 -94t-292 94l-119 -119l-121 121l119 119q-94 133 -94 292t94 294l-119 118l121 121l119 -118
q131 94 291 94t294 -94l119 118l121 -121l-119 -118q94 -131 94 -290z" />
    <glyph glyph-name="yen" unicode="&#xa5;"
d="M143 1430h289l203 -601l442 601h316l-553 -674h227l-33 -164h-299l-28 -127h303l-33 -164h-299l-60 -301h-274l64 301h-299l32 164h295l25 127h-299l33 164h225z" />
    <glyph glyph-name="brokenbar" unicode="&#xa6;" horiz-adv-x="454"
d="M172 358h213v-716h-213v716zM172 1382h213v-716h-213v716z" />
    <glyph glyph-name="section" unicode="&#xa7;"
d="M567 797q-124 -60 -153 -119q-39 -81 22 -146q37 -39 70 -58q34 -19 102 -49t74 -34q116 56 146 121q48 107 -62 178q-64 43 -126 72q-61 29 -73 35zM678 66q0 54 -50 96t-123 75q-73 31 -146 69t-123 108t-50 172t73 182t175 115q-117 92 -117 209q1 178 135 270t340 92
t377 -86l-79 -201q-131 74 -306 74q-90 0 -160 -31t-69 -91q0 -60 51 -101t125 -74t148 -71q74 -39 125 -107t51 -163t-69 -177t-167 -121q109 -88 109 -203q0 -184 -135 -282q-259 -188 -760 -17l69 207q197 -76 330 -76t202 48q44 30 44 84z" />
    <glyph glyph-name="dieresis" unicode="&#xa8;" horiz-adv-x="569"
d="M776 1485l-51 -238h-233l51 238h233zM350 1485l-51 -238h-233l51 238h233z" />
    <glyph glyph-name="copyright" unicode="&#xa9;" horiz-adv-x="1638"
d="M125 715q0 305 217 522t522 217t522 -217q218 -217 218 -522t-218 -522t-522 -217q-305 0 -522 216q-217 218 -217 523zM1081 850q-29 143 -205 143q-87 0 -144 -73q-56 -74 -56 -194t60 -199t148 -79t138 40q51 38 59 108h170q-23 -145 -122 -228t-236 -83
q-186 0 -302 124t-116 313t112 312t302 123q141 0 238 -80t118 -227h-164zM1391 715q0 251 -152 413t-376 162t-375 -162q-150 -162 -150 -414t150 -414q150 -161 375 -161q224 0 376 162t152 414z" />
    <glyph glyph-name="ordfeminine" unicode="&#xaa;" horiz-adv-x="739"
d="M420 909q137 0 182 176h-41q-238 0 -237 -110q0 -31 30 -49t66 -17zM535 1454q276 0 276 -197q0 -47 -35 -221t-43 -233h-178l20 98h-4q-80 -115 -221 -115q-94 0 -148 48t-54 130q-1 160 155 200q125 32 266 32h60l6 55q0 37 -39 59t-94 21q-111 0 -226 -57l25 143
q113 37 234 37z" />
    <glyph glyph-name="guillemotleft" unicode="&#xab;" horiz-adv-x="1251"
d="M94 551l307 420h287l-323 -420l143 -420h-236zM549 551l307 420h287l-324 -420l144 -420h-236z" />
    <glyph glyph-name="logicalnot" unicode="&#xac;" horiz-adv-x="1228"
d="M952 221v414h-827v213h1040v-627h-213z" />
    <glyph glyph-name="uni00AD" unicode="&#xad;" horiz-adv-x="796"
d="M121 438l47 226h539l-48 -226h-538z" />
    <glyph glyph-name="registered" unicode="&#xae;" horiz-adv-x="1638"
d="M743 791h144q73 -1 107 21t34 87q0 94 -160 94h-125v-202zM567 307v821h310q163 0 245 -56t82 -189q0 -201 -217 -219l217 -357h-180l-197 348h-84v-348h-176zM1391 715q0 251 -152 413t-376 162q-225 0 -375 -162t-150 -414q0 -253 150 -414t375 -161q224 0 376 162
t152 414zM125 715q0 305 217 522t522 217t522 -217q218 -217 218 -522t-218 -522t-522 -217q-305 0 -522 216q-217 218 -217 523z" />
    <glyph glyph-name="macron" unicode="&#xaf;" horiz-adv-x="569"
d="M109 1266l32 164h609l-31 -164h-610z" />
    <glyph glyph-name="degree" unicode="&#xb0;" horiz-adv-x="819"
d="M516 1454q138 0 234 -96t96 -234t-95 -234q-95 -95 -237 -95t-234 93q-94 93 -94 233q0 141 96 237t234 96zM516 1305q-80 -1 -130 -51t-50 -130t50 -130t130 -50t130 50t50 130t-50 130t-130 51z" />
    <glyph glyph-name="plusminus" unicode="&#xb1;" horiz-adv-x="1228"
d="M125 0v213h1040v-213h-1040zM539 766v270h213v-270h413v-213h-413v-272h-213v272h-414v213h414z" />
    <glyph glyph-name="twosuperior" unicode="&#xb2;" horiz-adv-x="739"
d="M510 1454q123 0 217 -53t94 -174t-122 -251t-287 -218v-4h325l-28 -176h-654l29 143q18 14 127 97q109 82 141 108t70 55q120 89 144 138q45 90 -19 133q-37 26 -111 26t-205 -53l-6 174q162 55 285 55z" />
    <glyph glyph-name="threesuperior" unicode="&#xb3;" horiz-adv-x="739"
d="M500 1454q307 0 307 -207q1 -90 -63 -145t-156 -72v-4q156 -52 156 -164t-64 -180q-108 -117 -334 -117q-178 0 -293 51l33 152q102 -39 202 -39t158 29q59 29 60 86q0 90 -184 90h-72l24 164q295 0 295 121q0 33 -35 52q-36 19 -81 19q-136 0 -226 -39l19 166
q137 37 254 37z" />
    <glyph glyph-name="acute" unicode="&#xb4;" horiz-adv-x="569"
d="M270 1198l166 299h273l-263 -299h-176z" />
    <glyph glyph-name="mu" unicode="&#xb5;" horiz-adv-x="1251"
d="M397 336q0 -66 42 -107t108 -41q221 0 295 336l112 531h275l-195 -903q-23 -113 -26 -152h-269l19 102h-4q-137 -127 -299 -127q-84 0 -131 70l-99 -475h-274l309 1485h270l-102 -498q-31 -155 -31 -221z" />
    <glyph glyph-name="paragraph" unicode="&#xb6;" horiz-adv-x="1269"
d="M758 1430h600l-350 -1684h-213l315 1520h-217l-315 -1520h-213l198 952q-184 0 -283 74t-100 203q0 172 107 291q145 164 471 164z" />
    <glyph glyph-name="periodcentered" unicode="&#xb7;" horiz-adv-x="569"
d="M322 424q-63 0 -111 47q-47 47 -47 111t47 110q47 47 111 47t110 -46q47 -45 47 -111t-47 -112t-110 -46z" />
    <glyph glyph-name="cedilla" unicode="&#xb8;" horiz-adv-x="569"
d="M688 -250q0 -113 -92 -159q-205 -103 -475 18l35 115q100 -55 204 -56q45 0 86 20t41 59q0 40 -35 58q-67 33 -133 9l64 186h113l-31 -90q223 0 223 -160z" />
    <glyph glyph-name="onesuperior" unicode="&#xb9;" horiz-adv-x="739"
d="M268 1133l-80 116l312 193h209l-201 -864h-225l157 659z" />
    <glyph glyph-name="ordmasculine" unicode="&#xba;" horiz-adv-x="813"
d="M162 1092q0 158 124 260t282 102t251 -71q94 -71 94 -207q0 -180 -120 -285q-121 -105 -286 -105t-255 74t-90 232zM565 1331q-81 0 -141 -79t-62 -164q-1 -179 140 -179q88 0 149 82t62 172q0 168 -148 168z" />
    <glyph glyph-name="guillemotright" unicode="&#xbb;" horiz-adv-x="1251"
d="M1157 551l-307 -420h-287l324 420l-144 420h236zM702 551l-307 -420h-286l323 420l-143 420h235z" />
    <glyph glyph-name="onequarter" unicode="&#xbc;" horiz-adv-x="1708"
d="M238 1249l311 193h209l-201 -864h-225l157 659l-172 -104zM311 -45l860 1520h175l-861 -1520h-174zM1286 664l-282 -342h206l80 342h-4zM815 334l465 530h272l-125 -542h134l-39 -164h-129l-37 -158h-219l37 158h-381z" />
    <glyph glyph-name="onehalf" unicode="&#xbd;" horiz-adv-x="1708"
d="M1630 649q0 -121 -122 -251t-287 -218v-4h325l-28 -176h-654l29 143q18 13 127 97q108 84 140 110t71 54t84 67t61 72q43 88 -20 132q-90 63 -316 -28l-6 174q317 109 502 3q94 -54 94 -175zM317 1133l-79 116l311 193h209l-201 -864h-225l157 663zM1141 1475h174
l-860 -1520h-174z" />
    <glyph glyph-name="threequarters" unicode="&#xbe;" horiz-adv-x="1708"
d="M528 1454q307 0 308 -207q0 -90 -64 -145t-156 -72v-4q156 -53 156 -176q0 -102 -63 -169q-109 -116 -334 -116q-178 0 -293 51l33 152q101 -39 201 -39t159 29t60 86q0 90 -185 90h-71l24 164q295 0 295 121q0 33 -36 52t-81 19q-135 0 -225 -39l18 166q137 37 254 37z
M1253 1475h174l-860 -1520h-174zM1065 322h207l80 342h-4zM1198 0l37 158h-381l23 176l464 530h273l-125 -542h133l-39 -164h-129l-37 -158h-219z" />
    <glyph glyph-name="questiondown" unicode="&#xbf;" horiz-adv-x="1024"
d="M508 1055h287l-60 -287h-286zM550 -186q114 0 230 51v-230q-398 -82 -627 48q-75 41 -120 117t-45 156t17 134t56 101q39 46 72 76t92 77t88 72q134 117 142 219h250q-17 -147 -79 -241t-194 -193q-45 -35 -72 -60q-26 -25 -50 -69t-23 -92q1 -82 75 -124t188 -42z" />
    <glyph glyph-name="Agrave" unicode="&#xc0;" horiz-adv-x="1478"
d="M1102 1511h-174l-264 299h272zM-86 0l866 1430h318l260 -1430h-287l-49 328h-608l-183 -328h-317zM885 1176l-344 -623h442l-90 623h-8z" />
    <glyph glyph-name="Aacute" unicode="&#xc1;" horiz-adv-x="1478"
d="M827 1511l166 299h273l-262 -299h-177zM-86 0l866 1430h318l260 -1430h-287l-49 328h-608l-183 -328h-317zM885 1176l-344 -623h442l-90 623h-8z" />
    <glyph glyph-name="Acircumflex" unicode="&#xc2;" horiz-adv-x="1478"
d="M848 1511h-205l264 299h236l153 -299h-182l-102 191zM-86 0l866 1430h318l260 -1430h-287l-49 328h-608l-183 -328h-317zM885 1176l-344 -623h442l-90 623h-8z" />
    <glyph glyph-name="Atilde" unicode="&#xc3;" horiz-adv-x="1478"
d="M836 1649q-39 0 -68 -31t-33 -70h-104q41 248 237 248q60 0 154 -41t130 -41q73 0 99 96h105q-35 -244 -242 -243q-51 0 -145 41t-133 41zM-86 0l866 1430h318l260 -1430h-287l-49 328h-608l-183 -328h-317zM885 1176l-344 -623h442l-90 623h-8z" />
    <glyph glyph-name="Adieresis" unicode="&#xc4;" horiz-adv-x="1478"
d="M1333 1798l-51 -237h-233l51 237h233zM907 1798l-51 -237h-233l51 237h233zM-86 0l866 1430h318l260 -1430h-287l-49 328h-608l-183 -328h-317zM885 1176l-344 -623h442l-90 623h-8z" />
    <glyph glyph-name="Aring" unicode="&#xc5;" horiz-adv-x="1478"
d="M982 1804q-44 0 -74 -30t-30 -75q0 -44 30 -73t74 -29t74 29t29 74q0 45 -29 75q-30 29 -74 29zM768 1700q0 86 63 150t151 65t150 -63q64 -64 64 -151t-64 -151q-65 -63 -151 -63t-150 63q-63 64 -63 150zM-86 0l866 1430h318l260 -1430h-287l-49 328h-608l-183 -328
h-317zM885 1176l-344 -623h442l-90 623h-8z" />
    <glyph glyph-name="AE" unicode="&#xc6;" horiz-adv-x="1933"
d="M1108 1204l-475 -651h379l100 647zM-86 0l1030 1430h998l-46 -238h-510l-53 -340h434l-45 -225h-424l-61 -402h459l-49 -225h-721l51 328h-506l-240 -328h-317z" />
    <glyph glyph-name="Ccedilla" unicode="&#xc7;" horiz-adv-x="1251"
d="M989 -250q0 -113 -92 -159t-213 -46t-262 64l35 115q100 -55 205 -56q45 0 86 20q40 20 40 59q0 40 -35 58q-68 34 -132 9l57 168q-262 31 -399 213t-138 458q-1 353 223 577t597 224q249 0 419 -70l-71 -239q-123 84 -345 84t-372 -162q-152 -162 -152 -414
q0 -186 113 -319t281 -133t315 88l-45 -275q-139 -39 -316 -39l-22 -65q223 0 223 -160z" />
    <glyph glyph-name="Egrave" unicode="&#xc8;"
d="M952 1511h-174l-264 299h272zM63 0l302 1430h841l-43 -226h-559l-74 -352h500l-45 -225h-502l-84 -402h566l-50 -225h-852z" />
    <glyph glyph-name="Eacute" unicode="&#xc9;"
d="M616 1511l166 299h273l-262 -299h-177zM63 0l302 1430h841l-43 -226h-559l-74 -352h500l-45 -225h-502l-84 -402h566l-50 -225h-852z" />
    <glyph glyph-name="Ecircumflex" unicode="&#xca;"
d="M637 1511h-205l264 299h236l153 -299h-182l-102 191zM63 0l302 1430h841l-43 -226h-559l-74 -352h500l-45 -225h-502l-84 -402h566l-50 -225h-852z" />
    <glyph glyph-name="Edieresis" unicode="&#xcb;"
d="M1122 1798l-51 -237h-233l51 237h233zM696 1798l-51 -237h-233l51 237h233zM63 0l302 1430h841l-43 -226h-559l-74 -352h500l-45 -225h-502l-84 -402h566l-50 -225h-852z" />
    <glyph glyph-name="Igrave" unicode="&#xcc;" horiz-adv-x="569"
d="M647 1511h-174l-264 299h272zM35 0l301 1430h299l-301 -1430h-299z" />
    <glyph glyph-name="Iacute" unicode="&#xcd;" horiz-adv-x="569"
d="M373 1511l166 299h272l-262 -299h-176zM35 0l301 1430h299l-301 -1430h-299z" />
    <glyph glyph-name="Icircumflex" unicode="&#xce;" horiz-adv-x="569"
d="M393 1511h-205l265 299h235l154 -299h-183l-102 191zM35 0l301 1430h299l-301 -1430h-299z" />
    <glyph glyph-name="Idieresis" unicode="&#xcf;" horiz-adv-x="569"
d="M879 1798l-52 -237h-233l51 237h234zM453 1798l-52 -237h-233l51 237h234zM35 0l301 1430h299l-301 -1430h-299z" />
    <glyph glyph-name="Eth" unicode="&#xd0;" horiz-adv-x="1478"
d="M492 225q305 -1 474 145t169 445q0 195 -116 292t-317 97h-98l-72 -340h328l-39 -188h-327l-95 -451h93zM705 1430q320 0 515 -116q212 -128 214 -468q0 -390 -192 -591q-89 -93 -223 -151q-135 -58 -283 -82q-148 -22 -337 -22h-336l144 676h-121l39 188h121l119 566
h340z" />
    <glyph glyph-name="Ntilde" unicode="&#xd1;" horiz-adv-x="1478"
d="M836 1649q-39 0 -68 -31t-33 -70h-104q41 248 237 248q60 0 154 -41t130 -41q73 0 99 96h105q-35 -244 -242 -243q-51 0 -145 41t-133 41zM51 0l307 1430h363l305 -1086h4l234 1086h270l-309 -1430h-369l-299 1096h-4l-227 -1096h-275z" />
    <glyph glyph-name="Ograve" unicode="&#xd2;" horiz-adv-x="1593"
d="M1159 1511h-174l-264 299h272zM1251 880q0 150 -79 250q-79 99 -212 99t-232 -65q-98 -65 -160 -166q-128 -209 -128 -445q0 -150 77 -251t227 -101q150 -1 272 111q121 112 178 265t57 303zM954 1454q289 0 443 -159t153 -447q0 -365 -239 -633q-215 -240 -606 -240
q-258 0 -411 167t-153 427q0 354 226 619q233 266 587 266z" />
    <glyph glyph-name="Oacute" unicode="&#xd3;" horiz-adv-x="1593"
d="M885 1511l166 299h272l-262 -299h-176zM1251 880q0 150 -79 250q-79 99 -212 99t-232 -65q-98 -65 -160 -166q-128 -209 -128 -445q0 -150 77 -251t227 -101q150 -1 272 111q121 112 178 265t57 303zM954 1454q289 0 443 -159t153 -447q0 -365 -239 -633
q-215 -240 -606 -240q-258 0 -411 167t-153 427q0 354 226 619q233 266 587 266z" />
    <glyph glyph-name="Ocircumflex" unicode="&#xd4;" horiz-adv-x="1593"
d="M905 1511h-205l265 299h235l154 -299h-183l-102 191zM1251 880q0 150 -79 250q-79 99 -212 99t-232 -65q-98 -65 -160 -166q-128 -209 -128 -445q0 -150 77 -251t227 -101q150 -1 272 111q121 112 178 265t57 303zM954 1454q289 0 443 -159t153 -447q0 -365 -239 -633
q-215 -240 -606 -240q-258 0 -411 167t-153 427q0 354 226 619q233 266 587 266z" />
    <glyph glyph-name="Otilde" unicode="&#xd5;" horiz-adv-x="1593"
d="M893 1649q-39 0 -68 -31t-32 -70h-105q41 248 238 248q59 0 153 -41t130 -41q74 0 100 96h104q-35 -244 -242 -243q-51 0 -145 41t-133 41zM1251 880q0 150 -79 250q-79 99 -212 99t-232 -65q-98 -65 -160 -166q-128 -209 -128 -445q0 -150 77 -251t227 -101
q150 -1 272 111q121 112 178 265t57 303zM954 1454q289 0 443 -159t153 -447q0 -365 -239 -633q-215 -240 -606 -240q-258 0 -411 167t-153 427q0 354 226 619q233 266 587 266z" />
    <glyph glyph-name="Odieresis" unicode="&#xd6;" horiz-adv-x="1593"
d="M1391 1798l-52 -237h-233l51 237h234zM965 1798l-52 -237h-233l51 237h234zM1251 880q0 150 -79 250q-79 99 -212 99t-232 -65q-98 -65 -160 -166q-128 -209 -128 -445q0 -150 77 -251t227 -101q150 -1 272 111q121 112 178 265t57 303zM954 1454q289 0 443 -159
t153 -447q0 -365 -239 -633q-215 -240 -606 -240q-258 0 -411 167t-153 427q0 354 226 619q233 266 587 266z" />
    <glyph glyph-name="multiply" unicode="&#xd7;" horiz-adv-x="1228"
d="M498 518l-332 332l147 147l332 -331l332 331l147 -147l-333 -332l333 -332l-147 -147l-332 334l-332 -334l-147 147z" />
    <glyph glyph-name="Oslash" unicode="&#xd8;" horiz-adv-x="1593"
d="M1550 848q0 -365 -239 -633q-215 -240 -606 -240q-160 0 -281 70l-164 -221l-104 80l159 217q-174 162 -174 448q0 354 226 619q233 266 587 266q176 0 299 -61l156 211l107 -78l-150 -203q184 -156 184 -475zM741 201q154 -1 275 111t178 265t57 290t-55 227l-621 -844
q70 -49 166 -49zM932 1229q-106 0 -204 -65t-160 -166q-128 -209 -128 -445q0 -117 45 -201l619 836q-66 41 -172 41z" />
    <glyph glyph-name="Ugrave" unicode="&#xd9;" horiz-adv-x="1478"
d="M1102 1511h-174l-264 299h272zM358 1430h287l-145 -678q-12 -58 -20 -96t-20 -122q-11 -84 5 -156q16 -73 43 -104q65 -75 181 -74t205 58q58 37 104 127t64 169q17 79 34 151l155 725h283l-191 -865q-67 -293 -217 -441t-434 -149q-637 0 -497 678z" />
    <glyph glyph-name="Uacute" unicode="&#xda;" horiz-adv-x="1478"
d="M827 1511l166 299h273l-262 -299h-177zM358 1430h287l-145 -678q-12 -58 -20 -96t-20 -122q-11 -84 5 -156q16 -73 43 -104q65 -75 181 -74t205 58q58 37 104 127t64 169q17 79 34 151l155 725h283l-191 -865q-67 -293 -217 -441t-434 -149q-637 0 -497 678z" />
    <glyph glyph-name="Ucircumflex" unicode="&#xdb;" horiz-adv-x="1478"
d="M848 1511h-205l264 299h236l153 -299h-182l-102 191zM358 1430h287l-145 -678q-12 -58 -20 -96t-20 -122q-11 -84 5 -156q16 -73 43 -104q65 -75 181 -74t205 58q58 37 104 127t64 169q17 79 34 151l155 725h283l-191 -865q-67 -293 -217 -441t-434 -149q-637 0 -497 678
z" />
    <glyph glyph-name="Udieresis" unicode="&#xdc;" horiz-adv-x="1478"
d="M1333 1798l-51 -237h-233l51 237h233zM907 1798l-51 -237h-233l51 237h233zM358 1430h287l-145 -678q-12 -58 -20 -96t-20 -122q-11 -84 5 -156q16 -73 43 -104q65 -75 181 -74t205 58q58 37 104 127t64 169q17 79 34 151l155 725h283l-191 -865q-67 -293 -217 -441
t-434 -149q-637 0 -497 678z" />
    <glyph glyph-name="Yacute" unicode="&#xdd;" horiz-adv-x="1366"
d="M772 1511l166 299h272l-262 -299h-176zM430 0l125 592l-336 838h303l213 -601l465 601h334l-692 -838l-125 -592h-287z" />
    <glyph glyph-name="Thorn" unicode="&#xde;"
d="M541 530q129 0 224 68t95 193q0 176 -239 176h-91l-92 -437h103zM1159 821q0 -248 -174 -382t-430 -134h-162l-63 -305h-287l299 1430h287l-49 -238q306 0 450 -97q55 -38 92 -109t37 -165z" />
    <glyph glyph-name="germandbls" unicode="&#xdf;" horiz-adv-x="1251"
d="M1255 1219q0 -169 -87 -263t-265 -137v-4q125 -25 198 -103t73 -196q0 -244 -157 -386t-403 -142q-78 0 -192 28l43 226q76 -41 129 -41q150 0 222 99t71 220q0 180 -260 180l41 213q135 0 218 73t83 204q0 74 -43 116q-42 42 -112 42q-122 0 -183 -68q-49 -53 -81 -172
q-11 -41 -26 -109l-207 -999h-274l231 1114q92 446 539 447q176 0 309 -86t133 -256z" />
    <glyph glyph-name="agrave" unicode="&#xe0;"
d="M829 1198h-174l-264 299h273zM305 287q0 -53 41 -82t98 -29q139 0 206 80t106 231h-97q-354 1 -354 -200zM43 276q0 100 44 174q43 74 107 110q153 90 496 91h96q8 29 8 97t-62 99q-62 32 -148 32q-172 0 -346 -82l38 219q180 63 358 63t295 -77q116 -77 115 -248
q0 -78 -59 -377t-70 -377h-231l29 162h-4q-76 -94 -154 -140q-77 -46 -205 -46t-218 78q-89 79 -89 222z" />
    <glyph glyph-name="aacute" unicode="&#xe1;"
d="M555 1198l166 299h272l-262 -299h-176zM305 287q0 -53 41 -82t98 -29q139 0 206 80t106 231h-97q-354 1 -354 -200zM43 276q0 100 44 174q43 74 107 110q153 90 496 91h96q8 29 8 97t-62 99q-62 32 -148 32q-172 0 -346 -82l38 219q180 63 358 63t295 -77
q116 -77 115 -248q0 -78 -59 -377t-70 -377h-231l29 162h-4q-76 -94 -154 -140q-77 -46 -205 -46t-218 78q-89 79 -89 222z" />
    <glyph glyph-name="acircumflex" unicode="&#xe2;"
d="M575 1198h-204l264 299h235l154 -299h-182l-103 191zM305 287q0 -53 41 -82t98 -29q139 0 206 80t106 231h-97q-354 1 -354 -200zM43 276q0 100 44 174q43 74 107 110q153 90 496 91h96q8 29 8 97t-62 99q-62 32 -148 32q-172 0 -346 -82l38 219q180 63 358 63t295 -77
q116 -77 115 -248q0 -78 -59 -377t-70 -377h-231l29 162h-4q-76 -94 -154 -140q-77 -46 -205 -46t-218 78q-89 79 -89 222z" />
    <glyph glyph-name="atilde" unicode="&#xe3;"
d="M842 1253q-52 0 -146 41t-133 41q-39 -1 -67 -31t-33 -69h-105q41 248 238 248q60 0 154 -41t130 -41q73 0 99 96h104q-35 -244 -241 -244zM305 287q0 -53 41 -82t98 -29q139 0 206 80t106 231h-97q-354 1 -354 -200zM43 276q0 100 44 174q43 74 107 110q153 90 496 91
h96q8 29 8 97t-62 99q-62 32 -148 32q-172 0 -346 -82l38 219q180 63 358 63t295 -77q116 -77 115 -248q0 -78 -59 -377t-70 -377h-231l29 162h-4q-76 -94 -154 -140q-77 -46 -205 -46t-218 78q-89 79 -89 222z" />
    <glyph glyph-name="adieresis" unicode="&#xe4;"
d="M1061 1485l-51 -238h-234l51 238h234zM635 1485l-51 -238h-234l51 238h234zM305 287q0 -53 41 -82t98 -29q139 0 206 80t106 231h-97q-354 1 -354 -200zM43 276q0 100 44 174q43 74 107 110q153 90 496 91h96q8 29 8 97t-62 99q-62 32 -148 32q-172 0 -346 -82l38 219
q180 63 358 63t295 -77q116 -77 115 -248q0 -78 -59 -377t-70 -377h-231l29 162h-4q-76 -94 -154 -140q-77 -46 -205 -46t-218 78q-89 79 -89 222z" />
    <glyph glyph-name="aring" unicode="&#xe5;"
d="M883 1407q0 45 -30 75t-74 29q-43 -1 -73 -31t-30 -74t30 -73t74 -29t73 30q30 28 30 73zM993 1408q0 -87 -64 -151q-65 -63 -151 -63t-149 63t-63 149t62 152q64 64 151 64t151 -63q63 -64 63 -151zM305 287q0 -53 41 -82t98 -29q139 0 206 80t106 231h-97
q-354 1 -354 -200zM43 276q0 100 44 174q43 74 107 110q153 90 496 91h96q8 29 8 97t-62 99q-62 32 -148 32q-172 0 -346 -82l38 219q180 63 358 63t295 -77q116 -77 115 -248q0 -78 -59 -377t-70 -377h-231l29 162h-4q-76 -94 -154 -140q-77 -46 -205 -46t-218 78
q-89 79 -89 222z" />
    <glyph glyph-name="ae" unicode="&#xe6;" horiz-adv-x="1820"
d="M1348 891q-90 0 -166 -77t-101 -183h428q8 53 9 84q0 176 -170 176zM305 294q0 -54 48 -86t122 -32q131 0 202 84t114 227h-107q-179 0 -226 -17t-82 -36q-71 -36 -71 -140zM645 1079q224 0 304 -91q36 -40 48 -99h4q106 190 359 190q196 0 308 -102t112 -297
q0 -115 -29 -238h-696q-6 -266 258 -266q131 0 297 70l-41 -217q-155 -53 -311 -53t-248 50t-158 169q-111 -219 -455 -220q-168 0 -261 78t-93 232q0 367 627 366h141q6 27 6 62q0 166 -221 166q-174 0 -344 -82l39 223q184 59 354 59z" />
    <glyph glyph-name="ccedilla" unicode="&#xe7;" horiz-adv-x="909"
d="M776 -250q0 -113 -92 -159t-213 -46t-262 64l35 115q100 -55 205 -56q45 0 86 20t41 59q0 40 -36 58q-68 34 -132 9l57 168q-176 20 -279 141q-102 121 -102 307q0 281 171 465t452 184q141 0 274 -41l-68 -225q-82 53 -200 53q-156 0 -249 -122t-93 -281
q0 -274 233 -275q113 0 223 54l-30 -217q-90 -43 -222 -48l-22 -67q223 0 223 -160z" />
    <glyph glyph-name="egrave" unicode="&#xe8;"
d="M891 1198h-174l-264 299h272zM365 631h464q6 37 7 71q0 176 -174 177q-120 1 -186 -63t-111 -185zM328 442q0 -141 74 -203q74 -63 226 -63q153 0 316 76l-35 -217q-193 -59 -336 -60q-235 0 -371 117q-136 118 -136 358t174 435t426 194q200 0 316 -102t116 -299
q0 -109 -27 -236h-743z" />
    <glyph glyph-name="eacute" unicode="&#xe9;"
d="M555 1198l166 299h272l-262 -299h-176zM365 631h464q6 37 7 71q0 176 -174 177q-120 1 -186 -63t-111 -185zM328 442q0 -141 74 -203q74 -63 226 -63q153 0 316 76l-35 -217q-193 -59 -336 -60q-235 0 -371 117q-136 118 -136 358t174 435t426 194q200 0 316 -102
t116 -299q0 -109 -27 -236h-743z" />
    <glyph glyph-name="ecircumflex" unicode="&#xea;"
d="M575 1198h-204l264 299h235l154 -299h-182l-103 191zM365 631h464q6 37 7 71q0 176 -174 177q-120 1 -186 -63t-111 -185zM328 442q0 -141 74 -203q74 -63 226 -63q153 0 316 76l-35 -217q-193 -59 -336 -60q-235 0 -371 117q-136 118 -136 358t174 435t426 194
q200 0 316 -102t116 -299q0 -109 -27 -236h-743z" />
    <glyph glyph-name="edieresis" unicode="&#xeb;"
d="M1061 1485l-51 -238h-234l51 238h234zM635 1485l-51 -238h-234l51 238h234zM365 631h464q6 37 7 71q0 176 -174 177q-120 1 -186 -63t-111 -185zM328 442q0 -141 74 -203q74 -63 226 -63q153 0 316 76l-35 -217q-193 -59 -336 -60q-235 0 -371 117q-136 118 -136 358
t174 435t426 194q200 0 316 -102t116 -299q0 -109 -27 -236h-743z" />
    <glyph glyph-name="igrave" unicode="&#xec;" horiz-adv-x="569"
d="M545 1198h-174l-265 299h273zM43 0l225 1055h275l-226 -1055h-274z" />
    <glyph glyph-name="iacute" unicode="&#xed;" horiz-adv-x="569"
d="M270 1198l166 299h273l-263 -299h-176zM43 0l225 1055h275l-226 -1055h-274z" />
    <glyph glyph-name="icircumflex" unicode="&#xee;" horiz-adv-x="569"
d="M291 1198h-205l264 299h236l153 -299h-182l-102 191zM43 0l225 1055h275l-226 -1055h-274z" />
    <glyph glyph-name="idieresis" unicode="&#xef;" horiz-adv-x="569"
d="M776 1485l-51 -238h-233l51 238h233zM350 1485l-51 -238h-233l51 238h233zM43 0l225 1055h275l-226 -1055h-274z" />
    <glyph glyph-name="eth" unicode="&#xf0;" horiz-adv-x="1251"
d="M1192 657q0 -321 -177 -501t-452 -181q-223 0 -351 128t-128 371t171 412t409 169q131 0 217 -56h4q-82 147 -168 240l-213 -96l-111 123l197 88q-55 43 -135 84l194 123q98 -55 162 -107l238 107l108 -121l-221 -101q256 -268 256 -682zM696 842q-152 0 -238 -124
t-87 -282q0 -114 52 -182t163 -66q147 0 233 138t86 288q0 98 -48 163t-161 65z" />
    <glyph glyph-name="ntilde" unicode="&#xf1;" horiz-adv-x="1251"
d="M899 1253q-51 0 -145 41t-133 41q-39 -1 -68 -31t-33 -69h-104q41 248 237 248q59 0 153 -41t131 -41q73 0 99 96h105q-35 -244 -242 -244zM814 1079q159 0 253 -91t94 -247q0 -70 -35 -229l-110 -512h-275l103 498q30 154 30 220t-42 108q-42 40 -107 40
q-221 0 -295 -336l-113 -530h-274l195 903q23 113 26 152h268l-18 -103h4q137 127 296 127z" />
    <glyph glyph-name="ograve" unicode="&#xf2;" horiz-adv-x="1251"
d="M887 1198h-174l-264 299h272zM709 1079q217 0 350 -124t133 -339q0 -280 -175 -460t-454 -181q-223 0 -351 129t-128 353q0 264 179 443q180 179 446 179zM586 188q100 0 176 71t109 165q34 94 34 190q0 252 -209 252q-102 0 -179 -70q-146 -132 -146 -360
q0 -248 215 -248z" />
    <glyph glyph-name="oacute" unicode="&#xf3;" horiz-adv-x="1251"
d="M612 1198l166 299h273l-263 -299h-176zM709 1079q217 0 350 -124t133 -339q0 -280 -175 -460t-454 -181q-223 0 -351 129t-128 353q0 264 179 443q180 179 446 179zM586 188q100 0 176 71t109 165q34 94 34 190q0 252 -209 252q-102 0 -179 -70q-146 -132 -146 -360
q0 -248 215 -248z" />
    <glyph glyph-name="ocircumflex" unicode="&#xf4;" horiz-adv-x="1251"
d="M633 1198h-205l264 299h236l153 -299h-182l-102 191zM709 1079q217 0 350 -124t133 -339q0 -280 -175 -460t-454 -181q-223 0 -351 129t-128 353q0 264 179 443q180 179 446 179zM586 188q100 0 176 71t109 165q34 94 34 190q0 252 -209 252q-102 0 -179 -70
q-146 -132 -146 -360q0 -248 215 -248z" />
    <glyph glyph-name="otilde" unicode="&#xf5;" horiz-adv-x="1251"
d="M899 1253q-51 0 -145 41t-133 41q-39 -1 -68 -31t-33 -69h-104q41 248 237 248q59 0 153 -41t131 -41q73 0 99 96h105q-35 -244 -242 -244zM709 1079q217 0 350 -124t133 -339q0 -280 -175 -460t-454 -181q-223 0 -351 129t-128 353q0 264 179 443q180 179 446 179z
M586 188q100 0 176 71t109 165q34 94 34 190q0 252 -209 252q-102 0 -179 -70q-146 -132 -146 -360q0 -248 215 -248z" />
    <glyph glyph-name="odieresis" unicode="&#xf6;" horiz-adv-x="1251"
d="M1118 1485l-51 -238h-233l51 238h233zM692 1485l-51 -238h-233l51 238h233zM709 1079q217 0 350 -124t133 -339q0 -280 -175 -460t-454 -181q-223 0 -351 129t-128 353q0 264 179 443q180 179 446 179zM586 188q100 0 176 71t109 165q34 94 34 190q0 252 -209 252
q-102 0 -179 -70q-146 -132 -146 -360q0 -248 215 -248z" />
    <glyph glyph-name="divide" unicode="&#xf7;" horiz-adv-x="1228"
d="M645 268q63 0 111 -46t47 -112q0 -66 -47 -111q-46 -46 -110 -46t-111 47q-47 46 -47 110t46 111q48 47 111 47zM645 768q-63 0 -110 47t-47 111t46 110q48 47 111 47t111 -46q48 -45 47 -111q1 -66 -47 -112t-111 -46zM1165 412h-1040v213h1040v-213z" />
    <glyph glyph-name="oslash" unicode="&#xf8;" horiz-adv-x="1251"
d="M1192 616q0 -280 -175 -460t-454 -181q-141 0 -237 52l-140 -187l-92 68l135 180q-145 129 -145 381t179 431t446 179q129 0 225 -45l125 168l92 -67l-119 -160q160 -123 160 -359zM696 866q-102 0 -179 -70q-146 -132 -146 -360q-1 -72 22 -129l402 539q-35 20 -99 20z
M600 188q86 0 162 71t109 165q35 94 35 186t-29 156l-408 -547q45 -31 131 -31z" />
    <glyph glyph-name="ugrave" unicode="&#xf9;" horiz-adv-x="1251"
d="M887 1198h-174l-264 299h272zM458 -25q-159 -1 -253 91t-94 247q0 70 34 230l111 512h274l-102 -498q-31 -155 -31 -221t42 -107t108 -41q221 0 295 336l112 531h275l-195 -903q-23 -113 -26 -152h-269l19 102h-4q-137 -127 -296 -127z" />
    <glyph glyph-name="uacute" unicode="&#xfa;" horiz-adv-x="1251"
d="M612 1198l166 299h273l-263 -299h-176zM458 -25q-159 -1 -253 91t-94 247q0 70 34 230l111 512h274l-102 -498q-31 -155 -31 -221t42 -107t108 -41q221 0 295 336l112 531h275l-195 -903q-23 -113 -26 -152h-269l19 102h-4q-137 -127 -296 -127z" />
    <glyph glyph-name="ucircumflex" unicode="&#xfb;" horiz-adv-x="1251"
d="M633 1198h-205l264 299h236l153 -299h-182l-102 191zM458 -25q-159 -1 -253 91t-94 247q0 70 34 230l111 512h274l-102 -498q-31 -155 -31 -221t42 -107t108 -41q221 0 295 336l112 531h275l-195 -903q-23 -113 -26 -152h-269l19 102h-4q-137 -127 -296 -127z" />
    <glyph glyph-name="udieresis" unicode="&#xfc;" horiz-adv-x="1251"
d="M1118 1485l-51 -238h-233l51 238h233zM692 1485l-51 -238h-233l51 238h233zM458 -25q-159 -1 -253 91t-94 247q0 70 34 230l111 512h274l-102 -498q-31 -155 -31 -221t42 -107t108 -41q221 0 295 336l112 531h275l-195 -903q-23 -113 -26 -152h-269l19 102h-4
q-137 -127 -296 -127z" />
    <glyph glyph-name="yacute" unicode="&#xfd;"
d="M555 1198l166 299h272l-262 -299h-176zM108 -455q-104 0 -208 29l61 209q66 -25 125 -25t113 41q53 41 123 150l-187 1106h281l98 -785h4l420 785h301l-715 -1215q-53 -90 -96 -144t-129 -102q-87 -48 -191 -49z" />
    <glyph glyph-name="thorn" unicode="&#xfe;" horiz-adv-x="1251"
d="M903 643q0 99 -50 161t-142 62q-129 0 -210 -137t-81 -271t43 -202t143 -68t173 82t99 178t25 195zM803 1079q190 0 289 -116q98 -117 98 -301q0 -391 -246 -584q-129 -102 -303 -103q-233 0 -291 189h-4l-121 -594h-274l411 1966h275l-129 -596h4q31 51 110 95t181 44z
" />
    <glyph glyph-name="ydieresis" unicode="&#xff;"
d="M1061 1485l-51 -238h-234l51 238h234zM635 1485l-51 -238h-234l51 238h234zM108 -455q-104 0 -208 29l61 209q66 -25 125 -25t113 41q53 41 123 150l-187 1106h281l98 -785h4l420 785h301l-715 -1215q-53 -90 -96 -144t-129 -102q-87 -48 -191 -49z" />
    <glyph glyph-name="dotlessi" unicode="&#x131;" horiz-adv-x="569"
d="M43 0l225 1055h275l-226 -1055h-274z" />
    <glyph glyph-name="Lslash" unicode="&#x141;" horiz-adv-x="1024"
d="M53 0l105 498l-170 -90l41 188l168 90l153 744h287l-119 -574l387 205l-39 -189l-387 -204l-92 -443h555l-47 -225h-842z" />
    <glyph glyph-name="lslash" unicode="&#x142;" horiz-adv-x="569"
d="M43 0l125 600l-166 -88l39 188l166 88l155 748h275l-121 -584l166 88l-41 -188l-164 -88l-160 -764h-274z" />
    <glyph glyph-name="OE" unicode="&#x152;" horiz-adv-x="1933"
d="M440 625q0 -184 98 -298t277 -114q62 0 123 12l205 979q-66 12 -146 13q-249 0 -403 -171t-154 -421zM1184 0q-176 0 -281 -6l-158 -6q-276 0 -440 180t-164 457q-1 365 225 591t609 226l473 -12h557l-45 -226h-528l-74 -352h477l-45 -225h-479l-84 -402h538l-47 -225
h-534z" />
    <glyph glyph-name="oe" unicode="&#x153;" horiz-adv-x="1933"
d="M1630 715q0 176 -170 176q-90 0 -165 -77q-76 -77 -101 -183h428q8 53 8 84zM371 440q0 -264 202 -264q152 0 236 142t84 309q0 111 -50 181q-49 70 -149 71q-100 0 -179 -75q-144 -137 -144 -364zM1425 176q131 0 297 70l-41 -217q-156 -53 -333 -54q-272 0 -365 197
q-63 -100 -180 -148t-240 -49q-223 0 -351 129t-128 353q0 262 175 442t421 180q317 0 405 -196q82 109 168 153t220 43q197 0 309 -102t110 -297q1 -115 -28 -238h-697q-6 -266 258 -266z" />
    <glyph glyph-name="Scaron" unicode="&#x160;"
d="M1171 1810l-264 -299h-235l-154 299h182l103 -188l164 188h204zM768 1229q-92 0 -166 -40q-74 -41 -74 -113t50 -122t122 -91q72 -40 144 -88t122 -130t50 -192q0 -246 -165 -362t-423 -116q-188 0 -408 80l74 244q213 -98 338 -98t205 57t80 173t-172 207
q-72 38 -144 82q-71 44 -121 121t-50 183t43 192q82 157 289 212q93 26 200 26q213 0 371 -63l-68 -236q-143 74 -297 74z" />
    <glyph glyph-name="scaron" unicode="&#x161;" horiz-adv-x="909"
d="M954 1497l-264 -299h-235l-154 299h182l103 -188l164 188h204zM793 319q0 -85 -40 -158q-100 -182 -436 -186q-186 0 -321 64l59 219q147 -82 243 -82q208 0 208 117q0 79 -126 157q-52 32 -105 68q-127 90 -125 225q0 250 292 318q78 18 186 18t277 -43l-59 -207
q-226 83 -354 25q-56 -25 -56 -72t37 -82q37 -36 89 -68t105 -71q126 -94 126 -242z" />
    <glyph glyph-name="Ydieresis" unicode="&#x178;" horiz-adv-x="1366"
d="M1278 1798l-51 -237h-234l51 237h234zM852 1798l-51 -237h-234l51 237h234zM430 0l125 592l-336 838h303l213 -601l465 601h334l-692 -838l-125 -592h-287z" />
    <glyph glyph-name="Zcaron" unicode="&#x17d;"
d="M1171 1810l-264 -299h-235l-154 299h182l103 -188l164 188h204zM254 1204l49 226h981l-49 -226l-862 -979h651l-47 -225h-1004l45 225l861 979h-625z" />
    <glyph glyph-name="zcaron" unicode="&#x17e;" horiz-adv-x="1024"
d="M1012 1497l-264 -299h-236l-154 299h183l102 -188l164 188h205zM1053 1055l-45 -213l-646 -629h529l-39 -213h-883l43 213l650 629h-486l47 213h830z" />
    <glyph glyph-name="florin" unicode="&#x192;"
d="M1012 1454q126 0 248 -33l-64 -200q-40 20 -120 20t-120 -46t-61 -144l-51 -220h237l-37 -163h-233l-115 -531q-58 -289 -113 -394q-56 -105 -125 -143q-178 -98 -454 -16l64 201q63 -27 112 -27q90 6 133 66t72 201l135 643h-241l40 163h240q59 270 94 367
q57 140 145 198t214 58z" />
    <glyph glyph-name="circumflex" unicode="&#x2c6;" horiz-adv-x="569"
d="M291 1198h-205l264 299h236l153 -299h-182l-102 191z" />
    <glyph glyph-name="caron" unicode="&#x2c7;" horiz-adv-x="569"
d="M784 1497l-264 -299h-235l-154 299h182l103 -188l164 188h204z" />
    <glyph glyph-name="uni02C9" unicode="&#x2c9;" horiz-adv-x="569"
d="M109 1266l32 164h609l-31 -164h-610z" />
    <glyph glyph-name="breve" unicode="&#x2d8;" horiz-adv-x="569"
d="M129 1481h143q11 -148 174 -150q100 0 160 51q37 35 66 99h147q-27 -104 -92 -181q-102 -116 -274 -116t-248 83t-76 214z" />
    <glyph glyph-name="dotaccent" unicode="&#x2d9;" horiz-adv-x="569"
d="M563 1485l-51 -238h-233l51 238h233z" />
    <glyph glyph-name="ring" unicode="&#x2da;" horiz-adv-x="569"
d="M680 1407q0 45 -30 75t-74 29t-74 -31t-29 -74q0 -44 30 -73q29 -29 73 -29t74 30q30 28 30 73zM791 1408q0 -86 -65 -150t-151 -64t-149 63q-64 63 -64 149t64 152q64 64 150 64q87 0 151 -64t64 -150z" />
    <glyph glyph-name="ogonek" unicode="&#x2db;" horiz-adv-x="569"
d="M252 -332q72 0 117 78l98 -41q-90 -160 -274 -160q-70 0 -126 33q-57 33 -57 104q0 72 76 158t231 160h140q-270 -162 -271 -250q0 -34 16 -58t50 -24z" />
    <glyph glyph-name="tilde" unicode="&#x2dc;" horiz-adv-x="569"
d="M557 1253q-51 0 -145 41t-133 41q-39 -1 -68 -31t-33 -69h-104q41 248 237 248q59 0 153 -41t131 -41q73 0 99 96h105q-35 -244 -242 -244z" />
    <glyph glyph-name="hungarumlaut" unicode="&#x2dd;" horiz-adv-x="569"
d="M639 1497h272l-262 -299h-176zM236 1497h272l-262 -299h-176z" />
    <glyph glyph-name="uni03A9" unicode="&#x3a9;" horiz-adv-x="1447"
d="M1012 195h284l-41 -195h-530l31 143q127 72 232 225t155 380q52 296 -74 427q-70 73 -184 72q-168 0 -302 -144t-182 -366q-41 -227 -2 -377t133 -217l-28 -143h-531l41 195h281l2 6q-88 102 -128 252t-1 331q59 281 274 472t486 192q186 0 307 -98t159 -244t0 -320
q-38 -175 -144 -331t-238 -254v-6z" />
    <glyph glyph-name="uni03BC" unicode="&#x3bc;" horiz-adv-x="1251"
d="M397 336q0 -66 42 -107t108 -41q221 0 295 336l112 531h275l-195 -903q-23 -113 -26 -152h-269l19 102h-4q-137 -127 -299 -127q-84 0 -131 70l-99 -475h-274l309 1485h270l-102 -498q-31 -155 -31 -221z" />
    <glyph glyph-name="pi" unicode="&#x3c0;" horiz-adv-x="1216"
d="M1241 864h-147l-119 -561q-41 -190 -37 -303h-233q-20 59 26 291l123 573h-297q-51 -199 -144 -460t-173 -404h-234q86 172 178 428t135 436q-131 0 -208 -20l6 160q106 66 340 65h848z" />
    <glyph glyph-name="uni2010" unicode="&#x2010;" horiz-adv-x="796"
d="M121 438l47 226h539l-48 -226h-538z" />
    <glyph glyph-name="endash" unicode="&#x2013;" horiz-adv-x="1024"
d="M1020 457h-1024l41 188h1024z" />
    <glyph glyph-name="emdash" unicode="&#x2014;" horiz-adv-x="2048"
d="M-4 457l41 188h2048l-41 -188h-2048z" />
    <glyph glyph-name="quoteleft" unicode="&#x2018;" horiz-adv-x="569"
d="M442 1430h248l-209 -512h-309z" />
    <glyph glyph-name="quoteright" unicode="&#x2019;" horiz-adv-x="569"
d="M193 918l208 512h310l-273 -512h-245z" />
    <glyph glyph-name="quotesinglbase" unicode="&#x201a;" horiz-adv-x="569"
d="M170 -225h-246l209 512h309z" />
    <glyph glyph-name="quotedblleft" unicode="&#x201c;" horiz-adv-x="1024"
d="M897 1430h248l-209 -512h-309zM442 1430h248l-209 -512h-309z" />
    <glyph glyph-name="quotedblright" unicode="&#x201d;" horiz-adv-x="1024"
d="M440 918h-247l208 512h310zM895 918h-248l209 512h309z" />
    <glyph glyph-name="quotedblbase" unicode="&#x201e;" horiz-adv-x="1024"
d="M625 -225h-246l209 512h309zM170 -225h-246l209 512h309z" />
    <glyph glyph-name="dagger" unicode="&#x2020;"
d="M784 891l-184 -891h-254l184 891h-307l45 213h307l68 326h254l-68 -326h314l-45 -213h-314z" />
    <glyph glyph-name="daggerdbl" unicode="&#x2021;"
d="M664 301l-64 -301h-254l64 301h-316l41 201h316l92 434h-320l41 201h320l61 293h254l-61 -293h317l-41 -201h-317l-90 -434h317l-41 -201h-319z" />
    <glyph glyph-name="bullet" unicode="&#x2022;" horiz-adv-x="1024"
d="M205 715q0 147 104 251q103 104 251 105q148 0 254 -104q106 -103 106 -251t-106 -254t-252 -106q-148 0 -253 106q-104 106 -104 253z" />
    <glyph glyph-name="ellipsis" unicode="&#x2026;" horiz-adv-x="2048"
d="M1470 0l60 287h287l-60 -287h-287zM788 0l60 287h287l-60 -287h-287zM106 0l60 287h287l-60 -287h-287z" />
    <glyph glyph-name="perthousand" unicode="&#x2030;" horiz-adv-x="2048"
d="M80 -45l1110 1520h174l-1110 -1520h-174zM1673 123q57 -1 95 65q61 105 61 254q0 94 -80 95q-43 0 -84 -45t-66 -181q-8 -49 -8 -86q0 -102 82 -102zM1662 -25q-128 1 -194 61t-65 193q0 183 92 319t264 136q113 0 186 -67t73 -183t-32 -216q-32 -99 -114 -171t-210 -72z
M987 123q57 -1 95 65q61 105 61 254q0 94 -80 95q-43 0 -84 -45t-66 -181q-8 -49 -8 -86q0 -102 82 -102zM1331 438q1 -262 -145 -391q-82 -72 -210 -72q-128 1 -194 61t-65 193q0 183 92 319t264 136q113 0 185 -67t73 -179zM381 893q57 -1 95 65q58 100 61 254
q0 94 -80 95q-43 0 -84 -45t-66 -181q-8 -49 -8 -86q0 -102 82 -102zM725 1208q1 -262 -145 -391q-82 -72 -210 -72q-128 1 -194 61t-65 193q0 183 92 319t264 136q113 0 185 -66t73 -180z" />
    <glyph glyph-name="guilsinglleft" unicode="&#x2039;" horiz-adv-x="796"
d="M94 551l307 420h287l-323 -420l143 -420h-236z" />
    <glyph glyph-name="guilsinglright" unicode="&#x203a;" horiz-adv-x="796"
d="M702 551l-307 -420h-286l323 420l-143 420h235z" />
    <glyph glyph-name="fraction" unicode="&#x2044;" horiz-adv-x="342"
d="M516 1475h174l-860 -1520h-174z" />
    <glyph glyph-name="Euro" unicode="&#x20ac;"
d="M1072 1235q-148 0 -278 -86t-206 -229h606l-57 -125h-609q-23 -70 -32 -160h571l-55 -125h-510q16 -145 111 -227t241 -82t256 45l-35 -230q-125 -41 -305 -41q-260 1 -417 139t-158 396h-203l57 125h154q14 94 33 160h-185l58 125h174q106 240 323 387t475 147
q187 0 328 -55l-98 -213q-90 49 -239 49z" />
    <glyph glyph-name="afii61289" unicode="&#x2113;" horiz-adv-x="1036"
d="M770 1397q-56 0 -112 -79t-93 -257l-73 -342q313 285 358 500q37 178 -80 178zM788 1569q148 1 197 -99t16 -258q-68 -324 -557 -714l-16 -84q-23 -117 16 -178t121 -62q147 0 303 188l78 -100q-203 -279 -475 -278q-172 0 -240 95t-51 247q4 16 4 22q-18 -12 -60 -41
t-65 -43l-34 129q170 119 196 142l111 520q55 258 182 386q126 128 274 128z" />
    <glyph glyph-name="trademark" unicode="&#x2122;" horiz-adv-x="2048"
d="M387 578v688h-240v164h693v-164h-240v-688h-213zM1001 578v852h297l203 -533l201 533h297v-852h-201v602h-4l-217 -602h-154l-217 602h-4v-602h-201z" />
    <glyph glyph-name="Omega" unicode="&#x2126;" horiz-adv-x="1447"
d="M1012 195h284l-41 -195h-530l31 143q127 72 232 225t155 380q52 296 -74 427q-70 73 -184 72q-168 0 -302 -144t-182 -366q-41 -227 -2 -377t133 -217l-28 -143h-531l41 195h281l2 6q-88 102 -128 252t-1 331q59 281 274 472t486 192q186 0 307 -98t159 -244t0 -320
q-38 -175 -144 -331t-238 -254v-6z" />
    <glyph glyph-name="estimated" unicode="&#x212e;" horiz-adv-x="1982"
d="M1612 748v403q0 25 -21 49q-213 209 -499 209t-500 -217q-20 -18 -21 -49v-395q0 -14 13 -15h1018q10 1 10 15zM1913 694h-1329q-12 0 -13 -8v-403q0 -27 19 -45q213 -219 502 -220q156 0 292 66t238 178h119q-113 -131 -284 -208t-367 -77q-340 1 -580 217t-240 521
t240 522t581 217t581 -217t241 -522v-21z" />
    <glyph glyph-name="partialdiff" unicode="&#x2202;" horiz-adv-x="1161"
d="M451 184h2q113 0 216 133t158 308q-6 63 -58 121t-150 58q-99 0 -191 -102t-120 -231t12 -208t131 -79zM749 1608q225 0 343 -204t38 -580q-82 -376 -280 -608t-465 -232q-102 0 -176 44t-107 114q-76 161 -32 323q51 240 209 386t344 146q113 0 181 -55t89 -113h2
q67 269 -6 432q-67 148 -217 148t-291 -96l-31 178q174 117 399 117z" />
    <glyph glyph-name="uni2206" unicode="&#x2206;" horiz-adv-x="1337"
d="M236 195h718l-102 630q-4 51 -20 187t-19 182h-8q-16 -39 -87 -166t-93 -172zM-51 0l31 143l753 1315h285l182 -1313l-31 -145h-1220z" />
    <glyph glyph-name="product" unicode="&#x220f;" horiz-adv-x="1656"
d="M1606 1206h-211v-1403h-236v1403h-467v-1403h-237v1403h-209v219h1360v-219z" />
    <glyph glyph-name="summation" unicode="&#x2211;" horiz-adv-x="1327"
d="M1290 -197h-1048v154l501 657l-481 643v168h995v-204h-673v-7l430 -561l-475 -622v-6h751v-222z" />
    <glyph glyph-name="minus" unicode="&#x2212;" horiz-adv-x="1228"
d="M1165 412h-1040v213h1040v-213z" />
    <glyph glyph-name="uni2215" unicode="&#x2215;" horiz-adv-x="342"
d="M516 1475h174l-860 -1520h-174z" />
    <glyph glyph-name="uni2219" unicode="&#x2219;" horiz-adv-x="569"
d="M322 424q-63 0 -111 47q-47 47 -47 111t47 110q47 47 111 47t110 -46q47 -45 47 -111t-47 -112t-110 -46z" />
    <glyph glyph-name="radical" unicode="&#x221a;" horiz-adv-x="1398"
d="M1417 1706l-459 -1995h-192l-307 903l-152 -59l-41 135l336 133l219 -667q29 -134 41 -170l2 -2q4 20 14 84t17 96l354 1542h168z" />
    <glyph glyph-name="infinity" unicode="&#x221e;" horiz-adv-x="1671"
d="M1249 793h-2q-74 0 -135 -51t-112 -108q-36 -42 -42 -48q100 -121 160 -167t140 -46q79 0 130 64q50 65 50 150t-52 145t-137 61zM522 373h2q56 0 114 37q58 38 86 66t87 97q-61 80 -89 113t-86 70t-134 37q-76 1 -127 -61t-51 -151t56 -149t142 -59zM1575 590v-2
q0 -156 -96 -252t-230 -96q-92 0 -178 53t-186 180q-94 -115 -180 -174t-208 -59t-216 96q-95 96 -95 245t96 245t240 98q106 0 192 -60t177 -170q153 177 242 207q65 22 129 23q137 -2 225 -93t88 -241z" />
    <glyph glyph-name="integral" unicode="&#x222b;" horiz-adv-x="989"
d="M372 -166q136 0 136 335q0 214 -14 544q-14 331 -14 503t27 278q28 106 91 173q84 90 229 90q78 1 123 -24l-26 -164q-32 18 -86 18t-88 -51q-59 -76 -60 -346q0 -162 16 -484t15 -505q0 -272 -78 -410q-74 -139 -250 -139q-88 0 -153 33l30 172q57 -23 102 -23z" />
    <glyph glyph-name="approxequal" unicode="&#x2248;" horiz-adv-x="1210"
d="M854 254q-88 0 -229 82q-111 70 -167 70q-89 0 -150 -74q-19 -25 -54 -76l-88 80q47 92 125 148q156 112 360 -3q31 -16 59 -34q28 -17 67 -37t87 -19q48 0 89 36q40 36 89 112l86 -78q-106 -207 -274 -207zM856 627q-92 0 -231 82q-106 70 -179 69q-42 0 -80 -24
t-58 -48q-19 -24 -54 -75l-88 78q47 92 125 149t154 57t120 -19q45 -19 80 -38t55 -32t26 -16t22 -12q16 -10 23 -12t19 -8t22 -7t22 -3t24 -2q55 0 96 36t88 111l86 -77q-106 -209 -272 -209z" />
    <glyph glyph-name="notequal" unicode="&#x2260;" horiz-adv-x="1247"
d="M1149 858v-139h-338l-123 -281h461v-139h-516l-103 -233l-110 45l84 188h-283v139h336l123 281h-459v139h512l103 229l110 -45l-82 -184h285z" />
    <glyph glyph-name="lessequal" unicode="&#x2264;" horiz-adv-x="1286"
d="M1190 -18h-928v141h928v-141zM1182 201l-912 456v152l912 455v-164l-770 -365v-4l770 -364v-166z" />
    <glyph glyph-name="greaterequal" unicode="&#x2265;" horiz-adv-x="1284"
d="M1186 -18h-922v141h922v-141zM274 1264l912 -457v-150l-912 -456v166l768 364v4l-768 365v164z" />
    <glyph glyph-name="lozenge" unicode="&#x25ca;" horiz-adv-x="1398"
d="M1085 707l-241 501q-29 72 -39 119h-6q-12 -55 -39 -119l-244 -491l246 -510q25 -63 35 -113h8q12 55 35 111zM1298 711l-407 -809h-191l-395 809l406 811h190z" />
    <glyph glyph-name="fi" unicode="&#xfb01;" horiz-adv-x="1366"
d="M840 0l225 1055h274l-225 -1055h-274zM1108 1247l57 262h275l-58 -262h-274zM826 1561q88 0 173 -27l-63 -205q-37 19 -86 19q-127 1 -182 -183q-12 -37 -20 -71t-9 -39h246l-43 -201h-246l-180 -854h-275l181 854h-213l43 201h213q36 182 95 293q109 213 366 213z" />
    <glyph glyph-name="fl" unicode="&#xfb02;" horiz-adv-x="1366"
d="M826 1561q88 0 173 -27l-63 -205q-37 19 -86 19q-127 1 -182 -183q-12 -37 -20 -71t-9 -39h246l-43 -201h-246l-180 -854h-275l181 854h-213l43 201h213q36 182 95 293q109 213 366 213zM840 0l325 1536h275l-326 -1536h-274z" />
    <glyph glyph-name="a.superior" horiz-adv-x="739"
d="M420 909q137 0 182 176h-41q-238 0 -237 -110q0 -31 30 -49t66 -17zM535 1454q276 0 276 -197q0 -47 -35 -221t-43 -233h-178l20 98h-4q-80 -115 -221 -115q-94 0 -148 48t-54 130q-1 160 155 200q125 32 266 32h60l6 55q0 37 -39 59t-94 21q-111 0 -226 -57l25 143
q113 37 234 37z" />
    <glyph glyph-name="o.superior" horiz-adv-x="813"
d="M162 1092q0 158 124 260t282 102t251 -71q94 -71 94 -207q0 -180 -120 -285q-121 -105 -286 -105t-255 74t-90 232zM565 1331q-81 0 -141 -79t-62 -164q-1 -179 140 -179q88 0 149 82t62 172q0 168 -148 168z" />
    <glyph glyph-name="one.superior" horiz-adv-x="739"
d="M268 1133l-80 116l312 193h209l-201 -864h-225l157 659z" />
    <glyph glyph-name="two.superior" horiz-adv-x="739"
d="M510 1454q123 0 217 -53t94 -174t-122 -251t-287 -218v-4h325l-28 -176h-654l29 143q18 14 127 97q109 82 141 108t70 55q120 89 144 138q45 90 -19 133q-37 26 -111 26t-205 -53l-6 174q162 55 285 55z" />
    <glyph glyph-name="three.superior" horiz-adv-x="739"
d="M500 1454q307 0 307 -207q1 -90 -63 -145t-156 -72v-4q156 -52 156 -164t-64 -180q-108 -117 -334 -117q-178 0 -293 51l33 152q102 -39 202 -39t158 29q59 29 60 86q0 90 -184 90h-72l24 164q295 0 295 121q0 33 -35 52q-36 19 -81 19q-136 0 -226 -39l19 166
q137 37 254 37z" />
    </font>
</defs>
</svg>
